<svg width="320" height="942" fill="none" xmlns="http://www.w3.org/2000/svg"><g opacity=".5" filter="url(#filter0_d)"><path d="M-16-34h502v877.462s-54.765 56.852-122.88 56.852c-68.114 0-101.797-28.422-152.696-28.422s-74.851 50.861-134.732 50.861C15.812 922.753-16 885-16 885V-34z" fill="url(#paint0_linear)"/><path d="M-16-36h-2v921.73l.47.559L-16 885a154.57 154.57 0 00-1.528 1.291l.002.002.007.008.022.026.08.093a51.93 51.93 0 001.455 1.584 86.629 86.629 0 004.527 4.379c3.996 3.609 9.942 8.406 17.783 13.2 15.686 9.59 38.965 19.17 69.344 19.17 30.57 0 51.959-13.019 71.814-25.747l2.278-1.462c19.066-12.246 36.824-23.652 60.64-23.652 23.287 0 42.912 6.024 64.302 12.59 1.657.509 3.326 1.021 5.007 1.534 23.348 7.121 49.027 14.298 83.387 14.298 34.596 0 65.697-14.427 88.061-28.741a237.417 237.417 0 0026.502-19.711 190.921 190.921 0 007.211-6.509 114.772 114.772 0 002.5-2.455l.033-.034.009-.01.003-.003c.001 0 .001-.001-1.439-1.389l1.44 1.388.56-.581V-36H-16z" stroke="#D7E6F6" stroke-width="4"/></g><defs><linearGradient id="paint0_linear" x1="-16" y1="531" x2="480.562" y2="824.328" gradientUnits="userSpaceOnUse"><stop stop-color="#F5F4E3"/><stop offset="1" stop-color="#8CBBE6"/></linearGradient><filter id="filter0_d" x="-25" y="-43" width="530" height="984.753" filterUnits="userSpaceOnUse" color-interpolation-filters="sRGB"><feFlood flood-opacity="0" result="BackgroundImageFix"/><feColorMatrix in="SourceAlpha" values="0 0 0 0 0 0 0 0 0 0 0 0 0 0 0 0 0 0 127 0"/><feOffset dx="5" dy="5"/><feGaussianBlur stdDeviation="5"/><feColorMatrix values="0 0 0 0 0.670938 0 0 0 0 0.777973 0 0 0 0 0.879062 0 0 0 1 0"/><feBlend in2="BackgroundImageFix" result="effect1_dropShadow"/><feBlend in="SourceGraphic" in2="effect1_dropShadow" result="shape"/></filter></defs></svg>