<svg width="716" height="479" fill="none" xmlns="http://www.w3.org/2000/svg"><g clip-path="url(#clip0)"><path d="M54.198 187.591a4.7 4.7 0 01-4.692-4.697 4.7 4.7 0 014.692-4.697 4.7 4.7 0 014.692 4.697 4.7 4.7 0 01-4.692 4.697zm0-7.515a2.82 2.82 0 00-2.815 2.818 2.82 2.82 0 002.815 2.818 2.82 2.82 0 002.815-2.818 2.82 2.82 0 00-2.815-2.818zM246.607 64.96a4.7 4.7 0 01-4.692-4.697 4.7 4.7 0 014.692-4.697 4.7 4.7 0 014.693 4.697 4.7 4.7 0 01-4.693 4.697zm0-7.515a2.82 2.82 0 00-2.815 2.818 2.82 2.82 0 002.815 2.818 2.82 2.82 0 002.816-2.818 2.82 2.82 0 00-2.816-2.818zm107.314 199.599a4.7 4.7 0 01-4.693-4.697 4.7 4.7 0 014.693-4.696 4.7 4.7 0 014.692 4.696 4.7 4.7 0 01-4.692 4.697zm0-7.515a2.82 2.82 0 00-2.816 2.818 2.82 2.82 0 002.816 2.818 2.82 2.82 0 002.815-2.818 2.82 2.82 0 00-2.815-2.818z" fill="#01AEB3"/><path d="M121.11 103.393a.943.943 0 01-.471-.127c-.185-.108-4.572-2.681-8.402-6.606-5.254-5.383-6.837-10.693-4.579-15.355a.914.914 0 01.065-.113c1.315-2.559 3.918-4.144 6.823-4.144a7.723 7.723 0 016.564 3.689 7.723 7.723 0 016.564-3.689c2.905 0 5.509 1.585 6.824 4.146a.89.89 0 01.064.11c2.258 4.663.675 9.972-4.579 15.355-3.83 3.925-8.217 6.499-8.402 6.606a.937.937 0 01-.471.128zM109.297 82.22c-4.035 8.603 9.12 17.442 11.813 19.136 2.693-1.694 15.848-10.532 11.812-19.136a.944.944 0 01-.05-.088c-.978-1.98-2.97-3.208-5.199-3.208-2.699 0-5.075 1.887-5.649 4.488a.937.937 0 01-1.829 0c-.574-2.6-2.95-4.488-5.649-4.488-2.228 0-4.221 1.23-5.199 3.208a.944.944 0 01-.05.088z" fill="#FF8681"/><path d="M653.315 317.088a4.7 4.7 0 01-4.692-4.697 4.7 4.7 0 014.692-4.697 4.7 4.7 0 014.693 4.697 4.7 4.7 0 01-4.693 4.697zm0-7.515a2.82 2.82 0 00-2.815 2.818 2.82 2.82 0 002.815 2.818 2.82 2.82 0 002.816-2.818 2.82 2.82 0 00-2.816-2.818z" fill="#01AEB3"/><path d="M455.425 65a4.7 4.7 0 01-4.692-4.697 4.7 4.7 0 014.692-4.697 4.7 4.7 0 014.692 4.697 4.7 4.7 0 01-4.692 4.696zm0-7.515a2.82 2.82 0 00-2.815 2.818 2.82 2.82 0 002.815 2.818 2.82 2.82 0 000-5.636z" fill="#FF8681"/><path d="M615.885 258.561c4.924 5.019 5.731 12.309 3.359 15.584-2.266 3.128-5.995.605-8.581 3.382-4.062 4.361 2.916 12.958-.025 18.764-3.036 5.994-12.167.173-18.497 5.342-7.761 6.337.899 19.22-5.642 27.393-6.261 7.823-24.528 8.932-35.715-2.567-9.876-10.152-10.927-26.732-4.635-33.125 7.35-7.468 21.484 2.252 27.446-5.723 5.352-7.16-3.239-18.741 2.926-23.501 5.158-3.981 12.756 2.896 19.792-1.874 4.621-3.133 3.914-7.84 8.848-8.318 3.403-.33 7.669 1.528 10.724 4.643z" fill="#FABAB6"/><path d="M540.661 344.474a.57.57 0 01-.64-.609c.655-8.348 12.118-23.931 34.073-46.317 16.296-16.617 32.614-31 32.777-31.143a.568.568 0 11.751.854c-.65.572-64.951 57.353-66.467 76.695a.569.569 0 01-.494.52z" fill="#fff"/><path d="M579.353 317.267c-.033.004-.067.006-.101.004l-21.819-1.081a.57.57 0 01-.537-.503l-1.99-17.141a.553.553 0 01.499-.631.57.57 0 01.631.5l1.934 16.662 21.338 1.057a.568.568 0 01.045 1.133zm22.705-27.897a.543.543 0 01-.196-.009l-14.946-3.33a.57.57 0 01-.437-.458l-2.685-15.46a.569.569 0 011.12-.195l2.621 15.085 14.575 3.247a.569.569 0 01-.052 1.12z" fill="#fff"/><path d="M539.215 288.064a.75.75 0 01-1.166-.563c-.784-9.643 7.785-26.204 25.47-49.225 13.109-17.063 26.62-31.526 26.755-31.67a.751.751 0 011.095 1.027c-.537.573-53.63 57.548-51.824 79.746a.752.752 0 01-.33.685z" fill="#8FD0D6"/><path d="M604.701 203.056c-6.108 4.107-13.648 5.039-13.777 5.054a.752.752 0 01-.826-.868c2.822-17.251 21.27-19.22 21.456-19.239a.753.753 0 01.822.719c.265 6.912-3.345 11.421-7.675 14.334zm-12.931 3.403c4.072-.726 18.971-4.242 19.117-16.852-3.42.539-16.319 3.449-19.117 16.852zm2.102 28.461c-9.947 6.69-24.522-2.391-24.69-2.497a.75.75 0 01-.124-1.171c12.485-12.273 28.579-1.688 28.74-1.58a.755.755 0 01.204 1.044c-1.226 1.819-2.626 3.192-4.13 4.204zm-23.042-3.274c3.609 2.009 17.886 9.01 25.473-1.13-1.315-.766-4.482-2.428-8.448-3.243-6.581-1.351-12.304.121-17.025 4.373z" fill="#8FD0D6"/><path d="M570.002 232.412a.751.751 0 01-.994-.142c-11.197-13.415-.628-28.677-.52-28.829a.747.747 0 011.081-.152c13.013 10.404.76 28.738.635 28.922a.757.757 0 01-.202.201zm-.737-27.418c-1.828 2.944-8.061 14.616.243 25.497 2.114-3.559 9.195-17.143-.243-25.497zm2.105 57.102c-9.078 6.106-23.399.611-23.576.542a.752.752 0 01-.331-1.142c10.3-14.132 28.523-6.734 28.706-6.658a.75.75 0 01.393 1.006c-1.297 2.834-3.106 4.849-5.192 6.252zm-22.076-.523c4.021 1.323 19.679 5.609 25.547-5.624-3.34-1.142-17.037-4.967-25.547 5.624z" fill="#8FD0D6"/><path d="M548.487 262.562a.748.748 0 01-.908-.054c-13.209-11.381-6.327-28.588-6.256-28.761a.75.75 0 011.06-.369c14.507 8.12 6.464 28.635 6.382 28.841a.745.745 0 01-.278.343zm-6.07-27.417c-1.102 3.359-4.45 16.241 5.321 25.484 1.329-4.024 5.294-18.773-5.321-25.484z" fill="#8FD0D6"/><path d="M537.544 189.207a16.62 16.62 0 01-5.324-.876c-9.426-3.162-15.273-13.914-17.38-31.958-2.16-18.501-.273-44.994 5.177-72.685.83-4.218 8.324-41.338 15.728-45.944 11.667-7.258 29.695 2.235 30.457 2.642l-2.366 4.435c-.162-.086-16.236-8.532-25.439-2.807-.088.055-2.191 1.488-6.002 13.085-2.641 8.034-5.302 18.61-7.493 29.782-5.354 27.3-7.189 53.261-5.035 71.228 2.353 19.613 8.884 25.756 13.95 27.455 6.559 2.2 14.246-1.641 22.846-11.42 11.473-13.046 24.052-36.462 34.513-64.244 4.234-11.246 7.748-22.334 9.895-31.22 2.482-10.273 2.373-14.568 1.969-15.405-5.776-11.642-19.203-10.903-19.337-10.894l-.328-5.017c.687-.045 16.916-.934 24.164 13.676.49.987 1.981 3.992-1.547 18.66-2.17 9.023-5.722 20.27-10.002 31.669-4.771 12.706-10.244 25.092-15.827 35.819-6.537 12.56-13.08 22.639-19.449 29.957-8.141 9.353-15.91 14.062-23.17 14.062z" fill="#BEC5D9"/><path d="M537.555 190.888a18.32 18.32 0 01-5.867-.968c-7.977-2.676-13.567-10.277-16.616-22.593-2.417-9.762-3.269-22.506-2.534-37.878l8.362.401c-1.425 29.781 3.476 48.78 13.448 52.125 4.839 1.623 10.577-.655 17.056-6.77 6.346-5.989 13.045-15.307 19.911-27.696l7.32 4.065c-7.284 13.144-14.514 23.146-21.488 29.728-6.758 6.379-13.324 9.586-19.592 9.586z" fill="#01CED3"/><path d="M565.484 47.092l-8.053-2.291a3.353 3.353 0 01-2.306-4.14l.916-3.225a3.348 3.348 0 014.136-2.307l8.053 2.29a3.351 3.351 0 012.305 4.14l-.915 3.225a3.348 3.348 0 01-4.136 2.308zm22.547 6.414l-8.052-2.29a3.353 3.353 0 01-2.306-4.141l.916-3.224a3.348 3.348 0 014.136-2.308l8.053 2.29a3.351 3.351 0 012.305 4.141l-.915 3.224a3.349 3.349 0 01-4.137 2.308z" fill="#017280"/><path d="M585.386 455.632c-3.696 0-7.446-.187-11.238-.56-11.229-1.107-22.575-3.837-33.723-8.115l2.996-7.824c20.343 7.805 41.746 10.063 60.265 6.357 17.677-3.538 31.918-12.265 40.097-24.574 5.764-8.675 9.441-20.529 9.834-31.71.397-11.27-2.553-20.346-8.093-24.902-6.806-5.597-15.931-3.135-34.287 2.504-10.823 3.324-24.294 7.462-40.909 10.275-25.107 4.251-54.094 4.92-77.542 1.789-34.506-4.608-44.201-15.14-46.257-23.164-1.48-5.775.138-11.546 4.947-17.64 3.944-4.998 9.793-10.066 16.566-15.933 15.271-13.229 36.186-31.347 49.336-61.775 9.603-22.222 13.461-47.154 11.466-74.102l8.349-.62c2.096 28.313-1.986 54.572-12.131 78.049-13.909 32.185-35.66 51.026-51.541 64.784-13.238 11.467-20.642 18.29-18.882 25.155.92 3.591 4.878 7.036 11.447 9.963 6.845 3.049 16.461 5.462 27.807 6.977 22.662 3.026 50.714 2.374 75.039-1.745 16.078-2.722 29.259-6.771 39.85-10.024 18.273-5.613 31.476-9.669 42.057-.967 16.358 13.453 13.386 47.454-.085 67.727-9.42 14.175-25.552 24.173-45.427 28.15-6.407 1.282-13.081 1.925-19.941 1.925z" fill="#01CED3"/><path d="M541.795 462.345c10.634 0 19.255-8.629 19.255-19.273s-8.621-19.273-19.255-19.273c-10.634 0-19.254 8.629-19.254 19.273s8.62 19.273 19.254 19.273z" fill="#BEC5D9"/><path d="M541.795 453.127c5.549 0 10.046-4.501 10.046-10.055 0-5.553-4.497-10.055-10.046-10.055-5.548 0-10.046 4.502-10.046 10.055 0 5.554 4.498 10.055 10.046 10.055z" fill="#DAEBFF"/><path d="M133.642 332.261a.848.848 0 00.742-.435c4.433-7.957 3.559-25.459-2.599-52.023-4.56-19.67-10.474-37.278-10.533-37.453a.849.849 0 10-1.607.543c.235.697 23.391 69.92 13.258 88.106a.848.848 0 00.739 1.262z" fill="#FABAB6"/><path d="M119.901 243.551c-.18-.109-17.906-10.998-10.829-25.083a.849.849 0 011.181-.354c.153.088 15.225 9.005 10.903 24.932a.845.845 0 01-1.255.505zm-6.737-8.202c2.369 2.938 5.183 5.089 6.636 6.101 2.599-12.103-6.754-19.443-9.61-21.368-2.153 5.012-1.155 10.143 2.974 15.267zm-8.152 24.638a.848.848 0 01.698-.978c.18-.029 18.142-2.814 24.071 12.625a.851.851 0 01-.675 1.145c-.057.008-1.588.207-3.86.207-6.307.001-18.314-1.54-20.234-12.999zm10.116 1.131c-3.552-.816-6.78-.673-8.271-.536 1.215 5.307 5.125 8.695 11.636 10.079 3.801.808 7.493.68 9.275.545-2.373-5.314-6.62-8.706-12.64-10.088z" fill="#FABAB6"/><path d="M128.601 272.693a.847.847 0 01-.447-.61c-.036-.207-3.391-20.752 11.885-24.599a.844.844 0 011.039.663c.033.173 3.144 17.419-11.722 24.557a.855.855 0 01-.755-.011zm1.35-11.075c-.673 3.715-.459 7.253-.275 9.015 10.849-5.944 10.285-17.826 9.873-21.248-5.197 1.646-8.424 5.756-9.598 12.233zm5.641 45.271c-.222-.012-5.508-.316-10.887-2.522-7.287-2.991-11.146-8.045-11.16-14.616a.85.85 0 01.876-.849c.187.006 18.723.789 22.047 16.969a.848.848 0 01-.83 1.02l-.046-.002zm-1.049-1.803c-1.489-5.632-5.193-9.761-11.024-12.282-3.439-1.486-6.714-1.978-8.247-2.135.756 11.416 15.081 13.926 19.271 14.417z" fill="#FABAB6"/><path d="M135.113 306.709a.85.85 0 01-.323-.705c.01-.21 1.123-20.973 16.782-22.266a.845.845 0 01.917.877c-.007.175-.823 17.643-16.615 22.241a.85.85 0 01-.761-.147zm1.485-1.867c11.621-4.096 13.74-15.78 14.118-19.298-11.203 1.667-13.632 15.112-14.118 19.298z" fill="#FABAB6"/><path d="M97.948 293.44c4.132-2.63 10.123-1.411 12.15 1.666 2.171 3.296-1.482 6.786.435 9.574 3.104 4.512 14.988-1.282 18.152 3.133 2.194 3.06-2.581 7.143-.59 11.771 2.381 5.535 10.725 3.216 15.222 8.457 5.409 6.303 4.178 22.288-6.453 29.109-8.643 5.544-21.423 3.699-25.18-2.404-4.141-6.729 4.596-15.531.155-21.345-4.456-5.836-16.516-1.238-18.59-6.016-1.788-4.121 6.689-8.684 5.18-15.873-.93-4.428-4.67-5.188-4.78-9.819-.069-2.973 1.385-6.399 4.299-8.253z" fill="#8FD0D6"/><path d="M141.2 371.628a.85.85 0 01-.833-.697c-5.39-29.625-32.06-55.564-32.328-55.823a.85.85 0 011.175-1.224c.273.263 27.334 26.585 32.822 56.743a.85.85 0 01-.836 1.001z" fill="#C3E3E6"/><path d="M502.605 386.922c0 8.007-6.484 14.497-14.483 14.497-8 0-14.484-6.49-14.484-14.497V232.82h28.968v154.102h-.001z" fill="#CBDAED"/><path d="M502.605 386.922c0 8.007-6.484 14.497-14.483 14.497-8 0-14.484-6.49-14.484-14.497V232.82h28.968v154.102h-.001z" fill="#E6ECF3"/><path d="M502.605 236.041h-28.967a.804.804 0 110-1.611h28.967a.805.805 0 010 1.611z" fill="#CBDAED"/><path d="M499.387 319.251v67.671c0 6.218-5.053 11.276-11.265 11.276-6.212 0-11.266-5.058-11.266-11.276v-72.895c1.974-.816 3.97-1.133 5.901-.666 2.173.526 3.546 1.874 4.871 3.259 1.491 1.563 2.913 3.174 5.321 3.721 1.706.392 3.815.226 6.438-1.09z" fill="#FA938E"/><path d="M495.699 254.297h-15.155a3.689 3.689 0 01-3.688-3.69v-18.861h22.531v18.861a3.689 3.689 0 01-3.688 3.69z" fill="#FF8681"/><path opacity=".4" d="M502.605 234.43h-28.967a.806.806 0 000 1.611h3.218v77.986c1.974-.816 3.97-1.133 5.901-.666 2.173.526 3.546 1.874 4.871 3.259 1.491 1.563 2.913 3.173 5.321 3.721 1.706.392 3.814.226 6.438-1.09v-83.21h3.218a.804.804 0 100-1.611z" fill="#CBDAED"/><path d="M499.387 312.287h-22.531v26.31h22.531v-26.31z" fill="#FA938E"/><path d="M502.605 234.43h-29.504a2.147 2.147 0 01-2.146-2.148v-29.531c0-1.186.961-2.148 2.146-2.148h29.504c1.185 0 2.146.962 2.146 2.148v29.532a2.146 2.146 0 01-2.146 2.147z" fill="#FF8681"/><path d="M477.393 228.883a.762.762 0 01-.762-.762v-21.209a.762.762 0 111.523 0v21.209a.762.762 0 01-.761.762zm6.974 0a.762.762 0 01-.762-.762v-21.209a.762.762 0 111.523 0v21.209a.762.762 0 01-.761.762zm6.973 0a.762.762 0 01-.762-.762v-21.209a.762.762 0 111.523 0v21.209a.762.762 0 01-.761.762zm6.974 0a.76.76 0 01-.761-.762v-21.209a.76.76 0 111.522 0v21.209a.762.762 0 01-.761.762z" fill="#FF6059"/><path d="M476.853 320.341h-3.215v-49.935h3.215a3.224 3.224 0 013.222 3.225v43.485a3.224 3.224 0 01-3.222 3.225z" fill="#ECF4FC"/><path d="M548.203 386.922c0 8.007-6.485 14.497-14.484 14.497s-14.484-6.49-14.484-14.497V232.82h28.968v154.102z" fill="#CBDAED"/><path d="M548.203 386.922c0 8.007-6.485 14.497-14.484 14.497s-14.484-6.49-14.484-14.497V232.82h28.968v154.102z" fill="#E6ECF3"/><path d="M548.203 236.041h-28.968a.804.804 0 010-1.611h28.968a.805.805 0 010 1.611z" fill="#CBDAED"/><path d="M541.297 254.297h-15.156a3.689 3.689 0 01-3.687-3.69v-18.861h22.53v18.861a3.689 3.689 0 01-3.687 3.69z" fill="#FF8681"/><path opacity=".4" d="M548.203 234.43h-28.968a.805.805 0 000 1.611h3.219v77.986c1.974-.816 3.969-1.133 5.901-.666 2.172.526 3.545 1.874 4.871 3.259 1.491 1.563 2.912 3.173 5.321 3.721 1.706.392 3.814.226 6.437-1.09v-83.21h3.219a.805.805 0 000-1.611z" fill="#CBDAED"/><path d="M544.984 300.995v85.927c0 6.218-5.053 11.276-11.265 11.276-6.212 0-11.265-5.058-11.265-11.276v-91.151c1.974-.817 3.969-1.133 5.901-.666 2.172.526 3.545 1.874 4.87 3.259 1.492 1.562 2.913 3.173 5.322 3.721 1.706.392 3.814.226 6.437-1.09z" fill="#FA938E"/><path d="M544.984 293.494h-22.53v26.31h22.53v-26.31z" fill="#FA938E"/><path d="M548.203 234.43h-29.504a2.147 2.147 0 01-2.146-2.148v-29.531c0-1.186.96-2.148 2.146-2.148h29.504c1.185 0 2.146.962 2.146 2.148v29.532a2.146 2.146 0 01-2.146 2.147z" fill="#FF8681"/><path d="M522.99 228.883a.762.762 0 01-.761-.762v-21.209a.762.762 0 111.522 0v21.209a.76.76 0 01-.761.762zm6.974 0a.762.762 0 01-.761-.762v-21.209a.762.762 0 111.522 0v21.209a.762.762 0 01-.761.762zm6.974 0a.762.762 0 01-.762-.762v-21.209a.762.762 0 111.523 0v21.209a.762.762 0 01-.761.762zm6.973 0a.762.762 0 01-.761-.762v-21.209a.762.762 0 111.522 0v21.209a.762.762 0 01-.761.762z" fill="#FF6059"/><path d="M540.159 270.406h8.044v49.935h-8.044a3.224 3.224 0 01-3.222-3.225v-43.485a3.224 3.224 0 013.222-3.225z" fill="#ECF4FC"/><path d="M573.952 285.977H402.828a4.293 4.293 0 01-4.291-4.296v-14.497a4.293 4.293 0 014.291-4.295h171.124a4.293 4.293 0 014.291 4.295v14.497a4.293 4.293 0 01-4.291 4.296zm-.537 122.423H402.291a4.293 4.293 0 01-4.291-4.296v-8.054a4.293 4.293 0 014.291-4.295h171.124a4.293 4.293 0 014.292 4.295v8.054a4.293 4.293 0 01-4.292 4.296z" fill="#8FD0D6"/><path d="M413.556 272.017h-10.192v119.738h10.192V272.017zm158.786 2.147H562.15v119.738h10.192V274.164z" fill="#8FD0D6"/><path d="M244.37 406.618H138.375a4.998 4.998 0 01-4.996-5V251.304c0-2.761 2.237-5 4.996-5H244.37a4.998 4.998 0 014.995 5v150.314c0 2.761-2.236 5-4.995 5z" fill="#AADEE3"/><path d="M239.843 258.491h-96.161v29.063h96.161v-29.063z" fill="#EBF8FA"/><path d="M239.843 261.304v-2.813h-96.161v29.063h2.498v-26.25h93.663z" fill="#BBC5C7"/><path d="M162.571 355.055h-17.484a1.25 1.25 0 01-1.249-1.25V340.68c0-.69.559-1.25 1.249-1.25h17.484c.69 0 1.249.559 1.249 1.25v13.125c0 .69-.559 1.25-1.249 1.25zm25.393 0H170.48a1.25 1.25 0 01-1.249-1.25V340.68c0-.69.559-1.25 1.249-1.25h17.484a1.25 1.25 0 011.249 1.25v13.125a1.25 1.25 0 01-1.249 1.25zm25.393 0h-17.484a1.249 1.249 0 01-1.248-1.25V340.68c0-.69.559-1.25 1.248-1.25h17.484c.69 0 1.249.559 1.249 1.25v13.125c0 .69-.559 1.25-1.249 1.25z" fill="#72B9C2"/><path d="M238.75 355.055h-17.484a1.25 1.25 0 01-1.249-1.25V340.68c0-.69.559-1.25 1.249-1.25h17.484c.69 0 1.249.559 1.249 1.25v13.125c0 .69-.559 1.25-1.249 1.25z" fill="#01AEB3"/><path d="M162.259 376.383h-17.484a1.25 1.25 0 01-1.249-1.25v-13.125c0-.69.559-1.25 1.249-1.25h17.484c.689 0 1.249.56 1.249 1.25v13.125c0 .691-.56 1.25-1.249 1.25zm25.393 0h-17.484a1.25 1.25 0 01-1.249-1.25v-13.125c0-.69.559-1.25 1.249-1.25h17.484c.689 0 1.249.56 1.249 1.25v13.125c0 .691-.559 1.25-1.249 1.25zm25.393 0h-17.484a1.25 1.25 0 01-1.249-1.25v-13.125c0-.69.559-1.25 1.249-1.25h17.484c.69 0 1.249.56 1.249 1.25v13.125c0 .691-.559 1.25-1.249 1.25z" fill="#72B9C2"/><path d="M238.438 376.383h-17.484a1.249 1.249 0 01-1.248-1.25v-13.125c0-.69.559-1.25 1.248-1.25h17.484c.69 0 1.249.56 1.249 1.25v13.125c0 .691-.559 1.25-1.249 1.25z" fill="#01AEB3"/><path d="M162.259 397.712h-17.484a1.25 1.25 0 01-1.249-1.25v-13.125a1.25 1.25 0 011.249-1.251h17.484c.689 0 1.249.56 1.249 1.251v13.125c0 .69-.56 1.25-1.249 1.25z" fill="#72B9C2"/><path d="M187.652 397.712h-17.484a1.25 1.25 0 01-1.249-1.25v-13.125a1.25 1.25 0 011.249-1.251h17.484c.689 0 1.249.56 1.249 1.251v13.125c0 .69-.559 1.25-1.249 1.25zm25.393 0h-17.484a1.25 1.25 0 01-1.249-1.25v-13.125a1.25 1.25 0 011.249-1.251h17.484c.69 0 1.249.56 1.249 1.251v13.125c0 .69-.559 1.25-1.249 1.25zm24.723 0h-16.144a1.92 1.92 0 01-1.919-1.921v-33.034a1.92 1.92 0 011.919-1.921h16.144c1.06 0 1.919.86 1.919 1.921v33.034a1.92 1.92 0 01-1.919 1.921z" fill="#01AEB3"/><path d="M162.259 333.727h-17.484a1.25 1.25 0 01-1.249-1.25v-13.125c0-.691.559-1.25 1.249-1.25h17.484a1.25 1.25 0 011.249 1.25v13.125c0 .69-.56 1.25-1.249 1.25zm25.393 0h-17.484a1.25 1.25 0 01-1.249-1.25v-13.125c0-.691.559-1.25 1.249-1.25h17.484a1.25 1.25 0 011.249 1.25v13.125c0 .69-.559 1.25-1.249 1.25zm25.393 0h-17.484a1.25 1.25 0 01-1.249-1.25v-13.125c0-.691.559-1.25 1.249-1.25h17.484c.69 0 1.249.559 1.249 1.25v13.125c0 .69-.559 1.25-1.249 1.25z" fill="#72B9C2"/><path d="M238.438 333.727h-17.484a1.25 1.25 0 01-1.248-1.25v-13.125c0-.691.559-1.25 1.248-1.25h17.484c.69 0 1.249.559 1.249 1.25v13.125c0 .69-.559 1.25-1.249 1.25zm-76.179-21.329h-17.484a1.25 1.25 0 01-1.249-1.25v-13.125c0-.69.559-1.25 1.249-1.25h17.484c.689 0 1.249.56 1.249 1.25v13.125c0 .691-.56 1.25-1.249 1.25zm25.393 0h-17.484a1.25 1.25 0 01-1.249-1.25v-13.125c0-.69.559-1.25 1.249-1.25h17.484c.689 0 1.249.56 1.249 1.25v13.125c0 .691-.559 1.25-1.249 1.25zm25.393 0h-17.484a1.25 1.25 0 01-1.249-1.25v-13.125c0-.69.559-1.25 1.249-1.25h17.484c.69 0 1.249.56 1.249 1.25v13.125c0 .691-.559 1.25-1.249 1.25zm25.393 0h-17.484a1.249 1.249 0 01-1.248-1.25v-13.125c0-.69.559-1.25 1.248-1.25h17.484c.69 0 1.249.56 1.249 1.25v13.125c0 .691-.559 1.25-1.249 1.25z" fill="#01AEB3"/><path d="M477.291 420.837H238.709a4.373 4.373 0 01-4.371-4.375V98.21a4.372 4.372 0 014.371-4.375h238.582a4.373 4.373 0 014.371 4.375v318.252a4.373 4.373 0 01-4.371 4.375z" fill="#799CA1"/><path d="M415.389 94.663H303.892v14.749h111.497v-14.75z" fill="#ACB2C4"/><path d="M439.69 409.666H251.052c-.62 0-1.124-.504-1.124-1.125V103.787c0-.622.504-1.126 1.124-1.126h213.895c.621 0 1.124.504 1.124 1.126v281.124l-26.381 24.755z" fill="#fff"/><path d="M466.072 384.911h-25.257c-.621 0-1.124.504-1.124 1.126v23.629l26.381-24.755z" fill="#fff"/><path d="M439.69 410.291a.626.626 0 01-.624-.625v-23.629c0-.966.784-1.751 1.748-1.751h25.258a.624.624 0 01.427 1.081l-26.382 24.755a.622.622 0 01-.427.169zm1.124-24.755c-.275 0-.5.225-.5.501v22.187l24.179-22.687h-23.679v-.001z" fill="#BEC5D9"/><path d="M446.362 225.455H314.113c-1.404 0-2.541-1.095-2.541-2.446 0-1.352 1.138-2.447 2.541-2.447h132.249c1.403 0 2.541 1.095 2.541 2.447 0 1.351-1.138 2.446-2.541 2.446zm-8.345 12.087H314.113c-1.404 0-2.541-1.095-2.541-2.447 0-1.351 1.138-2.446 2.541-2.446h123.904c1.403 0 2.541 1.095 2.541 2.446 0 1.352-1.138 2.447-2.541 2.447z" fill="#C1E2EB"/><path d="M268.221 243.743a1.751 1.751 0 01-1.749-1.75v-25.881c0-.732.598-1.75 1.187-1.75h25.856c1.704 0 2.311.904 2.311 1.75v25.881c0 .965-.784 1.75-1.749 1.75h-25.856z" fill="#fff"/><path d="M293.515 214.986c1.183 0 1.687.504 1.687 1.125v25.881c0 .622-.503 1.126-1.124 1.126h-25.857a1.125 1.125 0 01-1.124-1.126v-25.881c0-.621.503-1.125.562-1.125h25.856zm0-1.25h-25.856c-1.051 0-1.811 1.419-1.811 2.375v25.881a2.377 2.377 0 002.373 2.376h25.856a2.378 2.378 0 002.374-2.376v-25.881c0-1.182-.908-2.375-2.936-2.375z" fill="#BEC5D9"/><path d="M446.362 271.767H314.113c-1.404 0-2.541-1.096-2.541-2.447 0-1.352 1.138-2.447 2.541-2.447h132.249c1.403 0 2.541 1.095 2.541 2.447 0 1.351-1.138 2.447-2.541 2.447zm-8.345 12.087H314.113c-1.404 0-2.541-1.096-2.541-2.447 0-1.352 1.138-2.447 2.541-2.447h123.904c1.403 0 2.541 1.095 2.541 2.447 0 1.351-1.138 2.447-2.541 2.447z" fill="#C1E2EB"/><path d="M268.221 290.054a1.751 1.751 0 01-1.749-1.75v-25.881c0-.732.598-1.75 1.187-1.75h25.856c1.704 0 2.311.904 2.311 1.75v25.881c0 .965-.784 1.75-1.749 1.75h-25.856z" fill="#fff"/><path d="M293.515 261.298c1.183 0 1.687.504 1.687 1.125v25.881c0 .621-.503 1.125-1.124 1.125h-25.857a1.125 1.125 0 01-1.124-1.125v-25.881c0-.621.503-1.125.562-1.125h25.856zm0-1.25h-25.856c-1.051 0-1.811 1.419-1.811 2.375v25.881a2.376 2.376 0 002.373 2.375h25.856a2.377 2.377 0 002.374-2.375v-25.881c0-1.183-.908-2.375-2.936-2.375z" fill="#BEC5D9"/><path d="M446.362 318.078H314.113c-1.404 0-2.541-1.095-2.541-2.447 0-1.351 1.137-2.447 2.541-2.447h132.249c1.403 0 2.541 1.096 2.541 2.447 0 1.352-1.138 2.447-2.541 2.447zm-8.345 12.087H314.113c-1.404 0-2.541-1.095-2.541-2.447 0-1.351 1.137-2.447 2.541-2.447h123.904c1.403 0 2.541 1.095 2.541 2.447s-1.138 2.447-2.541 2.447z" fill="#C1E2EB"/><path d="M267.721 336.366a1.25 1.25 0 01-1.249-1.25v-26.882c0-.689.56-1.25 1.249-1.25h26.856a1.25 1.25 0 011.249 1.25v26.882c0 .689-.56 1.25-1.249 1.25h-26.856z" fill="#fff"/><path d="M294.577 307.609c.345 0 .625.28.625.625v26.882c0 .344-.28.625-.625.625h-26.856a.624.624 0 01-.624-.625v-26.882c0-.345.279-.625.624-.625h26.856zm0-1.25h-26.856a1.876 1.876 0 00-1.873 1.875v26.882c0 1.034.84 1.874 1.873 1.874h26.856a1.877 1.877 0 001.874-1.874v-26.882a1.877 1.877 0 00-1.874-1.875zM415.214 96.472H304.365a1.634 1.634 0 01-1.629-1.63v-3.596c0-.896.733-1.63 1.629-1.63h110.849c.896 0 1.629.734 1.629 1.63v3.597c0 .896-.733 1.63-1.629 1.63z" fill="#BEC5D9"/><path d="M367.133 120.306c-4.355 0-7.159-.022-7.222-.023-.123.001-14.266.113-28.645-.194-29.496-.628-31.214-2.334-31.947-3.062-.402-.398-.486-.822-.486-1.108V98.056c0-1.75.546-3.178 1.624-4.246 1.883-1.867 4.694-1.859 4.819-1.86l-.021 2.188c-.016 0-2.045.01-3.27 1.235-.65.651-.967 1.528-.967 2.683v17.521c.993.527 5.957 1.814 30.506 2.33 14.272.3 28.248.19 28.387.189.158.001 14.126.111 28.395-.165 24.377-.473 29.465-1.674 30.517-2.18V98.056c0-1.155-.317-2.032-.968-2.683-1.223-1.222-3.247-1.235-3.273-1.235l-.017-2.188c.123.003 2.936-.007 4.819 1.86 1.078 1.068 1.624 2.497 1.624 4.246v18.074c0 .277-.081.688-.469 1.073-.701.696-2.342 2.326-31.892 2.909-8.039.159-16.013.194-21.514.194z" fill="#BEC5D9"/><path d="M279.238 239.728h-.038a1.56 1.56 0 01-1.325-.8l-7.383-13.216a1.562 1.562 0 112.725-1.525l6.095 10.91 10.433-16.718a1.56 1.56 0 112.647 1.656l-11.83 18.959a1.563 1.563 0 01-1.324.734zm0 45.626h-.038a1.563 1.563 0 01-1.325-.8l-7.383-13.216a1.56 1.56 0 112.725-1.525l6.095 10.91 10.433-16.718a1.56 1.56 0 012.151-.497c.731.457.953 1.421.496 2.153l-11.83 18.958a1.562 1.562 0 01-1.324.735zm-.312 47.058h-.038a1.563 1.563 0 01-1.325-.8l-7.383-13.217a1.563 1.563 0 01.6-2.126 1.56 1.56 0 012.125.601L279 327.781l10.433-16.719a1.56 1.56 0 112.648 1.656l-11.831 18.959a1.562 1.562 0 01-1.324.735zm30.643 27.741l-.012.003a10.904 10.904 0 00-9.792-6.048c-5.216 0-9.576 3.627-10.644 8.47-1.069-4.844-5.428-8.47-10.645-8.47a10.904 10.904 0 00-9.792 6.048l-.012-.003c-8.211 16.953 20.449 33.636 20.449 33.636s28.659-16.683 20.448-33.636z" fill="#FF8681"/><path d="M443.275 173.491H268.218c-1.404 0-2.541-1.095-2.541-2.447 0-1.351 1.138-2.447 2.541-2.447h175.057c1.404 0 2.541 1.096 2.541 2.447 0 1.352-1.138 2.447-2.541 2.447zm-8.345 11.825H268.218c-1.404 0-2.541-1.096-2.541-2.447s1.138-2.447 2.541-2.447H434.93c1.403 0 2.541 1.095 2.541 2.447 0 1.351-1.138 2.447-2.541 2.447zm-25.914 11.825H268.218c-1.404 0-2.541-1.096-2.541-2.447s1.138-2.447 2.541-2.447h140.798c1.404 0 2.542 1.095 2.542 2.447 0 1.351-1.138 2.447-2.542 2.447zm40.044 169.867H327.893c-1.403 0-2.541-1.095-2.541-2.447 0-1.351 1.138-2.446 2.541-2.446H449.06c1.404 0 2.541 1.095 2.541 2.446 0 1.352-1.138 2.447-2.541 2.447zm-8.345 11.825H327.894c-1.404 0-2.542-1.096-2.542-2.447s1.138-2.447 2.542-2.447h112.821c1.403 0 2.541 1.095 2.541 2.447 0 1.351-1.138 2.447-2.541 2.447zm-25.914 11.825h-86.908c-1.403 0-2.541-1.096-2.541-2.447s1.138-2.447 2.541-2.447h86.908c1.404 0 2.542 1.095 2.542 2.447 0 1.351-1.138 2.447-2.542 2.447z" fill="#C1E2EB"/><g opacity=".7" fill="#8FD0D6"><path opacity=".7" d="M388.419 389.889c-15.321 0-27.786-12.477-27.786-27.813 0-15.336 12.464-27.813 27.786-27.813 15.322 0 27.787 12.477 27.787 27.813 0 15.336-12.465 27.813-27.787 27.813zm0-53.751c-14.289 0-25.913 11.636-25.913 25.938s11.625 25.938 25.913 25.938c14.289 0 25.914-11.636 25.914-25.938s-11.625-25.938-25.914-25.938z"/><path opacity=".7" d="M388.419 375.826c7.587 0 13.737-6.156 13.737-13.75s-6.15-13.75-13.737-13.75-13.737 6.156-13.737 13.75 6.15 13.75 13.737 13.75z"/></g><path d="M186.641 132.751v-.066l-.045.033a1.68 1.68 0 01-.044-.033v.066c-10.924 8.266-35.264 6.461-35.264 6.586 0 69.972 35.264 81.59 35.264 81.59h.088s35.264-11.618 35.264-81.59c0-.125-24.34 1.68-35.263-6.586z" fill="#FF8681"/><path d="M186.596 140.424c7.1 4.475 18.216 5.453 26.566 5.453.718 0 1.373-.008 1.947-.019-.18 12.847-1.732 24.339-4.62 34.192-2.442 8.335-5.84 15.517-10.097 21.345-5.847 8.004-11.751 11.232-13.795 12.174-2.054-.946-7.953-4.176-13.796-12.174-4.258-5.828-7.655-13.01-10.098-21.345-2.888-9.853-4.439-21.345-4.619-34.192.573.011 1.228.019 1.946.019 8.351-.001 19.466-.978 26.566-5.453zm.039-3.052l-.039.029-.039-.029v.058c-6.858 5.282-19.739 5.963-26.527 5.963-2.36 0-3.983-.082-4.361-.082-.055 0-.084.002-.084.006 0 62.54 30.972 72.924 30.972 72.924h.078s30.972-10.384 30.972-72.924c0-.004-.028-.006-.084-.006-.377 0-2.001.082-4.361.082-6.787 0-19.668-.681-26.527-5.963v-.058z" fill="#fff"/><path d="M189.495 183.906l-.022-25.911-5.688.005.022 25.911 5.688-.005z" fill="#fff"/><path d="M199.541 173.833l-.004-5.694-25.886.022.004 5.694 25.886-.022z" fill="#fff"/><path d="M405.804 228.267s-6.36 8.781-.426 23.36c.46 1.131 8.622-.262 8.622-.262s-.701 4.292-1.589 6.982c-.332 1.007-1.19 3.727-.912 4.686 1.039 3.589 20.296 4.851 16.895-2.142-2.918-6-3.29-10.8-3.29-10.8s-.331-31.317-19.3-21.824z" fill="#FABCA7"/><path d="M442.069 459.597v8.114c0 1.017-.68 1.842-1.519 1.842h-22.821v-1.021c0-.811.534-1.524 1.314-1.744 3.268-.922 7.536-3.594 11.758-7.411 6.921-6.259 11.268.22 11.268.22zm-40.495 0v8.114c0 1.017-.68 1.842-1.519 1.842h-27.084v-1.021c0-.811.534-1.524 1.315-1.744 3.268-.922 11.798-3.594 16.02-7.411 6.922-6.259 11.268.22 11.268.22z" fill="#45484F"/><path d="M444.269 323.447l-2.2 136.151-11.269-.222-15.122-121.777 1.99-29.696 26.601 15.544z" fill="#017280"/><path d="M422.184 276.454l8.102-11.551s18.829 18.173 18.948 22.635c.216 8.09-29.193 21.619-29.193 21.619s-5.966 11.819-6.153 13.946c-.188 2.128-2.23-9.617-3.29-13.813-.65-2.578-5.092.699-6.125-.195-1.032-.893 8.417-8.182 10.509-7.105 1.444.742 22.108-12.022 22.174-13.74.081-2.132-14.972-11.796-14.972-11.796z" fill="#FABCA7"/><path d="M432.383 323.822l-30.809 135.803h-11.56l7.739-136.178 34.63.375z" fill="#018FA1"/><path d="M341.083 226.794l1.063-1.484-7.169-5.485-1.063 1.483 7.169 5.486z" fill="#01AEB3"/><path d="M441.685 311.321l8.084-11.28c.571-.798.409-1.923-.363-2.514l-86.461-66.157-10.154 14.17 86.461 66.156a1.703 1.703 0 002.433-.375zm-78.756-79.929l-21.956-8.951-2.835 3.956 14.637 19.164 10.154-14.169z" fill="#FFD2D0"/><path d="M387.54 272.129l10.139-14.148-34.75-26.589-10.138 14.148 34.749 26.589zm54.144 39.193l8.069-11.259c.572-.798.409-1.923-.363-2.514l-10.188-7.796-10.139 14.148 10.189 7.795c.771.591 1.86.423 2.432-.374z" fill="#FF8681"/><path d="M413.719 257.86s-6.3-1.86-12.086 15.634c-5.786 17.493-4.186 51.107-4.186 51.107h46.803s3.825-58.194-17.359-66.031c0 0-2.303 2.764-6.192 2.55-3.889-.213-6.98-3.26-6.98-3.26z" fill="#01ADC1"/><path d="M372.922 262.176c.174 2.641 8.239 22.527 9.938 22.785 2.107.322 12.466-13.23 12.466-13.23l10.554 9.36s-20.162 16.679-24.603 16.295c-7.798-.675-13.448-30.718-14.335-32.359 2.582-1.697 5.98-2.851 5.98-2.851z" fill="#FABCA7"/><path d="M403.029 285.33s18.076-15.241 11.723-21.054c-6.354-5.813-21.964 9.28-21.964 9.28s5.371 8.989 10.241 11.774z" fill="#8FD0D6"/><path d="M402.102 218.628c.432 3.424 1.475 8.615 3.853 9.618.011.004.016.007.027.003.324-.114 8.355-2.85 13.417 5.764 4.891 8.321 4.648 15.546 4.648 15.546.472-1.009 10.658-2.84 10.658-15.858 0-3.982-3.564-4.916-4.05-5.617-.534-.771-.196-3.684-.923-4.551-4.451-5.308-15.346-3.414-18.614-6.329-2.401-2.142-9.591-3.129-9.016 1.424z" fill="#45484F"/><path d="M419.505 235.745a.839.839 0 01.527-.647c.966-.371 3.202-.943 3.867 1.364.731 2.535-2.134 4.594-4.273 4.74-.538.037-.962-.456-.872-.988l.751-4.469zm-51.918 21.129c1.811 1.035.343-4.025 1.204-4.663.506-.374 1.846 2.984 3.522 5.591 1.171 1.823.579 4.165.609 4.374-1.529 1.666-3.915 1.925-6.011 2.851-.102-.444.032-1.114-1.089-1.534-.702-.262-2.425-1.132-2.768-1.799-1.191-2.31-1.083-6.995-1.105-9.47-.003-.336 2.794 3.025 5.638 4.65z" fill="#FABCA7"/><path d="M164.884 455.254l-7.321.589a2.373 2.373 0 01-2.555-2.177 2.373 2.373 0 012.175-2.557l7.32-.59.381 4.735z" fill="#C8D0D7"/><path d="M265.18 432.757c-6.825.618-13.55 1.623-20.218 2.855-17.695 3.272-34.993 8.149-52.72 11.674-3.438.683-27.963 3.273-27.963 3.273l.378 4.692s24.623-1.368 28.125-1.244c24.224.86 48.299 4.308 72.528 2.79 7.868-.494 15.922-1.205 23.555-3.32l-1.692-21.049c-7.276-.817-14.746-.327-21.993.329z" fill="#E2E8EB"/><path d="M289.874 432.791a56.684 56.684 0 00-2.701-.363l1.692 21.049a63.84 63.84 0 001.534-.445c4.988-1.52 12.402-4.458 12.285-10.783a8.317 8.317 0 00-.023-.473c-.514-6.183-7.712-8.17-12.787-8.985zm-66.813 23.097c-10.083-.713-20.168-1.521-30.279-1.88-3.504-.126-28.125 1.243-28.125 1.243l-.378-4.691s24.526-2.591 27.963-3.274c9.834-1.955 19.534-4.325 29.245-6.607-3.166 2.476-4.874 5.194-4.654 7.929.227 2.827 2.487 5.309 6.228 7.28z" fill="#FF8681"/><path d="M259.724 450.23l-19.422 1.564a1.218 1.218 0 01-1.311-1.117l-.602-7.49a1.218 1.218 0 011.116-1.313l19.421-1.564a1.218 1.218 0 011.312 1.117l.602 7.491a1.218 1.218 0 01-1.116 1.312z" fill="#BEC5D9"/><path opacity=".2" d="M258.411 441.259l-20.048 1.614a.905.905 0 01.828-.974l20.048-1.614a.905.905 0 01.974.829l.652 8.117a.906.906 0 01-.828.975l-.653-8.117a.904.904 0 00-.973-.83z" fill="#3D4652"/><path d="M274.843 450.467a6.443 6.443 0 006.44-6.447 6.443 6.443 0 00-6.44-6.446 6.444 6.444 0 00-6.441 6.446 6.444 6.444 0 006.441 6.447z" fill="#FF8681"/><path d="M272.644 441.383a.453.453 0 01.186-.404 3.72 3.72 0 011.882-.692 3.734 3.734 0 014.016 3.42 3.73 3.73 0 01-5.384 3.639.452.452 0 01.405-.809c.459.23.974.329 1.488.288a2.83 2.83 0 002.59-3.045 2.826 2.826 0 00-4.469-2.067.451.451 0 01-.714-.33z" fill="#fff"/><path d="M270.957 444.334a.453.453 0 01.414-.488l3.491-.281a.452.452 0 11.073.902l-3.491.281a.452.452 0 01-.487-.414z" fill="#fff"/><path opacity=".6" d="M293.963 437.909c-.187.7.786 1.569 2.174 1.942s2.665.108 2.853-.592c.188-.7-.786-1.569-2.174-1.942s-2.665-.108-2.853.592z" fill="#fff"/></g><defs><clipPath id="clip0"><path fill="#fff" d="M0 0h716v479H0z"/></clipPath></defs></svg>