<svg width="1440" height="985" fill="none" xmlns="http://www.w3.org/2000/svg"><g opacity=".5" filter="url(#filter0_d)"><path d="M-7 0l1455.21-15.21V729.5S1289.45 894.426 1092 894.426c-197.449 0-295.09-82.453-442.636-82.453-147.547 0-216.98 147.547-390.564 147.547C85.216 959.52-7 850-7 850V0z" fill="url(#paint0_linear)"/><path d="M-7.026-2.5l-2.474.026v853.386l.588.698L-7 850a182.65 182.65 0 00-1.91 1.613l.005.006.015.018.057.067.214.248c.188.217.466.534.834.945.735.822 1.829 2.018 3.279 3.536 2.899 3.035 7.223 7.356 12.95 12.534 11.454 10.355 28.529 24.142 51.057 37.925 45.062 27.57 111.958 55.128 199.299 55.128 87.578 0 148.872-37.267 206.396-74.169 2.281-1.464 4.557-2.927 6.827-4.387 55.082-35.411 107.314-68.991 177.341-68.991 68.019 0 125.357 17.618 187.288 36.646 4.832 1.484 9.692 2.977 14.587 4.472 67.599 20.632 141.659 41.335 240.761 41.335 99.4 0 188.93-41.499 253.5-82.858 32.3-20.692 58.41-41.382 76.45-56.903 9.02-7.762 16.02-14.233 20.78-18.77 2.38-2.268 4.19-4.052 5.41-5.273.2-.191.37-.368.53-.531.36-.358.65-.648.86-.866.1-.1.18-.185.25-.254l.11-.109.09-.094.02-.025.01-.006c0-.002 0-.003-1.8-1.737l1.8 1.734.7-.726V-17.736l-2.53.027L-7.026-2.5z" stroke="#D7E6F6" stroke-width="5"/></g><defs><linearGradient id="paint0_linear" x1="-7" y1="0" x2="1433" y2="850" gradientUnits="userSpaceOnUse"><stop stop-color="#F5F4E3"/><stop offset="1" stop-color="#8CBBE6"/></linearGradient><filter id="filter0_d" x="-22" y="-30.262" width="1495.21" height="1014.78" filterUnits="userSpaceOnUse" color-interpolation-filters="sRGB"><feFlood flood-opacity="0" result="BackgroundImageFix"/><feColorMatrix in="SourceAlpha" values="0 0 0 0 0 0 0 0 0 0 0 0 0 0 0 0 0 0 127 0"/><feOffset dx="5" dy="5"/><feGaussianBlur stdDeviation="7.5"/><feColorMatrix values="0 0 0 0 0.670938 0 0 0 0 0.777973 0 0 0 0 0.879062 0 0 0 1 0"/><feBlend in2="BackgroundImageFix" result="effect1_dropShadow"/><feBlend in="SourceGraphic" in2="effect1_dropShadow" result="shape"/></filter></defs></svg>