<svg width="737" height="726" fill="none" xmlns="http://www.w3.org/2000/svg"><path opacity=".39" d="M374.62 639.425c114.113 0 206.62-3.945 206.62-8.811s-92.507-8.811-206.62-8.811S168 625.748 168 630.614s92.507 8.811 206.62 8.811z" fill="#7090DD"/><path d="M413.362 475.485s34.066 32.804 4.206 37.43c-29.86 4.626-4.206-37.43-4.206-37.43z" fill="#EDEDED"/><path d="M363.853 318.406a9.074 9.074 0 110-18.148 9.074 9.074 0 019.074 9.074 9.073 9.073 0 01-9.074 9.074z" fill="#1D1D1B"/><path d="M355.865 331.625a9.075 9.075 0 11.001-18.15 9.075 9.075 0 01-.001 18.15z" fill="#1D1D1B"/><path d="M352.78 342.322a9.074 9.074 0 110-18.148 9.074 9.074 0 019.074 9.074 9.073 9.073 0 01-9.074 9.074zm44.771 27.637a9.075 9.075 0 11.001-18.15 9.075 9.075 0 01-.001 18.15z" fill="#1D1D1B"/><path d="M348.419 338.314c-1.146 10.541.035 20.406 14.683 29.855 0 0 6.844 9.319 2.794 20.09-4.05 10.771 26.529 14.547 24.278-1.49-2.251-16.037 8.004-32.609 15.043-41.831 7.039-9.221 7.927-30.586-3.718-39.34-4.577-3.44-17.173-4.094-25.833-1.354-14.692 4.649-25.582 18.751-27.247 34.07z" fill="#FFCB9C"/><path d="M361.484 321.803c.818.24 1.201 1.39.855 2.569-.346 1.178-1.289 1.939-2.108 1.699-.818-.24-1.201-1.39-.855-2.569.346-1.178 1.29-1.939 2.108-1.699zm18.806 1.465c.818.24 1.202 1.39.856 2.568-.345 1.178-1.289 1.938-2.107 1.698-.819-.24-1.202-1.389-.856-2.568.345-1.178 1.289-1.938 2.107-1.698z" fill="#000"/><path d="M375.505 309.858a9.074 9.074 0 110-18.148 9.074 9.074 0 019.074 9.074 9.073 9.073 0 01-9.074 9.074z" fill="#1D1D1B"/><path d="M368.131 303.856a9.075 9.075 0 11.001-18.15 9.075 9.075 0 01-.001 18.15zm17.121 16.603a9.075 9.075 0 11.001-18.15 9.075 9.075 0 01-.001 18.15z" fill="#1D1D1B"/><path d="M392.367 306.818a9.074 9.074 0 110-18.148 9.074 9.074 0 019.074 9.074 9.073 9.073 0 01-9.074 9.074z" fill="#1D1D1B"/><path d="M399.295 320.833a9.075 9.075 0 11.001-18.15 9.075 9.075 0 01-.001 18.15z" fill="#1D1D1B"/><path d="M407.114 316.576a9.073 9.073 0 01-9.074-9.074 9.074 9.074 0 1118.148 0 9.074 9.074 0 01-9.074 9.074z" fill="#1D1D1B"/><path d="M411.2 330.815a9.075 9.075 0 11.001-18.15 9.075 9.075 0 01-.001 18.15z" fill="#1D1D1B"/><path d="M403.689 334.305a9.074 9.074 0 110-18.148 9.074 9.074 0 019.074 9.074 9.073 9.073 0 01-9.074 9.074z" fill="#1D1D1B"/><path d="M394.443 328.666a9.075 9.075 0 11.001-18.15 9.075 9.075 0 01-.001 18.15zm17.316 14.87a9.073 9.073 0 01-9.074-9.074 9.074 9.074 0 1118.148 0 9.074 9.074 0 01-9.074 9.074z" fill="#1D1D1B"/><path d="M400.789 346.539a9.074 9.074 0 110-18.148 9.074 9.074 0 019.074 9.074 9.073 9.073 0 01-9.074 9.074z" fill="#1D1D1B"/><path d="M403.392 355.323a9.074 9.074 0 110-18.148 9.074 9.074 0 019.074 9.074 9.073 9.073 0 01-9.074 9.074z" fill="#1D1D1B"/><path d="M411.298 365.682a9.074 9.074 0 110-18.148 9.074 9.074 0 019.074 9.074 9.073 9.073 0 01-9.074 9.074z" fill="#1D1D1B"/><path d="M415.15 356.03a9.074 9.074 0 110-18.148 9.074 9.074 0 019.074 9.074 9.073 9.073 0 01-9.074 9.074z" fill="#1D1D1B"/><path d="M421.432 343.775a9.074 9.074 0 110-18.148 9.074 9.074 0 019.074 9.074 9.073 9.073 0 01-9.074 9.074z" fill="#1D1D1B"/><path d="M421.428 329.666a9.075 9.075 0 11.001-18.15 9.075 9.075 0 01-.001 18.15z" fill="#1D1D1B"/><path d="M416.873 316.599a9.074 9.074 0 110-18.148 9.074 9.074 0 019.074 9.074 9.073 9.073 0 01-9.074 9.074z" fill="#1D1D1B"/><path d="M404.125 304.406a9.074 9.074 0 110-18.148 9.074 9.074 0 019.074 9.074 9.073 9.073 0 01-9.074 9.074zm-21.213-7.258a9.075 9.075 0 11.001-18.15 9.075 9.075 0 01-.001 18.15z" fill="#1D1D1B"/><path d="M390.304 300.098a9.074 9.074 0 110-18.148 9.074 9.074 0 019.074 9.074 9.073 9.073 0 01-9.074 9.074z" fill="#1D1D1B"/><path d="M369.784 315.733l-8.902 21.193 11.63.48-2.728-21.673z" fill="#F96767"/><path opacity=".54" d="M381.66 338.781c-3.681-.298-6.553-1.931-6.414-3.646.139-1.716 3.236-2.866 6.917-2.568 3.681.298 6.552 1.931 6.413 3.647-.139 1.715-3.236 2.865-6.916 2.567zm-26.98.578c-2.94-.238-5.211-1.822-5.072-3.537.139-1.716 2.635-2.914 5.575-2.676 2.94.238 5.211 1.822 5.072 3.537-.139 1.716-2.635 2.914-5.575 2.676z" fill="#FF6252"/><path d="M344.045 604.456l-1.881 12.387 7.345 1.767 4.986-13.174-10.45-.98z" fill="#fff"/><path d="M350.616 615.749s4.469 5.174 2.692 9.728c-1.777 4.553-34.007 1.174-34.007 1.174s-1.176-.73.906-1.605l15.035-5.536s6.352-3.426 9.633-2.897c2.735.441 5.741-.864 5.741-.864z" fill="#000"/><path d="M414.049 604.825l1.654 12.419-7.376 1.632-4.744-13.264 10.466-.787z" fill="#fff"/><path d="M407.188 615.749s-4.469 5.174-2.691 9.728c1.777 4.553 34.007 1.174 34.007 1.174s1.176-.73-.906-1.605l-15.035-5.536s-6.352-3.426-9.633-2.897c-2.737.441-5.742-.864-5.742-.864z" fill="#000"/><path d="M321.597 479.243s-.091 82.883 19.378 127.536h14.709l18.984-83.643c.523-1.931 3.235-2.009 3.867-.111l23.605 83.754h15.006s13.013-58.292 4.71-127.536-100.259 0-100.259 0z" fill="#1B364F"/><path opacity=".08" d="M424.106 506.158s-22.657-8.184-24.553 15.992c-1.896 24.176 11.14 35.315 11.614 47.166.474 11.851 6.704 8.537 6.704 8.537s8.972-47.3 6.235-71.695zm-101.596.897s21.976-10.414 23.872 13.761c1.896 24.175-4.227 35.315-4.701 47.166-.474 11.851-6.704 8.537-6.704 8.537s-13.305-29.866-12.467-69.464z" fill="#fff"/><path d="M429.5 505.199s-8.417-24.437-48.059-11.947c-39.642 12.49-68.522-4.52-68.522-4.52s-28.869-88.487 50.415-132.7c0 0 120.414 21.77 66.166 149.167z" fill="#F6F6F6"/><path d="M312.956 356.379l129.38 6.542-6.02 119.041-129.379-6.542 6.019-119.041z" fill="#F96767"/><path d="M366.648 387.991l20.369 1.03-4.562 90.218-20.369-1.03 4.562-90.218z" fill="#fff"/><path d="M439.108 426.68l-1.03 20.369-129.379-6.542 1.03-20.369 129.379 6.542zm-69.521-70.037s19.136-27.93 44.35-31.278c25.214-3.349 31.151 31.629 3.689 33.708l-48.039-2.43z" fill="#fff"/><path d="M386.031 357.475s-16.221-29.718-40.968-35.593c-24.748-5.875-34.183 28.325-7.072 33.164l48.04 2.429z" fill="#fff"/><path d="M375.166 366.462c4.413.223 8.205-3.204 8.428-7.617l.85-16.814c.223-4.413-3.204-8.205-7.617-8.428-4.413-.223-8.205 3.204-8.428 7.617l-.85 16.814c-.223 4.412 3.204 8.204 7.617 8.428z" fill="#fff"/><path d="M368.505 351.098s-27.87-10.801-36.165-9.631c-8.295 1.17-3.997 7.6 1.048 7.855l35.117 1.776zm12.072.61s28.817-7.934 36.952-5.934c8.135 2.001 3.209 7.965-1.835 7.71l-35.117-1.776z" fill="#EDEDED"/><path d="M458.047 400.925s9.37 26.162-6.335 46.558c-11.613 15.081-43.257 8.918-59.877-30.986l8.205-5.446s12.94 18.921 22.423 22.281c12.93 4.581 18.855-5.824 19.271-12.272.21-3.259-1.451-12.969-1.744-13.984l18.057-6.151z" fill="#FFCB9C"/><path d="M441.565 373.143s13.195 12.061 18.31 35.226l-20.418 11.346 2.108-46.572z" fill="#F6F6F6"/><path d="M292.337 400.588s-9.539 26.104 6.166 46.5c11.613 15.081 43.257 8.918 59.877-30.986l-8.205-5.446s-12.94 18.921-22.423 22.281c-12.93 4.581-18.855-5.824-19.271-12.272-.21-3.259 1.451-12.969 1.744-13.984l-17.888-6.093z" fill="#FFCB9C"/><path d="M312.329 368.595s-13.677 11.624-20.827 34.755l18.548 10.307 2.279-45.062z" fill="#F6F6F6"/><path d="M396.75 405.606s-9.887-19.261-11.418-20.494c-1.53-1.233-3.055.64-1.183 3.857 1.871 3.216 4.326 9.731 4.326 9.731s-7.404-11.764-8.708-11.947c-1.304-.183-2.415 1.283-.857 3.256 1.558 1.974 6.541 10.916 6.541 10.916s-5.751-6.499-7.684-7.851c-1.932-1.352-1.353 1.959.234 3.693 1.587 1.735 5.886 7.958 5.886 7.958s-5.535-3.76-6.87-3.759c-1.335 0-1.128 1.095-.388 1.833.74.738 8.639 5.916 8.639 5.916s3.7 8.122 9.403 9.238c5.703 1.116 7.31-1.92 7.183-2.846-.127-.926-1.654-15.62-2.811-17.867-1.158-2.246-3.026-1.458-2.125 2.563.901 4.021 1.06 6.253-.168 5.803zm-42.472 0s9.887-19.261 11.418-20.494c1.53-1.233 3.055.64 1.183 3.857-1.871 3.216-4.326 9.731-4.326 9.731s7.404-11.764 8.708-11.947c1.304-.183 2.415 1.283.857 3.256-1.558 1.974-6.541 10.916-6.541 10.916s5.751-6.499 7.684-7.851c1.932-1.352 1.353 1.959-.234 3.693-1.587 1.735-5.886 7.958-5.886 7.958s5.535-3.76 6.87-3.759c1.335 0 1.128 1.095.388 1.833-.74.738-8.639 5.916-8.639 5.916s-3.7 8.122-9.403 9.238c-5.703 1.116-7.31-1.92-7.183-2.846.127-.926 1.654-15.62 2.811-17.867 1.158-2.246 3.026-1.458 2.125 2.563-.9 4.021-1.06 6.253.168 5.803z" fill="#FFCB9C"/><path opacity=".5" d="M440.872 391.747l-130.058 6.812.676-13.356 129.382 6.544z" fill="#A42821"/><path d="M310.435 348.16l136.045 6.88-1.865 36.894-136.046-6.88 1.866-36.894z" fill="#F96767"/><path d="M268.086 533.425c.794 1.248 1.475 2.95 2.042 5.106.681 2.043 1.021 4.199 1.021 6.468 0 4.426-.964 7.603-2.893 9.532-1.816 1.816-4.312 2.724-7.49 2.724h-35.744v19.234h37.276c.908 1.248 1.646 2.893 2.213 4.936.681 2.042 1.021 4.198 1.021 6.468 0 4.312-.964 7.433-2.893 9.362-1.816 1.815-4.312 2.723-7.49 2.723h-29.787v35.915c-1.248.34-3.234.681-5.957 1.021-2.61.341-5.22.511-7.83.511-2.61 0-4.936-.227-6.979-.681-1.929-.34-3.574-1.021-4.936-2.043-1.362-1.021-2.383-2.439-3.064-4.255-.681-1.816-1.021-4.199-1.021-7.149v-74.042c0-4.88 1.418-8.738 4.255-11.575 2.837-2.837 6.695-4.255 11.575-4.255h56.681zm47.531 69.787v32.681c-1.248.34-3.234.681-5.957 1.021-2.61.341-5.22.511-7.83.511-2.61 0-4.936-.227-6.978-.681-1.93-.34-3.575-1.021-4.937-2.043-1.248-1.021-2.212-2.439-2.893-4.255-.681-1.816-1.022-4.199-1.022-7.149v-80.17c0-2.383.625-4.199 1.873-5.447 1.362-1.361 3.177-2.44 5.447-3.234 3.858-1.362 8.34-2.326 13.446-2.893 5.107-.681 10.554-1.022 16.341-1.022 15.659 0 27.461 3.291 35.404 9.873 7.943 6.581 11.915 15.489 11.915 26.723 0 7.035-1.816 13.05-5.447 18.043-3.631 4.992-7.943 8.851-12.936 11.574a399.955 399.955 0 0012.085 15.66c3.972 4.879 7.092 9.304 9.362 13.276-1.135 3.972-3.234 7.036-6.298 9.192-2.95 2.042-6.298 3.063-10.043 3.063-2.496 0-4.652-.283-6.468-.851-1.815-.567-3.404-1.361-4.766-2.383-1.361-1.021-2.61-2.269-3.744-3.744a49.885 49.885 0 01-3.234-4.766l-14.298-22.979h-9.022zm10.724-22.638c4.312 0 7.716-1.078 10.213-3.234 2.496-2.27 3.744-5.561 3.744-9.873 0-4.312-1.418-7.546-4.255-9.702-2.723-2.269-7.092-3.404-13.106-3.404-1.702 0-3.064.057-4.085.17a50.5 50.5 0 00-3.405.511v25.532h10.894zm63.383-31.319c0-4.88 1.418-8.738 4.255-11.575 2.837-2.837 6.695-4.255 11.575-4.255h56.17c.794 1.248 1.475 2.894 2.042 4.936.681 2.043 1.022 4.199 1.022 6.468 0 4.312-.965 7.376-2.894 9.192-1.816 1.815-4.255 2.723-7.319 2.723H418.66v15.83h38.298c.794 1.248 1.475 2.893 2.042 4.936.681 1.929 1.022 4.028 1.022 6.298 0 4.312-.908 7.376-2.724 9.191-1.815 1.816-4.255 2.724-7.319 2.724H418.66v17.872h43.745c.794 1.248 1.475 2.894 2.042 4.936.681 2.043 1.021 4.199 1.021 6.468 0 4.312-.964 7.433-2.893 9.362-1.816 1.816-4.256 2.723-7.319 2.723h-49.702c-4.88 0-8.738-1.418-11.575-4.255-2.837-2.837-4.255-6.695-4.255-11.574v-72zm93.251 0c0-4.88 1.418-8.738 4.255-11.575 2.837-2.837 6.695-4.255 11.575-4.255h56.17c.794 1.248 1.475 2.894 2.043 4.936.68 2.043 1.021 4.199 1.021 6.468 0 4.312-.965 7.376-2.894 9.192-1.815 1.815-4.255 2.723-7.319 2.723h-35.915v15.83h38.298c.794 1.248 1.475 2.893 2.043 4.936.68 1.929 1.021 4.028 1.021 6.298 0 4.312-.908 7.376-2.724 9.191-1.815 1.816-4.255 2.724-7.319 2.724h-31.319v17.872h43.745c.794 1.248 1.475 2.894 2.042 4.936.681 2.043 1.022 4.199 1.022 6.468 0 4.312-.965 7.433-2.894 9.362-1.816 1.816-4.255 2.723-7.319 2.723h-49.702c-4.88 0-8.738-1.418-11.575-4.255-2.837-2.837-4.255-6.695-4.255-11.574v-72z" fill="#FAFAFA"/><path d="M559.439 628.592s-1.879-3.889-7.026-3.386c-5.148.503-3.801-4.14-9.567-4.893-5.766-.753-6.809.952-13.822-4.939-7.013-5.891-12.838 4.63-18.056.266-5.218-4.364-8.956-11.394-17.793-8.67s-5.114 9.681-10.349 12.304c-5.235 2.623-10.69 3.473-12.901 9.454l89.514-.136zm-363.326 0s1.879-3.889 7.026-3.386c5.147.503 3.801-4.14 9.567-4.893 5.766-.753 6.809.952 13.822-4.939 7.013-5.891 12.838 4.63 18.056.266 5.218-4.364 8.956-11.394 17.793-8.67s5.114 9.681 10.349 12.304c5.235 2.623 10.69 3.473 12.901 9.454l-89.514-.136z" fill="#FCE6A3"/><g opacity=".7"><path opacity=".4" d="M595.296 415.501c1.148-1.218 1.844-2.791 1.844-4.511 0-3.86-3.485-6.989-7.785-6.989-4.299 0-7.785 3.129-7.785 6.989 0 .159.015.314.026.47l-.053.007c.012-.159.027-.316.027-.478 0-3.86-3.485-6.989-7.785-6.989-4.299 0-7.785 3.129-7.785 6.989 0 2.083 1.021 3.948 2.631 5.228l12.939 11.786 12.985-11.824c.24-.194.467-.399.678-.618l.065-.059-.002-.001zm139-89c1.148-1.218 1.844-2.791 1.844-4.511 0-3.86-3.485-6.989-7.785-6.989-4.299 0-7.785 3.129-7.785 6.989 0 .159.015.314.026.47l-.053.007c.012-.159.027-.316.027-.478 0-3.86-3.485-6.989-7.785-6.989-4.299 0-7.785 3.129-7.785 6.989 0 2.083 1.021 3.948 2.631 5.228l12.939 11.786 12.985-11.824c.24-.194.467-.399.678-.618l.065-.059-.002-.001zm-401.475-91.944c.954-1.012 1.532-2.319 1.532-3.749 0-3.208-2.896-5.808-6.469-5.808-3.573 0-6.469 2.6-6.469 5.808 0 .132.012.261.022.391l-.044.006c.01-.132.022-.263.022-.397 0-3.208-2.896-5.808-6.469-5.808-3.573 0-6.469 2.6-6.469 5.808 0 1.731.848 3.281 2.186 4.345l10.752 9.795 10.791-9.826c.199-.161.388-.332.564-.513l.054-.049-.003-.003zm-308.477-55c.954-1.012 1.532-2.319 1.532-3.749 0-3.208-2.896-5.808-6.469-5.808-3.573 0-6.469 2.6-6.469 5.808 0 .132.012.261.022.391l-.044.006c.01-.132.022-.263.022-.397 0-3.208-2.896-5.808-6.469-5.808C2.896 170 0 172.6 0 175.808c0 1.731.848 3.281 2.186 4.345l10.752 9.795 10.791-9.826c.199-.161.388-.332.564-.513l.054-.049-.003-.003zm648-110c.954-1.012 1.532-2.319 1.532-3.749 0-3.208-2.896-5.808-6.469-5.808-3.573 0-6.469 2.6-6.469 5.808 0 .132.012.261.022.391l-.044.006c.01-.132.022-.263.022-.397 0-3.208-2.896-5.808-6.469-5.808-3.573 0-6.469 2.6-6.469 5.808 0 1.731.848 3.281 2.186 4.345l10.752 9.795 10.791-9.826c.199-.161.388-.332.564-.513l.054-.049-.003-.003zM195.519 434.634c.954-1.012 1.532-2.319 1.532-3.749 0-3.208-2.896-5.808-6.469-5.808-3.573 0-6.469 2.6-6.469 5.808 0 .132.012.261.022.391l-.044.006c.01-.132.022-.263.022-.397 0-3.208-2.896-5.808-6.469-5.808-3.573 0-6.469 2.6-6.469 5.808 0 1.731.848 3.281 2.186 4.344l10.752 9.795 10.791-9.826c.199-.161.388-.331.564-.513l.054-.049-.003-.002zm312.825-95.077c.954-1.012 1.532-2.319 1.532-3.749 0-3.208-2.896-5.808-6.469-5.808-3.573 0-6.469 2.6-6.469 5.808 0 .132.012.261.022.391l-.044.006c.01-.132.022-.263.022-.397 0-3.208-2.896-5.808-6.469-5.808-3.573 0-6.469 2.6-6.469 5.808 0 1.731.848 3.281 2.186 4.344l10.752 9.795 10.791-9.826c.199-.161.388-.331.564-.513l.054-.049-.003-.002zm-401-15c.954-1.012 1.532-2.319 1.532-3.749 0-3.208-2.896-5.808-6.469-5.808-3.573 0-6.469 2.6-6.469 5.808 0 .132.012.261.022.391l-.044.006c.01-.132.022-.263.022-.397 0-3.208-2.896-5.808-6.469-5.808-3.573 0-6.469 2.6-6.469 5.808 0 1.731.848 3.281 2.186 4.344l10.752 9.795 10.791-9.826c.199-.161.388-.331.564-.513l.054-.049-.003-.002zm46-315c.954-1.012 1.532-2.319 1.532-3.749C154.876 2.6 151.98 0 148.407 0c-3.573 0-6.469 2.6-6.469 5.808 0 .132.012.261.022.391l-.044.006c.01-.132.022-.263.022-.397 0-3.208-2.896-5.808-6.469-5.808C131.896 0 129 2.6 129 5.808c0 1.731.848 3.281 2.186 4.344l10.752 9.795 10.791-9.826c.199-.161.388-.331.564-.513l.054-.049-.003-.002zm506 215c.954-1.012 1.532-2.319 1.532-3.749 0-3.208-2.896-5.808-6.469-5.808-3.573 0-6.469 2.6-6.469 5.808 0 .132.012.261.022.391l-.044.006c.01-.132.022-.263.022-.397 0-3.208-2.896-5.808-6.469-5.808-3.573 0-6.469 2.6-6.469 5.808 0 1.731.848 3.281 2.186 4.344l10.752 9.795 10.791-9.826c.199-.161.388-.331.564-.513l.054-.049-.003-.002zM502.321 491.832c.46-.488.739-1.118.739-1.808 0-1.547-1.397-2.801-3.12-2.801s-3.12 1.254-3.12 2.801c0 .064.006.126.011.188l-.021.003c.005-.064.011-.127.011-.191 0-1.547-1.397-2.801-3.12-2.801s-3.119 1.254-3.119 2.801c0 .835.409 1.582 1.054 2.095l5.185 4.723 5.203-4.738a2.91 2.91 0 00.272-.248l.026-.024h-.001zM489.302 259.53c.46-.488.739-1.118.739-1.808 0-1.547-1.397-2.801-3.12-2.801s-3.119 1.254-3.119 2.801c0 .064.006.126.011.188l-.021.003c.005-.064.011-.127.011-.191 0-1.547-1.397-2.801-3.12-2.801s-3.12 1.254-3.12 2.801c0 .835.409 1.582 1.054 2.095l5.185 4.723 5.203-4.738a2.91 2.91 0 00.272-.248l.026-.024h-.001zM120.739 119.609c.46-.488.739-1.118.739-1.808 0-1.547-1.397-2.801-3.12-2.801s-3.119 1.254-3.119 2.801c0 .064.006.126.011.188l-.021.003c.005-.064.011-.127.011-.191 0-1.547-1.397-2.801-3.12-2.801s-3.12 1.254-3.12 2.801c0 .835.409 1.582 1.054 2.095l5.185 4.723 5.203-4.738a2.91 2.91 0 00.272-.248l.026-.024h-.001zm127.443 241.342c.46-.488.739-1.118.739-1.808 0-1.547-1.397-2.801-3.119-2.801-1.723 0-3.12 1.254-3.12 2.801 0 .064.006.126.011.188l-.021.003c.005-.064.011-.127.011-.191 0-1.547-1.396-2.801-3.12-2.801-1.723 0-3.119 1.254-3.119 2.801 0 .835.409 1.582 1.054 2.095l5.185 4.723 5.203-4.738c.096-.078.187-.16.272-.248l.024-.024zM596.738 92.609c.46-.488.739-1.118.739-1.808 0-1.547-1.397-2.801-3.119-2.801-1.723 0-3.12 1.254-3.12 2.801 0 .064.006.126.011.188l-.021.003c.005-.064.011-.127.011-.191 0-1.547-1.396-2.801-3.12-2.801-1.723 0-3.119 1.254-3.119 2.801 0 .835.409 1.582 1.054 2.095l5.185 4.723 5.203-4.738c.096-.078.187-.16.272-.248l.024-.024zm-341 181c.46-.488.739-1.118.739-1.808 0-1.547-1.397-2.801-3.119-2.801-1.723 0-3.12 1.254-3.12 2.801 0 .064.006.126.011.188l-.021.003c.005-.064.011-.127.011-.191 0-1.547-1.396-2.801-3.12-2.801-1.723 0-3.119 1.254-3.119 2.801 0 .835.409 1.582 1.054 2.095l5.185 4.723 5.203-4.738c.096-.078.187-.16.272-.248l.024-.024zm-15.94 218.223c.46-.488.739-1.118.739-1.808 0-1.547-1.397-2.801-3.12-2.801s-3.119 1.254-3.119 2.801c0 .064.006.126.011.188l-.021.003c.005-.064.011-.127.011-.191 0-1.547-1.397-2.801-3.119-2.801-1.723 0-3.119 1.254-3.119 2.801 0 .835.409 1.582 1.054 2.095l5.185 4.723 5.203-4.738c.096-.078.187-.16.272-.248l.023-.024z" fill="#fff"/></g></svg>