<svg width="90" height="121" fill="none" xmlns="http://www.w3.org/2000/svg"><path opacity=".5" d="M49 120.753H29.204V24.736L0 34.756V17.92L46.464.753H49v120z" fill="#8CBBE6"/><path d="M77.114 38.978c-1.35 5.126-2.87 10.323-2.633 15.626.593 13.27 11.95 24.311 11.883 37.595-.053 10.399-8.248 20.129-18.299 21.726-10.05 1.596-20.748-5.132-23.884-15.024-2.062-6.502-1.076-13.59.492-20.234 1.569-6.645 3.71-13.234 3.924-20.066.218-6.962-1.58-13.801-2.535-20.698-1.546-11.159.142-23.14 11.541-27.733 8.609-3.468 15.288-.479 19.405 7.926 3.29 6.718 1.936 13.932.106 20.882z" fill="#F5F4E3"/><path d="M50.24 91.21h2.132v25.13H50.24V91.21z" fill="#E4E4E0"/><path d="M50.24 88.733h2.132v2.477H50.24v-2.477z" fill="#402C49"/><path d="M52.372 116.34l7.578 3.212H42.662l7.578-3.212h2.132z" fill="#D4CFBE"/><path d="M50.24 84.979h10.233v3.754H50.24v-3.754z" fill="#A64F5A"/><path d="M42.176 84.979h8.064v3.754h-8.064v-3.754z" fill="#8C404C"/><path d="M78.848 70.208h3.876c2.421 0 4.391 2.014 4.391 4.49v46.054h-.908v-10.643H75.366v10.643h-.909V74.697c0-2.475 1.97-4.49 4.391-4.49zm7.359 38.972V74.697c0-1.963-1.563-3.56-3.483-3.56h-3.876c-1.92 0-3.482 1.597-3.482 3.56v34.483h10.84z" fill="#454F6B"/><path d="M71.915 37.279c.072-2.679-.782-5.407-2.507-7.425-1.725-2.017-4.337-3.263-6.955-3.133-2.618.13-5.166 1.701-6.346 4.094-2.063 4.18.258 9.309-.771 13.87-.615 2.725-2.368 5.008-3.592 7.508-1.223 2.5-1.861 5.687-.287 7.973.905 1.314 2.401 2.09 3.925 2.484 3.25.84 6.858.085 9.524-1.993 3.442-2.686 4.234-6.354 4.328-10.508.1-4.44 2.56-8.428 2.68-12.87z" fill="#E4737B"/><path d="M70.042 32.324c-1.682-2.55-4.65-4.26-7.685-4.162-3.036.098-5.989 2.133-6.947 5.037a7.623 7.623 0 00-.079.257c.122-.91.358-1.796.776-2.641 1.18-2.393 3.728-3.964 6.346-4.094 2.618-.13 5.23 1.116 6.955 3.133 1.725 2.018 2.58 4.746 2.507 7.425a13.947 13.947 0 01-.136 1.558c.082-2.293-.48-4.608-1.737-6.514z" fill="#FF94A1"/><path d="M60.853 45.565c-.692-.515-1.244-1.197-1.688-1.95l.097-1.375 4.568 2.554-.266 1.652c-.955.042-1.93-.3-2.71-.88z" fill="#422C4F"/><path d="M64.242 49.75c-.921.587-2.009.876-3.094.913-1.344.045-2.714-.3-3.825-1.075a5.337 5.337 0 01-1.811-2.19l3.447-.875.206-2.908c.445.753.996 1.435 1.688 1.95.781.581 1.756.923 2.711.881l-.037.232 2.55.985a4.92 4.92 0 01-1.835 2.087z" fill="#F0BF9C"/><path d="M64.764 74.8H47.35L49 71.733a25.743 25.743 0 003.043-11.327l.406-12.232 3.064-.777a5.34 5.34 0 001.811 2.19c1.111.775 2.481 1.12 3.825 1.075 1.085-.036 2.172-.326 3.094-.913a4.92 4.92 0 001.836-2.087l3.349 1.294c1.283.495 1.998 1.895 1.662 3.255l-.356 1.442a10.144 10.144 0 00-.278 3.018l.222 3.834c.085 1.47-.787 2.82-2.142 3.318a2.594 2.594 0 00-1.463 1.367l-1.112 2.444a14.072 14.072 0 00-1.215 6.92l.019.246z" fill="#6C6FC3"/><path d="M69.356 37.956l-1.03 3.921a5.053 5.053 0 01-1.76 2.694A4.859 4.859 0 0163.18 45.6l-.065-.005a4.898 4.898 0 01-3.31-1.678l-.051-.059a5.098 5.098 0 01-1.218-2.81l-.234-2.214a8.658 8.658 0 004.69-4.945l.004-.009c.826-.267 1.75.301 2.34.95.588.65.983 1.46 1.553 2.127.571.666 1.6 1 2.466 1z" fill="#F0BF9C"/><path d="M62.489 37.284a2.15 2.15 0 011.758.816l-3.457.124a2.157 2.157 0 011.699-.94z" fill="#E4737B"/><path d="M62.783 40.001c-.22 0-.397-.234-.397-.522 0-.289.178-.523.397-.523.219 0 .396.234.396.523 0 .288-.177.522-.396.522z" fill="#422C4F"/><path d="M67.825 37.284c-.468-.026-.891.298-1.167.816l2.294.124c-.251-.547-.658-.915-1.127-.94z" fill="#E4737B"/><path d="M67.541 40.001c-.219 0-.396-.234-.396-.522 0-.289.177-.523.396-.523.22 0 .397.234.397.523 0 .288-.178.522-.397.522z" fill="#422C4F"/><path d="M64.486 41.605l1.426.051c-.079.291-.402.535-.696.543-.295.008-.637-.308-.73-.594z" fill="#EBA588"/><path d="M62.719 42.511c1.102.318 2.23.54 3.369.66-.365.658-1.138 1.084-1.866.949-.728-.134-1.386-.862-1.503-1.609z" fill="#fff"/><path d="M64.744 74.553l.322 1.898 11.8 8.766c2.407 1.79 3.682 4.767 3.334 7.789l-2.06 17.914h-6.97V92.86L57.068 82.54l.982-7.74 6.694-.248z" fill="#402C49"/><path d="M58.05 78.825l4.594-.722-2.07 1.703 5.28 4.597a17.392 17.392 0 015.314 8.446l.004.012-14.104-10.32.983-3.716z" fill="#56438C"/><path d="M47.35 74.8l-1.07 1.74a6.532 6.532 0 00-.787 4.91 6.4 6.4 0 002.905 4.02l10.863 6.565.607 18.887h6.864l2.03-17.593c.31-2.687-.682-5.359-2.657-7.16l-8.054-7.344V74.8h-10.7z" fill="#402C49"/><path d="M65.158 112.083l-.074 1.804a3.188 3.188 0 001.255 2.676l1.004.757h-.871c-.91 0-1.76.465-2.264 1.238h-3.557l.523-6.476h3.984v.001z" fill="#F0BF9C"/><path d="M61.268 110.922h3.937l-.047 1.161h-3.984l.094-1.161z" fill="#EBA588"/><path d="M66.471 117.32h.871l.289.218c.273.206.578.365.902.47a3.138 3.138 0 012.11 2.458l.05.286h-10.22l.178-2.193h3.557a2.705 2.705 0 012.263-1.239z" fill="#E4737B"/><path d="M76.316 112.083l-.074 1.804a3.188 3.188 0 001.254 2.676l1.005.757h-.871c-.91 0-1.76.465-2.264 1.238H71.81l.523-6.476h3.984v.001z" fill="#F0BF9C"/><path d="M72.426 110.922h3.937l-.047 1.161h-3.984l.094-1.161z" fill="#EBA588"/><path d="M77.63 117.32h.87l.29.218c.273.206.578.365.901.47a3.138 3.138 0 012.111 2.458l.05.286h-10.22l.177-2.193h3.557a2.705 2.705 0 012.264-1.239z" fill="#E4737B"/><path d="M54.294 52.117a6.22 6.22 0 01.126 4.262l-3.145 9.476-.002-.001c.447-1.776.708-3.602.77-5.447l.326-9.846 1.641.846.284.71z" fill="#56438C"/><path d="M52.448 48.174l-.412.112a4.474 4.474 0 00-3.008 2.774l-1.88 5.06 5.3 2.245 1.413-3.458a5.181 5.181 0 00-.176-4.3l-1.237-2.433z" fill="#6C6FC3"/><path d="M58.088 67.964h-8.962a4.18 4.18 0 01-2.053-.54c-1.94-1.095-2.732-3.527-1.822-5.591l2.42-5.49 4.274 1.81-2.35 5.657 7.13 1.91 3.252-1.686a1.08 1.08 0 01.883-.051l.825.315c.319.121.575.37.71.689l.3.705a.503.503 0 01-.234.646.484.484 0 01-.68-.304l-.22-.743-.958-.29.543.545c.128.129.223.288.277.463l.17.562-3.505 1.393z" fill="#F0BF9C"/><path d="M49.596 63.809l-2.675-.877 3.148-.261-.473 1.138z" fill="#EBA588"/><path d="M51.946 58.153l-4.274-1.81-.322.73 3.812 2.966.784-1.886z" fill="#422C4F"/><path d="M60.826 66.804a1.659 1.659 0 00-.932-1.264c.289.432.643.832.932 1.264zm-.677.28l-1.294-1.029c.194.565.714.947 1.294 1.03z" fill="#EBA588"/><path d="M56.726 66.57h11.318v1.393h-9.956c-.752 0-1.362-.624-1.362-1.393z" fill="#99A3B0"/><path d="M65.451 67.963h16.87c.557 0 1.043-.39 1.176-.943l2.979-12.38c.14-.586-.293-1.151-.882-1.151h-16.87c-.557 0-1.043.389-1.176.942L64.57 66.812c-.14.586.293 1.151.882 1.151z" fill="#99A3B0"/><path d="M66.064 67.963h16.869c.557 0 1.043-.39 1.176-.943l2.98-12.38c.14-.586-.293-1.151-.883-1.151h-16.87c-.557 0-1.042.389-1.175.942l-2.98 12.381c-.14.586.293 1.151.883 1.151z" fill="#C7D2D7"/><path d="M74.511 60.726c-.315 1.229.403 2.225 1.606 2.225 1.202 0 2.432-.996 2.748-2.225.315-1.23-.403-2.225-1.606-2.225-1.202 0-2.432.996-2.748 2.225z" fill="#fff"/><path d="M54.946 67.963H90v2.245H54.946v-2.245z" fill="#A64F5A"/><path d="M42 67.963h12.946v2.245H42v-2.245z" fill="#8C404C"/><path d="M49.255 70.208h3.876c2.421 0 4.391 2.014 4.391 4.49v46.054h-.908v-10.643H45.773v10.643h-.909V74.697c0-2.475 1.97-4.49 4.391-4.49zm7.358 38.972V74.697c0-1.963-1.562-3.56-3.482-3.56h-3.876c-1.92 0-3.482 1.597-3.482 3.56v34.483h10.84z" fill="#454F6B"/></svg>