<svg width="193" height="257" fill="none" xmlns="http://www.w3.org/2000/svg"><path opacity=".5" d="M105 257.001H62.58V51.366L0 72.826v-36.06L99.566 0H105v257z" fill="#8CBBE6"/><g clip-path="url(#clip0)"><path d="M165.08 82.501c-2.924 10.94-6.219 22.029-5.705 33.345 1.285 28.318 25.892 51.878 25.746 80.225-.114 22.19-17.87 42.953-39.647 46.361-21.776 3.407-44.953-10.951-51.749-32.06-4.467-13.875-2.33-28.999 1.068-43.178 3.397-14.18 8.039-28.239 8.501-42.818.471-14.856-3.423-29.452-5.493-44.17-3.35-23.811.308-49.38 25.006-59.18 18.652-7.4 33.124-1.02 42.043 16.915 7.128 14.336 4.195 29.73.23 44.56z" fill="#F5F4E3"/><path d="M106.854 193.96h4.619v53.626h-4.619V193.96z" fill="#E4E4E0"/><path d="M106.854 188.675h4.619v5.285h-4.619v-5.285z" fill="#402C49"/><path d="M111.473 247.586l16.42 6.855H90.434l16.42-6.855h4.619z" fill="#D4CFBE"/><path d="M106.854 180.664h22.171v8.011h-22.171v-8.011z" fill="#A64F5A"/><path d="M89.381 180.664h17.473v8.011H89.381v-8.011z" fill="#8C404C"/><path d="M168.838 149.144h8.397c5.246 0 9.514 4.298 9.514 9.58v98.277h-1.969V234.29h-23.488v22.711h-1.968v-98.277c0-5.282 4.268-9.58 9.514-9.58zm15.942 83.164v-73.584c0-4.19-3.385-7.598-7.545-7.598h-8.397c-4.161 0-7.546 3.408-7.546 7.598v73.584h23.488z" fill="#454F6B"/><path d="M153.815 78.876c.158-5.716-1.693-11.538-5.431-15.843s-9.396-6.963-15.069-6.686c-5.672.276-11.192 3.63-13.75 8.735-4.469 8.92.559 19.865-1.671 29.599-1.331 5.813-5.131 10.685-7.781 16.021-2.65 5.336-4.034 12.135-.623 17.013 1.962 2.804 5.204 4.459 8.505 5.301 7.041 1.794 14.86.182 20.634-4.254 7.458-5.73 9.175-13.559 9.378-22.423.217-9.474 5.548-17.985 5.808-27.463z" fill="#E4737B"/><path d="M149.757 68.302c-3.644-5.439-10.074-9.09-16.651-8.881-6.576.21-12.975 4.551-15.052 10.75-.06.18-.115.364-.17.547.266-1.943.777-3.832 1.681-5.636 2.558-5.106 8.077-8.459 13.75-8.735 5.673-.277 11.331 2.38 15.069 6.686 3.738 4.305 5.589 10.127 5.431 15.843a29.373 29.373 0 01-.293 3.326c.177-4.894-1.041-9.834-3.765-13.9z" fill="#FF94A1"/><path d="M129.849 96.558c-1.501-1.099-2.695-2.555-3.659-4.161l.211-2.935 9.896 5.45-.575 3.525c-2.07.091-4.182-.64-5.873-1.879z" fill="#422C4F"/><path d="M137.191 105.487c-1.997 1.253-4.352 1.87-6.704 1.948-2.911.097-5.88-.641-8.286-2.293a11.434 11.434 0 01-3.926-4.675l7.469-1.866.446-6.204c.964 1.606 2.158 3.062 3.659 4.161 1.691 1.24 3.804 1.97 5.874 1.88l-.081.494 5.526 2.101c-.845 1.831-2.27 3.384-3.977 4.454z" fill="#F0BF9C"/><path d="M138.321 158.944h-37.729l3.572-6.546a54.304 54.304 0 006.595-24.17l.878-26.103 6.639-1.658a11.431 11.431 0 003.925 4.675c2.406 1.652 5.375 2.39 8.286 2.293 2.352-.078 4.707-.695 6.704-1.948 1.707-1.07 3.133-2.623 3.977-4.454l7.257 2.76c2.779 1.057 4.329 4.045 3.602 6.946l-.772 3.079a21.342 21.342 0 00-.603 6.439l.481 8.181c.184 3.136-1.705 6.019-4.642 7.081a5.591 5.591 0 00-3.17 2.916l-2.408 5.217a29.622 29.622 0 00-2.633 14.765l.041.527z" fill="#6C6FC3"/><path d="M148.272 80.322l-2.231 8.367a10.774 10.774 0 01-3.816 5.748 10.64 10.64 0 01-7.333 2.195l-.141-.01a10.67 10.67 0 01-7.172-3.582l-.11-.124a10.806 10.806 0 01-2.639-5.996l-.507-4.725a18.599 18.599 0 0010.163-10.552l.008-.02c1.789-.569 3.793.643 5.068 2.029 1.276 1.386 2.131 3.116 3.368 4.537 1.236 1.42 3.465 2.133 5.342 2.133z" fill="#F0BF9C"/><path d="M133.393 78.886a4.686 4.686 0 013.809 1.743l-7.489.263a4.69 4.69 0 013.68-2.005z" fill="#E4737B"/><path d="M134.03 84.686c-.475 0-.86-.5-.86-1.115 0-.616.385-1.115.86-1.115.474 0 .859.499.859 1.115s-.385 1.115-.859 1.115z" fill="#422C4F"/><path d="M144.955 78.886c-1.015-.053-1.931.637-2.528 1.743l4.97.263c-.544-1.167-1.427-1.952-2.442-2.005z" fill="#E4737B"/><path d="M144.34 84.686c-.475 0-.86-.5-.86-1.115 0-.616.385-1.115.86-1.115s.859.499.859 1.115-.384 1.115-.859 1.115z" fill="#422C4F"/><path d="M137.719 88.108l3.091.11c-.17.62-.87 1.141-1.509 1.157-.639.017-1.38-.656-1.582-1.267z" fill="#EBA588"/><path d="M133.891 90.041a42.878 42.878 0 007.3 1.408c-.791 1.406-2.465 2.314-4.043 2.026-1.578-.287-3.003-1.839-3.257-3.433z" fill="#fff"/><path d="M138.279 158.417l.698 4.05 25.565 18.706c5.216 3.817 7.979 10.172 7.226 16.62l-4.467 38.23h-15.096v-38.539l-30.558-22.023 2.129-16.517 14.503-.527z" fill="#402C49"/><path d="M123.776 167.533l9.952-1.542-4.484 3.634 11.439 9.809a37.05 37.05 0 0111.516 18.024l.007.026-30.558-22.022 2.128-7.929z" fill="#56438C"/><path d="M100.592 158.944l-2.317 3.712a13.76 13.76 0 00-1.708 10.477c.86 3.6 3.13 6.695 6.296 8.579l23.536 14.01 1.315 40.302h14.872l4.397-37.541a17.764 17.764 0 00-5.756-15.279l-17.45-15.671v-8.589h-23.185z" fill="#402C49"/><path d="M139.175 238.502l-.159 3.85a6.764 6.764 0 002.718 5.711l2.175 1.615h-1.887c-1.97 0-3.811.992-4.904 2.643h-7.708l1.134-13.82h8.631v.001z" fill="#F0BF9C"/><path d="M130.748 236.024h8.53l-.103 2.478h-8.631l.204-2.478z" fill="#EBA588"/><path d="M142.022 249.678h1.887l.625.465c.593.44 1.253.778 1.954 1.002a6.731 6.731 0 014.573 5.246l.109.61h-22.145l.385-4.68h7.708a5.883 5.883 0 014.904-2.643z" fill="#E4737B"/><path d="M163.351 238.502l-.159 3.85a6.766 6.766 0 002.717 5.711l2.176 1.615h-1.887c-1.97 0-3.811.992-4.904 2.643h-7.708l1.134-13.82h8.631v.001z" fill="#F0BF9C"/><path d="M154.924 236.024h8.53l-.103 2.478h-8.63l.203-2.478z" fill="#EBA588"/><path d="M166.198 249.678h1.887l.626.465c.592.44 1.252.778 1.954 1.002a6.733 6.733 0 014.573 5.246l.108.61h-22.145l.385-4.68h7.708a5.884 5.884 0 014.904-2.643z" fill="#E4737B"/><path d="M115.636 110.54a13.085 13.085 0 01.275 9.095l-6.814 20.22-.005-.002a54.464 54.464 0 001.667-11.625l.707-21.01 3.556 1.807.614 1.515z" fill="#56438C"/><path d="M111.637 102.125l-.891.238a9.637 9.637 0 00-6.519 5.92l-4.072 10.8 11.482 4.79 3.062-7.38a10.902 10.902 0 00-.381-9.177l-2.681-5.191z" fill="#6C6FC3"/><path d="M123.858 144.354H104.44a9.166 9.166 0 01-4.449-1.153c-4.201-2.335-5.918-7.525-3.947-11.93l5.245-11.714 9.26 3.863-5.091 12.07 15.447 4.075 7.045-3.598a2.374 2.374 0 011.914-.108l1.786.671c.691.26 1.247.791 1.541 1.472l.648 1.503a1.067 1.067 0 01-.506 1.38 1.055 1.055 0 01-1.473-.648l-.476-1.586-2.077-.62 1.177 1.164c.277.275.483.614.599.988l.371 1.199-7.596 2.972z" fill="#F0BF9C"/><path d="M105.458 135.489l-5.796-1.871 6.82-.557-1.024 2.428z" fill="#EBA588"/><path d="M110.549 123.419l-9.26-3.863-.697 1.558 8.259 6.33 1.698-4.025z" fill="#422C4F"/><path d="M129.79 141.88a3.545 3.545 0 00-2.019-2.697c.626.921 1.393 1.774 2.019 2.697zm-1.468.598l-2.803-2.195c.421 1.204 1.548 2.019 2.803 2.195z" fill="#EBA588"/><path d="M120.905 141.381h24.524v2.973h-21.571a2.963 2.963 0 01-2.953-2.973z" fill="#99A3B0"/><path d="M139.811 144.354h36.55a2.63 2.63 0 002.549-2.012l6.454-26.42c.306-1.249-.633-2.456-1.911-2.456h-36.55a2.63 2.63 0 00-2.549 2.011l-6.454 26.421c-.305 1.25.634 2.456 1.911 2.456z" fill="#99A3B0"/><path d="M141.138 144.354h36.55a2.63 2.63 0 002.549-2.012l6.454-26.42c.305-1.249-.634-2.456-1.911-2.456h-36.55a2.63 2.63 0 00-2.549 2.011l-6.455 26.421c-.305 1.25.634 2.456 1.912 2.456z" fill="#C7D2D7"/><path d="M159.441 128.91c-.684 2.623.873 4.749 3.478 4.749 2.605 0 5.271-2.126 5.954-4.749.684-2.622-.873-4.749-3.478-4.749-2.605 0-5.27 2.127-5.954 4.749z" fill="#fff"/><path d="M117.05 144.354H193v4.79h-75.95v-4.79z" fill="#A64F5A"/><path d="M89 144.354h28.051v4.79H89v-4.79z" fill="#8C404C"/><path d="M104.72 149.144h8.397c5.246 0 9.514 4.298 9.514 9.58v98.277h-1.968V234.29H97.174v22.711h-1.968v-98.277c0-5.282 4.268-9.58 9.514-9.58zm15.943 83.164v-73.584c0-4.19-3.385-7.598-7.546-7.598h-8.397c-4.161 0-7.546 3.408-7.546 7.598v73.584h23.489z" fill="#454F6B"/></g><defs><clipPath id="clip0"><path fill="#fff" transform="translate(89 18.001)" d="M0 0h104v239H0z"/></clipPath></defs></svg>