<svg width="99" height="120" fill="none" xmlns="http://www.w3.org/2000/svg"><path opacity=".5" d="M98.259 119.116H20.756v-13.268L59.15 63.822c5.542-6.197 9.474-11.361 11.796-15.492 2.375-4.184 3.562-8.369 3.562-12.553 0-5.508-1.557-9.957-4.67-13.347-3.062-3.39-7.205-5.084-12.43-5.084-6.227 0-11.056 1.907-14.487 5.72-3.43 3.813-5.145 9.03-5.145 15.65H18.538c0-7.043 1.584-13.373 4.75-18.987 3.22-5.667 7.785-10.063 13.696-13.188 5.964-3.125 12.825-4.687 20.583-4.687 11.189 0 20.002 2.834 26.441 8.5 6.492 5.615 9.737 13.4 9.737 23.358 0 5.773-1.636 11.837-4.908 18.193-3.22 6.303-8.523 13.479-15.912 21.53l-28.183 30.268h53.516v15.413z" fill="#8CBBE6"/><path d="M36.43 18.505H19.555a.815.815 0 01-.816-.816V.816c0-.45.366-.816.816-.816h16.873c.45 0 .816.365.816.816v16.873c0 .45-.365.816-.816.816z" fill="#F0F0F0"/><path d="M33.4 4.566h-.022c-.627 0-1.136.04-1.136.09 0 .046.447.084 1.017.088-.057.06-.14.148-.244.263l-.9 1.01-2.961 3.408-1.25-.836-.648-.43-.066-.044-.051.06a484.977 484.977 0 00-3.326 3.925l-.978 1.182c-.227.281-.348.438-.339.446.009.008.146-.136.389-.403l1.02-1.147a524.87 524.87 0 003.318-3.828l.581.388 1.317.876.065.043.05-.06 2.966-3.506c.352-.428.64-.778.86-1.043.11-.137.188-.237.237-.303h.012c.005.574.042 1.024.089 1.024.049 0 .088-.496.09-1.113v-.09h-.09z" fill="#E0E0E0"/><path d="M80.281 12.35h9.053c0 4.967-4.087 9.053-9.053 9.053-4.966 0-9.052-4.087-9.052-9.052 0-4.888 3.958-8.937 8.843-9.05l.21 9.05z" fill="#F0F0F0"/><path d="M82.721 10.144l-.204-9.052c2.357 0 4.828.92 6.517 2.564 1.69 1.645 2.672 3.991 2.736 6.347l-9.049.14z" fill="#EBEBEB"/><path d="M34.818 11.311V38.77c0 .61.495 1.104 1.105 1.104h36.575c.61 0 1.105-.494 1.105-1.104V10.357c0-.622-.513-1.12-1.134-1.104l-36.575.954a1.105 1.105 0 00-1.076 1.104z" fill="#E0E0E0"/><path d="M70.337 16.116c-.014.03-.466-.233-1.353-.514a8.696 8.696 0 00-3.88-.288 8.482 8.482 0 00-2.56.823c-.868.435-1.695 1.08-2.517 1.81-.825.728-1.644 1.555-2.589 2.32-.945.752-2.03 1.463-3.305 1.788a5.002 5.002 0 01-1.93.117 6.255 6.255 0 01-1.787-.553c-1.108-.522-2.056-1.208-2.995-1.78-.932-.584-1.87-1.047-2.817-1.264a8.368 8.368 0 00-2.68-.205 8.63 8.63 0 00-3.699 1.204c-.793.485-1.168.85-1.189.824-.006-.007.086-.098.27-.264.18-.17.466-.397.86-.655a8.432 8.432 0 016.494-1.136c.979.212 1.957.686 2.9 1.269.95.572 1.899 1.25 2.974 1.751 1.065.513 2.318.741 3.53.413 1.211-.308 2.269-.994 3.198-1.73.93-.747 1.753-1.568 2.59-2.298.835-.731 1.685-1.385 2.585-1.824a8.557 8.557 0 012.638-.81 8.495 8.495 0 013.944.382c.445.154.777.311.994.428.217.118.329.184.324.192zm-23.303 6.45h-3.578v9.676h3.578v-9.676zm15.18 0h-3.577v9.676h3.577v-9.676z" fill="#455A64"/><path d="M67.274 16.885h-3.577v15.357h3.577V16.885zm-24.87 12.311h-3.577v3.257h3.577v-3.257zm9.69-2.26h-3.578v5.306h3.578v-5.306zm5.06-1.218h-3.577v6.524h3.577v-6.524z" fill="#455A64"/><path d="M45.245 33.526c1.067 0 1.933-.064 1.933-.144 0-.08-.866-.143-1.933-.143-1.067 0-1.933.064-1.933.143 0 .08.866.144 1.933.144zm-4.452.001c1.068 0 1.933-.065 1.933-.144 0-.08-.865-.144-1.933-.144s-1.933.065-1.933.144c0 .08.865.144 1.933.144zm25.002-.001c1.206 0 2.185-.064 2.185-.144 0-.08-.979-.143-2.185-.143-1.207 0-2.185.064-2.185.143 0 .08.978.144 2.185.144zm-5.315 0c1.206 0 2.185-.064 2.185-.144 0-.08-.979-.143-2.185-.143-1.207 0-2.185.064-2.185.143 0 .08.978.144 2.185.144zm-5.259 0c1.068 0 1.933-.064 1.933-.144 0-.08-.865-.144-1.933-.144-1.067 0-1.932.065-1.932.144 0 .08.865.144 1.932.144zm-5.228 0c1.067 0 1.933-.064 1.933-.144 0-.08-.866-.144-1.933-.144-1.068 0-1.933.065-1.933.144 0 .08.865.144 1.933.144z" fill="#263238"/><path d="M26.41 118.345v-3.067l-5.497-.037-.046 4.587.34.025c1.517.098 7.716.288 8.732-.026 1.133-.351-3.53-1.482-3.53-1.482z" fill="#E8505B"/><path d="M25.477 119.639c2.536 0 4.592-.042 4.592-.093 0-.052-2.056-.094-4.592-.094-2.536 0-4.591.042-4.591.094 0 .051 2.055.093 4.591.093zm1.028-.668c-.045-.024-.006-.186.112-.345.118-.161.261-.246.297-.21.037.037-.038.172-.146.32-.11.148-.217.26-.263.235zm.351.202c-.048-.018-.023-.199.085-.39.108-.192.251-.307.291-.276.041.032-.028.189-.128.367s-.199.318-.248.299z" fill="#263238"/><path d="M22.541 119.525c-.021.015-.103-.066-.222-.201-.12-.133-.276-.323-.482-.482a1.25 1.25 0 00-.595-.26c-.167-.022-.276.003-.286-.024-.01-.019.093-.096.29-.108.196-.013.472.061.705.244a2 2 0 01.475.552c.094.158.136.265.115.279zm3.981-1.131c.027.044-.067.15-.224.208-.157.058-.298.037-.305-.013-.008-.051.103-.111.24-.163.138-.05.262-.076.29-.032zm-.086-.296c.005.052-.142.096-.327.098-.186.003-.333-.038-.33-.089.004-.052.15-.095.327-.098.177-.002.325.038.33.089z" fill="#263238"/><path d="M42.349 26.85l.05-.927s.122-.556.118-1.559a2.285 2.285 0 00-.137-.762c-.107-.297-.265-.685-.417-.87-.19-.23 0-.57.262-.503.261.067.797.688 1.039 1.614.242.927.867-.445 1.103-.94.236-.496 1.04-1.996 1.25-2.044.308-.07.44.246.192.736-.25.496-.887 2.01-.619 2.123 0 0 .383-.093.586-.025.067.022.114.062.121.13.026.27.087.426.087.426s.369-.118.46.039c.093.156.12.516.12.516s.281-.124.429-.029c.32.208-.025.644-.025.644-.78 1.234-2.474 3.115-2.474 3.115l-2.16-1.737m-26.388-.007l-.037 11.845 5.082.242.147-2.88s1.805.358 2.27-1.319c.298-1.07.224-9.346.224-9.346l-7.686 1.458z" fill="#FFBE9D"/><path d="M23.34 23.495c-1.546.501-1.919.668-2.612.723-.665.054-5.4.058-5.83 2.712-.05-.11-.1-.24-.133-.39-.101-.419-.014-.772-.059-.784-.035-.02-.202.352-.092.819.013.06.03.118.05.171-.03-.031-.06-.063-.095-.094a1.497 1.497 0 00-.6-.32c-.171-.041-.28-.032-.283-.013-.01.045.408.12.782.45.186.159.313.336.399.474l-.002.036s-1.013-.445-.747 1.39c.267 1.837 1.466 3.395 1.613 6.4 0 0 4.198.5 4.944-1.114l.627-1.85s-1.01-.165-.892-.977c.162-1.124 1.021-1.153 1.66-.652l.737-1.973s1.866-1.224 1.972-2.003c.107-.78.107-3.506-1.439-3.005z" fill="#263238"/><path d="M1.888 116.053l-.745 3.313 5.13.634.184-3.283-4.57-.664z" fill="#E8505B"/><path d="M4.04 117.741c.136-.834.212-1.515.17-1.522-.043-.006-.187.663-.322 1.497-.135.833-.211 1.514-.169 1.521.042.007.186-.663.321-1.496z" fill="#263238"/><path d="M6.294 119.639c-.004.022-.287-.02-.743-.093l-1.78-.289a34.565 34.565 0 01-1.775-.333c-.451-.1-.727-.181-.722-.201.004-.021.287.021.743.093l1.78.289c.695.116 1.323.233 1.775.334.451.1.727.18.722.2zm3.2-55.679L0 117.32l8.132.461s8.637-45.995 9.905-46.11c.531-.049.744 45.746 1.17 45.649.428-.097 8.786.148 8.786.148s-1.13-54.186-1.111-54.187l-17.388.68z" fill="#263238"/><path d="M18.358 71.301c1.747-.371 3.157-.706 3.148-.748-.01-.041-1.433.226-3.18.597s-3.156.706-3.147.748c.008.041 1.432-.226 3.18-.597zM4.615 114.596c2.265.07 4.103.093 4.104.05.002-.043-1.834-.135-4.1-.205-2.265-.07-4.102-.092-4.104-.05-.001.043 1.834.135 4.1.205zm18.887.006c2.447.073 4.43.097 4.432.055.001-.043-1.98-.137-4.427-.209-2.447-.073-4.431-.098-4.432-.055-.002.042 1.98.136 4.427.209z" fill="#455A64"/><path d="M13.551 72.027c.042.01-1.97 9.528-4.492 21.26-2.524 11.734-4.602 21.236-4.644 21.227-.042-.009 1.97-9.526 4.493-21.26 2.522-11.73 4.601-21.236 4.643-21.227zm9.986 42.493a.587.587 0 01-.012-.11l-.018-.324-.053-1.243a417.99 417.99 0 01-.154-4.576 639.897 639.897 0 01-.252-15.105c-.028-5.9.031-11.243.107-15.108.038-1.933.076-3.497.11-4.578l.041-1.244.015-.323a.57.57 0 01.01-.11c.003 0 .005.037.006.11v.324l-.012 1.245-.061 4.578c-.048 3.865-.09 9.206-.062 15.106a903 903 0 00.207 15.102l.105 4.577.024 1.245.003.324c0 .072-.002.11-.004.11z" fill="#455A64"/><path d="M41.51 26.584s-6.296 9.497-6.83 10.03c-.533.534-10.393 1.57-10.394 1.57-3.027-.683-12.815-.458-14.664.904-1.6.885-3.543 2.956-4.544 7.879-1.707 8.398-3.415 11.492 0 12.666 1.577.542 3.061.833 4.204.99l-.095 3.801 17.699-1.1-.906-9.439c-.106-2.65-.156-5.413-.221-7.86 1.107-.419 11.4-4.314 12.106-4.415.747-.107 7.486-12.572 7.486-12.572.214-1.494-3.841-2.454-3.841-2.454z" fill="#E8505B"/><path d="M9.765 43.772c.043 0-.052 4.626-.211 10.328-.16 5.704-.323 10.326-.366 10.325-.043 0 .052-4.625.211-10.33.16-5.702.324-10.325.366-10.323zm25.802-5.02c-.041.023-.302-.438-.516-1.042-.214-.602-.404-1.077-.37-1.096.04-.023.301.439.515 1.042.214.602.404 1.077.37 1.096z" fill="#263238"/><path d="M36.273 37.944c-.029.027-.39-.256-.845-.604-.455-.349-.781-.693-.748-.725.028-.027.389.255.844.604.456.348.782.692.748.725zm8.737-8.161c-.014.019-.236-.128-.597-.359-.36-.23-.865-.538-1.44-.847a22.306 22.306 0 00-1.503-.728c-.392-.173-.637-.276-.63-.298.007-.018.266.048.67.196.406.148.955.383 1.536.694.581.311 1.081.638 1.429.893.348.255.547.433.535.45zM9.553 54.145c-.006.037-.497.009-1.094-.112-.599-.122-1.058-.312-1.045-.351.014-.043.487.08 1.076.2.588.119 1.071.217 1.063.263zm16.35-16.095c.003.03-.38.029-.95.223a3.804 3.804 0 00-1.846 1.358 3.807 3.807 0 00-.684 2.19c.002.6.127.962.098.97-.009.002-.048-.085-.096-.25a3.168 3.168 0 01-.112-.718 3.692 3.692 0 01.667-2.282 3.69 3.69 0 011.94-1.373c.296-.086.545-.12.716-.128.172-.008.267 0 .267.01zm.983 25.274c.003.043-3.957.324-8.844.627-4.888.304-8.852.516-8.855.473-.002-.042 3.957-.323 8.845-.627 4.887-.303 8.851-.515 8.854-.473zm-7.05-25.461c.005 0 .023.075.052.22.013.073.036.163.049.27l.034.375c.036.562-.028 1.397-.383 2.35-.366.935-1.045 2.017-2.204 2.732-.14.096-.296.166-.452.242-.153.081-.318.138-.482.2-.33.12-.671.22-1.01.34a4.67 4.67 0 00-.98.458 3.526 3.526 0 00-.804.76c-.466.595-.785 1.279-1.17 1.896-.374.62-.846 1.189-1.453 1.513-.606.322-1.273.398-1.868.346a4.47 4.47 0 01-1.593-.455c-.915-.448-1.519-1.024-1.919-1.415-.2-.199-.347-.36-.448-.469a1.37 1.37 0 01-.145-.173c.004-.004.062.049.168.152l.467.447c.411.376 1.02.933 1.924 1.36.448.216.976.378 1.556.425.577.046 1.217-.034 1.79-.343.573-.31 1.024-.855 1.392-1.467.378-.61.696-1.297 1.177-1.913a3.65 3.65 0 01.842-.792 4.67 4.67 0 011.013-.473l1.01-.336c.162-.06.323-.115.472-.193.15-.073.302-.14.438-.232 1.128-.685 1.804-1.736 2.177-2.649.361-.931.442-1.751.424-2.308-.007-.137-.013-.261-.02-.372-.007-.107-.025-.197-.033-.27a1.282 1.282 0 01-.021-.226zM26.538 59.7c-.005.006-.068-.046-.198-.127a1.815 1.815 0 00-.612-.25c-.283-.063-.641-.063-1.058-.095-.412-.033-.885-.037-1.41-.056-.522-.02-1.105-.064-1.705-.239a5.72 5.72 0 01-1.782-.858 4.981 4.981 0 01-1.457-1.629 4.76 4.76 0 01-.598-2.267 4.09 4.09 0 01.638-2.254 4.102 4.102 0 011.617-1.468c.316-.158.647-.263.975-.325a5.97 5.97 0 01.96-.08c.619-.005 1.19.022 1.704-.05 1.042-.107 1.745-.72 1.986-1.237.13-.258.164-.485.184-.636.018-.152.016-.233.023-.233.003 0 .006.02.008.06.002.04.005.099 0 .176-.01.153-.034.388-.16.66-.122.27-.353.569-.696.816-.34.255-.806.43-1.33.503-.525.08-1.104.058-1.716.07a5.85 5.85 0 00-.938.084 3.626 3.626 0 00-.936.319 3.975 3.975 0 00-1.552 1.422 3.953 3.953 0 00-.612 2.172c.002.785.22 1.546.575 2.195a4.869 4.869 0 001.409 1.586 5.647 5.647 0 001.734.85c.584.176 1.154.226 1.675.253.521.026.996.037 1.412.079.412.04.774.049 1.063.122a1.724 1.724 0 01.797.437z" fill="#263238"/><path d="M16.701 64.05c-.02-.001.043-.232-.034-.637a2.227 2.227 0 00-.914-1.407 2.07 2.07 0 00-.506-.247 3.128 3.128 0 00-.607-.112c-.428-.047-.905-.032-1.392-.189a1.776 1.776 0 01-.666-.403 2.16 2.16 0 01-.453-.671c-.217-.506-.275-1.092-.193-1.66.166-1.143.667-2.127.755-3.095.053-.478.022-.944-.121-1.344a1.937 1.937 0 00-.69-.932 2.26 2.26 0 00-1.627-.417c-.407.06-.606.191-.613.172 0 0 .187-.15.603-.231a2.277 2.277 0 011.702.387c.31.216.594.554.745.977.157.422.193.91.143 1.403-.086 1.002-.586 1.995-.744 3.1a2.968 2.968 0 00.18 1.58c.102.237.242.452.416.626.176.172.386.296.61.373.45.151.922.144 1.358.196.22.025.432.062.63.126.198.068.376.162.532.27.627.453.854 1.082.911 1.488.033.208.021.373.01.482a.67.67 0 01-.035.164zm-.591-16.435c-.005-.006.06-.063.208-.107a.992.992 0 01.642.043c.128.052.263.136.374.261.11.126.194.295.216.483.05.368-.116.822-.514 1.038-.405.205-.873.078-1.144-.178a.873.873 0 01-.262-.46.963.963 0 01.021-.457.944.944 0 01.37-.526c.13-.085.216-.096.217-.09.006.014-.072.045-.18.138a.957.957 0 00-.301.506c-.061.24-.019.569.231.784.235.215.646.316.976.146.328-.174.482-.566.444-.884-.03-.328-.266-.56-.492-.66a1.01 1.01 0 00-.585-.085c-.142.023-.216.06-.222.048zM7.206 60.277c-.033-.007.107-.522.14-1.371a6.025 6.025 0 00-.008-.694c-.005-.25-.045-.514-.079-.791a9.03 9.03 0 00-.47-1.758 9.038 9.038 0 00-.846-1.611c-.164-.228-.313-.45-.479-.636A6 6 0 005 52.901c-.6-.602-1.051-.886-1.032-.914.006-.009.119.06.32.193.1.065.222.15.351.26.131.11.289.227.438.383.156.149.325.314.486.51.173.187.328.409.498.638.32.472.628 1.023.872 1.636.236.616.383 1.229.468 1.793.03.284.067.552.065.806a5.8 5.8 0 01-.01.705c-.005.216-.042.408-.064.577-.02.17-.051.314-.082.43-.056.234-.092.362-.103.36zM38.02 41.478c-.005.01-.16-.065-.442-.196-.282-.13-.691-.317-1.211-.507a9.097 9.097 0 00-1.878-.474c-.72-.1-1.534-.09-2.347.115-.814.202-1.534.594-2.062 1.088-.531.493-.884 1.065-1.06 1.583-.18.518-.202.972-.18 1.278.023.307.072.474.056.478-.006.001-.02-.04-.043-.119a2.28 2.28 0 01-.072-.353 3.053 3.053 0 01.135-1.32c.169-.538.523-1.135 1.066-1.65.542-.518 1.286-.927 2.122-1.134a6.187 6.187 0 012.405-.107c.736.106 1.376.31 1.897.513a11.034 11.034 0 011.511.733c.07.043.106.068.103.072zm2.431-13.303c.004-.004.032.02.081.07.047.05.126.118.205.226.17.203.38.532.55.979a4.049 4.049 0 01-.41 3.586 3.931 3.931 0 01-1.541 1.337 4.115 4.115 0 01-1.611.428 3.626 3.626 0 01-1.118-.103c-.13-.028-.225-.072-.291-.093-.066-.024-.099-.04-.097-.044.006-.04.564.207 1.498.13a4.158 4.158 0 001.555-.445 3.876 3.876 0 001.475-1.296 4.015 4.015 0 00.436-3.464c-.305-.885-.767-1.289-.732-1.311zm-21.968 9.747c1.425-.01 2.58-.054 2.58-.097 0-.043-1.156-.069-2.581-.058-1.425.011-2.58.055-2.58.097 0 .043 1.156.069 2.58.058z" fill="#263238"/><g clip-path="url(#clip0)"><path fill="#F0F0F0" d="M50.057 47.275h23.638v33.834H50.057z"/><path d="M63.388 53.883c-3.153-.7-6.612 1.014-7.498 4.262-.851 3.12 1.208 6.76 4.338 7.61 3.066.83 6.559-1.055 7.571-4.056 1.125-3.333-1.014-6.923-4.236-7.986-.374-.123-.523.452-.162.585 2.748 1.006 4.723 3.973 3.901 6.944-.78 2.825-4.092 4.717-6.923 3.965-2.72-.722-4.475-3.642-4.13-6.362.424-3.332 3.95-5.327 7.09-4.782.115.02.167-.153.05-.18z" fill="#263238"/><path d="M60.255 65.66c3.22.99 6.928-.86 7.893-4.185.984-3.387-1.207-7.045-4.505-8.054-.76-.233-1.032.891-.322 1.17 2.794 1.092 4.645 4.12 3.54 7.09-.982 2.643-3.877 3.919-6.557 3.614-.215-.025-.242.306-.05.365zm1.647 5.662c3.539 0 6.407-.054 6.407-.121s-2.868-.12-6.407-.12c-3.538 0-6.406.053-6.406.12s2.868.121 6.406.121zm0 1.943c3.539 0 6.407-.054 6.407-.12 0-.067-2.868-.122-6.407-.122-3.538 0-6.406.055-6.406.121 0 .067 2.868.121 6.406.121z" fill="#E8505B"/></g><defs><clipPath id="clip0"><rect x="50.056" y="47.275" width="23.602" height="33.078" rx="2" fill="#fff"/></clipPath></defs></svg>