<svg width="212" height="259" fill="none" xmlns="http://www.w3.org/2000/svg"><path opacity=".5" d="M212 257.001H44.782v-28.625l82.841-90.676c11.956-13.37 20.439-24.511 25.449-33.425 5.125-9.027 7.687-18.055 7.687-27.082 0-11.885-3.359-21.484-10.078-28.797-6.604-7.313-15.543-10.97-26.816-10.97-13.437 0-23.856 4.114-31.257 12.341-7.402 8.228-11.103 19.484-11.103 33.768H40c0-15.198 3.416-28.854 10.248-40.967 6.946-12.227 16.796-21.712 29.55-28.454 12.867-6.742 27.67-10.113 44.409-10.113 24.14 0 43.156 6.114 57.048 18.34 14.006 12.114 21.009 28.912 21.009 50.395 0 12.456-3.53 25.54-10.59 39.253-6.946 13.598-18.39 29.082-34.331 46.452l-60.807 65.307H212v33.253z" fill="#8CBBE6"/><path d="M78.598 39.926H42.193a1.76 1.76 0 01-1.76-1.76V1.761c0-.972.789-1.76 1.76-1.76h36.405c.972 0 1.76.788 1.76 1.76v36.405a1.76 1.76 0 01-1.76 1.76z" fill="#F0F0F0"/><path d="M72.063 9.853h-.048c-1.353 0-2.45.087-2.45.193 0 .1.963.18 2.194.191a28 28 0 00-.528.568l-1.94 2.177-6.39 7.354-2.698-1.803-1.397-.93-.142-.094-.11.13a1046.79 1046.79 0 00-7.177 8.467l-2.11 2.552c-.49.606-.75.946-.73.962.019.016.315-.293.838-.87l2.2-2.474c1.829-2.082 4.345-4.983 7.16-8.259l1.254.838 2.84 1.888.14.094.108-.128 6.4-7.567 1.855-2.25c.238-.296.407-.51.512-.654h.027c.01 1.239.091 2.21.191 2.21.105 0 .191-1.07.193-2.401v-.193h-.192z" fill="#E0E0E0"/><path d="M173.212 26.648h19.532c0 10.715-8.817 19.53-19.532 19.53-10.714 0-19.53-8.816-19.53-19.53 0-10.544 8.538-19.282 19.079-19.525l.451 19.525z" fill="#F0F0F0"/><path d="M178.477 21.887l-.442-19.53c5.086 0 10.417 1.986 14.062 5.533 3.645 3.547 5.764 8.61 5.902 13.694l-19.522.303z" fill="#EBEBEB"/><path d="M75.123 24.406v59.243a2.383 2.383 0 002.382 2.383h78.915a2.383 2.383 0 002.383-2.383V22.346a2.384 2.384 0 00-2.446-2.382l-78.914 2.06a2.384 2.384 0 00-2.32 2.382z" fill="#E0E0E0"/><path d="M151.757 34.773c-.03.062-1.006-.504-2.92-1.11a18.763 18.763 0 00-8.372-.62c-1.758.28-3.662.813-5.522 1.774-1.872.939-3.657 2.33-5.43 3.905-1.78 1.572-3.548 3.355-5.586 5.005-2.04 1.623-4.379 3.158-7.131 3.859a10.791 10.791 0 01-4.163.251c-1.369-.186-2.663-.635-3.858-1.191-2.391-1.127-4.436-2.608-6.461-3.843-2.012-1.26-4.033-2.258-6.078-2.725a18.059 18.059 0 00-5.781-.443 18.622 18.622 0 00-7.98 2.598c-1.713 1.046-2.52 1.834-2.566 1.779-.014-.016.185-.212.58-.57.388-.366 1.007-.858 1.857-1.414a18.19 18.19 0 0114.01-2.45c2.113.457 4.222 1.48 6.256 2.736 2.053 1.236 4.098 2.697 6.419 3.779 2.297 1.106 5 1.599 7.614.891 2.615-.664 4.897-2.144 6.902-3.732 2.006-1.612 3.782-3.385 5.589-4.959 1.8-1.577 3.635-2.988 5.576-3.935 1.925-.97 3.888-1.49 5.691-1.75 3.637-.492 6.61.16 8.511.826.96.332 1.675.672 2.144.923.469.254.709.397.699.416zM101.478 48.69H93.76v20.875h7.718V48.69zm32.754 0h-7.718v20.875h7.718V48.69z" fill="#455A64"/><path d="M145.15 36.43h-7.719v33.136h7.719V36.43zM91.49 62.993h-7.718v7.026h7.718v-7.026zm20.907-4.876h-7.719v11.448h7.719V58.117zm10.917-2.629h-7.718v14.077h7.718V55.488z" fill="#455A64"/><path d="M97.62 72.336c2.302 0 4.169-.139 4.169-.31 0-.172-1.867-.31-4.17-.31s-4.17.138-4.17.31c0 .171 1.867.31 4.17.31zm-9.606 0c2.304 0 4.171-.139 4.171-.31 0-.171-1.867-.31-4.17-.31-2.304 0-4.171.139-4.171.31 0 .171 1.867.31 4.17.31zm53.943 0c2.603 0 4.714-.139 4.714-.31 0-.172-2.111-.31-4.714-.31-2.604 0-4.714.138-4.714.31 0 .171 2.11.31 4.714.31zm-11.467 0c2.603 0 4.714-.139 4.714-.31 0-.172-2.111-.31-4.714-.31-2.604 0-4.714.138-4.714.31 0 .171 2.11.31 4.714.31zm-11.346.001c2.303 0 4.17-.14 4.17-.311 0-.172-1.867-.31-4.17-.31s-4.17.138-4.17.31 1.867.31 4.17.31zm-11.281 0c2.303 0 4.171-.14 4.171-.311 0-.172-1.868-.31-4.171-.31s-4.17.138-4.17.31 1.867.31 4.17.31z" fill="#263238"/><path d="M56.98 255.338v-6.618l-11.86-.079-.098 9.896.735.054c3.271.212 16.647.622 18.839-.057 2.444-.756-7.617-3.196-7.617-3.196z" fill="#E8505B"/><path d="M54.969 258.131c5.471 0 9.907-.091 9.907-.202 0-.112-4.436-.203-9.907-.203s-9.907.091-9.907.203c0 .111 4.436.202 9.907.202zm2.218-1.442c-.097-.052-.014-.401.24-.746.255-.346.565-.529.642-.451.08.08-.082.371-.316.69-.236.318-.467.56-.566.507zm.757.436c-.103-.039-.05-.431.184-.843.232-.414.54-.662.627-.594.089.07-.06.407-.276.792-.218.383-.43.686-.535.645z" fill="#263238"/><path d="M48.634 257.884c-.046.033-.223-.142-.479-.433-.257-.288-.596-.697-1.04-1.041-.44-.344-.925-.517-1.283-.561-.36-.048-.597.008-.617-.051-.021-.043.199-.208.626-.233.421-.029 1.017.131 1.52.525.5.39.82.857 1.024 1.193.203.341.294.57.25.601zm8.589-2.439c.058.093-.145.323-.484.447-.338.125-.642.081-.658-.028-.018-.11.223-.24.52-.35.297-.109.564-.165.622-.069zm-.186-.64c.01.111-.305.206-.706.212-.4.005-.718-.082-.71-.192.007-.112.323-.206.705-.211.382-.005.7.08.71.191z" fill="#263238"/><path d="M91.37 57.933l.11-2.003s.262-1.2.253-3.362a4.934 4.934 0 00-.295-1.645c-.23-.64-.572-1.478-.9-1.878-.408-.496 0-1.23.565-1.084.564.145 1.72 1.484 2.242 3.483.523 2 1.87-.96 2.38-2.03.51-1.07 2.244-4.305 2.697-4.41.664-.15.95.533.415 1.59-.541 1.069-1.914 4.337-1.336 4.579 0 0 .826-.2 1.263-.054.146.048.248.135.262.28.057.582.187.92.187.92s.796-.254.995.083c.2.337.259 1.115.259 1.115s.605-.269.923-.063c.689.448-.052 1.39-.052 1.39-1.684 2.663-5.339 6.721-5.339 6.721l-4.659-3.749M34.404 57.8l-.078 25.558 10.964.523.317-6.217s3.894.774 4.899-2.843c.642-2.31.482-20.166.482-20.166l-16.584 3.146z" fill="#FFBE9D"/><path d="M50.358 50.693c-3.335 1.08-4.14 1.44-5.635 1.56-1.435.116-11.652.124-12.578 5.851a4.234 4.234 0 01-.29-.841c-.217-.904-.03-1.666-.125-1.692-.076-.042-.437.76-.2 1.767.03.131.067.254.109.37-.066-.069-.13-.138-.206-.203a3.218 3.218 0 00-1.296-.69c-.368-.09-.604-.07-.609-.03-.02.098.88.258 1.687.972.403.342.677.725.862 1.023-.001.026-.005.05-.005.076 0 0-2.186-.96-1.61 3.002.574 3.962 3.162 7.323 3.479 13.805 0 0 9.056 1.08 10.667-2.401l1.353-3.994s-2.18-.354-1.925-2.107c.35-2.425 2.203-2.487 3.583-1.406l1.589-4.258s4.025-2.64 4.255-4.322c.23-1.68.23-7.563-3.105-6.482z" fill="#263238"/><path d="M4.073 250.392l-1.607 7.149 11.07 1.368.396-7.084-9.859-1.433z" fill="#E8505B"/><path d="M8.717 254.034c.292-1.798.455-3.268.365-3.282-.091-.015-.402 1.43-.694 3.228-.292 1.798-.455 3.268-.364 3.282.09.015.4-1.43.693-3.228z" fill="#263238"/><path d="M13.58 258.13c-.01.046-.62-.045-1.603-.201l-3.84-.623c-1.5-.25-2.856-.501-3.83-.719-.975-.217-1.569-.39-1.56-.433.01-.047.62.044 1.604.201l3.841.623c1.5.25 2.855.502 3.83.72.973.216 1.567.389 1.558.432zm6.903-120.131L0 253.126l17.546.995s18.634-99.238 21.37-99.486c1.146-.104 1.605 98.701 2.526 98.491.922-.209 18.955.32 18.955.32S57.957 136.536 58 136.533c.042-.003-37.517 1.466-37.517 1.466z" fill="#263238"/><path d="M39.61 153.837c3.77-.8 6.81-1.523 6.79-1.613-.019-.09-3.09.487-6.86 1.287-3.77.801-6.81 1.523-6.79 1.613.019.09 3.09-.486 6.86-1.287zM9.957 247.25c4.888.151 8.853.199 8.856.107.003-.092-3.958-.29-8.846-.442-4.888-.151-8.853-.199-8.856-.107-.002.092 3.958.29 8.846.442zm40.75.012c5.279.158 9.56.211 9.563.119.002-.092-4.275-.295-9.553-.452-5.278-.157-9.56-.21-9.562-.118-.003.092 4.274.294 9.552.451z" fill="#455A64"/><path d="M29.237 155.405c.09.019-4.25 20.557-9.692 45.867-5.445 25.318-9.93 45.82-10.02 45.8-.09-.019 4.25-20.552 9.694-45.871 5.442-25.308 9.928-45.815 10.018-45.796zm21.545 91.68c-.005 0-.014-.081-.025-.238l-.038-.698-.115-2.683c-.096-2.331-.21-5.704-.332-9.873-.244-8.339-.482-19.861-.545-32.589-.06-12.732.068-24.257.231-32.597.082-4.17.164-7.545.237-9.876l.09-2.684.032-.698c.008-.157.016-.238.022-.237.006 0 .01.081.011.238l.002.699-.028 2.685-.13 9.876c-.103 8.341-.193 19.864-.134 32.593.063 12.725.264 24.245.447 32.585l.225 9.875c.023 1.151.04 2.051.054 2.685l.005.699c0 .157-.003.237-.009.238z" fill="#455A64"/><path d="M89.56 57.356s-13.584 20.49-14.735 21.642c-1.151 1.15-22.425 3.387-22.426 3.387-6.531-1.475-27.649-.988-31.639 1.95-3.45 1.909-7.645 6.378-9.804 16.999-3.684 18.119-7.368 24.795 0 27.328 3.401 1.169 6.605 1.798 9.07 2.137L19.822 139l38.186-2.372-1.955-20.367c-.23-5.717-.336-11.678-.477-16.957 2.389-.905 24.596-9.31 26.121-9.528 1.612-.23 16.15-27.125 16.15-27.125.462-3.223-8.287-5.295-8.287-5.295z" fill="#E8505B"/><path d="M21.07 94.44c.091.003-.113 9.981-.457 22.285-.345 12.307-.698 22.279-.79 22.277-.093-.002.112-9.979.457-22.286.343-12.304.697-22.278.79-22.276zm55.667-10.83c-.089.05-.65-.945-1.112-2.247-.462-1.3-.872-2.324-.8-2.365.089-.05.65.946 1.113 2.248.46 1.3.871 2.323.8 2.365z" fill="#263238"/><path d="M78.26 81.867c-.06.058-.839-.552-1.821-1.303-.983-.752-1.686-1.496-1.615-1.565.061-.059.84.551 1.821 1.303.984.751 1.687 1.495 1.615 1.565zM97.111 64.26c-.03.04-.508-.278-1.287-.774a48.02 48.02 0 00-3.107-1.828 47.929 47.929 0 00-3.244-1.572c-.845-.373-1.374-.596-1.357-.642.014-.04.572.104 1.446.423s2.059.826 3.313 1.497a26.586 26.586 0 013.082 1.927c.75.55 1.18.935 1.154.969zm-76.5 52.563c-.013.08-1.072.018-2.361-.243-1.29-.263-2.282-.674-2.253-.757.03-.092 1.05.172 2.32.431 1.27.257 2.312.468 2.294.569zm35.276-34.728c.006.065-.82.063-2.048.481-1.215.403-2.837 1.327-3.985 2.931-1.144 1.609-1.49 3.444-1.475 4.724.004 1.297.275 2.077.211 2.093-.018.005-.103-.182-.206-.537a6.842 6.842 0 01-.242-1.55c-.076-1.316.243-3.24 1.44-4.924 1.201-1.679 2.916-2.606 4.185-2.962a6.86 6.86 0 011.545-.277c.37-.017.574.001.575.02zm2.121 54.532c.006.092-8.539.698-19.082 1.353-10.547.656-19.099 1.112-19.104 1.02-.005-.092 8.537-.698 19.084-1.353 10.543-.655 19.096-1.111 19.102-1.02zM42.797 81.693c.012-.001.05.161.113.475.028.158.077.351.105.584l.074.807c.078 1.213-.06 3.015-.826 5.072-.791 2.016-2.256 4.351-4.757 5.893-.302.206-.638.358-.974.522-.331.175-.686.298-1.04.432-.712.257-1.449.474-2.178.733-.73.257-1.455.56-2.115.989-.65.44-1.234.995-1.735 1.637-1.006 1.286-1.694 2.76-2.524 4.093-.808 1.337-1.826 2.565-3.137 3.265-1.307.694-2.746.858-4.03.746a9.644 9.644 0 01-3.436-.982c-1.976-.966-3.277-2.21-4.14-3.053a29.1 29.1 0 01-.966-1.011c-.214-.238-.322-.367-.314-.374.009-.008.133.105.362.327l1.008.964c.887.813 2.2 2.014 4.152 2.934a9.461 9.461 0 003.357.918c1.244.099 2.625-.074 3.86-.74 1.237-.67 2.21-1.844 3.005-3.166.816-1.315 1.501-2.798 2.54-4.126a7.878 7.878 0 011.815-1.71c.695-.45 1.447-.76 2.187-1.019l2.18-.725c.347-.129.697-.249 1.016-.416.325-.158.652-.302.945-.5 2.434-1.479 3.893-3.747 4.697-5.716.78-2.01.954-3.78.917-4.981l-.043-.8c-.017-.233-.056-.426-.073-.585-.04-.317-.056-.485-.045-.487zm14.46 47.113c-.01.014-.146-.098-.426-.273a3.905 3.905 0 00-1.322-.541c-.61-.134-1.383-.135-2.281-.203-.89-.072-1.91-.079-3.042-.121-1.128-.043-2.386-.139-3.679-.516a12.334 12.334 0 01-3.846-1.85c-1.226-.884-2.349-2.065-3.145-3.515-.795-1.443-1.284-3.136-1.289-4.892-.017-1.753.473-3.473 1.377-4.862.89-1.396 2.126-2.493 3.49-3.168a8.07 8.07 0 012.102-.702c.71-.126 1.405-.16 2.072-.17 1.335-.013 2.567.045 3.675-.108 2.248-.234 3.766-1.555 4.285-2.67a4.066 4.066 0 00.398-1.372c.04-.328.034-.504.05-.504.006-.001.012.043.017.129a3.823 3.823 0 01-.347 1.802c-.263.585-.76 1.229-1.5 1.763-.734.549-1.739.927-2.87 1.084-1.132.173-2.383.126-3.701.151-.66.016-1.34.055-2.025.183a7.828 7.828 0 00-2.019.687c-1.307.658-2.497 1.72-3.35 3.068-.868 1.342-1.335 2.991-1.32 4.686.005 1.696.476 3.337 1.242 4.737.767 1.405 1.851 2.555 3.039 3.422a12.153 12.153 0 003.742 1.834c1.26.38 2.49.488 3.614.545 1.124.057 2.149.081 3.046.171.888.086 1.67.105 2.294.263.627.15 1.06.417 1.33.611.137.097.234.179.298.237.064.059.095.09.091.094z" fill="#263238"/><path d="M36.034 138.191c-.046-.002.093-.5-.074-1.373a4.804 4.804 0 00-1.973-3.036 4.451 4.451 0 00-1.092-.532 6.746 6.746 0 00-1.31-.242c-.921-.101-1.951-.068-3.002-.407a3.825 3.825 0 01-1.437-.87 4.653 4.653 0 01-.976-1.449c-.47-1.091-.595-2.354-.417-3.583.357-2.465 1.439-4.586 1.628-6.675.114-1.033.048-2.038-.26-2.901a4.178 4.178 0 00-1.488-2.01 4.875 4.875 0 00-3.513-.899c-.876.129-1.306.412-1.322.372 0 0 .405-.326 1.303-.5.873-.165 2.307-.116 3.67.836a4.395 4.395 0 011.61 2.107c.337.91.414 1.962.306 3.028-.185 2.16-1.264 4.304-1.604 6.687-.171 1.185-.05 2.379.387 3.409.222.511.523.975.899 1.35.379.372.833.639 1.314.806.973.326 1.991.31 2.932.422.472.054.932.134 1.359.273.427.146.81.35 1.148.584a4.844 4.844 0 011.966 3.208c.07.449.045.804.02 1.04-.037.235-.062.357-.074.355zm-1.278-35.457c-.009-.014.133-.136.451-.232a2.142 2.142 0 011.385.093c.277.113.567.292.807.563.236.271.419.637.465 1.042.108.794-.248 1.775-1.107 2.24-.875.441-1.886.168-2.47-.385a1.88 1.88 0 01-.564-.993 2.076 2.076 0 01.045-.985c.17-.583.524-.956.798-1.134.28-.184.466-.209.47-.193.011.027-.156.094-.39.296a2.061 2.061 0 00-.65 1.091c-.131.517-.04 1.228.5 1.693.507.464 1.392.681 2.105.315.707-.377 1.039-1.223.958-1.908-.064-.708-.574-1.207-1.061-1.425a2.172 2.172 0 00-1.262-.182c-.306.05-.467.13-.48.104zm-19.209 27.318c-.07-.014.23-1.126.3-2.959.016-.458.028-.959-.016-1.496-.01-.539-.096-1.108-.17-1.708a19.485 19.485 0 00-1.016-3.791 19.517 19.517 0 00-1.823-3.478c-.353-.49-.675-.968-1.033-1.371a12.81 12.81 0 00-1.003-1.111c-1.294-1.3-2.269-1.912-2.227-1.972.013-.019.256.129.689.417.219.14.48.321.759.562.282.237.622.488.944.824.337.321.7.678 1.049 1.101.373.402.708.882 1.075 1.377a18.551 18.551 0 011.88 3.529 18.53 18.53 0 011.01 3.868c.066.613.144 1.193.142 1.74a12.27 12.27 0 01-.025 1.521c-.01.465-.089.88-.135 1.245a6.59 6.59 0 01-.178.928c-.121.505-.2.779-.222.774zm66.484-40.559c-.012.023-.346-.14-.954-.423a33.066 33.066 0 00-2.614-1.095c-1.123-.403-2.491-.815-4.05-1.023-1.555-.214-3.31-.192-5.065.25-1.755.435-3.308 1.28-4.45 2.346-1.145 1.065-1.905 2.298-2.286 3.415a6.916 6.916 0 00-.387 2.758c.049.664.154 1.023.119 1.031-.012.004-.042-.084-.091-.255a4.897 4.897 0 01-.157-.763c-.091-.67-.081-1.68.292-2.846.364-1.163 1.128-2.451 2.3-3.564 1.168-1.115 2.775-1.998 4.578-2.445 1.805-.454 3.605-.466 5.188-.23 1.589.228 2.97.67 4.093 1.106 1.123.444 1.996.88 2.588 1.2.295.16.523.29.673.383.151.092.228.145.223.155zm5.245-28.703c.008-.008.068.043.175.15.1.11.271.257.44.488.367.44.823 1.149 1.188 2.113.369.961.59 2.196.507 3.561a8.734 8.734 0 01-1.393 4.176 8.485 8.485 0 01-3.323 2.886 8.878 8.878 0 01-3.477.922c-1.028.053-1.86-.07-2.412-.222-.28-.06-.485-.154-.627-.2-.141-.053-.213-.086-.21-.097.014-.085 1.218.448 3.232.284a8.972 8.972 0 003.355-.963 8.361 8.361 0 003.183-2.795 8.615 8.615 0 001.365-4.014c.097-1.317-.092-2.516-.423-3.46-.66-1.91-1.655-2.78-1.58-2.83zM39.878 81.82c3.074-.024 5.566-.118 5.566-.21-.001-.093-2.494-.148-5.569-.125-3.074.024-5.566.118-5.565.21 0 .093 2.493.148 5.568.125z" fill="#263238"/><g clip-path="url(#clip0)"><path fill="#F0F0F0" d="M108 102.001h51v73h-51z"/><path d="M136.764 116.258c-6.802-1.509-14.266 2.186-16.177 9.194-1.837 6.732 2.606 14.587 9.36 16.418 6.613 1.793 14.15-2.275 16.335-8.75 2.426-7.19-2.188-14.936-9.141-17.229-.807-.266-1.128.975-.348 1.261 5.928 2.172 10.188 8.572 8.416 14.982-1.685 6.096-8.83 10.178-14.937 8.556-5.868-1.559-9.656-7.858-8.91-13.728.913-7.187 8.523-11.493 15.295-10.317.25.044.362-.33.107-.387z" fill="#263238"/><path d="M130.003 141.667c6.948 2.137 14.948-1.855 17.031-9.029 2.122-7.308-2.604-15.201-9.72-17.377-1.642-.502-2.228 1.922-.695 2.522 6.028 2.358 10.021 8.89 7.638 15.301-2.119 5.701-8.365 8.453-14.148 7.796-.463-.054-.521.659-.106.787zm3.555 12.216c7.634 0 13.823-.117 13.823-.261 0-.144-6.189-.261-13.823-.261s-13.823.117-13.823.261c0 .144 6.189.261 13.823.261zm0 4.193c7.634 0 13.823-.117 13.823-.261 0-.144-6.189-.261-13.823-.261s-13.823.117-13.823.261c0 .144 6.189.261 13.823.261z" fill="#E8505B"/></g><defs><clipPath id="clip0"><rect x="108" y="102.001" width="50.924" height="71.367" rx="2" fill="#fff"/></clipPath></defs></svg>