<svg width="131" height="135" fill="none" xmlns="http://www.w3.org/2000/svg"><path opacity=".5" d="M40.954 66.096h11.875c5.991-.053 10.725-1.604 14.202-4.652 3.53-3.048 5.296-7.46 5.296-13.235 0-5.562-1.471-9.867-4.413-12.915-2.889-3.101-7.328-4.652-13.32-4.652-5.242 0-9.548 1.524-12.918 4.572-3.37 2.995-5.055 6.925-5.055 11.791H17.123c0-5.989 1.578-11.444 4.734-16.363 3.21-4.92 7.65-8.744 13.32-11.47C40.9 16.39 47.293 15 54.354 15c11.66 0 20.808 2.941 27.441 8.823 6.686 5.83 10.03 13.958 10.03 24.386 0 5.24-1.685 10.187-5.055 14.84-3.317 4.598-7.623 8.074-12.918 10.427 6.418 2.192 11.286 5.642 14.603 10.347 3.37 4.706 5.055 10.321 5.055 16.845 0 10.482-3.611 18.824-10.832 25.027C75.51 131.898 66.068 135 54.354 135c-11.234 0-20.434-2.995-27.602-8.984C19.584 120.027 16 112.059 16 102.112h19.498c0 5.134 1.712 9.305 5.135 12.514 3.477 3.208 8.13 4.812 13.961 4.812 6.045 0 10.806-1.604 14.283-4.812 3.477-3.209 5.215-7.861 5.215-13.958 0-6.15-1.819-10.882-5.456-14.197-3.637-3.316-9.04-4.974-16.208-4.974H40.954v-15.4z" fill="#8CBBE6"/><path d="M115.181 101.86c7.71 0 13.96-.572 13.96-1.278 0-.706-6.25-1.279-13.96-1.279-7.709 0-13.959.573-13.959 1.279s6.25 1.278 13.959 1.278z" fill="url(#paint0_linear)"/><path d="M115.181 101.86c7.71 0 13.96-.573 13.96-1.279s-6.25-1.278-13.96-1.278c-7.709 0-13.959.572-13.959 1.278 0 .706 6.25 1.279 13.959 1.279z" fill="#43656E"/><path d="M114.076.959H61.769c-13.417.893-13.357 15.672-13.357 15.672v70.624h52.372V16.63s.248-14.828 13.292-15.67z" fill="#D65C66"/><path d="M45.38 17.524h-.632V71.88h.632V17.524z" fill="#43656E"/><path d="M111.985 0C98.941.843 98.693 15.672 98.693 15.672v70.624H46.32V15.672S46.26.892 59.677 0h52.308z" fill="#FFF9F5"/><path d="M89.17 18.45H53.199v3.174H89.17V18.45zm-5.256 7.34H53.198v2.248h30.716V25.79zm-15.276 5.935h-15.44v3.34h15.44v-3.34zm20.532 0H73.202v3.34h15.97v-3.34zm-11.373 6.43h-24.6v2.38h24.6v-2.38zm3.116 5.952H53.198v1.322h27.715v-1.322zm5.613 5.951H53.198v1.323h33.328v-1.323zM68.757 63.402H53.079v-7.51h15.678v7.51zm-15.44-.237H68.52v-7.037H53.316v7.037zm33.209-7.155h-14.02v1.72h14.02v-1.72zm-4.083 3.637h-9.936v1.72h9.936v-1.72zm.727 8.266H53.198v1.322H83.17v-1.322zm-14.184 5.951H53.198v1.323h15.788v-1.323zm33.629-47.495h-.632v-7.192c-.008-.119-.776-13.925 10.876-15.934l.107.623c-11.097 1.913-10.36 15.157-10.352 15.29l.001 7.213zm.296 62.979H91.585v-.632h10.694V71.574h.632v17.774z" fill="#43656E"/><path d="M110.783 98.294s-.746.783-1.503.947c-.756.164-1.286.373-1.291.822-.006.45 2.177.746 3.043.293 1.293-.676 1.424-.472 1.567-.81.144-.338-.172-1.241-.162-1.349.011-.132-1.654.097-1.654.097z" fill="#202338"/><path d="M110.866 97.92s-.098.367-.084.374c.015.008 1.706.198 1.655-.097a11.971 11.971 0 00-.101-.498l-1.47.22z" fill="#2F6B8C"/><path d="M119.203 98.499s-.548.762-1.282.938c-.723.173-1.192.503-1.227.94-.036.436 1.705 1.008 2.928.241.803-.504 1.103-.475 1.265-.795.162-.32-.085-1.217-.069-1.322.02-.128-1.615-.002-1.615-.002z" fill="#202338"/><path d="M119.225 98.121s-.036.369-.022.377c.014.009 1.625.294 1.615.003a2.212 2.212 0 00-.102-.517l-1.491.138z" fill="#2F6B8C"/><path d="M112.571 75.897s-.782 5.687-1.102 7.61c-.374 2.248-.501 4.105-.605 5.269-.131 1.463-.058 8.952-.15 9.38-.092.428 1.851.205 1.851.205s1.425-9.763 1.816-11.321c.364-1.452 1.364-7.434 1.696-7.038.332.397 1.406 7.212 1.652 8.356.246 1.144 1.238 10.154 1.238 10.154s1.652.359 2.102 0c0 0-.1-8.034-.257-10.18-.06-.817.518-9.79-.865-13.407-.731-1.912-7.376.972-7.376.972z" fill="#43656E"/><path d="M112.504 76.169l-.088.854s2.385.966 8.192.967v-.977l-8.104-.844z" fill="#FAA146"/><path d="M105.815 65.422s-.348.767-.554.815c-.206.048-.451.304-.628.383-.176.078-.732.122-.881.267-.061.06-.294.571-.431.679-.137.107-.44.292-.346.407.094.115.409.024.409.024s-.118.105-.067.233c.099.247.265.258.265.258s-.053.186.015.278c.148.203.309.209.309.209s.014.144.144.256c.165.143.369.06.369.06s.165.228.318.184c.152-.045.24-.159.349-.226.109-.066.868-.943 1.148-1.762.28-.82.766-1.485.766-1.485l-1.185-.58z" fill="#EEA886"/><path d="M105.972 69.301s2.699 1.228 3.658.992c.444-.11 1.028-.721 1.583-1.44a19.1 19.1 0 00.533-.733c.681-.984 1.215-1.926 1.215-1.926s2.012-2.358.397-3.41c0 0-.586-.22-1.124.357-.539.577-1.171 1.784-1.312 2.092-.141.307-2.118 3.158-2.22 3.223-.103.064-.967-.163-1.659-.221-1.129-.094-.905-.142-.905-.142l-.166 1.208z" fill="#F08D29"/><path d="M114.869 62.258s-2.072.428-2.318.646c-.267.232-.737 2.501-.766 3.133-.028.632.25 3.272.517 4.256.267.983-.351 5.168.144 5.858 0 0 4.27 1.37 8.371.836 0 0-.88-3.95-.716-5.297.21-1.726.716-5.703.716-5.703s-.548-2.677-.913-2.986c-.365-.31-2.904-.812-2.904-.812l-2.131.07z" fill="#F08D29"/><path d="M119.482 67.662s.391 2.546.364 2.71c-.027.162 1.771-.512-.364-2.71z" fill="#B86C1F"/><path d="M128.514 81.685l1.799-2.987a1.07 1.07 0 00-.364-1.469l-4.51-2.717a1.07 1.07 0 00-1.468.364l-1.8 2.987a1.07 1.07 0 00.364 1.469l4.51 2.717a1.07 1.07 0 001.469-.364z" fill="#C4B4AF"/><path d="M124.574 80.788l3.112-5.165L96.898 57.07l-3.113 5.166 30.789 18.552z" fill="#EB4747"/><path d="M95.868 58.8l30.788 18.553 1.038-1.722L96.905 57.08l-1.037 1.722z" fill="#DCD360"/><path d="M125.611 79.064l1.037-1.721L95.86 58.79l-1.038 1.721 30.789 18.552z" fill="#E0D87A"/><path d="M124.575 80.79l1.037-1.722-30.789-18.553-1.037 1.722 30.789 18.552z" fill="#E8E3A7"/><path d="M93.783 62.244l3.112-5.166-6.986-1.409-1.797-.362 1.16 1.419 4.511 5.518z" fill="#EDDAD3"/><path d="M95.858 58.8c.46.278 1.067.118 1.353-.358.287-.475.145-1.086-.316-1.363L95.858 58.8z" fill="#DECCC6"/><path d="M94.82 60.522c.462.278 1.067.117 1.354-.358.286-.475.145-1.086-.316-1.364l-1.037 1.722z" fill="#E3D1CA"/><path d="M93.783 62.244c.461.278 1.067.117 1.353-.358.287-.476.146-1.086-.315-1.364l-1.038 1.722z" fill="#EDDAD3"/><path d="M125.826 76.85l1.892 1.14 1.037-1.722-1.892-1.14-1.037 1.722z" fill="#B39696"/><path d="M126.672 79.704l1.037-1.722-1.892-1.14-1.037 1.722 1.892 1.14z" fill="#DBB8B8"/><path d="M125.635 81.443l1.037-1.722-1.892-1.14-1.037 1.723 1.892 1.14z" fill="#F2CBCB"/><path d="M95.858 58.8l-7.746-3.493 8.783 1.771-1.037 1.722z" fill="#DECCC6"/><path d="M94.82 60.522l-6.708-5.215 7.746 3.493-1.037 1.722z" fill="#E3D1CA"/><path d="M94.82 60.522l-6.708-5.215 5.671 6.937 1.038-1.722z" fill="#EDDAD3"/><path d="M89.272 56.726l.637-1.057-1.797-.362 1.16 1.419z" fill="#43656E"/><path d="M115.238 76.22s.191-.016.271-.064c0 0 .14-.099.243-.163a.829.829 0 01.082-.046c.083-.037.277-.094.451-.24.174-.145.765-.967.765-.967l-.353-.445-.272-.464s-1.375.213-1.553.33a.645.645 0 00-.049.035c-.141.114-.199.258-.266.326-.025.025-.252.291-.234.395.025.143.1.232.191.272 0 0 .061.278.211.397 0 0 .048.258.278.353 0 0 .078.257.235.28z" fill="#EEA886"/><path d="M118.764 62.943c-.272.106-.56.763-.346 2.052.23 1.383.686 1.974.87 2.297.183.323 1.193 2.316 1.012 2.578-.182.262-1.896 1.953-1.995 2.09-.099.139-2.013 1.87-2.013 1.87l.975 1.362s4.131-3.227 4.454-3.55c.322-.322 1.286-.999.929-2.125-.362-1.144-1.013-3.822-1.128-4.031-.116-.21-.962-3.238-2.758-2.543z" fill="#F08D29"/><path d="M103.426 67.896s.663-.739.993-.725c.331.013.106.293.106.293s.217-.28.453-.132c.235.148-.045.46-.045.46s.221-.168.395.065c.174.233-.115.44-.115.44s.437-.065.344.292c-.157.604-.809.892-.809.892s-.186.073-.338-.163c0 0-.412.154-.525-.32 0 0-.494-.114-.342-.496 0 0-.497-.191-.117-.606z" fill="#EEA886"/><path d="M113.931 62.468s-.124-.567 1.65-.698c1.774-.132 2.974.267 3.007.776.034.51-4.494 1.78-4.494 1.78l-.163-1.858z" fill="#FAA146"/><path d="M115.725 55.852s-2.492-.922-2.336 2.39c.156 3.311.74 3.648 2.379 3.185 1.639-.462 1.777-2.552 1.99-3.558.214-1.005-1.218-1.873-2.033-2.017z" fill="#EEA886"/><path d="M114.458 62.782s.598.264 2.542-.593c0 0-.055-1.333.327-2.578.381-1.246-2.61 1.66-2.61 1.66.032.022.038.146.02.32-.015.147-.048.33-.096.515-.11.416-.084.342-.183.676z" fill="#EEA886"/><path d="M117.412 59.512s.007-.885-.361-.966c-.368-.082-.557.43-.557.43l-.296-.016s.264-.897-.086-1.102c-.351-.206-2.449-.025-2.713-.327-.263-.302.119-2.095.691-2.27.573-.177 2.137-.533 3.13.35 0 0 .853.37.887 1.073.035.703-.396 2.348-.695 2.828z" fill="#163342"/><path d="M114.641 62.105c1.931-.324 2.22-1.423 2.224-1.44-.75.968-2.128.926-2.128.926-.015.147-.048.33-.096.514z" fill="#B07C63"/><path d="M116.635 58.17c.11-.292.731-.255.668.208-.064.462-.578 1.175-.784 1.041-.206-.133-.036-.847.116-1.249z" fill="#EEA886"/><path d="M94.257 77.37h-9.892v-9.89h9.892v9.892zm-8.944-.947h7.996v-7.996h-7.995v7.996z" fill="#43656E"/><path d="M89.466 74.516l-3.482-3.283 1.084-1.15 2.47 2.329 5.413-4.449 1.004 1.221-6.49 5.332zM4.688 112l33.084-27.571-4.688-5.625L0 106.375 4.688 112z" fill="#43656E"/><path d="M37.206 83.753l1.767-1.473-3.558-4.27-1.767 1.474 3.557 4.269z" fill="#3C5156"/><path d="M33.336 75.761c7.39 12.727 23.7 17.053 36.427 9.662 12.727-7.39 17.053-23.7 9.662-36.427-7.39-12.727-23.7-17.053-36.427-9.662s-17.053 23.7-9.662 36.427zm3.784-2.197c-3.278-5.646-3.798-12.134-1.974-17.904a22.19 22.19 0 0110.05-12.541c10.637-6.178 24.268-2.562 30.445 8.075a22.177 22.177 0 013 10.34c.296 7.963-3.704 15.824-11.076 20.105-10.637 6.177-24.267 2.562-30.445-8.075z" fill="#D65C66"/><path d="M64.802 25.804s.426-1.44.372-1.593c-.054-.152-1.056-1.124-1.048-1.242.01-.117 1.342-.94 1.478-1.174.137-.234.383.452.431 1.045.048.593.144 1.538.142 1.665-.002.127-.312 1.745-.312 1.745l-1.063-.446z" fill="#DE9D7D"/><path d="M60.943 28.032l.063.374.081.485c.094.556.206 1.217.249 1.445.078.42.342 1.39.672 1.847.137.19.496.28.679.297.21.019.765.233 1.413-.792.649-1.025 1.68-4.63 1.735-4.826.054-.196.212-.746.212-.746l-1.334-.472s-.96 2.603-1.095 2.962c-.103.272-.703 1.365-.733 1.398-.03.034-.106-2.984-.106-2.984l-1.836 1.012z" fill="#E55353"/><path d="M66.823 47.63s.984 1.668 1.4 1.94c.564.37.21.745-.057.745-.268 0-1.637.099-1.938-.243-.302-.343-.451-1.368-.732-1.637-.28-.268-.57-1.334.137-1.593.624-.23 1.19.787 1.19.787z" fill="#323657"/><path d="M66.396 46.895s1.128 1.954 1.322 2.243c.194.289-.366.288-.713.151-.347-.137-1.22-1.539-1.346-1.794-.15-.305-.027-.654-.027-.654l.764.054z" fill="#EEA886"/><path d="M65.254 47.947l.26 2.004.138.006-.043-1.442-.355-.568zm-8.194-.317s.984 1.668 1.4 1.941c.564.37.21.744-.058.745-.268 0-1.636.098-1.938-.244-.301-.343-.45-1.368-.731-1.637-.28-.268-.58-1.361.136-1.593.629-.203 1.19.788 1.19.788z" fill="#323657"/><path d="M56.692 46.899s1.069 1.95 1.263 2.24c.194.288-.366.287-.713.15-.347-.137-1.22-1.539-1.346-1.794-.15-.305-.027-.654-.027-.654l.823.058z" fill="#EEA886"/><path d="M55.491 47.947l.26 2.004.138.006-.043-1.442-.355-.568z" fill="#323657"/><path d="M52.691 32.44l8.91 4.06s.212.069.452.252a1.644 1.644 0 01.654 1.175c.348 3.447 2.926 8.915 2.926 8.915.827.404.764.053.764.053-.522-1.673-1.156-8.57-1.383-11.343-.048-.587-.077-.99-.084-1.118-.004-.087-.1-.202-.265-.336-1.222-.99-6.253-3.043-6.253-3.043-3.777-.096-5.72 1.385-5.72 1.385z" fill="#EEA886"/><path d="M52.037 33.834c.276 2.408 2.688 2.482 2.688 2.482h4.167s-1.095 2.435-1.517 4.489c-.448 2.18-1.505 6.037-1.505 6.037s.069.13.822.057c0 0 3.27-6.518 4.523-8.157.269-.352 1.04-2.267 1.174-3.408.045-.385.017-.681-.127-.802-.144-.12-.476-.349-.92-.628-1.304-.823-3.57-2.09-4.833-2.374-1.692-.38-3.636-1.093-3.636-1.093s-1.112.988-.836 3.397z" fill="#EEA886"/><path d="M58.457 36.316h-3.732s-2.714.07-3.03-2.332c-.267-2.016.996-3.402.996-3.402s1.268.34 2.853.723c.794-.17 1.75-.279 2.868-.25 0 0 4.735.953 6.487 3.289 0 0-2.78-1.403-6.442 1.972z" fill="#323657"/><path d="M62.49 20.52c-.015.271-.02.543-.023.805a2.512 2.512 0 00.492 1.54c.383.505.964.802 1.646.64 1.245-.296 2.074-4.337 2.074-4.337-.34-1.582-2.45-1.674-3.294-1.108-.668.447-.843 1.447-.896 2.46z" fill="#EEA886"/><path d="M52.49 30.7s.038.462 3.567 1.02c.096.014.188.03.277.044.325.054.602.104.838.147 1.674.308 1.336.3 2.032-.868.095-.16.738-1.67.98-1.812.242-.143.695-.62.883-.914.188-.295.898-.105 1.562-.686.664-.581.389-1.418.43-2.094.07-1.186-.38-2.54-.38-2.54-1.859-3.483-4.568-.72-5.063-.22-.494.5-2.173 4.624-2.632 5.146-1.63 1.854-2.495 2.776-2.495 2.776z" fill="#E55353"/><path d="M60.787 21.449s.276 3.391 1.085 3.774c.833.394.541-2.941.541-2.941s-.684-1.4-1.626-.833z" fill="#EEA886"/><path d="M65.708 19.416s.428 1.398.352 1.95c0 0 .56-.754.671-1.444.111-.686.441-1.796-.59-2.644-1.03-.848-.433 2.138-.433 2.138z" fill="#163342"/><path d="M61.503 22.449c.003.837.894 1.308.961.91.008-.044.111-.153.189-.233l.072-.075c.06-.066.142-.129.233-.186.341-.214.821-.36.821-.36l-.9-2.464s-.17.193-.39.48c-.407.531-.988 1.384-.986 1.928z" fill="#EEA886"/><path d="M62.653 23.126l.072-.075c.06-.066.142-.129.233-.186 0 0-.442-.605-.483-1.297 0 0-.196.526.178 1.558z" fill="#A77860"/><path d="M59.476 38.17s-.103-.124-.122-.2c0 0-.023-.142-.046-.241a.724.724 0 00-.02-.076c-.027-.072-.107-.221-.123-.411-.016-.19.127-1.028.127-1.028l.474-.051.438-.112s.683.948.719 1.123a.451.451 0 01.007.05c.015.152-.037.271-.038.351 0 .03-.025.323-.098.373-.1.07-.197.077-.275.046 0 0-.202.128-.362.108 0 0-.182.124-.374.043 0 0-.2.104-.307.025z" fill="#FFB48F"/><path d="M59.356 24.072s.466-1.751-.75-1.725c-1.215.026-1.299 1.544-1.334 1.845-.035.3-.45 3.845-.403 4.516.048.67-.086 1.585.057 2.474.107.666 2.27 5.305 2.306 5.323.036.019 1.105-.419 1.105-.419s-1.388-4.527-1.572-4.947c-.286-.652-.174-1.128-.188-1.449-.013-.32.726-5.346.78-5.618z" fill="#E55353"/><path d="M65.877 19.563s-.587 1.034-1.5.79c-.913-.245-1.585-.006-1.695.379-.11.385-.894 2.449-1.722 2.382-.828-.067-1.431-1.325-1.897-1.079-.466.246-.975 1.639-1.582 1.264-.607-.375-.488-1.658.809-2.213 1.297-.556 2.22-.556 2.598-1.28.378-.723 1.32-2.694 2.22-3.085.667-.29 1.46-.506 2.71.305 1.25.81.861 2.142.861 2.142l-.802.395z" fill="#163342"/><path d="M62.052 36.751c.09.07.185.155.273.26 0 0 .184-.687.08-1.856 0 0-.005.503-.353 1.596z" fill="#B07C63"/><path d="M56.334 31.764c.325.054.602.104.838.147 0 0-.259-.596-.256-.792.002-.195-.124-2.32.041-3.955l.152-1.52s-1.128 3.368-.775 6.12zm4.672-3.358l.052.313c1.04-.38 1.325-.877 1.338-.902-.355.259-.848.29-1.099.35s-.291.239-.291.239z" fill="#A63D3D"/><defs><linearGradient id="paint0_linear" x1="101.222" y1="100.582" x2="129.141" y2="100.582" gradientUnits="userSpaceOnUse"><stop stop-color="#fff"/><stop offset="1"/></linearGradient></defs></svg>