<svg width="438" height="340" fill="none" xmlns="http://www.w3.org/2000/svg"><path opacity=".5" d="M53.443 109.432h25.433c12.83-.114 22.969-3.436 30.416-9.964 7.561-6.528 11.342-15.976 11.342-28.345 0-11.911-3.151-21.13-9.452-27.659-6.186-6.642-15.695-9.964-28.526-9.964-11.227 0-20.449 3.264-27.666 9.792-7.218 6.414-10.826 14.832-10.826 25.254H2.406c0-12.827 3.38-24.51 10.138-35.046C19.418 22.964 28.927 14.775 41.07 8.934 53.328 2.98 67.02.001 82.14.001c24.975 0 44.565 6.299 58.771 18.897 14.32 12.483 21.48 29.892 21.48 52.225 0 11.223-3.608 21.817-10.826 31.781-7.103 9.849-16.325 17.294-27.666 22.333 13.747 4.696 24.172 12.083 31.275 22.161C162.391 157.476 166 169.502 166 183.474c0 22.448-7.733 40.314-23.199 53.599-15.351 13.285-35.571 19.928-60.66 19.928-24.058 0-43.763-6.414-59.114-19.241C7.676 224.933 0 207.869 0 186.566h41.758c0 10.995 3.666 19.928 10.998 26.8 7.446 6.872 17.413 10.307 29.9 10.307 12.946 0 23.142-3.435 30.588-10.307 7.447-6.872 11.17-16.836 11.17-29.892 0-13.17-3.895-23.306-11.685-30.407-7.79-7.101-19.361-10.651-34.712-10.651H53.443v-32.984z" fill="#8CBBE6"/><path d="M390.656 309.217c23.405 0 42.377-1.737 42.377-3.881 0-2.143-18.972-3.88-42.377-3.88-23.404 0-42.377 1.737-42.377 3.88 0 2.144 18.973 3.881 42.377 3.881z" fill="url(#paint0_linear)"/><path d="M390.656 309.217c23.405 0 42.377-1.737 42.377-3.881 0-2.143-18.972-3.88-42.377-3.88-23.404 0-42.377 1.737-42.377 3.88 0 2.144 18.973 3.881 42.377 3.881z" fill="#43656E"/><path d="M387.301 2.912h-158.79c-40.728 2.71-40.548 47.576-40.548 47.576V264.88h158.988V50.488c.001 0 .753-45.017 40.35-47.576z" fill="#D65C66"/><path d="M178.76 53.198h-1.919v165.01h1.919V53.198z" fill="#43656E"/><path d="M380.952.001c-39.596 2.56-40.349 47.576-40.349 47.576V261.97H181.615V47.577S181.434 2.711 222.163.001h158.789z" fill="#FFF9F5"/><path d="M311.696 56.008H202.492v9.636h109.204v-9.636zM295.737 78.29h-93.245v6.826h93.245v-6.825zm-46.371 18.017h-46.874v10.138h46.874V96.307zm62.33 0h-48.479v10.138h48.479V96.307zm-34.527 19.522h-74.677v7.227h74.677v-7.227zm9.46 18.068h-84.137v4.014h84.137v-4.014zm17.038 18.066H202.492v4.015h101.175v-4.015zm-53.942 40.508h-47.592V169.67h47.592v22.801zm-46.873-.719h46.154V170.39h-46.154v21.362zm100.815-21.722h-42.558v5.22h42.558v-5.22zm-12.394 11.041h-30.164v5.219h30.164v-5.219zm2.206 25.093h-90.987v4.015h90.987v-4.015zm-43.059 18.067h-47.928v4.015h47.928v-4.015zM352.509 80.047h-1.919v-21.83c-.025-.36-2.355-42.273 33.016-48.371l.326 1.89c-33.689 5.809-31.452 46.012-31.425 46.418l.002 21.893zm.898 191.188h-34.384v-1.919h32.465v-52.037h1.919v53.956z" fill="#43656E"/><path d="M377.303 298.394s-2.263 2.376-4.56 2.874c-2.297.497-3.904 1.133-3.921 2.496-.017 1.363 6.611 2.262 9.239.887 3.924-2.051 4.323-1.433 4.758-2.458.435-1.025-.523-3.768-.495-4.094.036-.403-5.021.295-5.021.295z" fill="#202338"/><path d="M377.558 297.257s-.299 1.113-.255 1.136c.045.024 5.177.599 5.022-.294a34.06 34.06 0 00-.306-1.512l-4.461.67z" fill="#2F6B8C"/><path d="M402.865 299.013s-1.664 2.315-3.891 2.849c-2.195.526-3.618 1.528-3.726 2.853-.107 1.325 5.176 3.061 8.889.733 2.439-1.53 3.349-1.443 3.84-2.414.492-.972-.257-3.696-.208-4.011.061-.391-4.904-.01-4.904-.01z" fill="#202338"/><path d="M402.933 297.869s-.11 1.119-.068 1.144c.041.025 4.933.891 4.904.009-.024-.7-.311-1.572-.311-1.572l-4.525.419z" fill="#2F6B8C"/><path d="M382.734 230.403s-2.377 17.265-3.347 23.101c-1.135 6.824-1.52 12.462-1.836 15.994-.398 4.442-.177 27.177-.456 28.476-.279 1.298 5.62.623 5.62.623s4.326-29.637 5.512-34.369c1.104-4.405 4.141-22.566 5.148-21.363 1.008 1.203 4.27 21.891 5.016 25.366.746 3.474 3.759 30.824 3.759 30.824s5.014 1.089 6.382 0c0 0-.306-24.388-.781-30.902-.182-2.482 1.57-29.718-2.628-40.702-2.218-5.804-22.389 2.952-22.389 2.952z" fill="#43656E"/><path d="M382.528 231.227l-.268 2.593s7.242 2.933 24.87 2.935v-2.966l-24.602-2.562z" fill="#FAA146"/><path d="M362.222 198.605s-1.055 2.328-1.68 2.473c-.626.146-1.37.923-1.906 1.162-.536.239-2.223.37-2.676.812-.184.18-.893 1.734-1.308 2.06-.415.326-1.335.885-1.05 1.235.285.349 1.242.073 1.242.073s-.36.32-.205.707c.302.751.806.784.806.784s-.16.564.044.844c.451.616.94.634.94.634s.043.436.435.776c.502.435 1.12.185 1.12.185s.503.692.965.557c.463-.136.731-.482 1.061-.685.331-.203 2.636-2.862 3.485-5.35.849-2.487 2.325-4.509 2.325-4.509l-3.598-1.758z" fill="#EEA886"/><path d="M362.7 210.378s8.194 3.727 11.106 3.011c1.346-.331 3.118-2.189 4.803-4.373a54.99 54.99 0 001.618-2.222l.002-.003a86.183 86.183 0 003.686-5.845s6.11-7.16 1.207-10.351c0 0-1.779-.667-3.413 1.084-1.635 1.751-3.553 5.415-3.982 6.349-.428.933-6.429 9.589-6.74 9.784-.311.195-2.933-.495-5.036-.67-3.428-.286-2.748-.431-2.748-.431l-.503 3.667z" fill="#F08D29"/><path d="M389.708 188.998s-6.29 1.3-7.036 1.961c-.81.704-2.239 7.592-2.324 9.511-.085 1.918.758 9.934 1.568 12.919.81 2.984-1.066 15.69.436 17.784 0 0 12.963 4.158 25.414 2.538 0 0-2.673-11.991-2.175-16.081a4771.93 4771.93 0 012.175-17.312s-1.664-8.128-2.773-9.066c-1.108-.938-8.815-2.464-8.815-2.464l-6.47.21z" fill="#F08D29"/><path d="M403.713 205.402s1.187 7.729 1.104 8.225c-.083.496 5.377-1.553-1.104-8.225z" fill="#B86C1F"/><path d="M431.13 247.972l5.463-9.067a3.248 3.248 0 00-1.106-4.459l-13.689-8.248a3.248 3.248 0 00-4.459 1.106l-5.463 9.068a3.249 3.249 0 001.106 4.458l13.69 8.248a3.247 3.247 0 004.458-1.106z" fill="#C4B4AF"/><path d="M419.17 245.25l9.448-15.68-93.465-56.319-9.448 15.68 93.465 56.319z" fill="#EB4747"/><path d="M332.026 178.503l93.465 56.319 3.15-5.227-93.465-56.319-3.15 5.227z" fill="#DCD360"/><path d="M422.317 240.018l3.15-5.227-93.465-56.319-3.15 5.227 93.465 56.319z" fill="#E0D87A"/><path d="M419.172 245.254l3.149-5.227-93.465-56.319-3.149 5.226 93.465 56.32z" fill="#E8E3A7"/><path d="M325.699 188.955l9.447-15.68-21.21-4.278-5.454-1.101 3.522 4.308 13.695 16.751z" fill="#EDDAD3"/><path d="M331.997 178.502c1.399.843 3.238.356 4.108-1.087.869-1.443.44-3.297-.959-4.14l-3.149 5.227z" fill="#DECCC6"/><path d="M328.847 183.729c1.4.843 3.239.356 4.108-1.087.87-1.444.441-3.297-.958-4.14l-3.15 5.227z" fill="#E3D1CA"/><path d="M325.698 188.955c1.4.844 3.239.356 4.108-1.087.87-1.443.441-3.296-.958-4.14l-3.15 5.227z" fill="#EDDAD3"/><path d="M422.97 233.296l5.744 3.46 3.149-5.226-5.743-3.461-3.15 5.227z" fill="#B39696"/><path d="M425.538 241.959l3.149-5.226-5.743-3.461-3.149 5.227 5.743 3.46z" fill="#DBB8B8"/><path d="M422.39 247.24l3.149-5.227-5.744-3.46-3.149 5.227 5.744 3.46z" fill="#F2CBCB"/><path d="M331.997 178.501l-23.515-10.605 26.664 5.379-3.149 5.226z" fill="#DECCC6"/><path d="M328.848 183.728l-20.366-15.832 23.515 10.605-3.149 5.227z" fill="#E3D1CA"/><path d="M328.848 183.728l-20.366-15.832 17.216 21.059 3.15-5.227z" fill="#EDDAD3"/><path d="M312.004 172.204l1.932-3.207-5.454-1.101 3.522 4.308z" fill="#43656E"/><path d="M390.828 231.382s.581-.049.825-.194c0 0 .423-.299.736-.493.1-.062.188-.113.248-.14.253-.113.841-.286 1.37-.729.53-.442 2.323-2.935 2.323-2.935l-1.073-1.352-.824-1.409s-4.174.646-4.715 1.001a1.59 1.59 0 00-.149.109c-.428.345-.603.782-.807.988-.075.076-.766.885-.711 1.198.075.435.304.705.581.826 0 0 .184.845.641 1.205 0 0 .146.785.841 1.072 0 0 .237.78.714.853z" fill="#EEA886"/><path d="M401.531 191.079c-.825.319-1.698 2.314-1.049 6.228.697 4.198 2.083 5.992 2.641 6.973.557.982 3.621 7.031 3.071 7.827-.551.795-5.754 5.929-6.055 6.346-.301.418-6.11 5.677-6.11 5.677l2.957 4.132s12.544-9.798 13.522-10.776c.979-.978 3.904-3.033 2.823-6.45-1.1-3.473-3.076-11.604-3.427-12.24-.352-.635-2.92-9.828-8.373-7.717z" fill="#F08D29"/><path d="M354.972 206.112s2.011-2.241 3.014-2.199c1.002.04.32.889.32.889s.661-.851 1.375-.402c.715.449-.135 1.4-.135 1.4s.669-.511 1.198.195c.53.706-.35 1.336-.35 1.336s1.328-.198 1.045.887c-.477 1.832-2.454 2.706-2.454 2.706s-.566.221-1.027-.495c0 0-1.25.469-1.594-.97 0 0-1.499-.347-1.039-1.507 0 0-1.507-.58-.353-1.84z" fill="#EEA886"/><path d="M386.861 189.636s-.377-1.721 5.008-2.119c5.386-.399 9.029.811 9.131 2.356.101 1.546-13.644 5.403-13.644 5.403l-.495-5.64z" fill="#FAA146"/><path d="M392.308 169.551s-7.566-2.8-7.093 7.254c.473 10.054 2.246 11.075 7.223 9.671 4.976-1.404 5.393-7.749 6.042-10.801.648-3.052-3.699-5.685-6.172-6.124z" fill="#EEA886"/><path d="M388.462 190.59s1.813.799 7.716-1.802c0 0-.166-4.047.992-7.827 1.158-3.78-7.922 5.04-7.922 5.04.095.067.114.445.059.972a10.741 10.741 0 01-.291 1.563c-.332 1.263-.255 1.039-.554 2.054z" fill="#EEA886"/><path d="M397.428 180.661s.022-2.686-1.095-2.933c-1.117-.247-1.692 1.305-1.692 1.305l-.899-.048s.803-2.722-.261-3.345c-1.065-.624-7.435-.076-8.234-.993-.799-.916.36-6.358 2.098-6.892 1.737-.534 6.484-1.617 9.499 1.067 0 0 2.589 1.118 2.694 3.254.106 2.136-1.201 7.129-2.11 8.585z" fill="#163342"/><path d="M389.016 188.535c5.864-.986 6.74-4.321 6.753-4.373-2.279 2.94-6.462 2.811-6.462 2.811-.046.447-.144 1-.291 1.562z" fill="#B07C63"/><path d="M395.069 176.588c.334-.886 2.221-.775 2.027.63-.193 1.405-1.753 3.568-2.379 3.162-.626-.406-.109-2.571.352-3.792z" fill="#EEA886"/><path d="M327.138 234.876h-30.029v-30.029h30.029v30.029zm-27.151-2.878h24.272v-24.273h-24.272v24.273z" fill="#43656E"/><path d="M312.591 226.209l-10.57-9.964 3.291-3.49 7.497 7.067 16.435-13.504 3.045 3.707-19.698 16.184zM55.23 340.001l100.433-83.699-14.23-17.075L41 322.926l14.23 17.075z" fill="#43656E"/><path d="M153.945 254.25l5.364-4.471-10.801-12.96-5.364 4.471 10.801 12.96z" fill="#3C5156"/><path d="M142.199 229.99c22.436 38.635 71.945 51.768 110.581 29.331 38.635-22.436 51.767-71.945 29.331-110.581-22.437-38.636-71.946-51.768-110.581-29.331-38.636 22.436-51.768 71.945-29.331 110.581zm11.487-6.671c-9.951-17.137-11.53-36.835-5.994-54.351 4.896-15.488 15.355-29.271 30.509-38.071 32.291-18.753 73.67-7.776 92.422 24.514 5.756 9.912 8.711 20.681 9.108 31.387v.002c.898 24.174-11.243 48.038-33.622 61.034-32.292 18.752-73.67 7.776-92.423-24.515z" fill="#D65C66"/><path d="M237.72 78.335s1.293-4.372 1.129-4.835c-.163-.462-3.206-3.414-3.179-3.771.027-.357 4.071-2.852 4.485-3.564.415-.712 1.163 1.371 1.309 3.172.146 1.8.437 4.667.431 5.053-.005.386-.946 5.3-.946 5.3l-3.229-1.355z" fill="#DE9D7D"/><path d="M226.006 85.097l.19 1.135.248 1.474c.284 1.687.625 3.694.754 4.385.237 1.274 1.039 4.219 2.041 5.61.416.576 1.506.847 2.061.898.638.058 2.32.709 4.29-2.403 1.969-3.112 5.099-14.057 5.265-14.651.165-.594.644-2.264.644-2.264l-4.051-1.432s-2.91 7.9-3.321 8.99c-.313.826-2.136 4.144-2.228 4.246-.092.102-.321-9.059-.321-9.059l-5.572 3.071z" fill="#E55353"/><path d="M243.854 144.59s2.989 5.066 4.251 5.893c1.713 1.124.64 2.259-.174 2.261-.813.001-4.968.298-5.883-.741-.916-1.039-1.37-4.153-2.221-4.967-.852-.814-1.731-4.051.414-4.837 1.897-.696 3.613 2.391 3.613 2.391z" fill="#323657"/><path d="M242.56 142.361s3.423 5.934 4.013 6.81c.59.876-1.111.876-2.165.459-1.054-.416-3.705-4.672-4.086-5.447-.454-.925-.081-1.984-.081-1.984l2.319.162z" fill="#EEA886"/><path d="M239.093 145.553l.79 6.083.418.019-.13-4.376-1.078-1.726zm-24.877-.963s2.989 5.066 4.25 5.893c1.713 1.124.64 2.259-.173 2.261-.814.001-4.968.298-5.884-.741-.915-1.039-1.369-4.153-2.221-4.967-.851-.814-1.76-4.134.415-4.838 1.907-.616 3.613 2.392 3.613 2.392z" fill="#323657"/><path d="M213.101 142.373s3.244 5.922 3.833 6.798c.59.876-1.11.876-2.164.459-1.054-.416-3.705-4.672-4.086-5.447-.454-.925-.081-1.984-.081-1.984l2.498.174z" fill="#EEA886"/><path d="M209.454 145.553l.79 6.083.419.019-.13-4.376-1.079-1.726z" fill="#323657"/><path d="M200.956 98.48l27.046 12.324s.644.209 1.371.764v.001c.275.21.561.47.83.787.556.658 1.034 1.563 1.157 2.781 1.055 10.463 8.882 27.062 8.882 27.062 2.511 1.228 2.319.162 2.319.162-1.583-5.08-3.509-26.016-4.197-34.433a164.65 164.65 0 01-.255-3.395c-.013-.266-.304-.613-.805-1.019-3.711-3.01-18.983-9.24-18.983-9.24-11.465-.291-17.365 4.206-17.365 4.206z" fill="#EEA886"/><path d="M198.968 102.71c.837 7.311 8.163 7.535 8.163 7.535h12.648s-3.323 7.392-4.605 13.628c-1.362 6.617-4.571 18.325-4.571 18.325s.21.398 2.499.175c0 0 9.928-19.787 13.728-24.762.817-1.07 3.161-6.881 3.564-10.347.136-1.167.052-2.067-.383-2.433-.439-.367-1.447-1.06-2.792-1.908-3.962-2.498-10.842-6.344-14.676-7.206-5.133-1.154-11.035-3.316-11.035-3.316s-3.377 2.999-2.54 10.309z" fill="#EEA886"/><path d="M218.459 110.245H207.13s-8.238.215-9.202-7.08c-.808-6.12 3.027-10.325 3.027-10.325s3.848 1.03 8.661 2.192c2.409-.512 5.314-.845 8.705-.76 0 0 14.375 2.896 19.694 9.986 0 0-8.439-4.257-19.556 5.987z" fill="#323657"/><path d="M230.699 62.296a63.542 63.542 0 00-.069 2.44 7.9 7.9 0 00.026.738c.12 1.451.644 2.852 1.466 3.937h.001v.001c1.165 1.534 2.93 2.433 5 1.942 3.779-.898 6.295-13.165 6.295-13.165-1.033-4.8-7.435-5.08-10.001-3.363-2.025 1.356-2.559 4.393-2.718 7.47z" fill="#EEA886"/><path d="M200.343 93.194s.116 1.404 10.829 3.097c.292.046.571.092.841.136.988.163 1.827.315 2.545.447 5.081.934 4.055.91 6.167-2.635.29-.486 2.241-5.07 2.975-5.502.735-.433 2.11-1.88 2.68-2.775.571-.895 2.728-.318 4.744-2.082 2.014-1.764 1.179-4.303 1.302-6.356.215-3.602-1.149-7.71-1.149-7.71-5.645-10.575-13.87-2.185-15.371-.667-1.501 1.518-6.596 14.036-7.99 15.62-4.948 5.63-7.573 8.427-7.573 8.427z" fill="#E55353"/><path d="M225.532 65.112s.836 10.297 3.295 11.46c2.528 1.195 1.642-8.93 1.642-8.93s-2.078-4.251-4.937-2.53z" fill="#EEA886"/><path d="M240.469 58.941s1.302 4.246 1.069 5.92c0 0 1.702-2.29 2.039-4.383.336-2.083 1.337-5.45-1.791-8.025-3.129-2.574-1.317 6.488-1.317 6.488z" fill="#163342"/><path d="M227.705 68.15c.01 2.54 2.713 3.97 2.918 2.762.023-.135.337-.465.573-.707v-.001c.094-.095.175-.178.22-.227.181-.2.429-.39.707-.565 1.036-.65 2.492-1.09 2.492-1.09l-2.732-7.482s-.516.586-1.184 1.456c-1.237 1.614-3.001 4.202-2.994 5.853z" fill="#EEA886"/><path d="M231.196 70.204c.093-.096.174-.178.219-.227a3.4 3.4 0 01.708-.566s-1.342-1.837-1.466-3.937c0 0-.596 1.597.539 4.73z" fill="#A77860"/><path d="M221.552 115.874s-.313-.376-.37-.608c0 0-.07-.429-.139-.73a2.432 2.432 0 00-.063-.231c-.081-.218-.324-.671-.372-1.249-.048-.576.385-3.119.385-3.119l1.44-.156 1.328-.338s2.075 2.876 2.182 3.408c.01.052.019.104.022.153.047.46-.111.822-.114 1.065-.001.09-.077.979-.297 1.132-.304.211-.6.234-.836.14 0 0-.613.387-1.098.327 0 0-.555.376-1.137.129 0 0-.606.319-.931.077z" fill="#FFB48F"/><path d="M221.189 73.077s1.415-5.316-2.277-5.237c-3.691.08-3.944 4.687-4.051 5.6-.107.912-1.369 11.673-1.224 13.71.145 2.036-.262 4.811.172 7.51.326 2.022 6.895 16.105 7.003 16.16.107.056 3.352-1.271 3.352-1.271s-4.211-13.744-4.771-15.02c-.867-1.978-.529-3.423-.569-4.397-.041-.975 2.202-16.23 2.365-17.055z" fill="#E55353"/><path d="M240.984 59.387s-1.783 3.14-4.554 2.398c-2.772-.741-4.811-.017-5.147 1.152-.335 1.17-2.712 7.434-5.226 7.231-2.513-.202-4.345-4.02-5.759-3.274-1.414.747-2.959 4.973-4.802 3.835-1.842-1.138-1.482-5.032 2.455-6.719 3.937-1.686 6.739-1.686 7.887-3.882 1.148-2.195 4.006-8.181 6.738-9.367 2.025-.879 4.431-1.537 8.228.924 3.796 2.462 2.614 6.504 2.614 6.504l-2.434 1.198z" fill="#163342"/><path d="M229.373 111.568v.001c.274.21.561.469.829.786 0 0 .558-2.085.24-5.632-.001 0-.014 1.525-1.069 4.845z" fill="#B07C63"/><path d="M212.013 96.427c.988.163 1.827.315 2.545.447 0 0-.785-1.81-.778-2.404.007-.593-.375-7.043.125-12.008.499-4.964.462-4.613.462-4.613s-3.425 10.224-2.354 18.578zm14.183-10.195v.001l.16.95c3.156-1.151 4.02-2.662 4.06-2.738-1.079.786-2.574.88-3.335 1.062-.763.182-.885.725-.885.725z" fill="#A63D3D"/><defs><linearGradient id="paint0_linear" x1="348.279" y1="305.336" x2="433.033" y2="305.336" gradientUnits="userSpaceOnUse"><stop stop-color="#fff"/><stop offset="1"/></linearGradient></defs></svg>