<svg width="320" height="609" fill="none" xmlns="http://www.w3.org/2000/svg"><g filter="url(#filter0_d)"><path d="M445 521.5s-28.085-19.162-66.68-19.162c-52.227 0-150.933 126.949-254.894 72.571-103.962-54.378-151.426 0-151.426 0V57.696s53.333 59.093 157.667 0C234-1.396 361.568-15.529 445 78.604V521.5z" fill="url(#paint0_linear)"/><path d="M447.5 521.5v4.732l-3.908-2.666h0l-.001-.001-.01-.007-.051-.034a3.666 3.666 0 00-.099-.065l-.122-.08c-.2-.131-.505-.327-.911-.579a85.453 85.453 0 00-3.603-2.108c-3.16-1.755-7.784-4.104-13.599-6.455-11.639-4.707-27.985-9.399-46.876-9.399-6.051 0-12.95 1.846-20.704 5.149-7.737 3.295-16.164 7.97-25.241 13.475-6.788 4.117-13.97 8.721-21.47 13.528-12.387 7.941-25.638 16.435-39.403 24.202-44.356 25.028-96.059 43.746-149.235 15.932-51.504-26.94-88.713-26.803-112.88-20.195-12.116 3.312-21.04 8.273-26.913 12.382-2.938 2.054-5.112 3.895-6.539 5.207a39.318 39.318 0 00-1.581 1.533c-.17.176-.295.309-.373.395l-.084.091-.015.018s0 0 0 0l-.002.001-4.38 5.019V51.195l4.354 4.823h0l.002.003.02.021c.019.021.05.056.096.103.09.096.232.243.425.437.386.389.978.963 1.774 1.682 1.592 1.437 4 3.448 7.221 5.69 6.44 4.485 16.116 9.889 28.99 13.494 25.67 7.19 64.405 7.325 116.053-21.927 104.751-59.33 233.836-74.026 318.436 21.425l.629.71V521.5z" stroke="#D7E6F6" stroke-width="5"/></g><defs><linearGradient id="paint0_linear" x1="-28.001" y1="262.561" x2="369.376" y2="-46.536" gradientUnits="userSpaceOnUse"><stop stop-color="#F5F4E3"/><stop offset="1" stop-color="#AFD0EE"/></linearGradient><filter id="filter0_d" x="-38" y=".664" width="503" height="607.792" filterUnits="userSpaceOnUse" color-interpolation-filters="sRGB"><feFlood flood-opacity="0" result="BackgroundImageFix"/><feColorMatrix in="SourceAlpha" values="0 0 0 0 0 0 0 0 0 0 0 0 0 0 0 0 0 0 127 0"/><feOffset dx="5" dy="5"/><feGaussianBlur stdDeviation="5"/><feColorMatrix values="0 0 0 0 0.670938 0 0 0 0 0.777973 0 0 0 0 0.879062 0 0 0 0.5 0"/><feBlend in2="BackgroundImageFix" result="effect1_dropShadow"/><feBlend in="SourceGraphic" in2="effect1_dropShadow" result="shape"/></filter></defs></svg>