<svg width="1440" height="1073" fill="none" xmlns="http://www.w3.org/2000/svg"><g filter="url(#filter0_d)"><path d="M1440 908s-85.5-40-203-40c-221 0-459.5 265-776 151.49-316.5-113.513-461 0-461 0V168.997s239.5 72 480 .001C710.933 99.863 1186-96 1440 100.5V908z" fill="url(#paint0_linear)"/><path d="M1442.5 908v3.93l-3.56-1.666h0l-.01-.005-.04-.019-.18-.082c-.16-.072-.4-.182-.72-.325-.64-.287-1.6-.711-2.87-1.252a315.039 315.039 0 00-11.2-4.495c-9.79-3.725-24.08-8.7-42.03-13.677-35.9-9.955-86.42-19.909-144.89-19.909-54.78 0-110.77 16.424-169.06 39.458-29.13 11.512-58.79 24.653-89.119 38.187-2.082.928-4.166 1.859-6.254 2.791-28.323 12.643-57.239 25.55-86.805 37.688-126.999 52.136-266.474 90.286-425.606 33.216-157.871-56.618-272.671-56.561-347.883-42.461-37.615 7.052-65.36 17.622-83.668 26.401-9.155 4.39-15.952 8.33-20.444 11.17a108.32 108.32 0 00-5.017 3.33c-.55.39-.958.69-1.224.89-.133.1-.231.17-.294.22-.031.03-.053.04-.067.05l-.014.01h0l-.002.01-4.043 3.17V165.634l3.22.968-.72 2.395c.72-2.395.72-2.395.721-2.394l.007.002.03.009.126.037.51.149c.453.132 1.132.328 2.031.581 1.798.505 4.473 1.24 7.966 2.149 6.986 1.82 17.246 4.343 30.313 7.147 26.137 5.609 63.497 12.343 108.358 16.832 89.744 8.981 209.39 8.968 329.221-26.906 29.577-8.855 63.211-19.808 99.907-31.758 106.276-34.608 238.235-77.58 371.707-102.168C1130.4-.39 1313.63-.427 1441.53 98.522l.97.75V908z" stroke="#D7E6F6" stroke-width="5"/></g><defs><linearGradient id="paint0_linear" x1="-.002" y1="669.002" x2="849.057" y2="-294.195" gradientUnits="userSpaceOnUse"><stop stop-color="#F5F4E3"/><stop offset="1" stop-color="#AFD0EE"/></linearGradient><filter id="filter0_d" x="-15" y=".377" width="1480" height="1072.38" filterUnits="userSpaceOnUse" color-interpolation-filters="sRGB"><feFlood flood-opacity="0" result="BackgroundImageFix"/><feColorMatrix in="SourceAlpha" values="0 0 0 0 0 0 0 0 0 0 0 0 0 0 0 0 0 0 127 0"/><feOffset dx="5" dy="5"/><feGaussianBlur stdDeviation="7.5"/><feColorMatrix values="0 0 0 0 0.670938 0 0 0 0 0.777973 0 0 0 0 0.879062 0 0 0 1 0"/><feBlend in2="BackgroundImageFix" result="effect1_dropShadow"/><feBlend in="SourceGraphic" in2="effect1_dropShadow" result="shape"/></filter></defs></svg>