<svg width="1440" height="1607" fill="none" xmlns="http://www.w3.org/2000/svg"><g filter="url(#filter0_d)"><path d="M0 1533s225 137.3 710-50.69 730 50.69 730 50.69V222.199S1300.5 1.88 989.5 16c-311 14.12-508 118.5-723 118.5S0 16 0 16v1517z" fill="url(#paint0_linear)"/><path d="M0 1533l-1.302 2.13-1.198-.73V16l4.784-.995a.044.044 0 00.008-.004v.003l.004.007.023.05c.021.049.056.124.103.227.095.205.244.519.45.934.41.829 1.047 2.062 1.938 3.641 1.782 3.16 4.58 7.702 8.609 13.17 8.057 10.933 21.043 25.563 40.7 40.213C93.4 102.52 159.49 132 266.5 132c102.841 0 201.58-23.959 311.113-50.538 4.58-1.112 9.179-2.228 13.798-3.347 115.017-27.864 242.217-57.54 397.976-64.612 156.153-7.09 269.323 44.689 343.453 98.276 37.05 26.786 64.34 54.018 82.38 74.567 9.02 10.275 15.73 18.882 20.19 24.93 2.23 3.025 3.9 5.41 5.01 7.044.56.818.98 1.447 1.26 1.876l.16.242c.06.1.12.182.16.247l.08.128.02.035.01.009c0 .001 0 .002-.15.096-.21.135-.72.459-1.96 1.246l2.11-1.337.39.612V1538.93l-4.24-4.14.04-.04-.04.04-.01-.01-.03-.02-.12-.12c-.12-.11-.29-.27-.52-.49-.47-.43-1.17-1.08-2.11-1.92-1.89-1.67-4.72-4.12-8.51-7.17-7.58-6.11-18.97-14.64-34.16-24.31-30.38-19.33-75.95-43.18-136.64-61.2-121.33-36.01-303.26-48.71-545.257 45.09-242.821 94.12-420.708 106.86-538.009 96-58.644-5.43-102.123-16.76-130.978-26.76-14.427-5-25.197-9.67-32.377-13.09-3.59-1.71-6.283-3.12-8.087-4.1a72.3 72.3 0 01-2.04-1.14c-.23-.13-.404-.23-.523-.3-.06-.04-.105-.06-.137-.08l-.037-.03h-.011c-.004 0-.006-.01 1.296-2.14z" stroke="#D7E6F6" stroke-width="5"/></g><defs><linearGradient id="paint0_linear" x1="0" y1="1165.85" x2="1479.55" y2="338.906" gradientUnits="userSpaceOnUse"><stop stop-color="#F5F4E3"/><stop offset="1" stop-color="#AFD0EE"/></linearGradient><filter id="filter0_d" x="-15" y=".349" width="1480" height="1606.03" filterUnits="userSpaceOnUse" color-interpolation-filters="sRGB"><feFlood flood-opacity="0" result="BackgroundImageFix"/><feColorMatrix in="SourceAlpha" values="0 0 0 0 0 0 0 0 0 0 0 0 0 0 0 0 0 0 127 0"/><feOffset dx="5" dy="5"/><feGaussianBlur stdDeviation="7.5"/><feColorMatrix values="0 0 0 0 0.670938 0 0 0 0 0.777973 0 0 0 0 0.879062 0 0 0 1 0"/><feBlend in2="BackgroundImageFix" result="effect1_dropShadow"/><feBlend in="SourceGraphic" in2="effect1_dropShadow" result="shape"/></filter></defs></svg>