<svg width="320" height="2244" fill="none" xmlns="http://www.w3.org/2000/svg"><g filter="url(#filter0_d)"><path fill-rule="evenodd" clip-rule="evenodd" d="M379.529 2219.92h-.004l-.005-.01-.056-.05a72.837 72.837 0 00-1.39-1.28c-1.019-.9-2.572-2.24-4.659-3.92-4.174-3.36-10.48-8.09-18.913-13.46-16.865-10.73-42.228-24.01-76.045-34.05-67.552-20.05-169.2-27.25-304.767 25.3-6.062 2.34-12.093 2.34-17.8-.13-5.545-2.39-10.36-6.92-14.588-12.85-8.412-11.78-15.48-30.49-21.541-54.65-12.167-48.48-20.785-121.12-26.693-210.46-11.823-178.79-12.855-425.66-9.197-682.87 3.659-257.253 12.013-524.994 18.98-745.567l.495-15.684C-89.918 257.035-84.651 90.36-86.484 23.47L-86.99 5l9.749 15.691.002.004.02.032.097.152c.09.14.23.356.42.645.383.578.967 1.443 1.753 2.554 1.571 2.222 3.946 5.426 7.116 9.285 6.344 7.723 15.85 18.038 28.451 28.351 25.203 20.626 62.62 41.119 111.896 41.119 67.765 0 103.515-15.21 135.73-30.516 2.087-.991 4.162-1.985 6.233-2.977 30.279-14.499 59.533-28.507 110.537-28.507 27.29 0 45.579 6.11 57.249 16.128 11.762 10.097 16.042 23.504 16.683 36.374.635 12.785-2.284 25.372-5.258 34.608a130.509 130.509 0 01-4.201 11.254 102.197 102.197 0 01-1.43 3.193l-.043.09v2085.71m-5-2086.857s48.5-95.5-58-95.5c-49.853 0-78.233 13.586-108.422 28.038-34.303 16.422-70.943 33.962-144.078 33.962-83.08 0-133.33-56.612-148.833-77.16-3.438-4.556-5.167-7.34-5.167-7.34.078 2.836.143 5.85.196 9.04 1.193 72.19-3.912 233.753-10.356 437.681C-112.5 1130.11-147.38 2234.01-28.118 2187.78c243.118-94.23 379.158 1.9 406.132 24.18 3.332 2.75 5 4.37 5 4.37V141.333z" fill="#D7E6F6"/></g><path d="M-28.118 2187.78c273.15-105.87 411.132 28.55 411.132 28.55V141.333s48.5-95.5-58-95.5-115 62-252.5 62c-101.5 0-154-84.5-154-84.5 7.53 274.855-104.368 2225.587 53.368 2164.447z" fill="url(#paint0_linear)"/><defs><linearGradient id="paint0_linear" x1="-427.985" y1="672.803" x2="405.296" y2="207.08" gradientUnits="userSpaceOnUse"><stop stop-color="#F5F4E3"/><stop offset="1" stop-color="#AFD0EE"/></linearGradient><filter id="filter0_d" x="-123" y="0" width="537.034" height="2243.19" filterUnits="userSpaceOnUse" color-interpolation-filters="sRGB"><feFlood flood-opacity="0" result="BackgroundImageFix"/><feColorMatrix in="SourceAlpha" values="0 0 0 0 0 0 0 0 0 0 0 0 0 0 0 0 0 0 127 0"/><feOffset dx="5" dy="5"/><feGaussianBlur stdDeviation="5"/><feColorMatrix values="0 0 0 0 0.670938 0 0 0 0 0.777973 0 0 0 0 0.879062 0 0 0 1 0"/><feBlend in2="BackgroundImageFix" result="effect1_dropShadow"/><feBlend in="SourceGraphic" in2="effect1_dropShadow" result="shape"/></filter></defs></svg>