<svg width="414" height="313" fill="none" xmlns="http://www.w3.org/2000/svg"><path d="M285.722 211.949s13.939-50.4 32.465-78.298c16.544-24.913 37.649-40.923 48.562-38.468 10.912 2.456 12.323 26.794 8.73 41.196-4.562 18.285-14.165 34.94-22.916 44.742-13.641 15.278-46.792 42.906-46.792 42.906l-20.049-12.078z" fill="#F9CECE"/><path d="M375.061 138.02c-4.722 17.641-14.011 33.596-22.502 43.105-13.635 15.276-46.791 42.904-46.791 42.904l-7.611-4.585c4.438-6.721 22.025-32.817 38.585-50.643 9.463-10.169 19.742-21.172 36.724-29.975a63.09 63.09 0 011.595-.806z" fill="#F8A2A2"/><path d="M296.363 217.591a.46.46 0 01-.396-.692l57.291-96.85a.462.462 0 01.629-.162c.217.13.29.41.161.629l-57.29 96.85a.461.461 0 01-.395.225z" fill="#F96767"/><path d="M328.232 163.04a.457.457 0 01-.423-.281l-9.544-22.731a.458.458 0 11.845-.354l9.544 22.731a.456.456 0 01-.422.635zm4.902-25.2a.457.457 0 01-.43-.3l-5.762-15.591a.458.458 0 11.86-.317l5.762 15.591a.457.457 0 01-.43.617z" fill="#F96767"/><path d="M347.337 176.523c10.327-9.294 21.55-19.335 39.242-26.592 15.319-6.282 22.817-4.179 25.818-.086 3.001 4.092 2.41 18.072-7.181 34.004-5.166 8.581-15.517 20.005-22.37 26.19-7.109 6.414-20.68 15.242-35.467 20.734-13.811 5.129-30.555 6.548-30.555 6.548L303.19 225.06c-.001 0 23.243-29.724 44.147-48.537z" fill="#F9CECE"/><path d="M312.185 227.685a.456.456 0 01-.415-.266.456.456 0 01.223-.608c30.215-14.013 58.712-35.365 84.701-63.462a.46.46 0 01.673.624c-26.07 28.184-54.664 49.606-84.989 63.67a.454.454 0 01-.193.042zm80.195-29.234a.464.464 0 01-.206-.048l-14.187-7.093a.458.458 0 01.41-.82l14.187 7.092a.46.46 0 01-.204.869z" fill="#F96767"/><path d="M386.089 207.11a.466.466 0 01-.167-.031l-24.294-9.475a.46.46 0 01-.261-.594.457.457 0 01.593-.26l24.295 9.476a.457.457 0 01-.166.884zm-9.519 7.752a.462.462 0 01-.181-.037c-1.624-.7-15.885-6.853-16.715-7.405a.46.46 0 01.508-.763c.575.384 10.224 4.592 16.569 7.326a.458.458 0 01-.181.879zm-16.817 10.051a.476.476 0 01-.165-.03l-19.097-7.366a.458.458 0 11.33-.855l19.097 7.366a.457.457 0 01-.165.885z" fill="#F96767"/><path d="M0 153.825s4.074 80.579 70.904 80.366c0 0-.395-23.235-14.625-43.057C42.05 171.31 27.906 170.537 0 153.825z" fill="#F9CECE"/><path d="M67.528 214.714c-7.785-4.447-24.143-16.413-30.085-41.024 6.942 4.19 12.874 9.151 18.834 17.44 5.658 7.877 9.133 16.303 11.251 23.584z" fill="#F8A2A2"/><path d="M80.564 245.692a.461.461 0 01-.346-.158l-23.07-26.541a.458.458 0 11.692-.602l23.07 26.541a.458.458 0 01-.346.76z" fill="#EC5E5E"/><path d="M72.107 205.129s-27.827-10.912-34.92-45.833c-7.094-34.921-3.274-53.472-9.276-73.66 0 0 33.83 12.549 47.47 50.197 13.641 37.649-3.274 69.296-3.274 69.296z" fill="#F9CECE"/><path d="M87.384 245.146a.459.459 0 01-.427-.292l-23.35-59.903a.46.46 0 01.853-.334l23.35 59.903a.456.456 0 01-.26.593.435.435 0 01-.166.033z" fill="#EC5E5E"/><path d="M95.57 225.318s20.188-19.643 20.734-39.286c.545-19.643-15.46-40.922-26.918-46.379 0 0 6.548 12.732 5.093 24.009-1.017 7.879-9.095 14.55-9.095 30.919 0 14.196 10.186 30.737 10.186 30.737z" fill="#F9CECE"/><path d="M113.384 199.107c-5.712 14.432-17.816 26.206-17.816 26.206s-10.187-16.532-10.187-30.736c0-.293 0-.587.018-.871 3.017 8.097 8.528 20.805 13.232 20.338 3.842-.385 10.022-8.143 14.753-14.937z" fill="#F8A2A2"/><path d="M93.114 244.327a.46.46 0 01-.455-.522l5-35.505a.468.468 0 01.517-.391c.25.035.425.267.39.517l-4.999 35.505a.458.458 0 01-.453.396z" fill="#EC5E5E"/><path opacity=".15" d="M218.102 312.253c104.266 0 188.789-12.663 188.789-28.284 0-15.62-84.523-28.283-188.789-28.283-104.265 0-188.788 12.663-188.788 28.283 0 15.621 84.523 28.284 188.788 28.284z" fill="#B08184"/><path d="M118.137 93.925c-2.883-.854-5.902-.81-8.797-.02a16.696 16.696 0 00-4.012 1.696c-1.273.744-2.597 1.659-3.4 2.918-.308.483.309 1.11.794.794 1.126-.733 2.108-1.653 3.262-2.354a16.999 16.999 0 013.737-1.674c2.621-.822 5.474-.978 8.176-.49.563.102.805-.702.24-.87zm-6.392-5.921c-1.88-.787-4.361-.46-5.794 1.047a.534.534 0 000 .74c.22.219.518.175.74 0 1.373-1.08 3.146-1.534 4.822-.943.223.079.477-.089.537-.305.069-.254-.087-.447-.305-.539z" fill="#3A2F31"/><path d="M293.028 247.761a.467.467 0 01-.11-.014c-6.89-1.692-12.992-5.339-18.133-10.843a.46.46 0 01.021-.648.461.461 0 01.648.021c5.019 5.371 10.968 8.931 17.683 10.58a.456.456 0 01.335.554.456.456 0 01-.444.35zM182.992 232.9a.459.459 0 01-.137-.896c15.564-4.833 27.938-10.555 37.825-17.493a.458.458 0 11.526.75c-9.967 6.994-22.423 12.757-38.078 17.618a.402.402 0 01-.136.021z" fill="#EC5E5E"/><path d="M131.877 129.011l10.947 14.979 14.114-19.012-13.826-5.472-11.235 9.505z" fill="#EF986C"/><path opacity=".3" d="M151.078 122.664c-5.63 6.978-14.818 5.648-14.818 5.648l5.319-7.509 1.531-1.293 7.968 3.154z" fill="#3A2F31"/><path d="M130.276 100.034c11.447 1.643 20.854 9.674 20.019 15.176-.671 4.411-12.55 17.187-26.463 15.823-11.509-1.127-17.79-9.511-16.542-18.214 1.247-8.703 11.539-14.427 22.986-12.785z" fill="#EF986C"/><path d="M130.795 108.606s-2.262-1.796-3.192-3.955c-.559-1.297-1.368-3.792-.288-4.093 1.08-.301 1.233.385 1.412 1.486.179 1.1.384 1.784.625 2.497a564.58 564.58 0 001.443 4.065zm2.498-2.667c.791 0 1.432-.55 1.432-1.228 0-.678-.641-1.228-1.432-1.228-.791 0-1.432.55-1.432 1.228 0 .678.641 1.228 1.432 1.228z" fill="#3A2F31"/><path d="M131.787 100.315l6.799 1.407s1.949-2.13 3.528-1.378c1.355.646 1.119 2.625.62 4.523 0 0-4.957.098-10.947-4.552z" fill="#EF986C"/><path d="M141.168 111.138a.228.228 0 01-.056-.451c2.626-.673 3.705-2.813 3.83-4.443.009-.126.102-.236.247-.21.126.01.22.12.211.247-.137 1.779-1.312 4.118-4.174 4.85a.296.296 0 01-.058.007zm-6.518-4.37a.23.23 0 01-.221-.169c-.336-1.221-.142-2.402.577-3.509a.23.23 0 11.385.249c-.655 1.008-.824 2.034-.519 3.139a.231.231 0 01-.16.283.346.346 0 01-.062.007z" fill="#3A2F31"/><path opacity=".3" d="M142.733 104.867s-.724.018-1.962-.229l-.055-.055s1.852-1.302 2.228-3.292c.349.917.128 2.265-.211 3.576z" fill="#3A2F31"/><path d="M95.913 133.084a.459.459 0 01-.174-.883c4.007-1.641 5.987-4.111 6.422-8.007a.452.452 0 01.507-.404.458.458 0 01.404.507c-.47 4.212-2.69 6.993-6.986 8.754a.476.476 0 01-.173.033z" fill="#3A2F31"/><path d="M104.37 119.303c0 4.42-2.128 8.366-6.548 8.366s-9.457-3.946-9.457-8.366c0-4.419 4.492-9.094 8.911-9.094 4.421 0 7.094 4.674 7.094 9.094z" fill="#3A2F31"/><path opacity=".3" d="M104.369 119.3c0 4.419-2.127 8.371-6.547 8.371-3.32 0-6.978-2.228-8.61-5.208 4.043.844 10.902 1.394 15.157-3.163z" fill="#000"/><path d="M104.422 129.863s3.004 6.045 2.969 10.628c-.043 5.679-1.764 9.165-1.464 10.112.301.947 2.169 1.402 3.171.529 1.002-.873 1.343-2.647 1.897-7.001a30.17 30.17 0 00-.442-10.095c-1.852-8.724-6.131-4.173-6.131-4.173z" fill="#3A2F31"/><path d="M117.61 101.356s-.193 4.583 1.614 10.176c1.565 4.84 8.176 14.716 16.007 15.06.581 3.614-2.323 7.164-2.291 9.087-.012 2.527 2.71 3.136 2.35 5.63-.36 2.495-4.835 5.334-9.568 7.529-3.739 1.733-8.839 3.31-11.102 1.807-2.263-1.503.818-6.67-.974-10.973-1.357-3.26-5.092-4.547-7.639-7.275-2.546-2.728-4.028-10.008-3.5-15.874.248-2.751 2.491-6.182 4.906-9.488 3.251-4.45 6.001-8.326 10.197-5.679z" fill="#3A2F31"/><path opacity=".3" d="M135.288 141.306c-.358 2.494-4.832 5.337-9.564 7.528-2.035.945-4.474 1.843-6.638 2.219-.055-3.356.211-9.334 1.256-12.158 1.98-5.328 5.978-7.4 6.886-12.948.193-1.192-2.897-4.071-2.393-5.254.357.395.724.78 1.1 1.147l.578.55c.202.192.413.376.623.559.395.339.789.651 1.202.944l.577.413c1.541 1.045 3.21 1.806 4.961 2.127.449.083.899.138 1.357.156.578 3.622-2.329 7.171-2.292 9.087-.019 2.531 2.705 3.136 2.347 5.63z" fill="#000"/><path d="M124.741 118.302s-3.274-.091-4.547 2.456c-1.273 2.546.818 5.183 2.91 5.91 2.091.727 7.456-.909 8.821-2.455l-7.184-5.911z" fill="#EF986C"/><path d="M122.648 124.943a.225.225 0 01-.14-.047c-.019-.016-1.924-1.516-.767-3.444 1.142-1.903 4.626-.956 4.772-.914.073.02.131.075.154.145a.228.228 0 01-.03.21c-.028.041-.698.985-.11 1.698.565.685 1.804-.231 1.816-.241a.232.232 0 01.322.046.23.23 0 01-.046.322c-.066.05-1.606 1.184-2.446.165-.586-.711-.298-1.544-.077-1.971-.829-.178-3.171-.54-3.96.778-.945 1.575.588 2.794.654 2.845a.229.229 0 01.04.321.237.237 0 01-.182.087z" fill="#BF7956"/><path d="M135.231 231.281s-3.099 47.323 1.17 47.651c4.268.329 4.268-20.686 4.268-20.686l5.253-5.745-10.691-21.22z" fill="#EF986C"/><path d="M137.898 258.813s1.477 20.522 2.955 21.014c1.477.493 3.612-1.969 3.12-8.372-.493-6.403-2.792-19.208-2.792-19.208l-3.283 6.566z" fill="#EF986C"/><path d="M140.156 254.57s4.99 22.004 6.255 22.215c1.922.321 2.786-4.121 1.599-9.167-1.291-5.486-3.986-13.863-3.986-13.863l-3.868.815z" fill="#EF986C"/><path d="M147.042 252.321s6.325 12.457 5.292 17.169c-.217.992-.771 1.11-1.207 1.022-1.312-.262-3.124-4.01-3.375-4.572-.839-1.872-5.228-11.554-5.228-11.554l4.518-2.065z" fill="#EF986C"/><path d="M139.62 275.443a.23.23 0 01-.227-.194l-1.721-10.843a.229.229 0 11.453-.071l1.721 10.843a.228.228 0 01-.226.265zm6.791 1.572a.224.224 0 01-.106-.026c-.825-.434-1.836-4.146-3.404-10.207a375.985 375.985 0 00-1.092-4.159.23.23 0 01.443-.12c.359 1.323.727 2.747 1.094 4.164 1.099 4.253 2.468 9.545 3.172 9.916.112.06.155.198.097.31a.232.232 0 01-.204.122zm3.019-7.769a.23.23 0 01-.194-.108c-1.449-2.33-2.817-5.298-4.066-8.821a.229.229 0 01.139-.293c.124-.044.25.02.292.139 1.24 3.493 2.592 6.431 4.024 8.733a.228.228 0 01-.074.315.22.22 0 01-.121.035z" fill="#B56745"/><path d="M142.824 143.99s-7.447 8.25-7.593 18.358c-.137 9.594 1.678 14.2 1.678 14.2l-2.438 79.434 13.095-2.182 7.911-91.939-12.653-17.871zm14.114-19.012s4.814-45.234 4.814-47.69c0-2.456-1.824-46.221-1.824-46.221l14.1-.158s5.306 41.11 5.457 46.925c.151 5.815-.655 41.671-.655 41.671l-21.892 5.473z" fill="#EF986C"/><path d="M177.519 86.604a.229.229 0 01-.171-.382l1.86-2.066c.084-.093.23-.1.324-.017a.23.23 0 01.017.323l-1.86 2.066a.232.232 0 01-.17.076z" fill="#BF7956"/><path d="M160.789 22.117s-.97.56-2.753-.43c-3.099-1.72-5.938-5.594-7.487-5.163-2.609.724.444 5.074 2.237 8.262.767 1.361 3.529 6.195 8.343 8.74l-.34-11.409z" fill="#EF986C"/><path d="M160.102 32.617s-3.752-30.3.516-30.637c3.27-.259 3.872 20.568 3.872 20.568l10.17 5.512-.532 4.212-14.026.345z" fill="#EF986C"/><path d="M163.15 21.052s.059-6.926.738-12.704c.544-4.638 1.585-8.386 2.582-8.348 1.556.06 2.479 1.76 2.244 8.178-.236 6.417-1.039 19.017-1.039 19.017l-4.525-6.143z" fill="#EF986C"/><path d="M167.158 27.11s1.033-23.581 3.959-22.979c1.778.366 1.807 4.131 1.721 9.983-.076 5.184-1.939 13.946-1.939 13.946l-3.741-.95z" fill="#EF986C"/><path d="M173.956 32.445c.164-.302 1.094-6.805 1.894-11.962.738-4.762 2.05-9.174.516-10.24-2.176-1.516-4.044 7.658-4.044 7.658l-1.479 10.163 3.113 4.38z" fill="#EF986C"/><path d="M162.209 33.964a.243.243 0 01-.086-.016l-2.237-.904a.231.231 0 01-.127-.298.229.229 0 01.298-.127l2.238.903a.23.23 0 01-.086.442zm2.195-16.479a.229.229 0 01-.229-.22c-.23-5.118-1.181-10.061-2.826-14.692a.229.229 0 11.431-.153c1.66 4.674 2.62 9.662 2.852 14.825a.228.228 0 01-.219.24h-.009zm3.873-.645h-.013a.229.229 0 01-.216-.242l.051-.912c.332-5.999.677-12.203-.547-14.99a.23.23 0 11.419-.186c1.269 2.888.921 9.148.586 15.2l-.051.913a.23.23 0 01-.229.216zm3.615 2.839a.23.23 0 01-.221-.29l1.935-6.972a.23.23 0 01.443.123l-1.936 6.97a.23.23 0 01-.221.169zm-6.972 7.572a.229.229 0 01-.225-.187c-.466-2.482-2.296-3.99-5.761-4.745a.229.229 0 11.099-.447c3.616.79 5.616 2.46 6.114 5.108a.23.23 0 01-.227.271z" fill="#BF7956"/><path d="M142.823 143.99l6.337 18.147 14.017 7.182 14.5 3.188 8.642 3.457 4.546 3.358s22.713-14.784 25.881-30.916l-5.655-6.145s-10.914-11.328-16.603-15.048c-5.69-3.72-15.66-7.708-15.66-7.708l-21.892 5.473-14.113 19.012z" fill="#EF986C"/><path opacity=".15" d="M189.149 178.01l.019.055-2.852-2.099-8.638-3.457 14.534-16.844c-1.678 3.31-3.861 8.269-3.798 10.857.086 3.528 3.312 5.473 12.188 4.116-5.74 4.502-11.453 7.372-11.453 7.372z" fill="#3A2F31"/><path d="M154.385 137.806c-1.377 0-3.326-1.083-3.421-1.135a.23.23 0 01-.088-.312.226.226 0 01.312-.088c.695.388 2.699 1.325 3.637 1.016 1.027-.342.789-1.543.78-1.594a.23.23 0 01.176-.271.223.223 0 01.271.175c.123.57.053 1.747-1.082 2.125a1.901 1.901 0 01-.585.084zm4.541-5.754a.23.23 0 01-.229-.229v-6.508a.229.229 0 11.458 0v6.508a.229.229 0 01-.229.229zm-13.686 14.349a.234.234 0 01-.191-.101.232.232 0 01.063-.319l7.85-5.268a.232.232 0 01.319.063.23.23 0 01-.062.319l-7.851 5.268a.239.239 0 01-.128.038z" fill="#BF7956"/><path d="M140.91 146.406l16.204 19.82s5.935 6.288 20.564 6.281l29.497-34.169c-3.396-4.346-7.866-7.892-12.958-11.398 0 0-2.373.734-5.932 1.071-3.56.338-30.895-6.97-30.895-6.97l-.452 3.937s12.581 7.086 14.09 7.964c1.508.878 5.669 4.739.003 13.013-5.452 7.957-8.491 7.511-10.916 7.177-2.424-.335-17.291-9.141-17.291-9.141l-1.914 2.415z" fill="#B08184"/><path opacity=".15" d="M207.176 138.334l-29.498 34.174c-14.625.01-20.566-6.281-20.566-6.281l-4.787-5.85c3.365 1.935 12.287 6.839 19.566 4.682 6.97-2.065 7.233-8.33 11.876-13.554 5.447-6.129 17.318-8.798 7.207-23.853 2.017-.34 3.246-.715 3.246-.715 5.089 3.511 9.555 7.06 12.956 11.397z" fill="#3A2F31"/><path d="M177.408 120.086c-.735 0-2.224-.121-3.336-.995-2.337-1.836-1.663-6.032-1.633-6.209.021-.125.14-.216.263-.188.126.02.21.139.188.263-.006.042-.657 4.107 1.465 5.774 1.357 1.065 3.433.884 3.454.881.126-.02.237.081.25.208a.229.229 0 01-.207.249c-.024.002-.189.017-.444.017zm-19.204 47.189a.242.242 0 01-.102-.024c-5.736-2.866-9.668-5.419-13.149-8.54a.23.23 0 01-.018-.324c.086-.094.23-.1.324-.019 3.45 3.091 7.351 5.625 13.047 8.471.114.056.16.194.103.307a.228.228 0 01-.205.129z" fill="#B56745"/><path d="M148.197 169.469a.228.228 0 01-.218-.162c-.014-.041-1.292-4.219-.516-8.549a.225.225 0 01.266-.185.23.23 0 01.185.266c-.755 4.217.489 8.291.502 8.333a.229.229 0 01-.219.297zm47.605-.335l-.019-.001-9.399-.723a.228.228 0 01-.21-.246c.01-.126.099-.233.247-.211l9.399.724a.23.23 0 01-.018.457zm10.329-14.359a.23.23 0 01-.227-.26l.517-3.72a.23.23 0 01.258-.196.232.232 0 01.197.259l-.517 3.719a.231.231 0 01-.228.198zm1.859.31l-.029-.002a.23.23 0 01-.199-.255l.207-1.654c.016-.124.119-.209.256-.199a.23.23 0 01.199.256l-.207 1.653a.229.229 0 01-.227.201z" fill="#B56745"/><path d="M99.46 255.164s-7.979 3.002-13.798 5.548c-5.82 2.547-12.029 7.184-10.938 8.639 1.091 1.455 6.911 1.818 10.186 1.091 3.273-.727 11.276-2.91 14.187-2.91 2.91 0 8.003 4.364 12.003 4.364 4.002 0 4.002-9.457 4.002-9.457l-15.642-7.275z" fill="#EF986C"/><path d="M101.41 268.171a.224.224 0 01-.09-.019l-6.712-2.84a.229.229 0 01-.122-.3.227.227 0 01.3-.122l6.713 2.839a.23.23 0 01-.089.442z" fill="#B56745"/><path d="M334.805 263.89l-9.297 4.182s-10.181-10.518-15.752-15.062c-6.541-5.336-19.23-12.74-24.695-16.398-4.548-3.054-10.37-10.27-13.965-14.396-1.164-1.339-2.099-2.348-2.677-2.788-2.256-1.724-35.651-23.474-35.192-24.015l-16.368-22.364 16.643-16.642s14.675 7.329 24.275 16.397c6.198 5.85 13.429 14.916 18.271 22.71 4.236 6.822 7.106 12.177 7.106 12.177s21.007 11.462 31.644 25.372c10.645 13.919 20.007 30.827 20.007 30.827z" fill="#F96767"/><path d="M276.048 195.514c-1.174 5.933-3.613 18.467-4.952 26.702-1.164-1.339-2.099-2.348-2.677-2.788-2.256-1.724-35.651-23.474-35.192-24.015-6.745-7.082-12.285-14.512-16.368-22.364l16.643-16.642s15.018 7.673 24.619 16.741c6.198 5.85 13.085 14.572 17.927 22.366z" fill="#F8A2A2"/><path d="M285.144 214.169a.23.23 0 01-.222-.171c-1.038-3.942-2.831-7.976-5.482-12.332a.23.23 0 01.077-.316.233.233 0 01.315.077c2.673 4.395 4.484 8.468 5.534 12.454a.23.23 0 01-.222.288z" fill="#EC5E5E"/><path d="M191.254 185.325s-37.822 31.369-39.596 37.101l-52.4 32.778s5.637 4.105 4.819 14.2c0 0 3.413 2.987 7.23 2.582 4.423-.47 6.54-13.124 10.342-14.639 2.833-1.129 21.499-4.336 29.737-9.549 9.355-5.919 18.698-16.775 18.698-16.775s46.084-11.618 63.146-35.605l-16.369-22.371-25.607 12.278z" fill="#F96767"/><path d="M233.227 195.413c-15.414 21.677-54.512 33.249-61.921 35.284l-.532-27.774c10.132-9.013 20.484-17.596 20.484-17.596l25.601-12.278c6.498 7.074 12.073 14.485 16.368 22.364z" fill="#F8A2A2"/><path d="M115.002 259.077a.23.23 0 01-.054-.453l9.764-2.413a.23.23 0 01.109.447l-9.764 2.413a.264.264 0 01-.055.006zm51.967-27.891c-.921 0-1.812-.052-2.678-.152a.23.23 0 01-.2-.254.233.233 0 01.254-.201c5.53.649 12.189-.81 20.361-4.457a.23.23 0 11.186.419c-6.976 3.113-12.873 4.645-17.923 4.645zm75.403-28.893a.236.236 0 01-.125-.037c-5.607-3.671-10.657-7.793-15.012-12.252a.23.23 0 11.328-.32c4.332 4.435 9.357 8.536 14.935 12.188a.229.229 0 01-.126.421z" fill="#EC5E5E"/><path d="M189.146 178.011l2.07 7.312s14.667-1.331 26.027-9.936c15.603-11.821 16.259-18.982 16.259-18.982a85.983 85.983 0 00-17.46-8.73s-1.486 8.106-8.73 16.641c-6.763 7.972-18.166 13.695-18.166 13.695z" fill="#F96767"/><path d="M217.243 175.615a.232.232 0 01-.184-.092.23.23 0 01.048-.321c14.814-11.004 16.158-18.755 16.17-18.832a.232.232 0 01.261-.191.228.228 0 01.192.261c-.049.323-1.385 8.015-16.349 19.13a.23.23 0 01-.138.045z" fill="#EC5E5E"/><path opacity=".3" d="M231.64 160.809c-1.981 3.273-6.052 8.261-14.396 14.579-11.361 8.601-26.032 9.94-26.032 9.94l-2.063-7.318s5.713-2.87 11.453-7.372c0 0 .009 0 .018-.009.734-.156 19.953-4.282 31.02-9.82z" fill="#CC4848"/><path d="M322.578 276.171c.861 2.399 16.868 1.968 17.597-.273.606-1.863-1.848-8.947-5.365-12.004-2.97-2.581-7.583-2.02-8.788 1.681-.563 1.729-.033 3.094-1.761 5.958-.678 1.122-2.19 3.226-1.683 4.638z" fill="#EF986C"/><path d="M337.035 274.065h-.013c-3.088-.178-8.984-.515-9.195-.517a.229.229 0 110-.458c.262 0 8.855.495 9.222.516a.23.23 0 01-.014.459z" fill="#B56745"/></svg>