<svg width="375" height="410" fill="none" xmlns="http://www.w3.org/2000/svg"><g clip-path="url(#clip0)"><path d="M186.386 376.428l-99.674-53.749c-5.888-3.174-8.785-11.177-6.532-17.903l77.792-232.27c2.213-6.605 9.076-10.61 15.397-8.93l106.89 28.4c7.678 2.04 11.997 9.713 9.557 17.118l-85.88 260.682c-2.487 7.556-10.383 10.517-17.55 6.652z" fill="url(#paint0_linear)"/><path d="M179.201 372.554l-98.466-53.097c-5.82-3.139-8.672-11.08-6.431-17.766l77.401-230.923c2.202-6.568 8.999-10.556 15.248-8.897l105.609 28.06c7.582 2.015 11.831 9.628 9.405 16.985l-85.405 258.986c-2.476 7.506-10.286 10.467-17.361 6.652z" fill="url(#paint1_linear)"/><path d="M272.807 123.941l-73.272 222.102c-3.001 9.093-12.474 12.787-21.037 8.305l-88.314-46.221a14.449 14.449 0 01-2.622-1.762c-2.18-1.822-3.86-4.254-4.93-6.967-1.56-3.973-1.818-8.56-.407-12.773l66.7-199.056a16.778 16.778 0 014.439-6.922c3.802-3.55 9.129-5.16 14.168-3.754l94.017 26.238c5.131 1.431 8.997 5.024 10.859 9.502.31.74.561 1.506.759 2.288.711 2.867.645 5.97-.36 9.02z" fill="#0A1260"/><path d="M184.786 352.805l-88.314-46.221a14.449 14.449 0 01-2.623-1.762c-2.18-1.821-3.86-4.254-4.929-6.966-1.56-3.973-1.818-8.561-.407-12.772l66.699-199.056a16.761 16.761 0 014.44-6.922 16.218 16.218 0 013.922-2.71c-3.748.067-7.396 1.628-10.21 4.253a16.765 16.765 0 00-4.439 6.922l-66.7 199.056c-1.412 4.213-1.154 8.8.407 12.773 1.068 2.713 2.75 5.144 4.929 6.967a14.54 14.54 0 002.622 1.762l88.314 46.221c4.771 2.497 9.825 2.453 13.884.353-2.485.025-5.08-.581-7.595-1.898z" fill="#050D47"/><path d="M205.749 79.604c-.251.754-1.053 1.2-1.79 1-.737-.202-1.129-.975-.879-1.727.25-.752 1.049-1.2 1.787-1 .739.2 1.134.974.882 1.727z" fill="url(#paint2_linear)"/><path d="M226.405 85.978l-15.963-4.354a.66.66 0 01-.443-.863c.124-.375.526-.599.896-.497l15.967 4.335c.38.103.586.496.459.878a.767.767 0 01-.916.5z" fill="url(#paint3_linear)"/><path d="M133.328 342.192l-8.041-4.295c-1.363-.727-2.057-2.537-1.556-4.044.502-1.508 2.012-2.146 3.376-1.426l8.053 4.252c1.389.733 2.105 2.566 1.599 4.092-.507 1.526-2.045 2.161-3.431 1.421z" fill="url(#paint4_linear)"/><path d="M137.918 239.273c-1.755 5.264-7.066 7.796-11.823 5.671-4.715-2.107-7.103-8-5.371-13.179 1.731-5.177 6.944-7.746 11.684-5.724 4.781 2.039 7.266 7.97 5.51 13.232z" fill="#fff"/><path d="M168.817 252.767c-1.799 5.418-7.37 7.973-12.4 5.726-4.986-2.227-7.554-8.338-5.78-13.665 1.773-5.325 7.239-7.921 12.249-5.784 5.056 2.157 7.731 8.308 5.931 13.723z" fill="url(#paint5_linear)"/><path d="M201.533 267.053c-1.845 5.579-7.698 8.157-13.027 5.777-5.278-2.359-8.048-8.703-6.229-14.186 1.819-5.481 7.556-8.104 12.862-5.84 5.356 2.284 8.238 8.672 6.394 14.249z" fill="url(#paint6_linear)"/><path d="M127.828 269.524c-1.76 5.276-7.042 7.706-11.76 5.446-4.675-2.241-7.028-8.254-5.293-13.444 1.735-5.188 6.921-7.659 11.621-5.503 4.742 2.175 7.191 8.226 5.432 13.501z" fill="url(#paint7_linear)"/><path d="M158.476 283.897c-1.804 5.43-7.345 7.878-12.335 5.487-4.944-2.37-7.477-8.605-5.699-13.945 1.777-5.337 7.213-7.829 12.183-5.549 5.015 2.301 7.653 8.579 5.851 14.007z" fill="url(#paint8_linear)"/><path d="M190.926 299.116c-1.85 5.592-7.671 8.057-12.957 5.524-5.236-2.51-7.967-8.985-6.144-14.482 1.822-5.494 7.529-8.006 12.792-5.593 5.313 2.439 8.158 8.961 6.309 14.551z" fill="url(#paint9_linear)"/><path d="M167.321 109.897l-5.36 16.044-1.552-.504 4.864-14.557-3.553-1.102.488-1.46 5.113 1.579zm9.233 19.136l-.496 1.486-10.764-3.495.392-1.174 8.556-4.535c1.085-.577 1.873-1.125 2.364-1.644.49-.52.838-1.088 1.045-1.706.32-.957.255-1.8-.194-2.527-.448-.726-1.253-1.268-2.411-1.629-1.8-.558-3.394-.392-4.783.496l-.773-1.358a6.342 6.342 0 012.849-.994c1.061-.113 2.176.012 3.349.373 1.571.486 2.689 1.26 3.35 2.325.663 1.066.768 2.281.315 3.641a6.134 6.134 0 01-1.336 2.245c-.612.661-1.58 1.337-2.9 2.028l-7.023 3.731 8.46 2.737zm5.257-7.914a1.335 1.335 0 01-.042-1.016 1.34 1.34 0 01.644-.787c.311-.168.63-.202.958-.1.327.103.57.312.729.627.159.315.179.652.06 1.009a1.36 1.36 0 01-.661.797 1.21 1.21 0 01-.974.105 1.13 1.13 0 01-.714-.635zm-3.304 9.913a1.35 1.35 0 01-.042-1.02c.119-.356.333-.618.643-.784a1.18 1.18 0 01.956-.092 1.2 1.2 0 01.727.635c.157.318.177.656.058 1.013-.119.359-.34.623-.66.794a1.2 1.2 0 01-.971.098 1.14 1.14 0 01-.711-.644zm14.106-13.324l-5.466 16.413-1.624-.527 4.961-14.892-3.717-1.153.498-1.493 5.348 1.652zm9.79 19.684l-.506 1.521-11.263-3.659.399-1.2 8.894-4.593c1.128-.584 1.948-1.141 2.455-1.67a4.602 4.602 0 001.078-1.742c.325-.979.251-1.844-.223-2.593-.473-.747-1.317-1.31-2.53-1.686-1.883-.584-3.545-.424-4.987.478l-.819-1.398c.874-.558 1.862-.892 2.965-1 1.106-.108 2.271.025 3.498.404 1.644.508 2.818 1.31 3.517 2.405.7 1.098.82 2.344.358 3.736a6.13 6.13 0 01-1.377 2.293c-.635.674-1.638 1.361-3.011 2.061l-7.301 3.779 8.853 2.864zm-40.332-6.59l-1.399 4.189-.399-.132 1.119-3.35-2.484 2.304-.197-.065-.606-3.303-1.11 3.322-.396-.133 1.394-4.173.341.112.667 3.66 2.727-2.544.343.113zm.299 4.559a1.557 1.557 0 01-.351-.753 1.797 1.797 0 01.079-.891c.102-.308.26-.562.474-.761a1.53 1.53 0 011.574-.338c.286.094.522.247.707.46.185.212.302.462.35.749.049.288.022.585-.081.893-.103.309-.26.563-.472.764a1.533 1.533 0 01-1.575.343 1.578 1.578 0 01-.705-.466zm1.45.122a1.1 1.1 0 00.539-.304c.157-.157.275-.355.356-.595a1.5 1.5 0 00.073-.689 1.11 1.11 0 00-.248-.566 1.136 1.136 0 00-.518-.341 1.14 1.14 0 00-.618-.035 1.122 1.122 0 00-.54.303 1.476 1.476 0 00-.359.594c-.079.24-.103.47-.07.689.032.22.117.408.249.565.134.158.305.272.516.342.211.071.418.084.62.037zm4.965-.951c.145.304.144.678-.003 1.12l-.613 1.838-.404-.135.599-1.795c.11-.329.116-.606.018-.83-.099-.223-.292-.384-.579-.479-.322-.107-.612-.089-.867.051-.255.141-.442.389-.561.746l-.554 1.659-.403-.134 1.056-3.161.386.127-.194.584c.174-.157.376-.256.607-.297.231-.041.475-.02.733.065.373.123.633.337.779.641zm4.742-.242l-1.497 4.487-.39-.13.209-.628a1.342 1.342 0 01-.647.328 1.447 1.447 0 01-.736-.057 1.55 1.55 0 01-.698-.461 1.498 1.498 0 01-.345-.752 1.85 1.85 0 01.085-.902 1.86 1.86 0 01.474-.774c.211-.202.453-.333.727-.392.274-.059.552-.042.834.051a1.351 1.351 0 01.937 1.008l.637-1.91.41.132zm-2.278 3.666c.204-.046.386-.147.548-.304a1.48 1.48 0 00.361-.598c.081-.242.105-.474.07-.696a1.128 1.128 0 00-.255-.57 1.143 1.143 0 00-.519-.343 1.152 1.152 0 00-.627-.036 1.13 1.13 0 00-.547.305 1.48 1.48 0 00-.361.597 1.46 1.46 0 00-.07.693c.034.221.119.412.255.571.136.159.31.274.524.346.209.069.417.081.621.035zm4.856-1.045c.142.278.145.622.009 1.03l-.659 1.978-.393-.131.166-.497a1.016 1.016 0 01-.536.253c-.21.033-.438.009-.684-.073-.338-.113-.578-.287-.721-.523a.889.889 0 01-.075-.771.878.878 0 01.497-.561c.242-.104.566-.088.973.047l.963.319.065-.194c.092-.275.088-.509-.01-.7-.099-.192-.289-.334-.569-.427a1.64 1.64 0 00-.588-.084c-.198.008-.38.05-.546.125l-.078-.382c.2-.087.419-.132.659-.136.24-.004.48.035.718.113.397.132.666.336.809.614zm-1.27 2.272c.202-.056.38-.175.53-.359l.174-.522-.952-.316c-.518-.172-.841-.068-.967.312a.556.556 0 00.055.505c.098.152.269.268.51.349.23.076.447.087.65.031zm5.308-1.258l-2.721 3.074c-.224.258-.437.423-.641.495a.974.974 0 01-.648-.007 1.2 1.2 0 01-.386-.21.926.926 0 01-.257-.329l.298-.258c.1.213.259.356.474.428a.573.573 0 00.396-.003c.126-.048.263-.155.413-.321l.237-.265-.297-3.639.429.141.242 3.095 2.055-2.336.406.135z" fill="#fff"/><path opacity=".15" d="M272.806 123.941l-11.549 35.009-144.204 23.734 14.248-42.52 141.106-27.529c.31.74.561 1.506.759 2.288a16.208 16.208 0 01-.36 9.018zm-28.979 87.844l-2.723 8.252-142.49 17.677 2.49-7.43 142.723-18.499zm-25.458 77.167l-2.737 8.296-128.071 9.119c-2.18-1.822-3.86-4.254-4.93-6.967l135.738-10.448zm39.357-119.301l-9.549 28.945-139.954 10.442 5.601-16.715 143.902-22.672z" fill="#fff"/><path opacity=".25" d="M270.827 96.964l-73.272 222.103c-3 9.093-12.474 12.787-21.037 8.306l-88.314-46.222a14.534 14.534 0 01-2.622-1.761c-2.18-1.822-3.86-4.254-4.93-6.968-1.56-3.974-1.818-8.56-.407-12.772l66.7-199.056a16.768 16.768 0 014.439-6.922c3.802-3.55 9.129-5.16 14.168-3.754l94.016 26.237c5.131 1.432 8.997 5.025 10.859 9.503.31.739.562 1.505.76 2.288a16.218 16.218 0 01-.36 9.018z" fill="url(#paint10_linear)"/><path d="M374.673 148.477l-17.397 45.438c-1.266 3.307-5.742 5.161-9.964 4.144l-55.297-13.317c-3.8-.915-5.88-4.171-4.668-7.274L304 134.819c1.201-3.075 5.279-4.985 9.132-4.261l56.042 10.529c4.277.804 6.753 4.115 5.499 7.39z" fill="url(#paint11_linear)"/><path d="M340.471 135.695l-8.481 21.928c-1.232 3.185-5.491 5.071-9.484 4.217l-26.815-5.74 8.31-21.281c1.201-3.075 5.279-4.985 9.132-4.261l27.338 5.137z" fill="url(#paint12_linear)"/><path d="M349.454 167.606c-3.314 8.614-14.874 13.578-25.629 11.119-10.554-2.414-16.34-11.092-13.106-19.409 3.229-8.305 14.318-13.335 24.951-11.213 10.834 2.161 17.091 10.904 13.784 19.503z" fill="#FCE6A3"/><path d="M340.701 167.43c-1.947 5.049-8.713 7.983-15.045 6.563-6.262-1.404-9.731-6.543-7.813-11.49l22.858 4.927z" fill="#fff"/><path d="M326.568 157.878c-.495 1.279-1.877 2.109-3.083 1.853-1.203-.255-1.777-1.494-1.283-2.768.494-1.273 1.869-2.103 3.074-1.854 1.207.251 1.787 1.491 1.292 2.769zm14.363 3.013c-.5 1.296-1.91 2.134-3.147 1.872-1.233-.261-1.828-1.52-1.33-2.811.498-1.29 1.902-2.128 3.138-1.871 1.238.256 1.838 1.515 1.339 2.81z" fill="#0A1260"/><path d="M348.409 43.472L331.276 80.32c-1.85 3.98-7.5 6.062-12.561 4.69L211.816 56.007a1.987 1.987 0 00-1.356.13l-13.005 6.124c-1.385.652-2.802-.504-2.252-1.83l18.522-44.54c1.404-3.378 5.508-5.549 9.199-4.833l119.242 23.126c5.317 1.032 8.142 5.202 6.243 9.287z" fill="#FCE6A3"/><path opacity=".05" d="M342.727 32.548l-17.134 36.849c-1.85 3.979-7.5 6.061-12.56 4.689L206.134 45.084a1.99 1.99 0 00-1.356.13l-13.006 6.124c-1.384.652-2.802-.503-2.252-1.829l18.522-44.541c1.405-3.377 5.509-5.548 9.2-4.832l119.242 23.127c5.318 1.031 8.142 5.2 6.243 9.285z" fill="url(#paint13_linear)"/><path d="M337.622 66.67l-6.347 13.651c-1.85 3.98-7.499 6.062-12.56 4.69l-35.836-9.723 5.726-12.79c1.686-3.767 6.822-5.927 11.534-4.8l37.483 8.972z" fill="#F9D979"/><path d="M253.048 43.544c-.626 1.444-2.471 2.292-4.117 1.898-1.636-.392-2.458-1.867-1.842-3.298.616-1.431 2.445-2.288 4.091-1.909 1.653.382 2.493 1.865 1.868 3.31zm16.441 3.863c-.649 1.478-2.583 2.337-4.312 1.923-1.72-.411-2.59-1.93-1.951-3.394.64-1.466 2.555-2.334 4.283-1.936 1.74.402 2.629 1.928 1.98 3.407zm17.295 4.063c-.675 1.514-2.703 2.385-4.523 1.95-1.809-.433-2.732-1.997-2.068-3.498.666-1.501 2.673-2.38 4.493-1.961 1.831.42 2.772 1.994 2.098 3.51z" fill="#fff"/><path d="M158.145 137.117l-18.096 47.245c-1.319 3.444-5.652 4.768-9.659 2.972l-52.421-23.478c-3.604-1.615-5.48-5.519-4.221-8.744l17.28-44.242c1.246-3.189 5.198-4.643 8.858-3.235l53.237 20.475c4.067 1.566 6.326 5.602 5.022 9.007z" fill="url(#paint14_linear)"/><path d="M147.069 166.031l-7.021 18.332c-1.319 3.444-5.652 4.767-9.659 2.972l-20.907-9.364 6.896-17.854c1.288-3.336 5.469-4.717 9.374-3.072l21.317 8.986z" fill="url(#paint15_linear)"/><path d="M126.325 149.787l-13.921-15.633c-.861-.967-2.452-.839-2.865.227l-6.583 16.974c-.416 1.07.649 2.305 1.919 2.222l20.503-1.339c1.314-.086 1.839-1.449.947-2.451z" fill="#fff"/><path d="M305.702 209.071l-17.855 46.614c-1.3 3.393-5.684 4.899-9.761 3.37l-53.365-20.002c-3.669-1.376-5.61-5.061-4.37-8.24l17.064-43.686c1.23-3.149 5.221-4.759 8.947-3.584l54.156 17.075c4.137 1.305 6.471 5.094 5.184 8.453z" fill="url(#paint16_linear)"/><path d="M295.205 236.478l-7.357 19.207c-1.3 3.393-5.684 4.899-9.761 3.37l-22.574-8.461 7.222-18.691c1.27-3.287 5.491-4.839 9.45-3.458l23.02 8.033z" fill="url(#paint17_linear)"/><path d="M274.922 234.848c.468-.743-6.407-6.85-7.534-6.719-1.125.13-3.41 1.648-3.41 1.648s-3.321-4.749-4.607-7.018c-1.282-2.261-3.527-7.316-3.527-7.316s2.874-.418 3.718-1.016c.846-.598-.376-8.503-1.353-8.681-.974-.178-4.719.579-5.808 1.348-3.915 2.764-2.019 11.049 1.537 17.381l.142.253.143.255c3.598 6.406 10.257 13.238 15.539 12.644 1.472-.166 4.692-2.037 5.16-2.779z" fill="#fff"/><path d="M83.526 211.663l-16.223 45.939c-1.147 3.25-5.236 4.994-9.126 3.907l-52.94-14.796c-3.785-1.057-6.012-4.519-4.988-7.743l14.464-45.558c1.072-3.378 5.1-5.295 9.01-4.264l54.698 14.415c4.02 1.059 6.309 4.692 5.105 8.1z" fill="url(#paint18_linear)"/><path d="M45.474 194.88l-6.209 18.683c-1.109 3.34-5.165 5.187-9.05 4.136l-21.379-5.78 5.877-18.508c1.072-3.378 5.1-5.295 9.01-4.264l21.751 5.733z" fill="url(#paint19_linear)"/><path d="M51.897 226.347c1.077-3.167 3.318-4.298 6.733-3.377 1.732.468 3.11 1.268 4.143 2.387l5.372-6.126c-.818-.846-1.936-1.629-3.357-2.341-1.413-.715-2.97-1.3-4.658-1.752-4.772-1.277-8.84-1.161-12.195.346-3.35 1.499-5.644 4.123-6.892 7.853l-.488 1.457-5.91-1.605-2.404 7.249 5.886 1.61-7.302 21.815 10.97 3.066 7.439-21.844 9.586 2.622 2.514-7.273-9.912-2.69.475-1.397z" fill="#fff"/><path d="M270.531 391.722l-28.806-15.29 16.484-42.423c2.735-7.037 11.377-9.763 19.381-6.034 8.128 3.787 12.567 12.801 9.775 20.049l-16.834 43.698zm-23.168-16.905l20.311 10.689 15.276-39.603c1.961-5.084-1.134-11.422-6.841-14.105-5.644-2.655-11.762-.746-13.694 4.233l-15.052 38.786z" fill="#7F7F7F"/><path d="M289.821 377.073l-11.066 28.825c-1.55 4.039-6.467 5.308-10.952 2.847l-34.819-19.105c-4.145-2.274-6.269-7.214-4.775-11.046l10.665-27.36c.508-1.303 2.066-1.773 3.484-1.058l45.596 22.996c1.553.784 2.394 2.528 1.867 3.901z" fill="#F9D979"/><path d="M283.729 392.939l-4.975 12.96c-1.55 4.038-6.467 5.307-10.952 2.846l-23.221-12.741 6.676-17.222c.515-1.329 2.116-1.788 3.587-1.016l28.885 15.173z" fill="#FCE39D"/><path d="M254.293 388.182c-1.371-.735-2.09-2.339-1.607-3.585l4.424-11.426c.481-1.242 1.986-1.673 3.364-.961 1.382.713 2.114 2.307 1.631 3.555l-4.441 11.485c-.483 1.253-1.994 1.67-3.371.932z" fill="#000"/></g><defs><linearGradient id="paint0_linear" x1="-34.327" y1="-92.314" x2="312.918" y2="528.538" gradientUnits="userSpaceOnUse"><stop offset="0" stop-color="#B8DDFF"/><stop offset="1" stop-color="#1C37B5"/></linearGradient><linearGradient id="paint1_linear" x1="335.127" y1="128.205" x2="-201.314" y2="519.995" gradientUnits="userSpaceOnUse"><stop offset="0" stop-color="#B8DDFF"/><stop offset="1" stop-color="#1C37B5"/></linearGradient><linearGradient id="paint2_linear" x1="270.203" y1="-33.998" x2="144.024" y2="249.824" gradientUnits="userSpaceOnUse"><stop offset="0" stop-color="#B8DDFF"/><stop offset="1" stop-color="#1C37B5"/></linearGradient><linearGradient id="paint3_linear" x1="273.989" y1="-12.116" x2="165.493" y2="231.933" gradientUnits="userSpaceOnUse"><stop offset="0" stop-color="#B8DDFF"/><stop offset="1" stop-color="#1C37B5"/></linearGradient><linearGradient id="paint4_linear" x1="85.736" y1="185.865" x2="138.748" y2="421.582" gradientUnits="userSpaceOnUse"><stop offset="0" stop-color="#B8DDFF"/><stop offset="1" stop-color="#1C37B5"/></linearGradient><linearGradient id="paint5_linear" x1="176.241" y1="373.299" x2="157.672" y2="190.35" gradientUnits="userSpaceOnUse"><stop offset="0" stop-color="#FF8110"/><stop offset="1" stop-color="#FFBE3B"/></linearGradient><linearGradient id="paint6_linear" x1="186.438" y1="212.639" x2="191.969" y2="279.019" gradientUnits="userSpaceOnUse"><stop offset="0" stop-color="#FFFF9D"/><stop offset="1" stop-color="#1CC2B5"/></linearGradient><linearGradient id="paint7_linear" x1="135.088" y1="363.219" x2="118.09" y2="225.758" gradientUnits="userSpaceOnUse"><stop offset="0" stop-color="#B8DDFF"/><stop offset="1" stop-color="#1C37B5"/></linearGradient><linearGradient id="paint8_linear" x1="151.496" y1="235.393" x2="148.17" y2="329.854" gradientUnits="userSpaceOnUse"><stop offset="0" stop-color="#FF48B4"/><stop offset="1" stop-color="#FF4276"/></linearGradient><linearGradient id="paint9_linear" x1="195.686" y1="389.782" x2="164.749" y2="120.981" gradientUnits="userSpaceOnUse"><stop offset="0" stop-color="#B8DDFF"/><stop offset="1" stop-color="#1C37B5"/></linearGradient><linearGradient id="paint10_linear" x1="187.225" y1="365.276" x2="163.319" y2="-131.556" gradientUnits="userSpaceOnUse"><stop offset="0" stop-color="#FFFF9D"/><stop offset="1" stop-color="#1CC2B5"/></linearGradient><linearGradient id="paint11_linear" x1="330.336" y1="158.954" x2="357.807" y2="378.407" gradientUnits="userSpaceOnUse"><stop offset="0" stop-color="#B8DDFF"/><stop offset="1" stop-color="#1C37B5"/></linearGradient><linearGradient id="paint12_linear" x1="317.731" y1="143.757" x2="330.328" y2="244.391" gradientUnits="userSpaceOnUse"><stop offset="0" stop-color="#B8DDFF"/><stop offset="1" stop-color="#1C37B5"/></linearGradient><linearGradient id="paint13_linear" x1="278.399" y1="-40.079" x2="266.129" y2="66.823" gradientUnits="userSpaceOnUse"><stop offset="0" stop-color="#FF8110"/><stop offset="1" stop-color="#FFBE3B"/></linearGradient><linearGradient id="paint14_linear" x1="108.163" y1="72.779" x2="124.519" y2="274.609" gradientUnits="userSpaceOnUse"><stop offset="0" stop-color="#FF7B83"/><stop offset="1" stop-color="#FF4276"/></linearGradient><linearGradient id="paint15_linear" x1="120.431" y1="149.154" x2="190.376" y2="415.372" gradientUnits="userSpaceOnUse"><stop offset="0" stop-color="#FF7B83"/><stop offset="1" stop-color="#FF4276"/></linearGradient><linearGradient id="paint16_linear" x1="389.557" y1="164.494" x2="111.193" y2="327.617" gradientUnits="userSpaceOnUse"><stop offset="0" stop-color="#FFFF9D"/><stop offset="1" stop-color="#1CC2B5"/></linearGradient><linearGradient id="paint17_linear" x1="251.07" y1="321.344" x2="319.181" y2="36.205" gradientUnits="userSpaceOnUse"><stop offset="0" stop-color="#FFFF9D"/><stop offset="1" stop-color="#1CC2B5"/></linearGradient><linearGradient id="paint18_linear" x1="33.708" y1="149.359" x2="51.548" y2="364.542" gradientUnits="userSpaceOnUse"><stop offset="0" stop-color="#7FB1FF"/><stop offset="1" stop-color="#1C37B5"/></linearGradient><linearGradient id="paint19_linear" x1="179.197" y1="117.076" x2="-145.916" y2="358.157" gradientUnits="userSpaceOnUse"><stop offset="0" stop-color="#7FB1FF"/><stop offset="1" stop-color="#1C37B5"/></linearGradient><clipPath id="clip0"><path fill="#fff" d="M0 0h375v410H0z"/></clipPath></defs></svg>