<svg width="397" height="356" fill="none" xmlns="http://www.w3.org/2000/svg"><path d="M88.133 141.006c-.21-2.065-.816-6.056-3.662-5.968-2.67.082-2.763 4.15-2.871 6.007a62.322 62.322 0 00.087 8.489c.358 4.567 1.26 9.068 2.621 13.434 1.496-4.35 2.863-8.761 3.553-13.313.434-2.853.565-5.775.272-8.649zm31.245 110.424c4.572-5.945 8.3-12.898 9.485-20.378.518-3.268.126-8.356-3.892-9.246-3.652-.809-6.858 3.064-8.708 5.653-8.635 12.089-13.658 26.604-14.464 41.422 6.288-5.359 12.53-10.884 17.579-17.451zm-15.935-80.657c1.898-1.588 4.058-3.221 5.531-5.233 1.216-1.659 2.043-4.504-.109-5.803-1.672-1.009-3.815-.453-5.325.567-2.035 1.375-3.474 3.558-4.94 5.482l-4.942 6.485-7.728 10.142a99.698 99.698 0 0011.554-7.049 94.554 94.554 0 005.959-4.591zm-.182 48.392a76.556 76.556 0 006.03-7.939c1.891-2.86 3.899-5.906 4.846-9.231.813-2.857.628-6.27-1.707-8.399-2.639-2.406-6.208-.788-8.609 1.13-10.674 8.528-13.704 23.026-15.927 35.936.11.628.227 1.255.345 1.882a78.604 78.604 0 0015.022-13.379zm11.263 76.376a1.53 1.53 0 01-.48-.172c-8-4.45-16.145-8.916-25.013-11.385-3.501-.975-7.09-1.609-10.723-1.739l.137.468c1.787 6.167 3.502 12.429 4.947 18.754 11.907 2.025 24.275.773 36.243-.724a94.985 94.985 0 01-5.111-5.202zM288.187 35.846c7.921-3.656 16.55-6.052 24.913-7.77a133.984 133.984 0 0117.24-2.383 85.325 85.325 0 00-7.167-5.217C305.93 9.229 285.295 2.917 264.824.798c2.305 9.136 7.254 17.576 13.32 24.772 3.111 3.69 6.493 7.076 10.043 10.276zm-163.93 280.466c-5.456.962-10.86 2.813-15.616 5.683-.948.572-2.276 1.437-2.579 2.586-.325 1.234.923 1.726 1.904 1.959 2.309.546 4.935.411 7.287.282 9.459-.517 18.641-4.237 25.831-10.373-5.54-1.052-11.268-1.117-16.827-.137zm181.397-202.37c-6.715-.978-13.374-2.507-19.815-4.649-.14-.046-.28-.095-.42-.143a5014.24 5014.24 0 01-16.196 6.803c4.506 3.11 9.051 6.166 13.603 9.211 14.151 9.467 28.567 19.474 38.671 33.438a71.538 71.538 0 013.442 5.223c3.355-8.625 7.257-17.034 11.076-25.461 3.757-8.292 7.448-16.741 10.472-25.379l-.392.079c-13.309 2.604-27.031 2.832-40.441.878z" fill="#FCE6A3"/><path d="M234.521 167.613l-1.384-1.051c-.079.058-.156.12-.236.177.544.285 1.082.578 1.62.874z" fill="#4AAF95"/><path d="M66.252 284.618c-3.275 2.338-3.806 6.315-1.232 9.413 2.456 2.956 6.58 4.316 10.12 5.447a58.672 58.672 0 005.176 1.389c-1.47-6.26-3.201-12.471-5.003-18.637-3.162.088-6.51.568-9.06 2.388zm-6.884-44.659c-2.989-.097-6.35 1.46-6.715 4.751-.391 3.519 2.151 6.439 4.805 8.365 3.451 2.507 7.284 4.59 11.227 6.417-1.657-6.043-3.167-12.117-4.388-18.236-1.574-.729-3.221-1.242-4.93-1.297zm70.923 24.756c-7.322 9.488-8.944 22.097-8.174 33.869a111.67 111.67 0 0013.048-17.839c.153-.261.301-.526.452-.788-1.801-2.645-3.182-5.632-4.103-8.879a38.503 38.503 0 01-1.223-6.363z" fill="#FCE6A3"/><path d="M132.097 242.788c.274-1.326.561-2.646.852-3.957l-1.448-.337-1.426-.332c-4.761 14.177-17.159 25.04-28.242 34.445 3.06 5.733 6.609 11.207 10.709 16.322a91.623 91.623 0 006.581 7.36c-.318-7.782.422-15.686 3.218-22.99 1.773-4.629 4.325-9.064 7.691-12.739-.103-5.938.855-11.919 2.065-17.772zM239.915 93.7c6.482 5.594 13.251 10.805 20.174 15.809l6.293-15.561c-4.375-6.755-6.574-14.859-5.938-22.974.95-12.12 7.562-22.4 17.426-29.276a64.937 64.937 0 017.64-4.552C274.529 27.013 265.044 14.93 261.77.51c-.708-.059-1.415-.113-2.122-.162-22.774-1.58-45.897 2.248-66.839 11.362-1.006.438-2.005.89-3 1.352 2.235 14.768 8.023 28.908 15.824 41.6 9.127 14.85 21.126 27.686 34.282 39.04zm-20.613-54.993a.987.987 0 01.182-.602c.244-.362.526-.69.837-.986.142-.155.292-.305.453-.445a1.13 1.13 0 01.371-.214c1.968-1.314 4.647-1.487 6.665.001 2.532 1.868 3.012 5.887.981 8.294-2.082 2.469-6.253 2.629-8.504.291-1.627-1.69-1.886-4.266-.985-6.339z" fill="#FCE6A3"/><path d="M227.029 43.508c1.322-1.407 1.129-3.973-.347-5.21-1.319-1.107-3.318-.914-4.612.117-1.312 1.344-1.623 3.653-.26 5.108 1.321 1.41 3.903 1.385 5.219-.015z" fill="#F9D979"/><path d="M157.505 318.632l.439-18.199a52.065 52.065 0 01-9.457 15.332 74.451 74.451 0 009.018 2.867zm-79.283-39.266c4.337.141 8.645.955 12.794 2.205 6.476 1.952 12.589 4.886 18.55 8.072-3.956-5.083-7.448-10.543-10.483-16.264a1.545 1.545 0 01-.37-.067c-8.647-2.666-17.302-5.36-25.66-8.843 1.447 4.975 2.949 9.93 4.407 14.878.255.004.51.011.762.019zm68.588 10.061c-2.341 7.899-2.187 16.551-.598 24.581a47.154 47.154 0 008.569-13.539 48.005 48.005 0 002.561-8.203c-2.624-.321-5.214-.877-7.735-1.727a28.92 28.92 0 01-2.797-1.112zm-9.305-7c-.038.064-.075.13-.114.194-3.808 6.407-8.259 12.422-13.228 17.975.178.177.291.414.337.675 5.689 4.859 11.981 9.008 18.698 12.209-1.165-6.483-1.395-13.114-.307-19.634a43.221 43.221 0 011.367-5.755 26.93 26.93 0 01-6.753-5.664zM72.402 163.861c-.796-1.505-1.593-3.084-2.524-4.547a249.49 249.49 0 01-.969 8.969l3.295 3.516 6.496 6.932a91.47 91.47 0 00-3.173-8.388 95.615 95.615 0 00-3.125-6.482zm-1.733 77.801c3.484 2.264 6.78 4.817 9.92 7.536 4.705 4.074 9.05 8.532 13.292 13.084-1.184-2.88-2.267-5.8-3.246-8.75-1.88-5.666-3.386-11.412-4.585-17.216-.488-.418-.722-1.173-.434-1.792a1.283 1.283 0 01-.32-.131c-7.194-4.29-14.408-8.651-21.007-13.826.36 6.313 1.231 12.551 2.433 18.735 1.363.714 2.677 1.535 3.947 2.36zm-4.338-46.948a160.75 160.75 0 00-.842-1.129c-.911 7.643-1.532 15.308-1.36 23.036l.007.191c6.11 5.056 12.968 9.326 19.729 13.38-3.15-8.345-6.414-16.669-10.652-24.531-2.046-3.796-4.315-7.478-6.882-10.947zm-3.143-39.267c-1.737.934-1.624 3.38-.941 4.935.873 1.988 2.576 3.588 4.078 5.148.359-3.114.669-6.231.895-9.355-1.186-.906-2.662-1.465-4.032-.728zm5.622 37.818c2.863 3.87 5.356 8.004 7.583 12.269 2.743 5.254 5.088 10.697 7.275 16.203-1.403-11.382-1.838-22.909-1.743-34.412-.49-.064-.934-.379-1.087-1.012-.121-.504-.25-1.006-.378-1.507l-12.027-12.834c-.787 5.888-1.678 11.767-2.448 17.656.998 1.188 1.93 2.427 2.826 3.637zm-7.424 14.452c.274-5.758.876-11.486 1.6-17.203-1.64-1.812-3.503-3.412-5.717-4.325-3.611-1.489-8.176-.665-9.617 3.346-1.469 4.087.613 8.324 2.698 11.778 2.977 4.929 6.722 9.196 10.92 13.014-.024-2.196.01-4.399.116-6.61zm34.99 61.503c-5.702-6.221-11.426-12.462-17.817-17.992-2.83-2.45-5.79-4.75-8.917-6.81-.697-.459-1.417-.935-2.157-1.398 1.297 6.03 2.874 12.012 4.565 17.963 1.869.795 3.745 1.544 5.6 2.263 6.449 2.496 13.044 4.582 19.648 6.624a32.906 32.906 0 01-.102-.207c-.283-.032-.567-.167-.82-.443z" fill="#FCE6A3"/><path d="M335.593 261.457c-1.319-1.106-3.318-.914-4.612.117-1.313 1.345-1.623 3.654-.26 5.109 1.321 1.41 3.903 1.384 5.218-.015 1.323-1.407 1.13-3.973-.346-5.211z" fill="#F9D979"/><path d="M143.522 195.039a89.715 89.715 0 0118.702-19.682c-3.718-1.711-6.719-5.029-8.59-8.597-2.632-5.02-3.377-10.951-1.894-16.436 1.426-5.278 4.712-9.702 9.123-12.871 2.106-1.514 4.593-2.852 6.047-5.078 1.663-2.546 1.477-5.731 1.196-8.627-.607-6.258-.957-12.351.37-18.557a35.943 35.943 0 011.511-5.152 180.135 180.135 0 01-3.048-5.805c-8.235-16.414-14.095-33.843-18.953-51.532a147.036 147.036 0 00-4.207 4.466c-6.845 7.585-12.915 15.89-18.005 24.75a137.624 137.624 0 00-6.873 13.658c-2.134 4.905-3.853 10.04-6.614 14.647-2.644 4.412-6.354 8.024-11.443 9.258 1.947 16.219 8.737 31.941 16.74 45.965 7.827 13.716 17.216 26.441 25.938 39.593zm-20.571-73.859a.975.975 0 01.182-.603c.243-.361.525-.69.836-.985.142-.156.292-.306.454-.445a1.13 1.13 0 01.371-.215c1.968-1.314 4.647-1.487 6.665.001 2.532 1.868 3.012 5.887.981 8.295-2.082 2.468-6.254 2.628-8.504.29-1.628-1.69-1.886-4.266-.985-6.338z" fill="#FCE6A3"/><path d="M130.677 125.981c1.323-1.407 1.13-3.972-.346-5.211-1.319-1.106-3.319-.913-4.613.118-1.312 1.344-1.623 3.653-.259 5.108 1.32 1.41 3.903 1.385 5.218-.015z" fill="#F9D979"/><path d="M70.477 148.601a147.12 147.12 0 01-.27 6.408c1.701 1.798 2.895 4.126 4.065 6.27a96.69 96.69 0 013.837 7.85 100.15 100.15 0 013.946 10.735c.11-4.212.277-8.417.482-12.605a1.52 1.52 0 01.068-.388 64.913 64.913 0 01-3.79-17.338 62.335 62.335 0 01-.1-8.223c.122-2.276.225-4.784 1.564-6.725 2.748-3.982 7.917-2.455 9.666 1.589 1.986 4.591 1.355 10.52.51 15.3-.944 5.335-2.738 10.471-4.536 15.566a1.445 1.445 0 01-.535.721c-.18 3.743-.33 7.49-.437 11.239l9.64-12.651c2.965-3.892 6.159-9.544 11.601-9.972 2.193-.173 4.548.608 5.85 2.456 1.435 2.038 1.247 4.758.172 6.909-1.269 2.537-3.658 4.427-5.768 6.238a103.25 103.25 0 01-6.888 5.419 100.217 100.217 0 01-14.755 8.793c-.116 10.047.162 20.095 1.14 30.101.191 1.952.415 3.907.666 5.862 1.21-5.621 2.792-11.147 5.31-16.354 1.642-3.398 3.686-6.607 6.164-9.459 2.353-2.709 5.266-5.49 8.804-6.502 3.257-.931 6.549.159 8.571 2.865 2.066 2.763 2.393 6.292 1.581 9.57-.931 3.761-3.151 7.205-5.266 10.401a81.953 81.953 0 01-6.943 9.05c-4.69 5.307-10.09 9.963-15.99 13.875 2.236 10.83 5.544 21.464 10.207 31.437.64-8.473 2.583-16.834 5.805-24.705 1.638-4.003 3.564-7.881 5.811-11.578 2.077-3.417 4.332-7.07 7.514-9.571 2.93-2.304 6.886-3.324 10.102-.933a8.285 8.285 0 012.36 2.745 86.378 86.378 0 012.885-9.044 87.985 87.985 0 018.278-16.34c-11.192-17.029-23.633-33.318-32.504-51.741-5.451-11.318-9.68-23.541-11.2-36.001-1.597.049-3.206-.211-4.656-.887-2.524-1.176-4.018-3.508-5.356-5.84-2.32-4.041-4.817-7.544-8.836-10.053-3.687-2.3-7.963-3.523-12.272-3.9a31.454 31.454 0 00-8.941.477c8.499 18.38 12.833 38.678 12.444 58.934zm284.677 116.145a114.053 114.053 0 00-14.185-39.227c-4.243-.143-8.378-1.005-12.132-3.258-7.578-4.545-10.75-13.369-11.411-21.792-.767-9.758 1.43-19.198 4.512-28.39a173.324 173.324 0 011.685-4.778c-2.866-5.15-6.408-9.936-10.324-14.187-11.848-12.858-26.926-22.019-41.286-31.743a599.269 599.269 0 01-5.965-4.091c-6.074 2.54-10.951 4.575-10.951 4.575l3.875-9.583c-9.911-7.159-19.509-14.753-28.41-23.138-12.502-11.778-23.58-25.191-31.631-40.417-5.694-10.77-9.848-22.381-11.79-34.382-13.543 6.644-26.005 15.51-36.817 26.035 5.254 19.391 11.676 38.586 21.119 56.331a35.386 35.386 0 014.117-6.424c7.123-8.844 18.403-13.72 29.732-12.799 5.591.455 11.784 2.068 16.153 5.758.93.785 1.718 1.724 2.333 2.75 1.394 1.643 2.323 3.587 2.266 5.948-.057 2.398-1.211 4.116-2.842 5.413l.229 1.68c.121.173.209.39.248.657.797 5.335 1.21 10.711 1.131 16.108-.044 2.949-.121 6.017-.549 9.002 3.161 3.777 7.823 6.181 11.298 9.641 7.833 7.799 8.315 20.591 1.087 28.925-.406.468-.837.908-1.28 1.334 16.029 12.19 32.285 24.132 46.466 38.503 16.721 16.946 30.248 37.26 34.575 61.013 3.632 19.935 1.479 40.149-2.135 59.999 13.878-3.68 27.309-9.261 39.498-16.837 3.17-13.953 3.706-28.482 1.384-42.626zm-65.253-116.609a15.31 15.31 0 01-.93 2.414 20.56 20.56 0 01-1.52 2.621c-1.297 1.913-2.871 3.666-4.413 5.3-3.004 3.181-6.343 6.016-9.789 8.704a1.55 1.55 0 01-.473.254l-.001.035c-.02-.005-.039-.012-.058-.018l-.058.018-.002-.035a1.545 1.545 0 01-.472-.254c-3.445-2.688-6.786-5.523-9.789-8.704-2.803-2.969-5.718-6.331-6.864-10.335-.926-3.239-.413-6.938 1.891-9.497 2.57-2.856 6.626-2.857 9.901-1.317 2.234 1.052 4.088 2.799 5.393 4.889a13.465 13.465 0 013.082-3.457 12.015 12.015 0 012.311-1.432c.051-.024.104-.047.156-.07 3.247-1.469 7.214-1.425 9.744 1.386 2.304 2.56 2.818 6.259 1.891 9.498zm47.802 119.779c-2.082 2.468-6.254 2.628-8.504.291-1.628-1.691-1.886-4.266-.985-6.339a.972.972 0 01.182-.602 5.95 5.95 0 01.836-.986c.142-.155.292-.305.454-.444.118-.103.244-.171.371-.215 1.968-1.314 4.647-1.487 6.665.001 2.531 1.867 3.011 5.886.981 8.294z" fill="#FCE6A3"/><path d="M310.895 253.714c-6.988-22.556-22.552-41.156-39.769-56.795-3.777-3.43-7.657-6.732-11.603-9.955 10.868 11.515 19.054 25.495 23.707 40.768.158.519.317 1.038.467 1.56l.014.046c.09.312.088.596.023.846l.048 1.786-2.017.686-1.409.479c.66 1.965 1.285 3.953 1.853 5.958 1.968 6.945 3.216 14.109 2.592 21.317-.613 7.092-3.052 14.152-7.67 19.647-4.733 5.634-11.419 8.422-18.433 9.86.062 4.186.094 8.374.096 12.561h.001v14.917l-5.211.712-.062 11.599c17.129.928 34.335.114 51.195-3.272 2.171-.436 4.335-.92 6.491-1.446 4.352-23.556 6.867-48.099-.313-71.274zm73.343-27.579c-8.271-4.806-18.146-3.523-27.161-2.181-4.119.613-8.479 1.356-12.801 1.542a116.944 116.944 0 017.698 16.366c6.399 16.88 8.798 35.255 6.78 53.202-.382 3.4-.914 6.779-1.591 10.127a126.618 126.618 0 005.985-4.232c8.501-6.398 16.233-13.858 22.622-22.382 6.316-8.428 11.465-18.68 11.024-29.476-.368-9-4.546-18.311-12.556-22.966zM81.026 303.997c-4.722-.895-9.34-2.313-13.524-4.509-3.56-1.868-6.708-5.002-7.045-9.201-.304-3.775 2.29-7.167 5.51-8.851 2.585-1.35 5.557-1.888 8.511-2.044-.689-2.331-1.383-4.656-2.073-6.973a726.012 726.012 0 01-2.742-9.415c-3.438-1.544-6.806-3.247-10.056-5.156-3.102-1.822-6.316-3.867-8.246-6.998-1.826-2.964-2.316-7.015-.245-9.987 1.898-2.723 5.417-3.984 8.65-3.752 1.348.096 2.645.403 3.901.843-1.182-6.529-2.007-13.112-2.294-19.765-.334-.284-.668-.566-.997-.854-3.258-2.851-6.278-5.965-8.93-9.39-2.693-3.478-5.38-7.395-6.591-11.673-1.134-4.005-.585-8.879 2.833-11.646 3.257-2.638 7.885-2.455 11.504-.697 1.576.766 2.98 1.809 4.262 3.005.793-5.899 1.673-11.787 2.42-17.687-3.215-3.347-7.829-7.292-6.826-12.395.843-4.291 4.987-5.253 8.366-3.823.2-3.757.268-7.525.14-11.309-.596-17.739-4.856-35.285-12.365-51.346-15.316 4.578-26.089 20.345-33.188 34.123-2.991 5.805-5.582 11.781-7.827 17.882a225.475 225.475 0 0115.566 36.999c9.034 28.247 12.614 58.255 10.667 87.84-1.276 19.381-4.926 38.581-10.946 57.018 10.575 10.551 23.864 18.051 38.485 22.189a105.315 105.315 0 0015.224 3.096 84.872 84.872 0 001.329-11.947c.457-11.359-1.053-22.543-3.473-33.577zm77.837 27.043l-1.463.2v-2.903l-.032-.827c.009-.047.02-.094.032-.141v-4.393l.034-1.41a78.356 78.356 0 01-11.177-3.588c-.695.305-1.454-.086-1.801-.695a46.693 46.693 0 01-16.541 9.933c-5.713 1.983-11.871 2.852-17.908 2.447-2.413-.162-5.384-.558-6.521-3.033-1.236-2.689.887-5.205 2.989-6.656 5.165-3.564 11.837-5.636 17.982-6.589a51.136 51.136 0 0111.435-.483c-.12-.069-.24-.137-.359-.207a87.155 87.155 0 01-13.114-9.431c-9.83 1.251-19.735 2.426-29.661 2.016a86.613 86.613 0 01-8.695-.779c2.96 13.874 4.477 28.027 2.469 42.138a83.449 83.449 0 01-.522 3.208c16.867 1.735 34.051-.329 50.462-4.719 6.654-1.78 13.195-3.934 19.639-6.35a276.034 276.034 0 002.752-7.738zm3.175-.433a220.524 220.524 0 01-2.389 6.814c.629-.246 1.257-.494 1.884-.745.195-2.027.393-4.055.594-6.082l-.089.013z" fill="#FCE6A3"/><path d="M35.608 217.576c-3.632-24.883-11.24-49.155-22.744-71.5-4.98 14.532-8.09 29.713-10.037 44.947-2.724 21.311-3.864 43.187-1.677 64.601 1.99 19.467 6.927 39.149 17.766 55.677a80.962 80.962 0 008.301 10.61 225.656 225.656 0 004.722-17.074c6.682-28.492 7.896-58.306 3.67-87.261z" fill="#FCE6A3"/><path d="M278.266 137.254c-.052.024-.105.046-.156.071a12.04 12.04 0 00-2.311 1.431 13.465 13.465 0 00-3.082 3.457c-1.305-2.09-3.158-3.837-5.393-4.888-3.275-1.541-7.33-1.54-9.901 1.316-2.303 2.56-2.817 6.259-1.89 9.497 1.145 4.005 4.061 7.367 6.863 10.335 3.004 3.181 6.343 6.017 9.789 8.704.152.119.312.201.473.254l.001.035.058-.017.058.017.002-.035c.161-.053.32-.135.472-.254 3.446-2.688 6.786-5.523 9.789-8.704 1.542-1.633 3.117-3.386 4.413-5.299a20.461 20.461 0 001.52-2.621c.374-.779.692-1.582.93-2.415.926-3.238.413-6.937-1.89-9.497-2.53-2.811-6.498-2.855-9.745-1.387z" fill="#FFA192"/><path d="M285.511 37.146c.882-.45 1.774-.885 2.676-1.301-3.55-3.2-6.932-6.587-10.042-10.276-6.067-7.196-11.016-15.636-13.32-24.772a154.276 154.276 0 00-3.054-.289c3.274 14.42 12.76 26.505 23.74 36.638zm-2.685 88.018c-4.551-3.045-9.098-6.101-13.604-9.211l-3.175 1.328a611.045 611.045 0 005.965 4.09c14.36 9.724 29.438 18.885 41.286 31.744 3.916 4.25 7.458 9.037 10.324 14.186.428-1.163.867-2.321 1.316-3.476a71.538 71.538 0 00-3.442-5.223c-10.103-13.963-24.52-23.971-38.67-33.438zm-52.264-36.03c8.901 8.385 18.499 15.98 28.41 23.138l1.117-2.763c-6.922-5.004-13.692-10.215-20.174-15.808-13.155-11.353-25.154-24.19-34.281-39.04-7.801-12.691-13.589-26.832-15.824-41.6-.894.415-1.783.84-2.668 1.274 1.941 12.001 6.094 23.612 11.789 34.382 8.051 15.227 19.129 28.64 31.631 40.417zm-60.575 10.905a35.587 35.587 0 011.457-3.337c-9.443-17.746-15.866-36.941-21.119-56.331-.789.767-1.568 1.545-2.339 2.33 4.859 17.69 10.718 35.119 18.954 51.533a180 180 0 003.047 5.805zM316.408 264.21c-4.327-23.753-17.853-44.068-34.575-61.013-14.181-14.371-30.437-26.313-46.466-38.504-.702.676-1.446 1.3-2.23 1.869l1.384 1.05c.802.441 1.6.888 2.391 1.35.434.254.871.503 1.302.764l.11.068a100.04 100.04 0 015.656 3.702 102.16 102.16 0 0115.544 13.468c3.945 3.222 7.826 6.525 11.603 9.955 17.216 15.639 32.781 34.238 39.769 56.795 7.179 23.175 4.665 47.717.312 71.274 1.024-.25 2.047-.509 3.066-.779 3.613-19.85 5.766-40.064 2.134-59.999zm35.566-22.349a116.819 116.819 0 00-7.698-16.365 43.454 43.454 0 01-3.307.022 114.081 114.081 0 0114.186 39.228c2.321 14.143 1.785 28.673-1.385 42.626 1.142-.71 2.273-1.437 3.392-2.182a117.058 117.058 0 001.592-10.126c2.018-17.948-.381-36.322-6.78-53.203zM141.799 197.61a88.563 88.563 0 011.723-2.571c-8.721-13.151-18.111-25.876-25.939-39.593-8.002-14.024-14.792-29.747-16.739-45.965-.136.033-.268.071-.406.101-.764.164-1.551.262-2.342.286 1.52 12.46 5.749 24.684 11.199 36.002 8.871 18.422 21.312 34.712 32.504 51.74zm17.064 133.43a287.484 287.484 0 01-2.751 7.737c1.182-.444 2.362-.896 3.537-1.356a219.66 219.66 0 002.389-6.815l-3.175.434zM67.415 153.028a7.904 7.904 0 012.392 1.564c.138.133.267.277.4.416.135-2.132.229-4.268.27-6.408.389-20.255-3.945-40.553-12.442-58.935-.965.192-1.913.43-2.845.708 7.51 16.061 11.77 33.606 12.366 51.345.127 3.785.059 7.553-.141 11.31zm10.044 126.318c-1.459-4.947-2.96-9.903-4.407-14.877a130.945 130.945 0 01-3.389-1.465 724.3 724.3 0 002.742 9.415c.69 2.318 1.384 4.642 2.073 6.972 1.001-.052 2-.063 2.981-.045zm-11.474-89.719c.77-5.889 1.661-11.768 2.448-17.657a3232.79 3232.79 0 01-2.18-2.327c-.123-.131-.25-.264-.378-.397-.747 5.899-1.627 11.788-2.42 17.686a30.377 30.377 0 012.53 2.695zM84.064 304.5a69.579 69.579 0 01-3.038-.503c2.42 11.033 3.93 22.218 3.474 33.576a84.93 84.93 0 01-1.33 11.947c.946.121 1.893.229 2.84.326a83.62 83.62 0 00.522-3.209c2.008-14.111.493-28.264-2.468-42.137zm-5.755-22.253c-.282-.01-.563-.024-.845-.028a51.61 51.61 0 00-2.15.01c1.801 6.167 3.533 12.378 5.002 18.637 1.022.226 2.047.427 3.076.602-1.445-6.325-3.159-12.587-4.947-18.754l-.136-.467zm-14.012-40.991c1.221 6.119 2.732 12.193 4.388 18.236 1.115.517 2.239 1.012 3.365 1.491-1.69-5.951-3.268-11.933-4.565-17.964-1.024-.64-2.088-1.254-3.188-1.763zm-.007-20.689a96.366 96.366 0 01-2.917-2.379c.288 6.654 1.113 13.237 2.295 19.765a23.08 23.08 0 013.054 1.348c-1.201-6.183-2.072-12.421-2.432-18.734zm4.411-62.928a8.544 8.544 0 00-1.481-1.463 220.3 220.3 0 01-.895 9.355c.131.136.262.272.39.408l2.195 2.344c.371-2.986.705-5.975.969-8.969-.37-.58-.758-1.144-1.178-1.675zm-3.211 35.947c-.783-1.036-1.61-2.084-2.503-3.071-.726 5.717-1.327 11.445-1.601 17.202-.105 2.212-.14 4.415-.116 6.61.935.85 1.89 1.679 2.866 2.486-.001-.064-.005-.128-.006-.191-.172-7.729.448-15.394 1.36-23.036zm-35.75-14.209a225.518 225.518 0 00-15.564-36.999 172.62 172.62 0 00-1.312 3.698c11.505 22.345 19.113 46.617 22.745 71.499 4.226 28.955 3.012 58.77-3.67 87.261a225.527 225.527 0 01-4.722 17.074 79.885 79.885 0 002.245 2.324c6.02-18.436 9.67-37.637 10.946-57.018 1.947-29.584-1.633-59.592-10.667-87.839z" fill="#F9D979"/><path d="M148.487 315.766a52.07 52.07 0 009.457-15.333l.195-8.076.297.049.001-.018a44.138 44.138 0 01-1.095-.12 48.005 48.005 0 01-2.561 8.203c-2.053 4.969-4.974 9.551-8.569 13.538-1.589-8.03-1.743-16.681.598-24.581a27.534 27.534 0 01-2.553-1.335 43.4 43.4 0 00-1.367 5.754c-1.087 6.52-.858 13.151.307 19.634-6.717-3.201-13.009-7.35-18.698-12.208a1.253 1.253 0 00-.336-.676c4.968-5.553 9.42-11.568 13.228-17.974l.113-.195a27.824 27.824 0 01-1.888-2.47c-.151.263-.298.527-.451.788a111.67 111.67 0 01-13.048 17.839c-.77-11.771.851-24.38 8.173-33.868a45.802 45.802 0 01-.258-4.155c-3.366 3.675-5.918 8.11-7.691 12.739-2.796 7.304-3.537 15.208-3.218 22.99a91.623 91.623 0 01-6.581-7.36c-4.1-5.115-7.649-10.589-10.71-16.322 11.084-9.405 23.482-20.268 28.243-34.445l-.838-.195c-1.184-.275-1.39-1.442-.959-2.286.03-.263.064-.526.096-.789a91.69 91.69 0 012.263-11.899 8.283 8.283 0 00-2.36-2.744c-3.216-2.391-7.172-1.371-10.102.932-3.183 2.502-5.437 6.155-7.514 9.571-2.248 3.697-4.173 7.576-5.812 11.579-3.221 7.87-5.164 16.232-5.805 24.705-4.662-9.973-7.97-20.607-10.206-31.437 5.9-3.912 11.299-8.568 15.989-13.875a81.933 81.933 0 006.944-9.05c2.114-3.197 4.334-6.64 5.266-10.401.811-3.279.484-6.807-1.581-9.57-2.022-2.706-5.315-3.796-8.571-2.865-3.538 1.012-6.451 3.793-8.805 6.502-2.478 2.852-4.521 6.061-6.164 9.459-2.517 5.207-4.1 10.733-5.31 16.354a199.06 199.06 0 01-.665-5.862c-.978-10.006-1.255-20.054-1.14-30.101 5.156-2.51 10.1-5.439 14.754-8.793a103.108 103.108 0 006.889-5.419c2.109-1.811 4.499-3.702 5.767-6.238 1.076-2.152 1.263-4.872-.172-6.909-1.302-1.848-3.657-2.629-5.849-2.457-5.443.429-8.636 6.081-11.602 9.973l-9.64 12.65c.108-3.748.257-7.495.438-11.238.23-.16.42-.397.534-.722 1.799-5.094 3.593-10.23 4.536-15.565.846-4.78 1.477-10.709-.51-15.301-1.749-4.043-6.917-5.57-9.665-1.588-1.34 1.941-1.443 4.449-1.565 6.725a62.354 62.354 0 00.101 8.223 64.898 64.898 0 003.79 17.338 1.57 1.57 0 00-.069.388 559.582 559.582 0 00-.482 12.605 100.258 100.258 0 00-3.945-10.735 96.722 96.722 0 00-3.837-7.85c-1.171-2.144-2.364-4.472-4.066-6.271-.132-.14-.26-.284-.4-.416a7.906 7.906 0 00-2.392-1.564c-3.38-1.43-7.522-.468-8.366 3.823-1.003 5.104 3.611 9.048 6.826 12.395.128.133.255.266.378.398l2.18 2.327 12.027 12.834c.129.502.258 1.004.379 1.507.152.634.595.948 1.086 1.012-.094 11.503.341 23.03 1.744 34.413-2.187-5.507-4.533-10.95-7.276-16.204-2.226-4.265-4.72-8.399-7.582-12.268-.895-1.211-1.827-2.45-2.825-3.638a30.53 30.53 0 00-2.531-2.695c-1.283-1.195-2.686-2.238-4.262-3.004-3.62-1.758-8.247-1.942-11.505.697-3.417 2.767-3.966 7.641-2.832 11.646 1.21 4.277 3.898 8.194 6.591 11.673 2.651 3.425 5.672 6.539 8.93 9.39.329.288.663.571.997.853.956.813 1.93 1.606 2.916 2.38 6.599 5.174 13.812 9.535 21.007 13.825.098.059.207.101.32.132-.288.618-.053 1.373.434 1.791 1.199 5.804 2.704 11.551 4.585 17.216.98 2.95 2.061 5.87 3.245 8.75-4.24-4.552-8.586-9.01-13.292-13.084-3.139-2.719-6.436-5.272-9.92-7.536-1.27-.825-2.583-1.645-3.947-2.361-.99-.519-2.007-.98-3.054-1.347-1.256-.441-2.554-.747-3.9-.844-3.234-.232-6.753 1.029-8.65 3.753-2.072 2.972-1.583 7.022.244 9.986 1.93 3.131 5.144 5.177 8.246 6.999 3.25 1.909 6.618 3.611 10.056 5.156a130.484 130.484 0 003.389 1.465c8.359 3.482 17.013 6.176 25.66 8.843.13.039.253.059.37.066 3.035 5.721 6.528 11.182 10.483 16.264-5.961-3.185-12.074-6.12-18.55-8.071-4.148-1.25-8.456-2.064-12.794-2.206a63.157 63.157 0 00-.762-.019 41.35 41.35 0 00-2.982.045c-2.953.156-5.926.694-8.51 2.044-3.221 1.684-5.814 5.076-5.51 8.851.337 4.199 3.484 7.333 7.044 9.201 4.185 2.196 8.803 3.614 13.525 4.509a67.91 67.91 0 003.037.504 86.64 86.64 0 008.695.779c9.925.41 19.831-.765 29.661-2.017a87.085 87.085 0 0013.114 9.431c.119.07.239.138.359.207a51.195 51.195 0 00-11.435.483c-6.145.953-12.817 3.025-17.982 6.59-2.102 1.45-4.225 3.967-2.99 6.655 1.138 2.476 4.109 2.872 6.522 3.033 6.037.405 12.195-.464 17.908-2.447a46.693 46.693 0 0016.541-9.933c.347.61 1.106 1 1.8.695a78.116 78.116 0 0011.178 3.588l.071-2.934a73.653 73.653 0 01-9.02-2.863zM93.659 172.271l4.941-6.485c1.466-1.923 2.905-4.106 4.94-5.481 1.511-1.021 3.653-1.576 5.325-.567 2.153 1.299 1.325 4.144.11 5.803-1.473 2.011-3.633 3.645-5.532 5.232a94.31 94.31 0 01-5.958 4.591 99.698 99.698 0 01-11.554 7.049l7.728-10.142zm-21.455-.472l-3.295-3.516-2.195-2.343a30.242 30.242 0 00-.39-.409c-1.5-1.561-3.204-3.16-4.077-5.148-.684-1.555-.796-4.001.941-4.935 1.37-.736 2.846-.178 4.031.728a8.583 8.583 0 011.482 1.464c.42.531.808 1.094 1.177 1.674.93 1.464 1.727 3.043 2.523 4.547a96.513 96.513 0 013.125 6.482 91.58 91.58 0 013.173 8.388l-6.495-6.932zm-8.068 45.014a81.16 81.16 0 01-2.866-2.486c-4.198-3.817-7.943-8.084-10.92-13.014-2.085-3.454-4.167-7.691-2.698-11.777 1.441-4.012 6.006-4.836 9.617-3.347 2.214.912 4.076 2.513 5.718 4.325.893.987 1.72 2.035 2.503 3.071.286.379.567.757.842 1.129 2.566 3.469 4.835 7.151 6.881 10.947 4.239 7.862 7.502 16.186 10.652 24.531-6.76-4.053-13.619-8.324-19.73-13.379zm17.551-67.28a62.387 62.387 0 01-.087-8.488c.108-1.858.2-5.926 2.87-6.008 2.847-.087 3.453 3.904 3.663 5.969.293 2.873.162 5.796-.272 8.649-.69 4.551-2.057 8.962-3.553 13.313-1.362-4.366-2.263-8.868-2.62-13.435zm6.207 81.129c2.224-12.91 5.254-27.408 15.927-35.935 2.401-1.919 5.97-3.537 8.609-1.131 2.335 2.129 2.52 5.543 1.707 8.4-.947 3.325-2.954 6.37-4.846 9.23a76.547 76.547 0 01-6.029 7.939 78.656 78.656 0 01-15.022 13.379 170.35 170.35 0 01-.346-1.882zM77.65 263.246a184.85 184.85 0 01-5.6-2.262c-1.126-.479-2.25-.975-3.365-1.491-3.943-1.827-7.775-3.91-11.227-6.417-2.653-1.926-5.196-4.847-4.805-8.365.366-3.29 3.727-4.848 6.715-4.751 1.708.055 3.355.569 4.93 1.297 1.099.509 2.163 1.123 3.187 1.763.74.464 1.46.939 2.157 1.399 3.127 2.06 6.086 4.36 8.917 6.809 6.39 5.531 12.115 11.772 17.817 17.993.253.276.537.411.82.443l.102.207c-6.604-2.042-13.2-4.128-19.648-6.625zm38.613-35.786c1.85-2.59 5.055-6.462 8.708-5.653 4.018.889 4.41 5.978 3.891 9.246-1.185 7.48-4.912 14.432-9.484 20.378-5.05 6.566-11.291 12.091-17.58 17.45.807-14.817 5.83-29.332 14.465-41.421zm-32.871 74.009a63.699 63.699 0 01-3.077-.602 58.672 58.672 0 01-5.174-1.389c-3.542-1.131-7.666-2.492-10.122-5.447-2.574-3.097-2.043-7.074 1.233-9.413 2.55-1.82 5.899-2.299 9.06-2.388.732-.021 1.453-.02 2.151-.011.282.004.564.018.845.028 3.632.13 7.222.764 10.722 1.739 8.869 2.469 17.014 6.934 25.013 11.385.163.09.324.145.481.172a94.642 94.642 0 005.111 5.203c-11.968 1.496-24.336 2.747-36.243.723zm31.861 25.354c-2.352.128-4.978.264-7.286-.283-.982-.232-2.229-.724-1.904-1.959.302-1.148 1.629-2.013 2.578-2.586 4.756-2.87 10.16-4.72 15.616-5.682 5.559-.981 11.287-.915 16.828.137-7.191 6.136-16.372 9.855-25.832 10.373z" fill="#FAFAFA"/><path d="M288.187 35.845c-.902.416-1.794.85-2.676 1.3a64.856 64.856 0 00-7.64 4.553c-9.863 6.876-16.476 17.155-17.426 29.275-.636 8.116 1.563 16.22 5.938 22.975l-6.293 15.561-1.117 2.763-3.875 9.583s4.877-2.035 10.951-4.575l3.175-1.328a5177.37 5177.37 0 0016.196-6.802l.42.143c6.441 2.141 13.1 3.67 19.815 4.649 13.41 1.954 27.132 1.725 40.441-.878l.392-.08a100.77 100.77 0 003.102-.669 94.97 94.97 0 002.828-.708c10.141-2.699 19.865-7.146 27.848-14.034 8.569-7.392 14.991-17.599 16.431-28.948 1.395-10.992-2.026-22.811-10.246-30.473-8.748-8.154-21.039-10.813-32.565-12.061a130.822 130.822 0 00-23.545-.4c-5.79.42-11.553 1.216-17.24 2.384-8.364 1.718-16.993 4.113-24.914 7.77z" fill="#DEE8E7"/><path d="M158.91 257.092c.094 1.411.166 2.916.441 4.352l.354-12.006.129-4.351-.384-.089a57.503 57.503 0 00-.49 4.261 54.313 54.313 0 00-.05 7.833z" fill="#4AAF95"/><path d="M178.414 165.368a88.923 88.923 0 018.245-3.454l.015-.004c.405-.142.762-.121 1.056.007l.047-.017c.028-.011.055-.022.084-.031.028-1.029.05-2.058.072-3.087a33.48 33.48 0 00-5.997 3.582 37.69 37.69 0 00-3.522 3.004zm41.062-29.542a12.335 12.335 0 01-4.12 2.699c-.351.14-.704.259-1.06.37l.057.407 1.391 9.934.585 4.185.369 2.635a34.526 34.526 0 016.303 3.545l.005.001-.001.002a35.95 35.95 0 015.723 5.056 103.89 103.89 0 014.174 2.078c.08-.056.156-.118.236-.176a21.17 21.17 0 002.23-1.868c.443-.427.873-.866 1.279-1.334 7.228-8.334 6.747-21.126-1.087-28.925-3.474-3.459-8.137-5.864-11.298-9.641-.236 1.641-.576 3.257-1.08 4.813-.773 2.389-1.999 4.536-3.706 6.219z" fill="#292929"/><path d="M217.017 100.401c-9.643 3.396-20.44 3.269-30.03-.23l.157 15.748a5.634 5.634 0 00-3.087.822 5.12 5.12 0 00-1.976 2.189c-.382.816-.555 1.766-.437 2.814.37 3.278 3.236 4.941 6.025 4.545a538.677 538.677 0 01.264 32.494c-.023 1.029-.045 2.058-.073 3.087-.028.009-.055.02-.083.03 16.189 6.253 26.114.23 29.403-2.392l-.079-.567-.403-2.885-.369-2.635-.586-4.185-1.39-9.934c-3.737.521-7.722-.111-11.399-1.395a32.611 32.611 0 01-3.418-1.416c-.805-.388-.323-1.462.419-1.492a.846.846 0 01.405.084c5.932 2.862 13.437 4.167 19.116.743 1.707-1.683 2.933-3.83 3.706-6.218.503-1.557.844-3.173 1.08-4.814.428-2.984.506-6.052.549-9.002.079-5.396-.335-10.772-1.131-16.108a1.517 1.517 0 00-.247-.656l-.23-1.68c-.169.134-.342.266-.522.391-1.685 1.185-3.765 1.993-5.664 2.662zm-30.167 19.671c-.057.038-.103.081-.154.123-.645.533-.754 1.391-.313 2.124.373.62-.177 1.201-.733 1.212a.754.754 0 01-.676-.389 3.415 3.415 0 01-.393-.952c-.294-1.206.127-2.457 1.116-3.279.104-.087.213-.17.329-.247.881-.578 1.698.835.824 1.408zm10.235-11.351a1.054 1.054 0 01-.118-.512.867.867 0 01.095-.506c.372-.701 1.165-1.409 2.006-1.389.534.013 1.016.363 1.089.908.07.525-.272.932-.625 1.278-.322.313-.7.641-1.142.764a1.135 1.135 0 01-1.305-.543zm4.305 7.043c-.07.582-.148 1.304-.713 1.633-.546.319-1.184.086-1.58-.351-.828-.914-.89-2.448-.507-3.589.021-.175.076-.355.189-.542.315-.524.96-.825 1.556-.652 1.295.376 1.177 2.471 1.055 3.501zm7.406-2.22a.73.73 0 01.317-.446c.338-.59 1.346-.696 1.472.122.261 1.701.57 3.404.784 5.112.106.844-.071 1.867-1.092 1.985-2.62.302-1.752-5.439-1.481-6.773zm5.391 12.656c-.68 2.947-4.411 3.479-6.061 1.051-.592-.871.821-1.686 1.408-.823.912 1.343 2.738.826 3.08-.661.237-1.024 1.808-.588 1.573.433zm4.508-10.383a1.161 1.161 0 01-1.536.17c-.877-.634-.916-2.074-.772-3.212-.029-.912.212-1.817 1.183-1.834 1.341-.023 1.536 2.11 1.558 3.073.015.604-.008 1.329-.433 1.803zm-.099-8.874l-1.562-.547c-.417-.146-.693-.554-.569-1.003a.804.804 0 01.219-.357.814.814 0 01.517-.469c.997-.34 2.19.335 2.398 1.372.113.563-.374 1.224-1.003 1.004z" fill="#FFA192"/><path d="M209.898 324.072l-38.221 5.218-9.549 1.304a2115.435 2115.435 0 00-2.346 25.223h93.6l.14-26.111.061-11.599-43.685 5.965z" fill="#3A93AF"/><path d="M172.317 168.581c-.406.234-.811.468-1.213.709a87.396 87.396 0 00-3.447 2.183l1.522 2a40.95 40.95 0 013.138-4.892zm62.692 11.906a43.467 43.467 0 00-1.761-4.541 39.465 39.465 0 00-.775-1.606 595.261 595.261 0 01-29.508 32.786 388.462 388.462 0 01-29.027-36.608c-.339.468-.669.944-.987 1.428a38.524 38.524 0 00-2.131 3.683 2518.592 2518.592 0 0030.815 39.622l33.374-34.764z" fill="#6DB0C5"/><path d="M238.198 291.275c-.107 2.43-.277 4.858-.512 7.283-.042.438-.343.817-.815.815l-52.962-.189c-.337-.001-.72-.25-.786-.598a65.902 65.902 0 01-1.061-8.524c-1.135.278-2.277.539-3.423.778a90.04 90.04 0 01-8.036 1.327 71.35 71.35 0 01-2.92.278 56.372 56.372 0 01-7.362.083 47.445 47.445 0 01-1.884-.141v.017l-.298-.048-.195 8.076-.439 18.199-.071 2.934-.034 1.411v1.98c1.177-.12 2.354-.242 3.531-.364l3.102-.324a1718.532 1718.532 0 0012.118-1.315c1.133-.126 2.265-.252 3.397-.381a1831.307 1831.307 0 0079.248-10.8v-9.295h-.001a876.525 876.525 0 00-.096-12.561c-.951.195-1.908.366-2.867.514a83.883 83.883 0 01-17.634.845z" fill="#A5D7E7"/><path d="M194.335 322.445a1846.49 1846.49 0 01-15.201 1.797 1854.828 1854.828 0 01-18.72 2.027c-1.005.104-2.009.213-3.014.316v.785a2.185 2.185 0 00-.032.14l.032.828v2.903l1.463-.2 3.175-.434.09-.012 9.549-1.303 38.221-5.219 43.686-5.965 5.211-.712v-3.976c-5.739.908-11.482 1.792-17.23 2.646a1834.122 1834.122 0 01-47.23 6.379z" fill="#6DB0C5"/><path d="M228.728 164.66a37.453 37.453 0 012.558 3.111 38.715 38.715 0 012.612 4.051c.091.161.176.323.265.485.841-1.017 1.68-2.038 2.515-3.061l.234-.284c-.791-.462-1.589-.909-2.391-1.35a96.857 96.857 0 00-5.793-2.952z" fill="#F47D9A"/><path d="M256.014 257.229c-1.254 5.63-5.304 10.883-11.213 11.681-5.775 2.524-11.792 4.523-17.704 6.671l-20.787 7.553a85.934 85.934 0 0031.888 8.142 83.87 83.87 0 0017.633-.845c.959-.149 1.916-.32 2.867-.515 7.015-1.437 13.7-4.226 18.433-9.859 4.617-5.495 7.056-12.555 7.67-19.648.624-7.207-.625-14.371-2.592-21.316-5.895 1.827-21.75 6.738-26.032 8.039.492 3.357.585 6.743-.163 10.097z" fill="#FFA192"/><path d="M235.245 260.706a23.279 23.279 0 00-5.13-1.497c-2.917-.496-5.906-.468-8.8.169-3.247.716-6.148 2.323-9.013 3.952l-.263.149a57.314 57.314 0 01-3.114 1.659c-2.351 1.145-4.785 2.02-7.487 2.223-4.128.31-8.218-.545-12.246-1.342-2.675-.529-5.346-.995-8.047-1.252a47.04 47.04 0 00-1.64-.127 41.415 41.415 0 00-2.118-.08c-2.163-.019-4.254.192-6.34.48-.945.131-1.89.277-2.839.425-.878.137-1.76.276-2.651.405-2.368.343-4.709-.007-5.674-2.494a11.11 11.11 0 01-.532-1.932c-.275-1.435-.347-2.941-.441-4.352a54.313 54.313 0 01.05-7.833l-26.864-6.47c-1.21 5.853-2.167 11.833-2.063 17.772a45.78 45.78 0 00.258 4.154 38.743 38.743 0 001.223 6.364c.921 3.246 2.303 6.233 4.103 8.879.586.86 1.215 1.685 1.888 2.47a26.99 26.99 0 006.753 5.664 28.67 28.67 0 005.349 2.448c2.521.85 5.111 1.407 7.735 1.727.365.045.729.085 1.095.121.626.06 1.255.105 1.884.141 2.445.14 4.907.098 7.361-.083a69.47 69.47 0 002.92-.279 90.06 90.06 0 008.037-1.326 104.598 104.598 0 005.032-1.184c6.31-1.644 12.474-3.814 18.579-6.12-.021-.346.141-.709.551-.858l23.251-8.448c3.254-1.182 6.543-2.315 9.807-3.513.429-.157.856-.316 1.284-.475a135.788 135.788 0 007.048-2.835 22.835 22.835 0 00-7.293-5.925 23.045 23.045 0 00-1.653-.777z" fill="#FFA192"/><path d="M234.162 172.307c.282.518.552 1.04.81 1.566a45.028 45.028 0 011.951 4.621l5.036-5.246.663-.691a100.297 100.297 0 00-4.298-2.762l-.111-.069c-.431-.26-.867-.51-1.302-.764l-.234.285a559.01 559.01 0 01-2.515 3.06z" fill="#6DB0C5"/><path d="M237.51 180.236c2.393 7.571 2.926 15.698 2.442 23.64.044.005.086.005.13.011 3.037.41 4.995 2.94 6.199 5.553 1.484 3.222 2.497 6.71 3.015 10.216.225 1.519.815 3.839.166 5.298a2.305 2.305 0 01-.787.952 38.867 38.867 0 01-1.342 11.951c.932 1.664-.182 4.002-2.207 3.959-1.025-.021-1.996-.637-2.506-1.48-.57-.856-.69-1.981-.062-2.944.622-.953 1.663-1.235 2.645-1.041a36.06 36.06 0 001.045-10.237c-1.495-.675-1.706-2.3-1.969-3.755a41.411 41.411 0 00-1.233-5.018c-.578-1.847-3.268-10.196-5.983-6.043-1.721 2.632-2.339 6.514-2.63 9.581-.191 2.013.129 5.196-1.627 6.35a33.77 33.77 0 00.71 4.735l4.147.006.268 30.081a22.82 22.82 0 016.259 5.356c.173.215.347.429.513.651.18.239.137.611-.033.871l.129-.02c5.908-.798 9.959-6.051 11.213-11.68.748-3.355.656-6.741.163-10.097-.266-1.815-.648-3.622-1.08-5.409l25.258-8.588 1.41-.48 2.016-.685-.048-1.786a1.58 1.58 0 00-.022-.846l-.014-.046-28.99 10.148c-.995.348-1.418-1.227-.434-1.572l28.957-10.136c-4.653-15.273-12.839-29.253-23.707-40.768a102.083 102.083 0 00-15.543-13.467l-.715.744c-1.916 1.998-3.834 3.997-5.753 5.995z" fill="#A5D7E7"/><path d="M205.047 282.472c-.931.357-1.864.712-2.797 1.065-6.105 2.306-12.268 4.477-18.578 6.12-.536.139-1.072.275-1.61.406a65.924 65.924 0 001.061 8.524c.066.348.449.597.786.599l52.962.188c.472.002.773-.376.815-.815.235-2.425.405-4.853.512-7.282a85.926 85.926 0 01-31.888-8.142c-.347-.165-.694-.329-1.038-.498a.846.846 0 01-.225-.165z" fill="#fff"/><path d="M235.86 270.718c-3.265 1.198-6.554 2.33-9.807 3.513l-23.251 8.448c-.411.149-.572.512-.552.857.934-.352 1.866-.707 2.797-1.065.06.062.132.119.225.165.345.169.692.333 1.038.498a127256 127256 0 0120.788-7.553c5.912-2.148 11.928-4.147 17.703-6.671-.043.005-.086.013-.129.019.17-.26.213-.632.033-.871-.165-.222-.339-.436-.513-.651a135.614 135.614 0 01-7.048 2.835c-.428.16-.856.318-1.284.476zm-49.833-152.054c-.117.076-.225.16-.329.246-.989.823-1.411 2.074-1.116 3.28.079.323.208.644.393.952.169.28.422.393.675.389.556-.011 1.106-.592.733-1.212-.441-.733-.332-1.591.314-2.124.05-.042.096-.086.153-.123.874-.573.057-1.986-.823-1.408z" fill="#F97070"/><path d="M200.335 112.263c-.596-.173-1.241.129-1.556.652a1.352 1.352 0 00-.189.541c-.383 1.142-.321 2.676.507 3.59.396.437 1.033.67 1.58.351.564-.329.643-1.05.713-1.633.122-1.03.24-3.125-1.055-3.501zm17.235-1.322c-.971.017-1.212.922-1.183 1.834-.144 1.138-.104 2.578.772 3.212a1.162 1.162 0 001.536-.17c.425-.475.448-1.2.434-1.803-.023-.964-.218-3.096-1.559-3.073zm-.369-6.373a.816.816 0 00-.517.468.813.813 0 00-.219.357c-.124.45.152.857.569 1.003l1.562.547c.629.22 1.116-.44 1.003-1.003-.208-1.037-1.401-1.712-2.398-1.372zm-17.669 3.931c.353-.345.695-.752.625-1.278-.073-.544-.555-.895-1.089-.907-.841-.02-1.634.688-2.006 1.389a.875.875 0 00-.095.506c-.002.175.032.35.118.512.247.466.799.683 1.304.542.443-.122.821-.45 1.143-.764z" fill="#292929"/><path d="M210.278 120.317c1.02-.118 1.198-1.141 1.092-1.985-.214-1.709-.523-3.411-.785-5.113-.125-.819-1.134-.712-1.471-.122a.73.73 0 00-.318.447c-.271 1.333-1.139 7.075 1.482 6.773z" fill="#F97070"/><path d="M212.615 125.767c-.343 1.486-2.169 2.003-3.081.661-.587-.863-2-.048-1.408.823 1.65 2.428 5.382 1.896 6.061-1.051.235-1.022-1.337-1.457-1.572-.433z" fill="#292929"/><path d="M215.355 138.524a12.327 12.327 0 004.121-2.698c-5.679 3.425-13.185 2.118-19.117-.743a.84.84 0 00-.404-.084c-.742.03-1.225 1.104-.419 1.492a32.81 32.81 0 003.417 1.416c3.679 1.284 7.663 1.917 11.4 1.395l-.057-.407c.355-.111.709-.231 1.059-.371z" fill="#F97070"/><path d="M171.136 218.13a3.028 3.028 0 01-1.742.912c-.171.083-.373.13-.611.113-1.455-.102-2.685-1.222-2.889-2.675-.111-.789.13-1.541.589-2.135a226.118 226.118 0 01-.587-3.115c-.081.044-.163.086-.24.135-1.383.866-2.484 1.949-3.009 3.541-.37 1.124-.397 2.554-.033 3.769.224 1.032.675 2.01 1.43 2.768l1.204 1.017a6.16 6.16 0 002.991.981c1.069.166 1.67-.095 2.563-.416 1.31-.47 2.351-1.233 3.126-2.422.902-1.387 1.301-3.254.888-4.884-.43-1.696-1.353-3.069-2.781-4.081-1.01-.715-2.416-1.068-3.768-1.014.152.837.309 1.67.469 2.501 2.478-.158 4.204 3.048 2.4 5.005z" fill="#6DB0C5"/><path d="M221.751 161.698c.198.141.391.29.586.435.15.113.303.221.452.336a33.267 33.267 0 017.363 7.901 39.523 39.523 0 013.097 5.576 43.69 43.69 0 011.761 4.541c.194.591.376 1.186.547 1.784 2 7.041 2.404 14.558 1.928 21.891a5.5 5.5 0 012.469-.287c.483-7.941-.05-16.068-2.442-23.64a48.1 48.1 0 00-.588-1.741 44.614 44.614 0 00-1.95-4.621 42.187 42.187 0 00-.81-1.566c-.088-.162-.174-.325-.264-.485a39.042 39.042 0 00-2.612-4.051 37.265 37.265 0 00-2.559-3.111 35.999 35.999 0 00-5.723-5.056l-.004-.003a34.467 34.467 0 00-6.303-3.545l.404 2.885c.159.078.315.162.474.243a32.774 32.774 0 014.174 2.514z" fill="#fff"/><path d="M172.46 168.392l-.142.19.196-.113-.054-.077z" fill="#D6D4D1"/><path d="M246.356 226.164c-.038-.016-.071-.034-.107-.05a36.06 36.06 0 01-1.045 10.237c.842.166 1.642.682 2.096 1.439.013.022.022.045.034.067a38.864 38.864 0 001.342-11.951 2.456 2.456 0 01-2.32.258zm-15.407 1.498a1.693 1.693 0 01-.566-.119c.123 1.486.342 2.96.644 4.417l-14.47-.021c.25 1.275-.62 2.059-1.976 2.531a.41.41 0 01-.186.079l-.104.016c-1.404.426-3.239.56-4.892.575a53.916 53.916 0 01-5.644.128c-1.821-.056-3.711-.126-5.508-.456-.822-.152-1.772-.437-2.086-1.312-.184-.514-.182-.959-.033-1.345.033-.085.075-.167.122-.246l-18.045-.028.458 11.539c.01 7.081.288 14.159.842 21.221a47.04 47.04 0 011.64.127c2.701.256 5.372.722 8.047 1.251 4.027.797 8.118 1.652 12.246 1.342 2.702-.203 5.136-1.078 7.487-2.223a710.2 710.2 0 01-23.983-.227c-1.048-.028-1.049-1.659 0-1.63 9.031.239 18.065.303 27.097.198l.263-.148c2.865-1.629 5.766-3.237 9.013-3.952 2.894-.638 5.883-.666 8.8-.169 1.772.301 3.493.807 5.13 1.496.562.236 1.113.498 1.654.778.349.18.694.37 1.034.568l-.268-30.081-4.148-.006a33.915 33.915 0 01-.709-4.735c-.462.302-1.064.467-1.859.432zm-46.77 17.433c15.037.4 30.083.32 45.115-.237 1.051-.039 1.046 1.591 0 1.63a709.128 709.128 0 01-45.115.238c-1.049-.028-1.05-1.659 0-1.631zm45.878 10.665a709.87 709.87 0 01-45.115.237c-1.049-.028-1.05-1.659 0-1.631a709.87 709.87 0 0045.115-.237c1.051-.039 1.046 1.591 0 1.631z" fill="#fff"/><path d="M245.204 236.351c-.982-.194-2.023.088-2.645 1.041-.629.963-.509 2.087.062 2.944.509.843 1.481 1.459 2.505 1.48 2.025.042 3.139-2.295 2.208-3.959-.013-.022-.021-.046-.034-.067-.454-.758-1.254-1.273-2.096-1.439zm-7.721-32.188c-1.991.704-3.579 2.465-4.558 4.355-1.289 2.489-6.371 14.644-3.409 17.974.106.455.392.858.867 1.051.166.067.354.11.566.119.795.035 1.398-.13 1.859-.434 1.756-1.154 1.436-4.336 1.627-6.349.291-3.068.909-6.949 2.63-9.582 2.715-4.153 5.405 4.197 5.983 6.043a41.427 41.427 0 011.233 5.019c.263 1.454.473 3.079 1.969 3.754.036.016.069.035.107.05a2.454 2.454 0 002.32-.259c.333-.233.61-.553.787-.951.649-1.459.058-3.779-.166-5.298-.518-3.507-1.531-6.994-3.015-10.216-1.204-2.613-3.162-5.142-6.199-5.554-.044-.005-.087-.005-.13-.01a5.523 5.523 0 00-2.471.288z" fill="#6DB0C5"/><path d="M223.007 159.602l-.007-.001.006.003.001-.002z" fill="#FF82A6"/><path d="M218.682 160.568c1.029.359 2.051.74 3.069 1.131a32.722 32.722 0 00-4.175-2.515c-.159-.081-.315-.165-.474-.243l.079.567.171 1.223c.338-.252.79-.352 1.33-.163z" fill="#292929"/><path d="M187.77 161.931c.251.048.503.156.74.339 8.462 6.559 20.566 5.987 28.474-1.145.099-.155.224-.286.368-.394l-.172-1.224c-3.288 2.623-13.214 8.645-29.403 2.393l-.047.017c.013.005.027.008.04.014z" fill="#F97070"/><path d="M202.965 207.126a595.261 595.261 0 0029.508-32.786 39.537 39.537 0 00-2.322-3.97 33.266 33.266 0 00-7.363-7.901c-.149-.115-.302-.223-.452-.336-.195-.146-.387-.294-.585-.435-1.019-.39-2.041-.77-3.07-1.13-.54-.189-.992-.09-1.33.163a1.5 1.5 0 00-.367.394c-7.908 7.133-20.013 7.704-28.475 1.145a1.734 1.734 0 00-.74-.339c-.012-.006-.027-.009-.039-.014-.295-.127-.651-.149-1.057-.007l-.014.004a88.923 88.923 0 00-8.245 3.454 38.26 38.26 0 00-4.477 5.15 388.301 388.301 0 0029.028 36.608z" fill="#F47D9A"/><path d="M201.635 215.252a2527.9 2527.9 0 01-30.815-39.622c-.117.229-.236.457-.347.689-.152.314-.299.63-.442.948a2546.872 2546.872 0 0030.972 39.797c.27.341.875.29 1.153 0l33.4-34.792a45.93 45.93 0 00-.546-1.785l-33.375 34.765z" fill="#3A93AF"/><path d="M168.476 105.191c-1.327 6.206-.978 12.299-.371 18.557.281 2.897.468 6.081-1.195 8.627-1.454 2.226-3.941 3.565-6.048 5.078-4.41 3.169-7.696 7.593-9.122 12.871-1.483 5.485-.738 11.417 1.894 16.436 1.871 3.568 4.871 6.886 8.59 8.598a90.808 90.808 0 014.086-2.983c.681.898 1.364 1.793 2.046 2.69.262-.537.537-1.067.823-1.591l-1.522-2.001a87.825 87.825 0 013.447-2.183c.402-.24.808-.475 1.214-.709l.142-.19c3.18-4.203 7.17-7.791 11.738-10.43a34.998 34.998 0 013.788-1.89c.167-9.928.064-19.859-.316-29.782-2.79.395-5.656-1.268-6.025-4.545-.118-1.048.055-1.998.436-2.814a5.117 5.117 0 011.977-2.189 5.621 5.621 0 013.087-.822l-.158-15.749c9.59 3.5 20.387 3.626 30.03.23 1.899-.668 3.979-1.476 5.664-2.66.179-.127.352-.258.522-.393 1.631-1.297 2.785-3.015 2.842-5.412.056-2.362-.872-4.306-2.267-5.95a10.99 10.99 0 00-2.332-2.749c-4.37-3.69-10.562-5.303-16.153-5.758-11.329-.92-22.609 3.955-29.733 12.799a35.435 35.435 0 00-4.116 6.425 35.921 35.921 0 00-1.457 3.337 35.98 35.98 0 00-1.511 5.152z" fill="#292929"/><path d="M236.922 178.494c.208.577.404 1.158.588 1.742l5.755-5.995.715-.744c-.45-.317-.903-.631-1.358-.94l-.663.691-5.037 5.246z" fill="#3A93AF"/><path d="M166.563 179.32c-3.634 10.284-2.577 21.337-.667 31.91.189 1.043.385 2.082.587 3.115-.459.594-.7 1.347-.589 2.135.204 1.453 1.434 2.573 2.889 2.676.238.016.44-.031.611-.114.66-.107 1.288-.418 1.742-.912 1.804-1.957.078-5.163-2.399-5.003-.161-.831-.318-1.665-.47-2.501-1.585-8.726-2.586-17.735-.573-26.435a37.563 37.563 0 012.778-7.872c.112-.232.231-.46.347-.689a37.764 37.764 0 013.119-5.112 38.315 38.315 0 017.998-8.153 33.475 33.475 0 015.997-3.581c.02-.905.037-1.808.053-2.712a34.997 34.997 0 00-3.788 1.89c-4.567 2.639-8.558 6.227-11.738 10.43l.054.077-.196.113a40.724 40.724 0 00-3.962 6.483 40.053 40.053 0 00-1.793 4.255z" fill="#fff"/><path d="M254.707 239.441l28.99-10.148c-.15-.522-.309-1.041-.467-1.561l-28.956 10.136c-.984.345-.561 1.921.433 1.573zm-78.556 83.513a2063.734 2063.734 0 01-12.118 1.315c-1.034.109-2.068.216-3.102.323-1.177.122-2.354.244-3.531.364v1.628c1.005-.102 2.009-.212 3.014-.316a1854.828 1854.828 0 0018.72-2.027 1841.14 1841.14 0 0015.2-1.797 1830.474 1830.474 0 0047.232-6.379c5.747-.854 11.49-1.738 17.23-2.646v-1.648a1829.545 1829.545 0 01-79.248 10.801c-1.133.129-2.265.255-3.397.382z" fill="#3A93AF"/><path d="M208.619 229.863c-.165-.831-.329-1.653-.881-2.288-1.157-1.333-3.034-.568-3.466.967-.115.408-.141.833-.192 1.254a62.067 62.067 0 014.539.067z" fill="#9EBFFF"/><path d="M196.161 233.499c.314.875 1.264 1.161 2.086 1.312 1.797.33 3.686.4 5.508.456 1.886.058 3.769.012 5.644-.128 1.653-.015 3.487-.149 4.892-.575l.104-.015a.4.4 0 00.186-.08c1.356-.473 2.227-1.256 1.976-2.531a2.328 2.328 0 00-.294-.783c-.727-1.223-2.427-1.353-3.744-1.36a72.001 72.001 0 00-2.323.026c-.282-.964-.442-2.058-.676-2.519-.604-1.192-1.781-1.987-3.127-2.052-1.239-.059-2.427.575-3.126 1.586-.56.809-.56 2.09-.89 3.04-2.802.199-5.366.747-6.127 2.032a1.62 1.62 0 00-.122.247c-.149.385-.151.83.033 1.344zm16.637-1.566c.203-.47.712-.809 1.313-.537.275.124.438.32.516.54.26.724-.44 1.713-1.35 1.301-.585-.265-.677-.847-.479-1.304zm-8.526-3.391c.433-1.535 2.309-2.3 3.466-.967.552.635.717 1.458.881 2.288a62.067 62.067 0 00-4.539-.067c.051-.421.077-.845.192-1.254zm-5.734 3.369c.256-.302.666-.462 1.133-.251.147.067.263.154.351.253.623.704-.147 2.058-1.184 1.588-.719-.325-.693-1.126-.3-1.59z" fill="#F6CD60"/><path d="M213.277 233.237c.91.412 1.61-.577 1.35-1.302a.93.93 0 00-.516-.539c-.601-.272-1.11.067-1.313.537-.198.457-.106 1.039.479 1.304zm-14.439.265c1.038.469 1.807-.885 1.184-1.589a1.021 1.021 0 00-.35-.252c-.467-.212-.877-.051-1.133.251-.394.463-.42 1.264.299 1.59z" fill="#292929"/><path d="M229.294 246.488c1.046-.039 1.051-1.67 0-1.63a709.87 709.87 0 01-45.115.237c-1.05-.028-1.049 1.602 0 1.631 15.037.399 30.083.32 45.115-.238zm.763 7.641a709.87 709.87 0 01-45.115.237c-1.05-.028-1.049 1.602 0 1.631 15.037.399 30.083.32 45.115-.238 1.046-.039 1.051-1.669 0-1.63zm-45.115 9.151c-1.05-.028-1.049 1.603 0 1.63 7.993.213 15.988.286 23.982.228a57.642 57.642 0 003.114-1.659c-9.032.105-18.065.041-27.096-.199z" fill="#3A93AF"/><path d="M256.177 247.132c4.281-1.3 20.136-6.211 26.032-8.038a128.58 128.58 0 00-1.854-5.959l-25.258 8.588c.433 1.788.814 3.594 1.08 5.409z" fill="#F97070"/><path d="M131.226 233.985l28.457 7.821c.885.243.666 1.476-.08 1.596a.832.832 0 01-.353-.024l-1.055-.29-27.348-7.516-2.473-.68c-.032.263-.066.526-.097.789-.43.844-.224 2.011.96 2.287l.838.195 1.425.332 1.449.337 26.501 6.166.384.089-.129 4.351-.354 12.006c.127.664.293 1.315.532 1.932.965 2.486 3.305 2.837 5.673 2.494.891-.129 1.774-.268 2.652-.405.949-.148 1.893-.294 2.839-.425 2.085-.287 4.177-.499 6.34-.48.709.006 1.414.038 2.118.08a276.303 276.303 0 01-.842-21.22l-.458-11.54 18.044.028c.762-1.285 3.326-1.833 6.128-2.032.329-.95.33-2.231.89-3.04.699-1.011 1.886-1.645 3.126-1.586 1.347.065 2.522.86 3.126 2.052.234.461.394 1.555.677 2.519a71.97 71.97 0 012.323-.026c1.317.007 3.016.138 3.744 1.36.095.159.175.335.233.533.025.086.045.168.061.25l14.469.022a36.538 36.538 0 01-.643-4.418c-.475-.193-.761-.596-.867-1.051-2.962-3.33 2.12-15.485 3.409-17.974.979-1.89 2.567-3.651 4.558-4.355.478-7.333.073-14.85-1.928-21.891l-33.4 34.792c-.278.29-.882.341-1.153 0a2537.508 2537.508 0 01-30.972-39.797 37.56 37.56 0 00-2.336 6.924c-2.013 8.701-1.013 17.709.573 26.435 1.352-.055 2.758.299 3.767 1.014 1.428 1.012 2.352 2.385 2.782 4.081.412 1.63.014 3.497-.889 4.884-.773 1.189-1.814 1.952-3.125 2.422-.894.321-1.494.582-2.563.416a6.16 6.16 0 01-2.991-.981l-1.204-1.017c-.755-.758-1.207-1.736-1.43-2.768-.364-1.215-.337-2.646.033-3.769.525-1.592 1.626-2.675 3.009-3.541.077-.049.159-.091.24-.135-1.91-10.574-2.967-21.626.667-31.911a39.721 39.721 0 011.793-4.254c-.682-.897-1.365-1.792-2.046-2.69a89.71 89.71 0 00-24.511 25.235 88.015 88.015 0 00-8.278 16.34 86.378 86.378 0 00-2.885 9.044 91.825 91.825 0 00-2.047 10.266l2.637.724z" fill="#A5D7E7"/><path d="M158.96 249.259c.111-1.426.273-2.847.49-4.261l-26.502-6.166a276.151 276.151 0 00-.852 3.957l26.864 6.47z" fill="#F97070"/><path d="M158.194 243.088l1.055.29a.834.834 0 00.353.024c.747-.12.966-1.353.081-1.596l-28.458-7.821-2.636-.725a88.765 88.765 0 00-.215 1.632l2.472.68 27.348 7.516z" fill="#3A93AF"/><path d="M99.017 85.28c.29.09.59.157.904.192a5.597 5.597 0 002.02-.15c1.306-.334 2.497-1.096 3.491-2.035 3.011-2.844 5.072-7.186 5.149-11.345.074-3.933-2.398-8.169-6.695-8.387-3.385-.172-5.277 2.084-6.355 4.83a1.55 1.55 0 00-.12.19c-1.98 3.72-3.522 9.03-1.947 13.163.63 1.653 1.885 3.025 3.553 3.542z" fill="#FCE6A3"/><path d="M348.372 190.19c-3.09-2.229-6.618-1.642-9.658.028-.182.01-.37.055-.562.144a12.47 12.47 0 00-4.417 3.475c-1.39 1.718-2.337 3.793-2.65 6.005-.257 1.816-.114 3.778.867 5.349.143.229.304.45.483.66 1.334 1.562 3.46 2.217 5.457 2.251 4.668.08 8.535-3.077 10.947-6.819 2.304-3.574 3.531-8.208-.467-11.093z" fill="#F9D979"/><path d="M228.791 44.755c2.031-2.408 1.55-6.426-.981-8.294-2.018-1.489-4.697-1.316-6.665-.002a1.139 1.139 0 00-.371.215 5.56 5.56 0 00-.454.445c-.31.295-.593.624-.836.986a.98.98 0 00-.182.602c-.901 2.073-.643 4.648.985 6.339 2.251 2.337 6.422 2.178 8.504-.29zm-6.722-6.34c1.294-1.031 3.294-1.224 4.612-.118 1.476 1.238 1.669 3.803.347 5.21-1.316 1.4-3.898 1.426-5.219.016-1.363-1.455-1.052-3.765.26-5.108z" fill="#FAFAFA"/><path d="M132.44 127.229c2.031-2.408 1.551-6.427-.981-8.295-2.018-1.488-4.697-1.315-6.665-.001a1.14 1.14 0 00-.371.215 5.288 5.288 0 00-.453.445 5.955 5.955 0 00-.837.985.981.981 0 00-.182.603c-.901 2.072-.642 4.648.985 6.338 2.251 2.338 6.422 2.178 8.504-.29zm-6.722-6.341c1.294-1.031 3.293-1.224 4.612-.118 1.476 1.239 1.669 3.804.346 5.211-1.315 1.4-3.897 1.425-5.218.015-1.363-1.455-1.053-3.764.26-5.108zm211.003 138.734c-2.017-1.488-4.696-1.315-6.665-.002a1.158 1.158 0 00-.371.215 5.44 5.44 0 00-.453.445 5.963 5.963 0 00-.837.986.97.97 0 00-.181.602c-.902 2.072-.643 4.648.984 6.338 2.251 2.338 6.423 2.179 8.505-.29 2.031-2.408 1.55-6.426-.982-8.294zm-.781 7.047c-1.316 1.4-3.898 1.425-5.219.015-1.363-1.455-1.052-3.765.26-5.109 1.294-1.03 3.294-1.223 4.612-.117 1.476 1.238 1.669 3.804.347 5.211z" fill="#fff"/></svg>