<svg width="1440" height="985" viewBox="0 0 1440 985" fill="none" xmlns="http://www.w3.org/2000/svg">
<g opacity="0.5" filter="url(#filter0_d)">
<path d="M-7 0L1448.21 -15.2095V729.5C1448.21 729.5 1289.45 894.426 1092 894.426C894.551 894.426 796.91 811.973 649.364 811.973C501.817 811.973 432.384 959.52 258.8 959.52C85.2155 959.52 -7 850 -7 850V0Z" fill="url(#paint0_linear)"/>
<path d="M-7.02613 -2.49986L-9.5 -2.47401V0V850V850.912L-8.91238 851.61L-7 850C-8.91238 851.61 -8.9113 851.612 -8.90986 851.613L-8.90523 851.619L-8.88962 851.637L-8.83305 851.704C-8.78406 851.761 -8.71255 851.844 -8.61855 851.952C-8.43056 852.169 -8.1526 852.486 -7.78501 852.897C-7.04985 853.719 -5.9561 854.915 -4.50637 856.433C-1.60703 859.468 2.71687 863.789 8.44439 868.967C19.8983 879.322 36.973 893.109 59.5011 906.892C104.563 934.462 171.459 962.02 258.8 962.02C346.378 962.02 407.672 924.753 465.196 887.851C467.477 886.387 469.753 884.924 472.023 883.464C527.105 848.053 579.337 814.473 649.364 814.473C717.383 814.473 774.721 832.091 836.652 851.119C841.484 852.603 846.344 854.096 851.239 855.591C918.838 876.223 992.898 896.926 1092 896.926C1191.4 896.926 1280.93 855.427 1345.5 814.068C1377.8 793.376 1403.91 772.686 1421.95 757.165C1430.97 749.403 1437.97 742.932 1442.73 738.395C1445.11 736.127 1446.92 734.343 1448.14 733.122C1448.34 732.931 1448.51 732.754 1448.67 732.591C1449.03 732.233 1449.32 731.943 1449.53 731.725C1449.63 731.625 1449.71 731.54 1449.78 731.471L1449.89 731.362L1449.98 731.268L1450 731.243L1450.01 731.237C1450.01 731.235 1450.01 731.234 1448.21 729.5L1450.01 731.234L1450.71 730.508V729.5V-15.2095V-17.7357L1448.18 -17.7093L-7.02613 -2.49986Z" stroke="#D7E6F6" stroke-width="5"/>
</g>
<defs>
<filter id="filter0_d" x="-22" y="-30.262" width="1495.21" height="1014.78" filterUnits="userSpaceOnUse" color-interpolation-filters="sRGB">
<feFlood flood-opacity="0" result="BackgroundImageFix"/>
<feColorMatrix in="SourceAlpha" type="matrix" values="0 0 0 0 0 0 0 0 0 0 0 0 0 0 0 0 0 0 127 0"/>
<feOffset dx="5" dy="5"/>
<feGaussianBlur stdDeviation="7.5"/>
<feColorMatrix type="matrix" values="0 0 0 0 0.670938 0 0 0 0 0.777973 0 0 0 0 0.879062 0 0 0 1 0"/>
<feBlend mode="normal" in2="BackgroundImageFix" result="effect1_dropShadow"/>
<feBlend mode="normal" in="SourceGraphic" in2="effect1_dropShadow" result="shape"/>
</filter>
<linearGradient id="paint0_linear" x1="-6.99999" y1="-2.31615e-05" x2="1433" y2="850" gradientUnits="userSpaceOnUse">
<stop stop-color="#F5F4E3"/>
<stop offset="1" stop-color="#8CBBE6"/>
</linearGradient>
</defs>
</svg>
