<svg width="716" height="479" viewBox="0 0 716 479" fill="none" xmlns="http://www.w3.org/2000/svg">
<g clip-path="url(#clip0)">
<path d="M54.198 187.591C51.6107 187.591 49.5056 185.484 49.5056 182.894C49.5056 180.304 51.6107 178.197 54.198 178.197C56.7854 178.197 58.8904 180.304 58.8904 182.894C58.8904 185.484 56.7854 187.591 54.198 187.591ZM54.198 180.076C52.6456 180.076 51.3826 181.34 51.3826 182.894C51.3826 184.448 52.6456 185.712 54.198 185.712C55.7505 185.712 57.0134 184.448 57.0134 182.894C57.0134 181.34 55.7505 180.076 54.198 180.076Z" fill="#01AEB3"/>
<path d="M246.607 64.9601C244.02 64.9601 241.915 62.8531 241.915 60.2633C241.915 57.6736 244.02 55.5665 246.607 55.5665C249.195 55.5665 251.3 57.6736 251.3 60.2633C251.3 62.8531 249.194 64.9601 246.607 64.9601ZM246.607 57.4453C245.055 57.4453 243.792 58.7094 243.792 60.2633C243.792 61.8173 245.055 63.0814 246.607 63.0814C248.16 63.0814 249.423 61.8173 249.423 60.2633C249.423 58.7094 248.16 57.4453 246.607 57.4453Z" fill="#01AEB3"/>
<path d="M353.921 257.044C351.333 257.044 349.228 254.937 349.228 252.347C349.228 249.758 351.333 247.651 353.921 247.651C356.508 247.651 358.613 249.758 358.613 252.347C358.613 254.937 356.508 257.044 353.921 257.044ZM353.921 249.529C352.368 249.529 351.105 250.793 351.105 252.347C351.105 253.901 352.368 255.165 353.921 255.165C355.473 255.165 356.736 253.901 356.736 252.347C356.736 250.793 355.473 249.529 353.921 249.529Z" fill="#01AEB3"/>
<path d="M121.11 103.393C120.947 103.393 120.785 103.35 120.639 103.266C120.454 103.158 116.067 100.585 112.237 96.6598C106.983 91.2767 105.4 85.9673 107.658 81.3052C107.677 81.2659 107.699 81.2281 107.723 81.1925C109.038 78.6332 111.641 77.0484 114.546 77.0484C117.273 77.0484 119.751 78.5091 121.11 80.7368C122.469 78.5091 124.947 77.0484 127.674 77.0484C130.579 77.0484 133.183 78.6335 134.498 81.1937C134.522 81.229 134.543 81.2659 134.562 81.3049C136.82 85.967 135.237 91.2764 129.983 96.6595C126.153 100.584 121.766 103.158 121.581 103.265C121.435 103.35 121.272 103.393 121.11 103.393ZM109.297 82.2204C105.262 90.8235 118.417 99.6622 121.11 101.356C123.803 99.6622 136.958 90.8235 132.922 82.2204C132.904 82.192 132.887 82.1625 132.872 82.132C131.894 80.1529 129.902 78.9239 127.673 78.9239C124.974 78.9239 122.598 80.8115 122.024 83.412C121.929 83.8413 121.549 84.1473 121.109 84.1473C120.67 84.1473 120.289 83.8417 120.195 83.412C119.621 80.8115 117.245 78.9239 114.546 78.9239C112.318 78.9239 110.325 80.1533 109.347 82.132C109.332 82.1625 109.315 82.192 109.297 82.2204Z" fill="#FF8681"/>
<path d="M653.315 317.088C650.728 317.088 648.623 314.981 648.623 312.391C648.623 309.801 650.728 307.694 653.315 307.694C655.903 307.694 658.008 309.801 658.008 312.391C658.008 314.981 655.903 317.088 653.315 317.088ZM653.315 309.573C651.763 309.573 650.5 310.837 650.5 312.391C650.5 313.945 651.763 315.209 653.315 315.209C654.868 315.209 656.131 313.945 656.131 312.391C656.131 310.837 654.868 309.573 653.315 309.573Z" fill="#01AEB3"/>
<path d="M455.425 64.9994C452.838 64.9994 450.733 62.8924 450.733 60.3026C450.733 57.7128 452.838 55.6058 455.425 55.6058C458.012 55.6058 460.117 57.7128 460.117 60.3026C460.117 62.8921 458.012 64.9994 455.425 64.9994ZM455.425 57.4846C453.873 57.4846 452.61 58.7487 452.61 60.3026C452.61 61.8565 453.873 63.1206 455.425 63.1206C456.978 63.1206 458.24 61.8565 458.24 60.3026C458.24 58.7487 456.978 57.4846 455.425 57.4846Z" fill="#FF8681"/>
<path d="M615.885 258.561C620.809 263.58 621.616 270.87 619.244 274.145C616.978 277.273 613.249 274.75 610.663 277.527C606.601 281.888 613.579 290.485 610.638 296.291C607.602 302.285 598.471 296.464 592.141 301.633C584.38 307.97 593.04 320.853 586.499 329.026C580.238 336.849 561.971 337.958 550.784 326.459C540.908 316.307 539.857 299.727 546.149 293.334C553.499 285.866 567.633 295.586 573.595 287.611C578.947 280.451 570.356 268.87 576.521 264.11C581.679 260.129 589.277 267.006 596.313 262.236C600.934 259.103 600.227 254.396 605.161 253.918C608.564 253.588 612.83 255.446 615.885 258.561Z" fill="#FABAB6"/>
<path d="M540.661 344.474C540.623 344.478 540.584 344.48 540.544 344.477C540.231 344.452 539.997 344.178 540.021 343.865C540.676 335.517 552.139 319.934 574.094 297.548C590.39 280.931 606.708 266.548 606.871 266.405C607.107 266.197 607.467 266.22 607.673 266.456C607.881 266.692 607.858 267.052 607.622 267.259C606.972 267.831 542.671 324.612 541.155 343.954C541.134 344.227 540.923 344.44 540.661 344.474Z" fill="white"/>
<path d="M579.353 317.267C579.32 317.271 579.286 317.273 579.252 317.271L557.433 316.19C557.155 316.176 556.928 315.963 556.896 315.687L554.906 298.546C554.87 298.234 555.069 297.952 555.405 297.915C555.717 297.879 556 298.103 556.036 298.415L557.97 315.077L579.308 316.134C579.622 316.149 579.864 316.416 579.848 316.731C579.834 317.011 579.621 317.233 579.353 317.267Z" fill="white"/>
<path d="M602.058 289.37C601.994 289.379 601.929 289.376 601.862 289.361L586.916 286.031C586.691 285.981 586.519 285.8 586.479 285.573L583.794 270.113C583.74 269.804 583.947 269.509 584.257 269.455C584.564 269.398 584.86 269.608 584.914 269.918L587.535 285.003L602.11 288.25C602.416 288.318 602.609 288.622 602.541 288.929C602.488 289.17 602.289 289.341 602.058 289.37Z" fill="white"/>
<path d="M539.215 288.064C539.112 288.133 538.99 288.178 538.858 288.188C538.445 288.222 538.083 287.914 538.049 287.501C537.265 277.858 545.834 261.297 563.519 238.276C576.628 221.213 590.139 206.75 590.274 206.606C590.56 206.306 591.033 206.288 591.334 206.572C591.637 206.855 591.652 207.33 591.369 207.633C590.832 208.206 537.739 265.181 539.545 287.379C539.568 287.66 539.433 287.917 539.215 288.064Z" fill="#8FD0D6"/>
<path d="M604.701 203.056C598.593 207.163 591.053 208.095 590.924 208.11C590.69 208.137 590.458 208.052 590.295 207.882C590.133 207.711 590.06 207.475 590.098 207.242C592.92 189.991 611.368 188.022 611.554 188.003C611.759 187.984 611.964 188.049 612.12 188.185C612.275 188.321 612.368 188.515 612.376 188.722C612.641 195.634 609.031 200.143 604.701 203.056ZM591.77 206.459C595.842 205.733 610.741 202.217 610.887 189.607C607.467 190.146 594.568 193.056 591.77 206.459Z" fill="#8FD0D6"/>
<path d="M593.872 234.92C583.925 241.61 569.35 232.529 569.182 232.423C568.988 232.3 568.861 232.096 568.837 231.867C568.813 231.64 568.895 231.413 569.058 231.252C581.543 218.979 597.637 229.564 597.798 229.672C597.964 229.783 598.078 229.956 598.116 230.152C598.154 230.348 598.113 230.55 598.002 230.716C596.776 232.535 595.376 233.908 593.872 234.92ZM570.83 231.646C574.439 233.655 588.716 240.656 596.303 230.516C594.988 229.75 591.821 228.088 587.855 227.273C581.274 225.922 575.551 227.394 570.83 231.646Z" fill="#8FD0D6"/>
<path d="M570.002 232.412C569.89 232.487 569.759 232.532 569.621 232.538C569.386 232.55 569.159 232.45 569.008 232.27C557.811 218.855 568.38 203.593 568.488 203.441C568.607 203.272 568.791 203.161 568.996 203.131C569.2 203.102 569.407 203.159 569.569 203.289C582.582 213.693 570.329 232.027 570.204 232.211C570.149 232.291 570.081 232.359 570.002 232.412ZM569.265 204.994C567.437 207.938 561.204 219.61 569.508 230.491C571.622 226.932 578.703 213.348 569.265 204.994Z" fill="#8FD0D6"/>
<path d="M571.37 262.096C562.292 268.202 547.971 262.707 547.794 262.638C547.578 262.553 547.413 262.372 547.348 262.148C547.283 261.925 547.326 261.684 547.463 261.496C557.763 247.364 575.986 254.762 576.169 254.838C576.357 254.916 576.505 255.068 576.579 255.257C576.653 255.447 576.647 255.659 576.562 255.844C575.265 258.678 573.456 260.693 571.37 262.096ZM549.294 261.573C553.315 262.896 568.973 267.182 574.841 255.949C571.501 254.807 557.804 250.982 549.294 261.573Z" fill="#8FD0D6"/>
<path d="M548.487 262.562C548.415 262.611 548.333 262.647 548.246 262.668C548.011 262.726 547.763 262.666 547.579 262.508C534.37 251.127 541.252 233.92 541.323 233.747C541.405 233.548 541.568 233.394 541.77 233.324C541.973 233.254 542.196 233.273 542.383 233.378C556.89 241.498 548.847 262.013 548.765 262.219C548.708 262.361 548.611 262.479 548.487 262.562ZM542.417 235.145C541.315 238.504 537.967 251.386 547.738 260.629C549.067 256.605 553.032 241.856 542.417 235.145Z" fill="#8FD0D6"/>
<path d="M537.544 189.207C535.737 189.207 533.962 188.916 532.22 188.331C522.794 185.169 516.947 174.417 514.84 156.373C512.68 137.872 514.567 111.379 520.017 83.6878C520.847 79.4703 528.341 42.3501 535.745 37.7441C547.412 30.4862 565.44 39.9786 566.202 40.386L563.836 44.8207C563.674 44.7348 547.6 36.2889 538.397 42.0143C538.309 42.0695 536.206 43.5018 532.395 55.0988C529.754 63.1326 527.093 73.7093 524.902 84.8809C519.548 112.181 517.713 138.142 519.867 156.109C522.22 175.722 528.751 181.865 533.817 183.564C540.376 185.764 548.063 181.923 556.663 172.144C568.136 159.098 580.715 135.682 591.176 107.9C595.41 96.654 598.924 85.566 601.071 76.6794C603.553 66.4075 603.444 62.112 603.04 61.2755C597.264 49.6325 583.837 50.3721 583.703 50.3806L583.375 45.3635C584.062 45.3193 600.291 44.4301 607.539 59.0398C608.029 60.0272 609.52 63.0324 605.992 77.7003C603.822 86.7234 600.27 97.9702 595.99 109.369C591.219 122.075 585.746 134.461 580.163 145.188C573.626 157.748 567.083 167.827 560.714 175.145C552.573 184.498 544.804 189.207 537.544 189.207Z" fill="#BEC5D9"/>
<path d="M537.555 190.888C535.568 190.888 533.612 190.566 531.688 189.92C523.711 187.244 518.121 179.643 515.072 167.327C512.655 157.565 511.803 144.821 512.538 129.449L520.9 129.85C519.475 159.631 524.376 178.63 534.348 181.975C539.187 183.598 544.925 181.32 551.404 175.205C557.75 169.216 564.449 159.898 571.315 147.509L578.635 151.574C571.351 164.718 564.121 174.72 557.147 181.302C550.389 187.681 543.823 190.888 537.555 190.888Z" fill="#01CED3"/>
<path d="M565.484 47.0915L557.431 44.8007C555.652 44.2945 554.62 42.441 555.125 40.6603L556.041 37.4364C556.547 35.6557 558.398 34.6226 560.177 35.1285L568.23 37.4193C570.009 37.9255 571.041 39.779 570.535 41.5596L569.62 44.7836C569.114 46.5642 567.262 47.5977 565.484 47.0915Z" fill="#017280"/>
<path d="M588.031 53.5059L579.979 51.2151C578.2 50.7089 577.168 48.8554 577.673 47.0747L578.589 43.8507C579.094 42.0701 580.946 41.037 582.725 41.5429L590.778 43.8337C592.557 44.3399 593.589 46.1934 593.083 47.974L592.168 51.198C591.662 52.9787 589.81 54.0121 588.031 53.5059Z" fill="#017280"/>
<path d="M585.386 455.632C581.69 455.632 577.94 455.445 574.148 455.072C562.919 453.965 551.573 451.235 540.425 446.957L543.421 439.133C563.764 446.938 585.167 449.196 603.686 445.49C621.363 441.952 635.604 433.225 643.783 420.916C649.547 412.241 653.224 400.387 653.617 389.206C654.014 377.936 651.064 368.86 645.524 364.304C638.718 358.707 629.593 361.169 611.237 366.808C600.414 370.132 586.943 374.27 570.328 377.083C545.221 381.334 516.234 382.003 492.786 378.872C458.28 374.264 448.585 363.732 446.529 355.708C445.049 349.933 446.667 344.162 451.476 338.068C455.42 333.07 461.269 328.002 468.042 322.135C483.313 308.906 504.228 290.788 517.378 260.36C526.981 238.138 530.839 213.206 528.844 186.258L537.193 185.638C539.289 213.951 535.207 240.21 525.062 263.687C511.153 295.872 489.402 314.713 473.521 328.471C460.283 339.938 452.879 346.761 454.639 353.626C455.559 357.217 459.517 360.662 466.086 363.589C472.931 366.638 482.547 369.051 493.893 370.566C516.555 373.592 544.607 372.94 568.932 368.821C585.01 366.099 598.191 362.05 608.782 358.797C627.055 353.184 640.258 349.128 650.839 357.83C667.197 371.283 664.225 405.284 650.754 425.557C641.334 439.732 625.202 449.73 605.327 453.707C598.92 454.989 592.246 455.632 585.386 455.632Z" fill="#01CED3"/>
<path d="M541.795 462.345C552.429 462.345 561.05 453.716 561.05 443.072C561.05 432.428 552.429 423.799 541.795 423.799C531.161 423.799 522.541 432.428 522.541 443.072C522.541 453.716 531.161 462.345 541.795 462.345Z" fill="#BEC5D9"/>
<path d="M541.795 453.127C547.344 453.127 551.841 448.626 551.841 443.072C551.841 437.519 547.344 433.017 541.795 433.017C536.247 433.017 531.749 437.519 531.749 443.072C531.749 448.626 536.247 453.127 541.795 453.127Z" fill="#DAEBFF"/>
<path d="M133.642 332.261C133.94 332.261 134.229 332.104 134.384 331.826C138.817 323.869 137.943 306.367 131.785 279.803C127.225 260.133 121.311 242.525 121.252 242.35C121.102 241.906 120.62 241.667 120.177 241.817C119.734 241.967 119.496 242.449 119.645 242.893C119.88 243.59 143.036 312.813 132.903 330.999C132.675 331.408 132.821 331.925 133.23 332.153C133.361 332.227 133.503 332.261 133.642 332.261Z" fill="#FABAB6"/>
<path d="M119.901 243.551C119.721 243.442 101.995 232.553 109.072 218.468C109.177 218.259 109.363 218.103 109.586 218.036C109.81 217.968 110.051 217.998 110.253 218.114C110.406 218.202 125.478 227.119 121.156 243.046C121.087 243.303 120.901 243.512 120.654 243.611C120.552 243.652 120.445 243.672 120.338 243.672C120.187 243.672 120.035 243.631 119.901 243.551ZM113.164 235.349C115.533 238.287 118.347 240.438 119.8 241.45C122.399 229.347 113.046 222.007 110.19 220.082C108.037 225.094 109.035 230.225 113.164 235.349Z" fill="#FABAB6"/>
<path d="M105.012 259.987C104.975 259.765 105.027 259.537 105.158 259.354C105.289 259.17 105.488 259.046 105.71 259.009C105.89 258.98 123.852 256.195 129.781 271.634C129.874 271.876 129.851 272.146 129.72 272.37C129.588 272.593 129.362 272.743 129.106 272.779C129.049 272.787 127.518 272.986 125.246 272.986C118.939 272.987 106.932 271.446 105.012 259.987ZM115.128 261.118C111.576 260.302 108.348 260.445 106.857 260.582C108.072 265.889 111.982 269.277 118.493 270.661C122.294 271.469 125.986 271.341 127.768 271.206C125.395 265.892 121.148 262.5 115.128 261.118Z" fill="#FABAB6"/>
<path d="M128.601 272.693C128.364 272.571 128.199 272.345 128.154 272.083C128.118 271.876 124.763 251.331 140.039 247.484C140.264 247.426 140.504 247.466 140.701 247.591C140.898 247.717 141.034 247.917 141.078 248.147C141.111 248.32 144.222 265.566 129.356 272.704C129.24 272.759 129.115 272.787 128.989 272.787C128.856 272.787 128.723 272.755 128.601 272.693ZM129.951 261.618C129.278 265.333 129.492 268.871 129.676 270.633C140.525 264.689 139.961 252.807 139.549 249.385C134.352 251.031 131.125 255.141 129.951 261.618Z" fill="#FABAB6"/>
<path d="M135.592 306.889C135.37 306.877 130.084 306.573 124.705 304.367C117.418 301.376 113.559 296.322 113.545 289.751C113.545 289.521 113.638 289.301 113.803 289.141C113.968 288.98 114.191 288.895 114.421 288.902C114.608 288.908 133.144 289.691 136.468 305.871C136.521 306.129 136.452 306.397 136.28 306.596C136.119 306.784 135.884 306.891 135.638 306.891C135.622 306.89 135.608 306.89 135.592 306.889ZM134.543 305.086C133.054 299.454 129.35 295.325 123.519 292.804C120.08 291.318 116.805 290.826 115.272 290.669C116.028 302.085 130.353 304.595 134.543 305.086Z" fill="#FABAB6"/>
<path d="M135.113 306.709C134.898 306.54 134.778 306.277 134.79 306.004C134.8 305.794 135.913 285.031 151.572 283.738C151.814 283.717 152.052 283.802 152.227 283.97C152.403 284.137 152.498 284.372 152.489 284.615C152.482 284.79 151.666 302.258 135.874 306.856C135.796 306.879 135.716 306.89 135.637 306.89C135.45 306.89 135.265 306.828 135.113 306.709ZM136.598 304.842C148.219 300.746 150.338 289.062 150.716 285.544C139.513 287.211 137.084 300.656 136.598 304.842Z" fill="#FABAB6"/>
<path d="M97.9477 293.44C102.08 290.81 108.071 292.029 110.098 295.106C112.269 298.402 108.616 301.892 110.533 304.68C113.637 309.192 125.521 303.398 128.685 307.813C130.879 310.873 126.104 314.956 128.095 319.584C130.476 325.119 138.82 322.8 143.317 328.041C148.726 334.344 147.495 350.329 136.864 357.15C128.221 362.694 115.441 360.849 111.684 354.746C107.543 348.017 116.28 339.215 111.839 333.401C107.383 327.565 95.3226 332.163 93.2492 327.385C91.4608 323.264 99.9377 318.701 98.4282 311.512C97.4983 307.084 93.7583 306.324 93.6499 301.693C93.5802 298.72 95.0343 295.294 97.9477 293.44Z" fill="#8FD0D6"/>
<path d="M141.2 371.628C140.799 371.628 140.442 371.341 140.367 370.931C134.977 341.306 108.307 315.367 108.039 315.108C107.701 314.784 107.691 314.246 108.015 313.908C108.34 313.571 108.876 313.56 109.214 313.884C109.487 314.147 136.548 340.469 142.036 370.627C142.119 371.088 141.814 371.53 141.353 371.614C141.302 371.623 141.251 371.628 141.2 371.628Z" fill="#C3E3E6"/>
<path d="M502.605 386.922C502.605 394.929 496.121 401.419 488.122 401.419C480.122 401.419 473.638 394.929 473.638 386.922V232.82H502.606V386.922H502.605Z" fill="#CBDAED"/>
<path d="M502.605 386.922C502.605 394.929 496.121 401.419 488.122 401.419C480.122 401.419 473.638 394.929 473.638 386.922V232.82H502.606V386.922H502.605Z" fill="#E6ECF3"/>
<path d="M502.605 236.041H473.638C473.193 236.041 472.833 235.681 472.833 235.236C472.833 234.791 473.193 234.43 473.638 234.43H502.605C503.05 234.43 503.41 234.791 503.41 235.236C503.41 235.681 503.05 236.041 502.605 236.041Z" fill="#CBDAED"/>
<path d="M499.387 319.251V386.922C499.387 393.14 494.334 398.198 488.122 398.198C481.91 398.198 476.856 393.14 476.856 386.922V314.027C478.83 313.211 480.826 312.894 482.757 313.361C484.93 313.887 486.303 315.235 487.628 316.62C489.119 318.183 490.541 319.794 492.949 320.341C494.655 320.733 496.764 320.567 499.387 319.251Z" fill="#FA938E"/>
<path d="M495.699 254.297H480.544C478.507 254.297 476.856 252.645 476.856 250.607V231.746H499.387V250.607C499.387 252.645 497.736 254.297 495.699 254.297Z" fill="#FF8681"/>
<g opacity="0.4">
<path opacity="0.4" d="M502.605 234.43H473.638C473.194 234.43 472.833 234.791 472.833 235.236C472.833 235.681 473.193 236.041 473.638 236.041H476.856V314.027C478.83 313.211 480.826 312.894 482.757 313.361C484.93 313.887 486.303 315.235 487.628 316.62C489.119 318.183 490.541 319.793 492.949 320.341C494.655 320.733 496.763 320.567 499.387 319.251V236.041H502.605C503.05 236.041 503.41 235.681 503.41 235.236C503.41 234.791 503.05 234.43 502.605 234.43Z" fill="#CBDAED"/>
</g>
<path d="M499.387 312.287H476.856V338.597H499.387V312.287Z" fill="#FA938E"/>
<path d="M502.605 234.43H473.101C471.916 234.43 470.955 233.469 470.955 232.282V202.751C470.955 201.565 471.916 200.603 473.101 200.603H502.605C503.79 200.603 504.751 201.565 504.751 202.751V232.283C504.751 233.469 503.79 234.43 502.605 234.43Z" fill="#FF8681"/>
<path d="M477.393 228.883C476.972 228.883 476.631 228.542 476.631 228.121V206.912C476.631 206.491 476.972 206.15 477.393 206.15C477.813 206.15 478.154 206.491 478.154 206.912V228.121C478.154 228.542 477.813 228.883 477.393 228.883Z" fill="#FF6059"/>
<path d="M484.367 228.883C483.946 228.883 483.605 228.542 483.605 228.121V206.912C483.605 206.491 483.946 206.15 484.367 206.15C484.787 206.15 485.128 206.491 485.128 206.912V228.121C485.128 228.542 484.787 228.883 484.367 228.883Z" fill="#FF6059"/>
<path d="M491.34 228.883C490.919 228.883 490.578 228.542 490.578 228.121V206.912C490.578 206.491 490.919 206.15 491.34 206.15C491.76 206.15 492.101 206.491 492.101 206.912V228.121C492.101 228.542 491.76 228.883 491.34 228.883Z" fill="#FF6059"/>
<path d="M498.314 228.883C497.893 228.883 497.553 228.542 497.553 228.121V206.912C497.553 206.491 497.893 206.15 498.314 206.15C498.734 206.15 499.075 206.491 499.075 206.912V228.121C499.075 228.542 498.734 228.883 498.314 228.883Z" fill="#FF6059"/>
<path d="M476.853 320.341H473.638V270.406H476.853C478.632 270.406 480.075 271.85 480.075 273.631V317.116C480.075 318.897 478.632 320.341 476.853 320.341Z" fill="#ECF4FC"/>
<path d="M548.203 386.922C548.203 394.929 541.718 401.419 533.719 401.419C525.72 401.419 519.235 394.929 519.235 386.922V232.82H548.203V386.922H548.203Z" fill="#CBDAED"/>
<path d="M548.203 386.922C548.203 394.929 541.718 401.419 533.719 401.419C525.72 401.419 519.235 394.929 519.235 386.922V232.82H548.203V386.922H548.203Z" fill="#E6ECF3"/>
<path d="M548.203 236.041H519.235C518.791 236.041 518.431 235.681 518.431 235.236C518.431 234.791 518.791 234.43 519.235 234.43H548.203C548.648 234.43 549.008 234.791 549.008 235.236C549.007 235.681 548.647 236.041 548.203 236.041Z" fill="#CBDAED"/>
<path d="M541.297 254.297H526.141C524.105 254.297 522.454 252.645 522.454 250.607V231.746H544.984V250.607C544.984 252.645 543.333 254.297 541.297 254.297Z" fill="#FF8681"/>
<g opacity="0.4">
<path opacity="0.4" d="M548.203 234.43H519.235C518.791 234.43 518.431 234.791 518.431 235.236C518.431 235.681 518.791 236.041 519.235 236.041H522.454V314.027C524.428 313.211 526.423 312.894 528.355 313.361C530.527 313.887 531.9 315.235 533.226 316.62C534.717 318.183 536.138 319.793 538.547 320.341C540.253 320.733 542.361 320.567 544.984 319.251V236.041H548.203C548.647 236.041 549.008 235.681 549.008 235.236C549.007 234.791 548.647 234.43 548.203 234.43Z" fill="#CBDAED"/>
</g>
<path d="M544.984 300.995V386.922C544.984 393.14 539.931 398.198 533.719 398.198C527.507 398.198 522.454 393.14 522.454 386.922V295.771C524.428 294.954 526.423 294.638 528.355 295.105C530.527 295.631 531.9 296.979 533.225 298.364C534.717 299.926 536.138 301.537 538.547 302.085C540.253 302.477 542.361 302.311 544.984 300.995Z" fill="#FA938E"/>
<path d="M544.984 293.494H522.454V319.804H544.984V293.494Z" fill="#FA938E"/>
<path d="M548.203 234.43H518.699C517.514 234.43 516.553 233.469 516.553 232.282V202.751C516.553 201.565 517.513 200.603 518.699 200.603H548.203C549.388 200.603 550.349 201.565 550.349 202.751V232.283C550.349 233.469 549.388 234.43 548.203 234.43Z" fill="#FF8681"/>
<path d="M522.99 228.883C522.57 228.883 522.229 228.542 522.229 228.121V206.912C522.229 206.491 522.57 206.15 522.99 206.15C523.411 206.15 523.751 206.491 523.751 206.912V228.121C523.751 228.542 523.411 228.883 522.99 228.883Z" fill="#FF6059"/>
<path d="M529.964 228.883C529.544 228.883 529.203 228.542 529.203 228.121V206.912C529.203 206.491 529.544 206.15 529.964 206.15C530.384 206.15 530.725 206.491 530.725 206.912V228.121C530.725 228.542 530.384 228.883 529.964 228.883Z" fill="#FF6059"/>
<path d="M536.938 228.883C536.517 228.883 536.176 228.542 536.176 228.121V206.912C536.176 206.491 536.517 206.15 536.938 206.15C537.358 206.15 537.699 206.491 537.699 206.912V228.121C537.699 228.542 537.358 228.883 536.938 228.883Z" fill="#FF6059"/>
<path d="M543.911 228.883C543.491 228.883 543.15 228.542 543.15 228.121V206.912C543.15 206.491 543.491 206.15 543.911 206.15C544.332 206.15 544.672 206.491 544.672 206.912V228.121C544.672 228.542 544.331 228.883 543.911 228.883Z" fill="#FF6059"/>
<path d="M540.159 270.406H548.203V320.341H540.159C538.38 320.341 536.937 318.897 536.937 317.116V273.631C536.937 271.85 538.38 270.406 540.159 270.406Z" fill="#ECF4FC"/>
<path d="M573.952 285.977H402.828C400.458 285.977 398.537 284.054 398.537 281.681V267.184C398.537 264.812 400.458 262.889 402.828 262.889H573.952C576.322 262.889 578.243 264.812 578.243 267.184V281.681C578.243 284.054 576.322 285.977 573.952 285.977Z" fill="#8FD0D6"/>
<path d="M573.415 408.4H402.291C399.921 408.4 398 406.477 398 404.104V396.05C398 393.678 399.921 391.755 402.291 391.755H573.415C575.786 391.755 577.707 393.678 577.707 396.05V404.104C577.707 406.477 575.786 408.4 573.415 408.4Z" fill="#8FD0D6"/>
<path d="M413.556 272.017H403.364V391.755H413.556V272.017Z" fill="#8FD0D6"/>
<path d="M572.342 274.164H562.15V393.902H572.342V274.164Z" fill="#8FD0D6"/>
<path d="M244.37 406.618H138.375C135.616 406.618 133.379 404.379 133.379 401.618V251.304C133.379 248.543 135.616 246.304 138.375 246.304H244.37C247.129 246.304 249.365 248.543 249.365 251.304V401.618C249.365 404.379 247.129 406.618 244.37 406.618Z" fill="#AADEE3"/>
<path d="M239.843 258.491H143.682V287.554H239.843V258.491Z" fill="#EBF8FA"/>
<path d="M239.843 261.304V258.491H143.682V287.554H146.18V261.304H239.843Z" fill="#BBC5C7"/>
<path d="M162.571 355.055H145.087C144.398 355.055 143.838 354.496 143.838 353.805V340.68C143.838 339.99 144.397 339.43 145.087 339.43H162.571C163.261 339.43 163.82 339.989 163.82 340.68V353.805C163.82 354.495 163.261 355.055 162.571 355.055Z" fill="#72B9C2"/>
<path d="M187.964 355.055H170.48C169.791 355.055 169.231 354.496 169.231 353.805V340.68C169.231 339.99 169.79 339.43 170.48 339.43H187.964C188.653 339.43 189.213 339.989 189.213 340.68V353.805C189.212 354.495 188.653 355.055 187.964 355.055Z" fill="#72B9C2"/>
<path d="M213.357 355.055H195.873C195.184 355.055 194.625 354.496 194.625 353.805V340.68C194.625 339.99 195.184 339.43 195.873 339.43H213.357C214.047 339.43 214.606 339.989 214.606 340.68V353.805C214.606 354.495 214.047 355.055 213.357 355.055Z" fill="#72B9C2"/>
<path d="M238.75 355.055H221.266C220.577 355.055 220.017 354.496 220.017 353.805V340.68C220.017 339.99 220.576 339.43 221.266 339.43H238.75C239.44 339.43 239.999 339.989 239.999 340.68V353.805C239.999 354.495 239.44 355.055 238.75 355.055Z" fill="#01AEB3"/>
<path d="M162.259 376.383H144.775C144.086 376.383 143.526 375.824 143.526 375.133V362.008C143.526 361.318 144.085 360.758 144.775 360.758H162.259C162.948 360.758 163.508 361.318 163.508 362.008V375.133C163.508 375.824 162.948 376.383 162.259 376.383Z" fill="#72B9C2"/>
<path d="M187.652 376.383H170.168C169.479 376.383 168.919 375.824 168.919 375.133V362.008C168.919 361.318 169.478 360.758 170.168 360.758H187.652C188.341 360.758 188.901 361.318 188.901 362.008V375.133C188.901 375.824 188.342 376.383 187.652 376.383Z" fill="#72B9C2"/>
<path d="M213.045 376.383H195.561C194.872 376.383 194.312 375.824 194.312 375.133V362.008C194.312 361.318 194.871 360.758 195.561 360.758H213.045C213.735 360.758 214.294 361.318 214.294 362.008V375.133C214.294 375.824 213.735 376.383 213.045 376.383Z" fill="#72B9C2"/>
<path d="M238.438 376.383H220.954C220.265 376.383 219.706 375.824 219.706 375.133V362.008C219.706 361.318 220.265 360.758 220.954 360.758H238.438C239.128 360.758 239.687 361.318 239.687 362.008V375.133C239.687 375.824 239.128 376.383 238.438 376.383Z" fill="#01AEB3"/>
<path d="M162.259 397.712H144.775C144.086 397.712 143.526 397.152 143.526 396.462V383.337C143.526 382.646 144.085 382.086 144.775 382.086H162.259C162.948 382.086 163.508 382.646 163.508 383.337V396.462C163.508 397.152 162.948 397.712 162.259 397.712Z" fill="#72B9C2"/>
<path d="M187.652 397.712H170.168C169.479 397.712 168.919 397.152 168.919 396.462V383.337C168.919 382.646 169.478 382.086 170.168 382.086H187.652C188.341 382.086 188.901 382.646 188.901 383.337V396.462C188.901 397.152 188.342 397.712 187.652 397.712Z" fill="#01AEB3"/>
<path d="M213.045 397.712H195.561C194.872 397.712 194.312 397.152 194.312 396.462V383.337C194.312 382.646 194.871 382.086 195.561 382.086H213.045C213.735 382.086 214.294 382.646 214.294 383.337V396.462C214.294 397.152 213.735 397.712 213.045 397.712Z" fill="#01AEB3"/>
<path d="M237.768 397.712H221.624C220.564 397.712 219.705 396.852 219.705 395.791V362.757C219.705 361.696 220.564 360.836 221.624 360.836H237.768C238.828 360.836 239.687 361.696 239.687 362.757V395.791C239.687 396.852 238.828 397.712 237.768 397.712Z" fill="#01AEB3"/>
<path d="M162.259 333.727H144.775C144.086 333.727 143.526 333.167 143.526 332.477V319.352C143.526 318.661 144.085 318.102 144.775 318.102H162.259C162.948 318.102 163.508 318.661 163.508 319.352V332.477C163.508 333.167 162.948 333.727 162.259 333.727Z" fill="#72B9C2"/>
<path d="M187.652 333.727H170.168C169.479 333.727 168.919 333.167 168.919 332.477V319.352C168.919 318.661 169.478 318.102 170.168 318.102H187.652C188.341 318.102 188.901 318.661 188.901 319.352V332.477C188.901 333.167 188.342 333.727 187.652 333.727Z" fill="#72B9C2"/>
<path d="M213.045 333.727H195.561C194.872 333.727 194.312 333.167 194.312 332.477V319.352C194.312 318.661 194.871 318.102 195.561 318.102H213.045C213.735 318.102 214.294 318.661 214.294 319.352V332.477C214.294 333.167 213.735 333.727 213.045 333.727Z" fill="#72B9C2"/>
<path d="M238.438 333.727H220.954C220.265 333.727 219.706 333.167 219.706 332.477V319.352C219.706 318.661 220.265 318.102 220.954 318.102H238.438C239.128 318.102 239.687 318.661 239.687 319.352V332.477C239.687 333.167 239.128 333.727 238.438 333.727Z" fill="#01AEB3"/>
<path d="M162.259 312.398H144.775C144.086 312.398 143.526 311.839 143.526 311.148V298.023C143.526 297.333 144.085 296.773 144.775 296.773H162.259C162.948 296.773 163.508 297.333 163.508 298.023V311.148C163.508 311.839 162.948 312.398 162.259 312.398Z" fill="#01AEB3"/>
<path d="M187.652 312.398H170.168C169.479 312.398 168.919 311.839 168.919 311.148V298.023C168.919 297.333 169.478 296.773 170.168 296.773H187.652C188.341 296.773 188.901 297.333 188.901 298.023V311.148C188.901 311.839 188.342 312.398 187.652 312.398Z" fill="#01AEB3"/>
<path d="M213.045 312.398H195.561C194.872 312.398 194.312 311.839 194.312 311.148V298.023C194.312 297.333 194.871 296.773 195.561 296.773H213.045C213.735 296.773 214.294 297.333 214.294 298.023V311.148C214.294 311.839 213.735 312.398 213.045 312.398Z" fill="#01AEB3"/>
<path d="M238.438 312.398H220.954C220.265 312.398 219.706 311.839 219.706 311.148V298.023C219.706 297.333 220.265 296.773 220.954 296.773H238.438C239.128 296.773 239.687 297.333 239.687 298.023V311.148C239.687 311.839 239.128 312.398 238.438 312.398Z" fill="#01AEB3"/>
<path d="M477.291 420.837H238.709C236.294 420.837 234.338 418.878 234.338 416.462V98.2097C234.338 95.7933 236.294 93.8347 238.709 93.8347H477.291C479.705 93.8347 481.662 95.7933 481.662 98.2097V416.462C481.662 418.878 479.705 420.837 477.291 420.837Z" fill="#799CA1"/>
<path d="M415.389 94.6627H303.892V109.412H415.389V94.6627Z" fill="#ACB2C4"/>
<path d="M439.69 409.666H251.052C250.432 409.666 249.928 409.162 249.928 408.541V103.787C249.928 103.165 250.432 102.661 251.052 102.661H464.947C465.568 102.661 466.071 103.165 466.071 103.787V384.911L439.69 409.666Z" fill="white"/>
<path d="M466.072 384.911H440.815C440.194 384.911 439.691 385.415 439.691 386.037V409.666L466.072 384.911Z" fill="white"/>
<path d="M439.69 410.291C439.606 410.291 439.522 410.274 439.442 410.24C439.214 410.141 439.066 409.915 439.066 409.666V386.037C439.066 385.071 439.85 384.286 440.814 384.286H466.072C466.328 384.286 466.558 384.443 466.652 384.681C466.747 384.92 466.686 385.192 466.499 385.367L440.117 410.122C439.999 410.233 439.846 410.291 439.69 410.291ZM440.814 385.536C440.539 385.536 440.314 385.761 440.314 386.037V408.224L464.493 385.537H440.814V385.536Z" fill="#BEC5D9"/>
<path d="M446.362 225.455H314.113C312.709 225.455 311.572 224.36 311.572 223.009C311.572 221.657 312.71 220.562 314.113 220.562H446.362C447.765 220.562 448.903 221.657 448.903 223.009C448.903 224.36 447.765 225.455 446.362 225.455Z" fill="#C1E2EB"/>
<path d="M438.017 237.542H314.113C312.709 237.542 311.572 236.447 311.572 235.095C311.572 233.744 312.71 232.649 314.113 232.649H438.017C439.42 232.649 440.558 233.744 440.558 235.095C440.558 236.447 439.42 237.542 438.017 237.542Z" fill="#C1E2EB"/>
<path d="M268.221 243.743C267.256 243.743 266.472 242.958 266.472 241.993V216.112C266.472 215.38 267.07 214.362 267.659 214.362H293.515C295.219 214.362 295.826 215.266 295.826 216.112V241.993C295.826 242.958 295.042 243.743 294.077 243.743H268.221Z" fill="white"/>
<path d="M293.515 214.986C294.698 214.986 295.202 215.49 295.202 216.111V241.992C295.202 242.614 294.699 243.118 294.078 243.118H268.221C267.6 243.118 267.097 242.614 267.097 241.992V216.111C267.097 215.49 267.6 214.986 267.659 214.986H293.515ZM293.515 213.736H267.659C266.608 213.736 265.848 215.155 265.848 216.111V241.992C265.848 243.302 266.912 244.368 268.221 244.368H294.077C295.386 244.368 296.451 243.302 296.451 241.992V216.111C296.451 214.929 295.543 213.736 293.515 213.736Z" fill="#BEC5D9"/>
<path d="M446.362 271.767H314.113C312.709 271.767 311.572 270.671 311.572 269.32C311.572 267.968 312.71 266.873 314.113 266.873H446.362C447.765 266.873 448.903 267.968 448.903 269.32C448.903 270.671 447.765 271.767 446.362 271.767Z" fill="#C1E2EB"/>
<path d="M438.017 283.854H314.113C312.709 283.854 311.572 282.758 311.572 281.407C311.572 280.055 312.71 278.96 314.113 278.96H438.017C439.42 278.96 440.558 280.055 440.558 281.407C440.558 282.758 439.42 283.854 438.017 283.854Z" fill="#C1E2EB"/>
<path d="M268.221 290.054C267.256 290.054 266.472 289.269 266.472 288.304V262.423C266.472 261.691 267.07 260.673 267.659 260.673H293.515C295.219 260.673 295.826 261.577 295.826 262.423V288.304C295.826 289.269 295.042 290.054 294.077 290.054H268.221Z" fill="white"/>
<path d="M293.515 261.298C294.698 261.298 295.202 261.802 295.202 262.423V288.304C295.202 288.925 294.699 289.429 294.078 289.429H268.221C267.6 289.429 267.097 288.925 267.097 288.304V262.423C267.097 261.802 267.6 261.298 267.659 261.298H293.515ZM293.515 260.048H267.659C266.608 260.048 265.848 261.467 265.848 262.423V288.304C265.848 289.614 266.912 290.679 268.221 290.679H294.077C295.386 290.679 296.451 289.614 296.451 288.304V262.423C296.451 261.24 295.543 260.048 293.515 260.048Z" fill="#BEC5D9"/>
<path d="M446.362 318.078H314.113C312.709 318.078 311.572 316.983 311.572 315.631C311.572 314.28 312.709 313.184 314.113 313.184H446.362C447.765 313.184 448.903 314.28 448.903 315.631C448.903 316.983 447.765 318.078 446.362 318.078Z" fill="#C1E2EB"/>
<path d="M438.017 330.165H314.113C312.709 330.165 311.572 329.07 311.572 327.718C311.572 326.367 312.709 325.271 314.113 325.271H438.017C439.42 325.271 440.558 326.366 440.558 327.718C440.558 329.07 439.42 330.165 438.017 330.165Z" fill="#C1E2EB"/>
<path d="M267.721 336.366C267.032 336.366 266.472 335.805 266.472 335.116V308.234C266.472 307.545 267.032 306.984 267.721 306.984H294.577C295.266 306.984 295.826 307.545 295.826 308.234V335.116C295.826 335.805 295.266 336.366 294.577 336.366H267.721Z" fill="white"/>
<path d="M294.577 307.609C294.922 307.609 295.202 307.889 295.202 308.234V335.116C295.202 335.46 294.922 335.741 294.577 335.741H267.721C267.376 335.741 267.097 335.461 267.097 335.116V308.234C267.097 307.889 267.376 307.609 267.721 307.609H294.577V307.609ZM294.577 306.359H267.721C266.688 306.359 265.848 307.2 265.848 308.234V335.116C265.848 336.15 266.688 336.99 267.721 336.99H294.577C295.61 336.99 296.451 336.149 296.451 335.116V308.234C296.45 307.2 295.61 306.359 294.577 306.359Z" fill="#BEC5D9"/>
<path d="M415.214 96.4723H304.365C303.469 96.4723 302.736 95.7388 302.736 94.8425V91.2461C302.736 90.3499 303.469 89.6163 304.365 89.6163H415.214C416.11 89.6163 416.843 90.3499 416.843 91.2461V94.8425C416.843 95.7391 416.11 96.4723 415.214 96.4723Z" fill="#BEC5D9"/>
<path d="M367.133 120.306C362.778 120.306 359.974 120.284 359.911 120.283C359.788 120.284 345.645 120.396 331.266 120.089C301.77 119.461 300.052 117.755 299.319 117.027C298.917 116.629 298.833 116.205 298.833 115.919V98.0558C298.833 96.3068 299.379 94.8782 300.457 93.81C302.34 91.9434 305.151 91.9513 305.276 91.9504L305.255 94.1379C305.239 94.1379 303.21 94.1489 301.985 95.3734C301.335 96.024 301.018 96.9014 301.018 98.0558V115.577C302.011 116.104 306.975 117.391 331.524 117.907C345.796 118.207 359.772 118.097 359.911 118.096C360.069 118.097 374.037 118.207 388.306 117.931C412.683 117.458 417.771 116.257 418.823 115.751V98.0558C418.823 96.9014 418.506 96.024 417.855 95.3734C416.632 94.1507 414.608 94.1379 414.582 94.1379L414.565 91.9504C414.688 91.9528 417.501 91.9434 419.384 93.81C420.462 94.8782 421.008 96.3068 421.008 98.0558V116.13C421.008 116.407 420.927 116.818 420.539 117.203C419.838 117.899 418.197 119.529 388.647 120.112C380.608 120.271 372.634 120.306 367.133 120.306Z" fill="#BEC5D9"/>
<path d="M279.238 239.728C279.225 239.728 279.212 239.728 279.2 239.728C278.648 239.714 278.144 239.411 277.875 238.928L270.492 225.712C270.071 224.958 270.34 224.006 271.092 223.585C271.845 223.164 272.796 223.434 273.217 224.187L279.312 235.097L289.745 218.379C290.201 217.648 291.165 217.425 291.896 217.882C292.627 218.339 292.849 219.303 292.392 220.035L280.562 238.994C280.276 239.451 279.775 239.728 279.238 239.728Z" fill="#FF8681"/>
<path d="M279.238 285.354C279.225 285.354 279.212 285.354 279.2 285.354C278.648 285.34 278.144 285.036 277.875 284.554L270.492 271.338C270.071 270.584 270.34 269.632 271.092 269.211C271.845 268.79 272.796 269.059 273.217 269.813L279.312 280.723L289.745 264.005C290.201 263.273 291.165 263.05 291.896 263.508C292.627 263.965 292.849 264.929 292.392 265.661L280.562 284.619C280.276 285.077 279.775 285.354 279.238 285.354Z" fill="#FF8681"/>
<path d="M278.926 332.412C278.913 332.412 278.9 332.412 278.888 332.412C278.336 332.398 277.832 332.094 277.563 331.612L270.18 318.395C269.759 317.642 270.028 316.69 270.78 316.269C271.534 315.847 272.484 316.117 272.905 316.87L279 327.781L289.433 311.062C289.889 310.331 290.853 310.108 291.584 310.565C292.315 311.022 292.537 311.986 292.081 312.718L280.25 331.677C279.964 332.135 279.463 332.412 278.926 332.412Z" fill="#FF8681"/>
<path d="M309.569 360.153L309.557 360.156C307.786 356.574 304.067 354.108 299.765 354.108C294.549 354.108 290.189 357.735 289.121 362.578C288.052 357.734 283.693 354.108 278.476 354.108C274.174 354.108 270.455 356.574 268.684 360.156L268.672 360.153C260.461 377.106 289.121 393.789 289.121 393.789C289.121 393.789 317.78 377.106 309.569 360.153Z" fill="#FF8681"/>
<path d="M443.275 173.491H268.218C266.814 173.491 265.677 172.396 265.677 171.044C265.677 169.693 266.815 168.597 268.218 168.597H443.275C444.679 168.597 445.816 169.693 445.816 171.044C445.816 172.396 444.678 173.491 443.275 173.491Z" fill="#C1E2EB"/>
<path d="M434.93 185.316H268.218C266.814 185.316 265.677 184.22 265.677 182.869C265.677 181.518 266.815 180.422 268.218 180.422H434.93C436.333 180.422 437.471 181.517 437.471 182.869C437.471 184.22 436.333 185.316 434.93 185.316Z" fill="#C1E2EB"/>
<path d="M409.016 197.141H268.218C266.814 197.141 265.677 196.045 265.677 194.694C265.677 193.343 266.815 192.247 268.218 192.247H409.016C410.42 192.247 411.558 193.342 411.558 194.694C411.558 196.045 410.42 197.141 409.016 197.141Z" fill="#C1E2EB"/>
<path d="M449.06 367.008H327.893C326.49 367.008 325.352 365.913 325.352 364.561C325.352 363.21 326.49 362.115 327.893 362.115H449.06C450.464 362.115 451.601 363.21 451.601 364.561C451.601 365.913 450.463 367.008 449.06 367.008Z" fill="#C1E2EB"/>
<path d="M440.715 378.833H327.894C326.49 378.833 325.352 377.737 325.352 376.386C325.352 375.035 326.49 373.939 327.894 373.939H440.715C442.118 373.939 443.256 375.034 443.256 376.386C443.256 377.737 442.118 378.833 440.715 378.833Z" fill="#C1E2EB"/>
<path d="M414.801 390.658H327.893C326.49 390.658 325.352 389.562 325.352 388.211C325.352 386.86 326.49 385.764 327.893 385.764H414.801C416.205 385.764 417.343 386.859 417.343 388.211C417.343 389.562 416.205 390.658 414.801 390.658Z" fill="#C1E2EB"/>
<g opacity="0.7">
<g opacity="0.7">
<path opacity="0.7" d="M388.419 389.889C373.098 389.889 360.633 377.412 360.633 362.076C360.633 346.74 373.097 334.263 388.419 334.263C403.741 334.263 416.206 346.74 416.206 362.076C416.206 377.412 403.741 389.889 388.419 389.889ZM388.419 336.138C374.13 336.138 362.506 347.774 362.506 362.076C362.506 376.378 374.131 388.014 388.419 388.014C402.708 388.014 414.333 376.378 414.333 362.076C414.333 347.774 402.708 336.138 388.419 336.138Z" fill="#8FD0D6"/>
</g>
<g opacity="0.7">
<path opacity="0.7" d="M388.419 375.826C396.006 375.826 402.156 369.67 402.156 362.076C402.156 354.482 396.006 348.326 388.419 348.326C380.832 348.326 374.682 354.482 374.682 362.076C374.682 369.67 380.832 375.826 388.419 375.826Z" fill="#8FD0D6"/>
</g>
</g>
<path d="M186.641 132.751V132.685C186.626 132.696 186.611 132.707 186.596 132.718C186.581 132.707 186.566 132.696 186.552 132.685V132.751C175.628 141.017 151.288 139.212 151.288 139.337C151.288 209.309 186.552 220.927 186.552 220.927H186.64C186.64 220.927 221.904 209.309 221.904 139.337C221.904 139.212 197.564 141.017 186.641 132.751Z" fill="#FF8681"/>
<path d="M186.596 140.424C193.696 144.899 204.812 145.877 213.162 145.877C213.88 145.877 214.535 145.869 215.109 145.858C214.929 158.705 213.377 170.197 210.489 180.05C208.047 188.385 204.649 195.567 200.392 201.395C194.545 209.399 188.641 212.627 186.597 213.569C184.543 212.623 178.644 209.393 172.801 201.395C168.543 195.567 165.146 188.385 162.703 180.05C159.815 170.197 158.264 158.705 158.084 145.858C158.657 145.869 159.312 145.877 160.03 145.877C168.381 145.876 179.496 144.899 186.596 140.424ZM186.635 137.372C186.622 137.382 186.609 137.391 186.596 137.401C186.583 137.391 186.57 137.382 186.557 137.372V137.43C179.699 142.712 166.818 143.393 160.03 143.393C157.67 143.393 156.047 143.311 155.669 143.311C155.614 143.311 155.585 143.313 155.585 143.317C155.585 205.857 186.557 216.241 186.557 216.241H186.635C186.635 216.241 217.607 205.857 217.607 143.317C217.607 143.313 217.579 143.311 217.523 143.311C217.146 143.311 215.522 143.393 213.162 143.393C206.375 143.393 193.494 142.712 186.635 137.43L186.635 137.372Z" fill="white"/>
<path d="M189.495 183.906L189.473 157.995L183.785 158L183.807 183.911L189.495 183.906Z" fill="white"/>
<path d="M199.541 173.833L199.537 168.139L173.651 168.161L173.655 173.855L199.541 173.833Z" fill="white"/>
<path d="M405.804 228.267C405.804 228.267 399.444 237.048 405.378 251.627C405.838 252.758 414 251.365 414 251.365C414 251.365 413.299 255.657 412.411 258.347C412.079 259.354 411.221 262.074 411.499 263.033C412.538 266.622 431.795 267.884 428.394 260.891C425.476 254.891 425.104 250.091 425.104 250.091C425.104 250.091 424.773 218.774 405.804 228.267Z" fill="#FABCA7"/>
<path d="M442.069 459.597V467.711C442.069 468.728 441.389 469.553 440.55 469.553H417.729V468.532C417.729 467.721 418.263 467.008 419.043 466.788C422.311 465.866 426.579 463.194 430.801 459.377C437.722 453.118 442.069 459.597 442.069 459.597Z" fill="#45484F"/>
<path d="M401.574 459.597V467.711C401.574 468.728 400.894 469.553 400.055 469.553H372.971V468.532C372.971 467.721 373.505 467.008 374.286 466.788C377.554 465.866 386.084 463.194 390.306 459.377C397.228 453.118 401.574 459.597 401.574 459.597Z" fill="#45484F"/>
<path d="M444.269 323.447L442.069 459.598L430.8 459.376L415.678 337.599L417.668 307.903L444.269 323.447Z" fill="#017280"/>
<path d="M422.184 276.454L430.286 264.903C430.286 264.903 449.115 283.076 449.234 287.538C449.45 295.628 420.041 309.157 420.041 309.157C420.041 309.157 414.075 320.976 413.888 323.103C413.7 325.231 411.658 313.486 410.598 309.29C409.948 306.712 405.506 309.989 404.473 309.095C403.441 308.202 412.89 300.913 414.982 301.99C416.426 302.732 437.09 289.968 437.156 288.25C437.237 286.118 422.184 276.454 422.184 276.454Z" fill="#FABCA7"/>
<path d="M432.383 323.822L401.574 459.625H390.014L397.753 323.447L432.383 323.822Z" fill="#018FA1"/>
<path d="M341.083 226.794L342.146 225.31L334.977 219.825L333.914 221.308L341.083 226.794Z" fill="#01AEB3"/>
<path d="M441.685 311.321L449.769 300.041C450.34 299.243 450.178 298.118 449.406 297.527L362.945 231.37L352.791 245.54L439.252 311.696C440.024 312.287 441.113 312.119 441.685 311.321Z" fill="#FFD2D0"/>
<path d="M362.929 231.392L340.973 222.441L338.138 226.397L352.775 245.561L362.929 231.392Z" fill="#FFD2D0"/>
<path d="M387.54 272.129L397.679 257.981L362.929 231.392L352.791 245.54L387.54 272.129Z" fill="#FF8681"/>
<path d="M441.684 311.322L449.753 300.063C450.325 299.265 450.162 298.14 449.39 297.549L439.202 289.753L429.063 303.901L439.252 311.696C440.023 312.287 441.112 312.119 441.684 311.322Z" fill="#FF8681"/>
<path d="M413.719 257.86C413.719 257.86 407.419 256 401.633 273.494C395.847 290.987 397.447 324.601 397.447 324.601H444.25C444.25 324.601 448.075 266.407 426.891 258.57C426.891 258.57 424.588 261.334 420.699 261.12C416.81 260.907 413.719 257.86 413.719 257.86Z" fill="#01ADC1"/>
<path d="M372.922 262.176C373.096 264.817 381.161 284.703 382.86 284.961C384.967 285.283 395.326 271.731 395.326 271.731L405.88 281.091C405.88 281.091 385.718 297.77 381.277 297.386C373.479 296.711 367.829 266.668 366.942 265.027C369.524 263.33 372.922 262.176 372.922 262.176Z" fill="#FABCA7"/>
<path d="M403.029 285.33C403.029 285.33 421.105 270.089 414.752 264.276C408.398 258.463 392.788 273.556 392.788 273.556C392.788 273.556 398.159 282.545 403.029 285.33Z" fill="#8FD0D6"/>
<path d="M402.102 218.628C402.534 222.052 403.577 227.243 405.955 228.246C405.966 228.25 405.971 228.253 405.982 228.249C406.306 228.135 414.337 225.399 419.399 234.013C424.29 242.334 424.047 249.559 424.047 249.559C424.519 248.55 434.705 246.719 434.705 233.701C434.705 229.719 431.141 228.785 430.655 228.084C430.121 227.313 430.459 224.4 429.732 223.533C425.281 218.225 414.386 220.119 411.118 217.204C408.717 215.062 401.527 214.075 402.102 218.628Z" fill="#45484F"/>
<path d="M419.505 235.745C419.555 235.45 419.753 235.205 420.032 235.098C420.998 234.727 423.234 234.155 423.899 236.462C424.63 238.997 421.765 241.056 419.626 241.202C419.088 241.239 418.664 240.746 418.754 240.214L419.505 235.745Z" fill="#FABCA7"/>
<path d="M367.587 256.874C369.398 257.909 367.93 252.849 368.791 252.211C369.297 251.837 370.637 255.195 372.313 257.802C373.484 259.625 372.892 261.967 372.922 262.176C371.393 263.842 369.007 264.101 366.911 265.027C366.809 264.583 366.943 263.913 365.822 263.493C365.12 263.231 363.397 262.361 363.054 261.694C361.863 259.384 361.971 254.699 361.949 252.224C361.946 251.888 364.743 255.249 367.587 256.874Z" fill="#FABCA7"/>
<path d="M164.884 455.254L157.563 455.843C156.257 455.948 155.113 454.974 155.008 453.666C154.903 452.359 155.876 451.214 157.183 451.109L164.503 450.519L164.884 455.254Z" fill="#C8D0D7"/>
<path d="M265.18 432.757C258.355 433.375 251.63 434.38 244.962 435.612C227.267 438.884 209.969 443.761 192.242 447.286C188.804 447.969 164.279 450.559 164.279 450.559L164.657 455.251C164.657 455.251 189.28 453.883 192.782 454.007C217.006 454.867 241.081 458.315 265.31 456.797C273.178 456.303 281.232 455.592 288.865 453.477L287.173 432.428C279.897 431.611 272.427 432.101 265.18 432.757Z" fill="#E2E8EB"/>
<path d="M289.874 432.791C288.978 432.647 288.077 432.529 287.173 432.428L288.865 453.477C289.378 453.335 289.889 453.187 290.399 453.032C295.387 451.512 302.801 448.574 302.684 442.249C302.681 442.092 302.673 441.933 302.661 441.776C302.147 435.593 294.949 433.606 289.874 432.791Z" fill="#FF8681"/>
<path d="M223.061 455.888C212.978 455.175 202.893 454.367 192.782 454.008C189.278 453.882 164.657 455.251 164.657 455.251L164.279 450.56C164.279 450.56 188.805 447.969 192.242 447.286C202.076 445.331 211.776 442.961 221.487 440.679C218.321 443.155 216.613 445.873 216.833 448.608C217.06 451.435 219.32 453.917 223.061 455.888Z" fill="#FF8681"/>
<path d="M259.724 450.23L240.302 451.794C239.632 451.848 239.045 451.348 238.991 450.677L238.389 443.187C238.335 442.516 238.834 441.928 239.505 441.874L258.926 440.31C259.597 440.256 260.184 440.756 260.238 441.427L260.84 448.918C260.894 449.589 260.394 450.176 259.724 450.23Z" fill="#BEC5D9"/>
<g opacity="0.2">
<g opacity="0.2">
<path opacity="0.2" d="M258.411 441.259L238.363 442.873C238.323 442.376 238.694 441.939 239.191 441.899L259.239 440.285C259.736 440.245 260.172 440.616 260.213 441.114L260.865 449.231C260.905 449.729 260.534 450.165 260.037 450.206L259.384 442.089C259.344 441.59 258.908 441.219 258.411 441.259Z" fill="#3D4652"/>
</g>
</g>
<path d="M274.843 450.467C278.4 450.467 281.283 447.581 281.283 444.02C281.283 440.46 278.4 437.574 274.843 437.574C271.286 437.574 268.402 440.46 268.402 444.02C268.402 447.581 271.286 450.467 274.843 450.467Z" fill="#FF8681"/>
<path d="M272.644 441.383C272.632 441.23 272.697 441.075 272.83 440.979C273.38 440.581 274.031 440.342 274.712 440.287C276.761 440.122 278.563 441.656 278.728 443.707C278.893 445.759 277.359 447.562 275.31 447.727C274.631 447.781 273.951 447.65 273.344 447.346C273.121 447.234 273.03 446.963 273.142 446.739C273.254 446.515 273.526 446.425 273.749 446.537C274.208 446.767 274.723 446.866 275.237 446.825C276.79 446.7 277.951 445.334 277.827 443.78C277.702 442.226 276.337 441.063 274.784 441.188C274.269 441.23 273.776 441.411 273.358 441.713C273.156 441.859 272.874 441.813 272.728 441.611C272.678 441.541 272.65 441.463 272.644 441.383Z" fill="white"/>
<path d="M270.957 444.334C270.937 444.085 271.122 443.866 271.371 443.846L274.862 443.565C275.111 443.545 275.329 443.73 275.349 443.98C275.369 444.229 275.184 444.447 274.935 444.467L271.444 444.748C271.195 444.768 270.977 444.582 270.957 444.334Z" fill="white"/>
<g opacity="0.6">
<path opacity="0.6" d="M293.963 437.909C293.776 438.609 294.749 439.478 296.137 439.851C297.525 440.224 298.802 439.959 298.99 439.259C299.178 438.559 298.204 437.69 296.816 437.317C295.428 436.944 294.151 437.209 293.963 437.909Z" fill="white"/>
</g>
</g>
<defs>
<clipPath id="clip0">
<rect width="716" height="479" fill="white"/>
</clipPath>
</defs>
</svg>
