<svg width="320" height="942" viewBox="0 0 320 942" fill="none" xmlns="http://www.w3.org/2000/svg">
<g opacity="0.5" filter="url(#filter0_d)">
<path d="M-16 -34L486 -34V843.462C486 843.462 431.235 900.314 363.12 900.314C295.006 900.314 261.323 871.892 210.424 871.892C159.525 871.892 135.573 922.753 75.6922 922.753C15.8114 922.753 -16 885 -16 885V-34Z" fill="url(#paint0_linear)"/>
<path d="M-16 -36L-18 -36V-34V885V885.73L-17.5294 886.289L-16 885C-17.5294 886.289 -17.5287 886.29 -17.5279 886.291L-17.5256 886.293L-17.5189 886.301L-17.4967 886.327C-17.478 886.349 -17.4514 886.38 -17.4171 886.42C-17.3485 886.499 -17.2488 886.612 -17.118 886.758C-16.8565 887.05 -16.4708 887.472 -15.9619 888.004C-14.944 889.069 -13.4325 890.578 -11.4345 892.383C-7.43936 895.992 -1.49303 900.789 6.34758 905.583C22.0338 915.173 45.3135 924.753 75.6922 924.753C106.262 924.753 127.651 911.734 147.506 899.006C148.268 898.518 149.027 898.03 149.784 897.544C168.85 885.298 186.608 873.892 210.424 873.892C233.711 873.892 253.336 879.916 274.726 886.482C276.383 886.991 278.052 887.503 279.733 888.016C303.081 895.137 328.76 902.314 363.12 902.314C397.716 902.314 428.817 887.887 451.181 873.573C462.379 866.405 471.429 859.239 477.683 853.862C480.81 851.173 483.241 848.929 484.894 847.353C485.72 846.565 486.353 845.944 486.78 845.517C486.994 845.304 487.157 845.14 487.267 845.027C487.323 844.971 487.365 844.928 487.394 844.898L487.427 844.864L487.436 844.854L487.439 844.851C487.44 844.851 487.44 844.85 486 843.462L487.44 844.85L488 844.269V843.462V-34V-36L486 -36L-16 -36Z" stroke="#D7E6F6" stroke-width="4"/>
</g>
<defs>
<filter id="filter0_d" x="-25" y="-43" width="530" height="984.753" filterUnits="userSpaceOnUse" color-interpolation-filters="sRGB">
<feFlood flood-opacity="0" result="BackgroundImageFix"/>
<feColorMatrix in="SourceAlpha" type="matrix" values="0 0 0 0 0 0 0 0 0 0 0 0 0 0 0 0 0 0 127 0"/>
<feOffset dx="5" dy="5"/>
<feGaussianBlur stdDeviation="5"/>
<feColorMatrix type="matrix" values="0 0 0 0 0.670938 0 0 0 0 0.777973 0 0 0 0 0.879062 0 0 0 1 0"/>
<feBlend mode="normal" in2="BackgroundImageFix" result="effect1_dropShadow"/>
<feBlend mode="normal" in="SourceGraphic" in2="effect1_dropShadow" result="shape"/>
</filter>
<linearGradient id="paint0_linear" x1="-16" y1="531" x2="480.562" y2="824.328" gradientUnits="userSpaceOnUse">
<stop stop-color="#F5F4E3"/>
<stop offset="1" stop-color="#8CBBE6"/>
</linearGradient>
</defs>
</svg>
