<svg width="737" height="726" viewBox="0 0 737 726" fill="none" xmlns="http://www.w3.org/2000/svg">
<path opacity="0.39" d="M374.62 639.425C488.733 639.425 581.24 635.48 581.24 630.614C581.24 625.748 488.733 621.803 374.62 621.803C260.507 621.803 168 625.748 168 630.614C168 635.48 260.507 639.425 374.62 639.425Z" fill="#7090DD"/>
<path d="M413.362 475.485C413.362 475.485 447.428 508.289 417.568 512.915C387.708 517.541 413.362 475.485 413.362 475.485Z" fill="#EDEDED"/>
<path d="M363.853 318.406C358.842 318.406 354.779 314.344 354.779 309.332C354.779 304.321 358.842 300.258 363.853 300.258C368.865 300.258 372.927 304.321 372.927 309.332C372.927 314.344 368.865 318.406 363.853 318.406Z" fill="#1D1D1B"/>
<path d="M355.865 331.625C350.854 331.625 346.791 327.562 346.791 322.551C346.791 317.54 350.854 313.477 355.865 313.477C360.877 313.477 364.939 317.54 364.939 322.551C364.939 327.562 360.877 331.625 355.865 331.625Z" fill="#1D1D1B"/>
<path d="M352.78 342.322C347.769 342.322 343.706 338.26 343.706 333.248C343.706 328.237 347.769 324.174 352.78 324.174C357.792 324.174 361.854 328.237 361.854 333.248C361.854 338.26 357.792 342.322 352.78 342.322Z" fill="#1D1D1B"/>
<path d="M397.551 369.959C392.54 369.959 388.477 365.896 388.477 360.885C388.477 355.874 392.54 351.811 397.551 351.811C402.563 351.811 406.625 355.874 406.625 360.885C406.625 365.896 402.563 369.959 397.551 369.959Z" fill="#1D1D1B"/>
<path d="M348.419 338.314C347.273 348.855 348.454 358.72 363.102 368.169C363.102 368.169 369.946 377.488 365.896 388.259C361.846 399.03 392.425 402.806 390.174 386.769C387.923 370.732 398.178 354.16 405.217 344.938C412.256 335.717 413.144 314.352 401.499 305.598C396.922 302.158 384.326 301.504 375.666 304.244C360.974 308.893 350.084 322.995 348.419 338.314Z" fill="#FFCB9C"/>
<path d="M361.484 321.803C362.302 322.043 362.685 323.193 362.339 324.372C361.993 325.55 361.05 326.311 360.231 326.071C359.413 325.831 359.03 324.681 359.376 323.502C359.722 322.324 360.666 321.563 361.484 321.803Z" fill="black"/>
<path d="M380.29 323.268C381.108 323.508 381.492 324.658 381.146 325.836C380.801 327.014 379.857 327.774 379.039 327.534C378.22 327.294 377.837 326.145 378.183 324.966C378.528 323.788 379.472 323.028 380.29 323.268Z" fill="black"/>
<path d="M375.505 309.858C370.494 309.858 366.431 305.796 366.431 300.784C366.431 295.773 370.494 291.71 375.505 291.71C380.517 291.71 384.579 295.773 384.579 300.784C384.579 305.796 380.517 309.858 375.505 309.858Z" fill="#1D1D1B"/>
<path d="M368.131 303.856C363.12 303.856 359.057 299.793 359.057 294.782C359.057 289.771 363.12 285.708 368.131 285.708C373.143 285.708 377.205 289.771 377.205 294.782C377.205 299.793 373.143 303.856 368.131 303.856Z" fill="#1D1D1B"/>
<path d="M385.252 320.459C380.241 320.459 376.178 316.396 376.178 311.385C376.178 306.374 380.241 302.311 385.252 302.311C390.264 302.311 394.326 306.374 394.326 311.385C394.326 316.396 390.264 320.459 385.252 320.459Z" fill="#1D1D1B"/>
<path d="M392.367 306.818C387.356 306.818 383.293 302.756 383.293 297.744C383.293 292.733 387.356 288.67 392.367 288.67C397.379 288.67 401.441 292.733 401.441 297.744C401.441 302.756 397.379 306.818 392.367 306.818Z" fill="#1D1D1B"/>
<path d="M399.295 320.833C394.284 320.833 390.221 316.77 390.221 311.759C390.221 306.748 394.284 302.685 399.295 302.685C404.307 302.685 408.369 306.748 408.369 311.759C408.369 316.77 404.307 320.833 399.295 320.833Z" fill="#1D1D1B"/>
<path d="M407.114 316.576C402.102 316.576 398.04 312.514 398.04 307.502C398.04 302.491 402.102 298.428 407.114 298.428C412.125 298.428 416.188 302.491 416.188 307.502C416.188 312.514 412.125 316.576 407.114 316.576Z" fill="#1D1D1B"/>
<path d="M411.2 330.815C406.189 330.815 402.126 326.752 402.126 321.741C402.126 316.73 406.189 312.667 411.2 312.667C416.212 312.667 420.274 316.73 420.274 321.741C420.274 326.752 416.212 330.815 411.2 330.815Z" fill="#1D1D1B"/>
<path d="M403.689 334.305C398.678 334.305 394.615 330.243 394.615 325.231C394.615 320.22 398.678 316.157 403.689 316.157C408.701 316.157 412.763 320.22 412.763 325.231C412.763 330.243 408.701 334.305 403.689 334.305Z" fill="#1D1D1B"/>
<path d="M394.443 328.666C389.432 328.666 385.369 324.603 385.369 319.592C385.369 314.581 389.432 310.518 394.443 310.518C399.455 310.518 403.517 314.581 403.517 319.592C403.517 324.603 399.455 328.666 394.443 328.666Z" fill="#1D1D1B"/>
<path d="M411.759 343.536C406.747 343.536 402.685 339.474 402.685 334.462C402.685 329.451 406.747 325.388 411.759 325.388C416.77 325.388 420.833 329.451 420.833 334.462C420.833 339.474 416.77 343.536 411.759 343.536Z" fill="#1D1D1B"/>
<path d="M400.789 346.539C395.778 346.539 391.715 342.477 391.715 337.465C391.715 332.454 395.778 328.391 400.789 328.391C405.801 328.391 409.863 332.454 409.863 337.465C409.863 342.477 405.801 346.539 400.789 346.539Z" fill="#1D1D1B"/>
<path d="M403.392 355.323C398.381 355.323 394.318 351.261 394.318 346.249C394.318 341.238 398.381 337.175 403.392 337.175C408.404 337.175 412.466 341.238 412.466 346.249C412.466 351.261 408.404 355.323 403.392 355.323Z" fill="#1D1D1B"/>
<path d="M411.298 365.682C406.287 365.682 402.224 361.62 402.224 356.608C402.224 351.597 406.287 347.534 411.298 347.534C416.31 347.534 420.372 351.597 420.372 356.608C420.372 361.62 416.31 365.682 411.298 365.682Z" fill="#1D1D1B"/>
<path d="M415.15 356.03C410.139 356.03 406.076 351.968 406.076 346.956C406.076 341.945 410.139 337.882 415.15 337.882C420.162 337.882 424.224 341.945 424.224 346.956C424.224 351.968 420.162 356.03 415.15 356.03Z" fill="#1D1D1B"/>
<path d="M421.432 343.775C416.421 343.775 412.358 339.713 412.358 334.701C412.358 329.69 416.421 325.627 421.432 325.627C426.444 325.627 430.506 329.69 430.506 334.701C430.506 339.713 426.444 343.775 421.432 343.775Z" fill="#1D1D1B"/>
<path d="M421.428 329.666C416.417 329.666 412.354 325.603 412.354 320.592C412.354 315.581 416.417 311.518 421.428 311.518C426.44 311.518 430.502 315.581 430.502 320.592C430.502 325.603 426.44 329.666 421.428 329.666Z" fill="#1D1D1B"/>
<path d="M416.873 316.599C411.862 316.599 407.799 312.537 407.799 307.525C407.799 302.514 411.862 298.451 416.873 298.451C421.885 298.451 425.947 302.514 425.947 307.525C425.947 312.537 421.885 316.599 416.873 316.599Z" fill="#1D1D1B"/>
<path d="M404.125 304.406C399.114 304.406 395.051 300.344 395.051 295.332C395.051 290.321 399.114 286.258 404.125 286.258C409.137 286.258 413.199 290.321 413.199 295.332C413.199 300.344 409.137 304.406 404.125 304.406Z" fill="#1D1D1B"/>
<path d="M382.912 297.148C377.901 297.148 373.838 293.085 373.838 288.074C373.838 283.063 377.901 279 382.912 279C387.924 279 391.986 283.063 391.986 288.074C391.986 293.085 387.924 297.148 382.912 297.148Z" fill="#1D1D1B"/>
<path d="M390.304 300.098C385.293 300.098 381.23 296.036 381.23 291.024C381.23 286.013 385.293 281.95 390.304 281.95C395.316 281.95 399.378 286.013 399.378 291.024C399.378 296.036 395.316 300.098 390.304 300.098Z" fill="#1D1D1B"/>
<path d="M369.784 315.733L360.882 336.926L372.512 337.406L369.784 315.733Z" fill="#F96767"/>
<path opacity="0.54" d="M381.66 338.781C377.979 338.483 375.107 336.85 375.246 335.135C375.385 333.419 378.482 332.269 382.163 332.567C385.844 332.865 388.715 334.498 388.576 336.214C388.437 337.929 385.34 339.079 381.66 338.781Z" fill="#FF6252"/>
<path opacity="0.54" d="M354.68 339.359C351.74 339.121 349.469 337.537 349.608 335.822C349.747 334.106 352.243 332.908 355.183 333.146C358.123 333.384 360.394 334.968 360.255 336.683C360.116 338.399 357.62 339.597 354.68 339.359Z" fill="#FF6252"/>
<path d="M344.045 604.456L342.164 616.843L349.509 618.61L354.495 605.436L344.045 604.456Z" fill="white"/>
<path d="M350.616 615.749C350.616 615.749 355.085 620.923 353.308 625.477C351.531 630.03 319.301 626.651 319.301 626.651C319.301 626.651 318.125 625.921 320.207 625.046L335.242 619.51C335.242 619.51 341.594 616.084 344.875 616.613C347.61 617.054 350.616 615.749 350.616 615.749Z" fill="black"/>
<path d="M414.049 604.825L415.703 617.244L408.327 618.876L403.583 605.612L414.049 604.825Z" fill="white"/>
<path d="M407.188 615.749C407.188 615.749 402.719 620.923 404.497 625.477C406.274 630.03 438.504 626.651 438.504 626.651C438.504 626.651 439.68 625.921 437.598 625.046L422.563 619.51C422.563 619.51 416.211 616.084 412.93 616.613C410.193 617.054 407.188 615.749 407.188 615.749Z" fill="black"/>
<path d="M321.597 479.243C321.597 479.243 321.506 562.126 340.975 606.779H355.684L374.668 523.136C375.191 521.205 377.903 521.127 378.535 523.025L402.14 606.779H417.146C417.146 606.779 430.159 548.487 421.856 479.243C413.553 409.999 321.597 479.243 321.597 479.243Z" fill="#1B364F"/>
<path opacity="0.08" d="M424.106 506.158C424.106 506.158 401.449 497.974 399.553 522.15C397.657 546.326 410.693 557.465 411.167 569.316C411.641 581.167 417.871 577.853 417.871 577.853C417.871 577.853 426.843 530.553 424.106 506.158Z" fill="white"/>
<path opacity="0.08" d="M322.51 507.055C322.51 507.055 344.486 496.641 346.382 520.816C348.278 544.991 342.155 556.131 341.681 567.982C341.207 579.833 334.977 576.519 334.977 576.519C334.977 576.519 321.672 546.653 322.51 507.055Z" fill="white"/>
<path d="M429.5 505.199C429.5 505.199 421.083 480.762 381.441 493.252C341.799 505.742 312.919 488.732 312.919 488.732C312.919 488.732 284.05 400.245 363.334 356.032C363.334 356.032 483.748 377.802 429.5 505.199Z" fill="#F6F6F6"/>
<path d="M312.956 356.379L442.336 362.921L436.316 481.962L306.937 475.42L312.956 356.379Z" fill="#F96767"/>
<path d="M366.648 387.991L387.017 389.021L382.455 479.239L362.086 478.209L366.648 387.991Z" fill="white"/>
<path d="M439.108 426.68L438.078 447.049L308.699 440.507L309.729 420.138L439.108 426.68Z" fill="white"/>
<path d="M369.587 356.643C369.587 356.643 388.723 328.713 413.937 325.365C439.151 322.016 445.088 356.994 417.626 359.073L369.587 356.643Z" fill="white"/>
<path d="M386.031 357.475C386.031 357.475 369.81 327.757 345.063 321.882C320.315 316.007 310.88 350.207 337.991 355.046L386.031 357.475Z" fill="white"/>
<path d="M375.166 366.462C379.579 366.685 383.371 363.258 383.594 358.845L384.444 342.031C384.667 337.618 381.24 333.826 376.827 333.603C372.414 333.38 368.622 336.807 368.399 341.22L367.549 358.034C367.326 362.446 370.753 366.238 375.166 366.462Z" fill="white"/>
<path d="M368.505 351.098C368.505 351.098 340.635 340.297 332.34 341.467C324.045 342.637 328.343 349.067 333.388 349.322C338.432 349.577 368.505 351.098 368.505 351.098Z" fill="#EDEDED"/>
<path d="M380.577 351.708C380.577 351.708 409.394 343.774 417.529 345.774C425.664 347.775 420.738 353.739 415.694 353.484C410.65 353.229 380.577 351.708 380.577 351.708Z" fill="#EDEDED"/>
<path d="M458.047 400.925C458.047 400.925 467.417 427.087 451.712 447.483C440.099 462.564 408.455 456.401 391.835 416.497L400.04 411.051C400.04 411.051 412.98 429.972 422.463 433.332C435.393 437.913 441.318 427.508 441.734 421.06C441.944 417.801 440.283 408.091 439.99 407.076L458.047 400.925Z" fill="#FFCB9C"/>
<path d="M441.565 373.143C441.565 373.143 454.76 385.204 459.875 408.369L439.457 419.715L441.565 373.143Z" fill="#F6F6F6"/>
<path d="M292.337 400.588C292.337 400.588 282.798 426.692 298.503 447.088C310.116 462.169 341.76 456.006 358.38 416.102L350.175 410.656C350.175 410.656 337.235 429.577 327.752 432.937C314.822 437.518 308.897 427.113 308.481 420.665C308.271 417.406 309.932 407.696 310.225 406.681L292.337 400.588Z" fill="#FFCB9C"/>
<path d="M312.329 368.595C312.329 368.595 298.652 380.219 291.502 403.35L310.05 413.657L312.329 368.595Z" fill="#F6F6F6"/>
<path d="M396.75 405.606C396.75 405.606 386.863 386.345 385.332 385.112C383.802 383.879 382.277 385.752 384.149 388.969C386.02 392.185 388.475 398.7 388.475 398.7C388.475 398.7 381.071 386.936 379.767 386.753C378.463 386.57 377.352 388.036 378.91 390.009C380.468 391.983 385.451 400.925 385.451 400.925C385.451 400.925 379.7 394.426 377.767 393.074C375.835 391.722 376.414 395.033 378.001 396.767C379.588 398.502 383.887 404.725 383.887 404.725C383.887 404.725 378.352 400.965 377.017 400.966C375.682 400.966 375.889 402.061 376.629 402.799C377.369 403.537 385.268 408.715 385.268 408.715C385.268 408.715 388.968 416.837 394.671 417.953C400.374 419.069 401.981 416.033 401.854 415.107C401.727 414.181 400.2 399.487 399.043 397.24C397.885 394.994 396.017 395.782 396.918 399.803C397.819 403.824 397.978 406.056 396.75 405.606Z" fill="#FFCB9C"/>
<path d="M354.278 405.606C354.278 405.606 364.165 386.345 365.696 385.112C367.226 383.879 368.751 385.752 366.879 388.969C365.008 392.185 362.553 398.7 362.553 398.7C362.553 398.7 369.957 386.936 371.261 386.753C372.565 386.57 373.676 388.036 372.118 390.009C370.56 391.983 365.577 400.925 365.577 400.925C365.577 400.925 371.328 394.426 373.261 393.074C375.193 391.722 374.614 395.033 373.027 396.767C371.44 398.502 367.141 404.725 367.141 404.725C367.141 404.725 372.676 400.965 374.011 400.966C375.346 400.966 375.139 402.061 374.399 402.799C373.659 403.537 365.76 408.715 365.76 408.715C365.76 408.715 362.06 416.837 356.357 417.953C350.654 419.069 349.047 416.033 349.174 415.107C349.301 414.181 350.828 399.487 351.985 397.24C353.143 394.994 355.011 395.782 354.11 399.803C353.21 403.824 353.05 406.056 354.278 405.606Z" fill="#FFCB9C"/>
<path opacity="0.5" d="M440.872 391.747L310.814 398.559L311.49 385.203L440.872 391.747Z" fill="#A42821"/>
<path d="M310.435 348.16L446.48 355.04L444.615 391.934L308.569 385.054L310.435 348.16Z" fill="#F96767"/>
<path d="M268.086 533.425C268.88 534.673 269.561 536.375 270.128 538.531C270.809 540.574 271.149 542.73 271.149 544.999C271.149 549.425 270.185 552.602 268.256 554.531C266.44 556.347 263.944 557.255 260.766 557.255H225.022V576.489H262.298C263.206 577.737 263.944 579.382 264.511 581.425C265.192 583.467 265.532 585.623 265.532 587.893C265.532 592.205 264.568 595.326 262.639 597.255C260.823 599.07 258.327 599.978 255.149 599.978H225.362V635.893C224.114 636.233 222.128 636.574 219.405 636.914C216.795 637.255 214.185 637.425 211.575 637.425C208.965 637.425 206.639 637.198 204.596 636.744C202.667 636.404 201.022 635.723 199.66 634.701C198.298 633.68 197.277 632.262 196.596 630.446C195.915 628.63 195.575 626.247 195.575 623.297V549.255C195.575 544.375 196.993 540.517 199.83 537.68C202.667 534.843 206.525 533.425 211.405 533.425H268.086ZM315.617 603.212V635.893C314.369 636.233 312.383 636.574 309.66 636.914C307.05 637.255 304.44 637.425 301.83 637.425C299.22 637.425 296.894 637.198 294.852 636.744C292.922 636.404 291.277 635.723 289.915 634.701C288.667 633.68 287.703 632.262 287.022 630.446C286.341 628.63 286 626.247 286 623.297V543.127C286 540.744 286.625 538.928 287.873 537.68C289.235 536.319 291.05 535.24 293.32 534.446C297.178 533.084 301.66 532.12 306.766 531.553C311.873 530.872 317.32 530.531 323.107 530.531C338.766 530.531 350.568 533.822 358.511 540.404C366.454 546.985 370.426 555.893 370.426 567.127C370.426 574.162 368.61 580.177 364.979 585.17C361.348 590.162 357.036 594.021 352.043 596.744C356.128 602.304 360.156 607.524 364.128 612.404C368.1 617.283 371.22 621.708 373.49 625.68C372.355 629.652 370.256 632.716 367.192 634.872C364.242 636.914 360.894 637.935 357.149 637.935C354.653 637.935 352.497 637.652 350.681 637.084C348.866 636.517 347.277 635.723 345.915 634.701C344.554 633.68 343.305 632.432 342.171 630.957C341.036 629.482 339.958 627.893 338.937 626.191L324.639 603.212H315.617ZM326.341 580.574C330.653 580.574 334.057 579.496 336.554 577.34C339.05 575.07 340.298 571.779 340.298 567.467C340.298 563.155 338.88 559.921 336.043 557.765C333.32 555.496 328.951 554.361 322.937 554.361C321.235 554.361 319.873 554.418 318.852 554.531C317.83 554.645 316.696 554.815 315.447 555.042V580.574H326.341ZM389.724 549.255C389.724 544.375 391.142 540.517 393.979 537.68C396.816 534.843 400.674 533.425 405.554 533.425H461.724C462.518 534.673 463.199 536.319 463.766 538.361C464.447 540.404 464.788 542.56 464.788 544.829C464.788 549.141 463.823 552.205 461.894 554.021C460.078 555.836 457.639 556.744 454.575 556.744H418.66V572.574H456.958C457.752 573.822 458.433 575.467 459 577.51C459.681 579.439 460.022 581.538 460.022 583.808C460.022 588.12 459.114 591.184 457.298 592.999C455.483 594.815 453.043 595.723 449.979 595.723H418.66V613.595H462.405C463.199 614.843 463.88 616.489 464.447 618.531C465.128 620.574 465.468 622.73 465.468 624.999C465.468 629.311 464.504 632.432 462.575 634.361C460.759 636.177 458.319 637.084 455.256 637.084H405.554C400.674 637.084 396.816 635.666 393.979 632.829C391.142 629.992 389.724 626.134 389.724 621.255V549.255ZM482.975 549.255C482.975 544.375 484.393 540.517 487.23 537.68C490.067 534.843 493.925 533.425 498.805 533.425H554.975C555.769 534.673 556.45 536.319 557.018 538.361C557.698 540.404 558.039 542.56 558.039 544.829C558.039 549.141 557.074 552.205 555.145 554.021C553.33 555.836 550.89 556.744 547.826 556.744H511.911V572.574H550.209C551.003 573.822 551.684 575.467 552.252 577.51C552.932 579.439 553.273 581.538 553.273 583.808C553.273 588.12 552.365 591.184 550.549 592.999C548.734 594.815 546.294 595.723 543.23 595.723H511.911V613.595H555.656C556.45 614.843 557.131 616.489 557.698 618.531C558.379 620.574 558.72 622.73 558.72 624.999C558.72 629.311 557.755 632.432 555.826 634.361C554.01 636.177 551.571 637.084 548.507 637.084H498.805C493.925 637.084 490.067 635.666 487.23 632.829C484.393 629.992 482.975 626.134 482.975 621.255V549.255Z" fill="#FAFAFA"/>
<path d="M559.439 628.592C559.439 628.592 557.56 624.703 552.413 625.206C547.265 625.709 548.612 621.066 542.846 620.313C537.08 619.56 536.037 621.265 529.024 615.374C522.011 609.483 516.186 620.004 510.968 615.64C505.75 611.276 502.012 604.246 493.175 606.97C484.338 609.694 488.061 616.651 482.826 619.274C477.591 621.897 472.136 622.747 469.925 628.728L559.439 628.592Z" fill="#FCE6A3"/>
<path d="M196.113 628.592C196.113 628.592 197.992 624.703 203.139 625.206C208.286 625.709 206.94 621.066 212.706 620.313C218.472 619.56 219.515 621.265 226.528 615.374C233.541 609.483 239.366 620.004 244.584 615.64C249.802 611.276 253.54 604.246 262.377 606.97C271.214 609.694 267.491 616.651 272.726 619.274C277.961 621.897 283.416 622.747 285.627 628.728L196.113 628.592Z" fill="#FCE6A3"/>
<g opacity="0.7">
<path opacity="0.4" d="M595.296 415.501C596.444 414.283 597.14 412.71 597.14 410.99C597.14 407.13 593.655 404.001 589.355 404.001C585.056 404.001 581.57 407.13 581.57 410.99C581.57 411.149 581.585 411.304 581.596 411.46L581.543 411.467C581.555 411.308 581.57 411.151 581.57 410.989C581.57 407.129 578.085 404 573.785 404C569.486 404 566 407.129 566 410.989C566 413.072 567.021 414.937 568.631 416.217L581.57 428.003L594.555 416.179C594.795 415.985 595.022 415.78 595.233 415.561L595.298 415.502L595.296 415.501Z" fill="white"/>
<path opacity="0.4" d="M734.296 326.501C735.444 325.283 736.14 323.71 736.14 321.99C736.14 318.13 732.655 315.001 728.355 315.001C724.056 315.001 720.57 318.13 720.57 321.99C720.57 322.149 720.585 322.304 720.596 322.46L720.543 322.467C720.555 322.308 720.57 322.151 720.57 321.989C720.57 318.129 717.085 315 712.785 315C708.486 315 705 318.129 705 321.989C705 324.072 706.021 325.937 707.631 327.217L720.57 339.003L733.555 327.179C733.795 326.985 734.022 326.78 734.233 326.561L734.298 326.502L734.296 326.501Z" fill="white"/>
<path opacity="0.4" d="M332.821 234.557C333.775 233.545 334.353 232.238 334.353 230.808C334.353 227.6 331.457 225 327.884 225C324.311 225 321.415 227.6 321.415 230.808C321.415 230.94 321.427 231.069 321.437 231.199L321.393 231.205C321.403 231.073 321.415 230.942 321.415 230.808C321.415 227.6 318.519 225 314.946 225C311.373 225 308.477 227.6 308.477 230.808C308.477 232.539 309.325 234.089 310.663 235.153L321.415 244.948L332.206 235.122C332.405 234.961 332.594 234.79 332.77 234.609L332.824 234.56L332.821 234.557Z" fill="white"/>
<path opacity="0.4" d="M24.344 179.557C25.298 178.545 25.876 177.238 25.876 175.808C25.876 172.6 22.98 170 19.407 170C15.834 170 12.938 172.6 12.938 175.808C12.938 175.94 12.95 176.069 12.96 176.199L12.916 176.205C12.926 176.073 12.938 175.942 12.938 175.808C12.938 172.6 10.042 170 6.46901 170C2.89601 170 0 172.6 0 175.808C0 177.539 0.848005 179.089 2.186 180.153L12.938 189.948L23.729 180.122C23.928 179.961 24.117 179.79 24.293 179.609L24.347 179.56L24.344 179.557Z" fill="white"/>
<path opacity="0.4" d="M672.344 69.557C673.298 68.545 673.876 67.238 673.876 65.808C673.876 62.6 670.98 60 667.407 60C663.834 60 660.938 62.6 660.938 65.808C660.938 65.94 660.95 66.069 660.96 66.199L660.916 66.205C660.926 66.073 660.938 65.942 660.938 65.808C660.938 62.6 658.042 60 654.469 60C650.896 60 648 62.6 648 65.808C648 67.539 648.848 69.089 650.186 70.153L660.938 79.948L671.729 70.122C671.928 69.961 672.117 69.79 672.293 69.609L672.347 69.56L672.344 69.557Z" fill="white"/>
<path opacity="0.4" d="M195.519 434.634C196.473 433.622 197.051 432.315 197.051 430.885C197.051 427.677 194.155 425.077 190.582 425.077C187.009 425.077 184.113 427.677 184.113 430.885C184.113 431.017 184.125 431.146 184.135 431.276L184.091 431.282C184.101 431.15 184.113 431.019 184.113 430.885C184.113 427.677 181.217 425.077 177.644 425.077C174.071 425.077 171.175 427.677 171.175 430.885C171.175 432.616 172.023 434.166 173.361 435.229L184.113 445.024L194.904 435.198C195.103 435.037 195.292 434.867 195.468 434.685L195.522 434.636L195.519 434.634Z" fill="white"/>
<path opacity="0.4" d="M508.344 339.557C509.298 338.545 509.876 337.238 509.876 335.808C509.876 332.6 506.98 330 503.407 330C499.834 330 496.938 332.6 496.938 335.808C496.938 335.94 496.95 336.069 496.96 336.199L496.916 336.205C496.926 336.073 496.938 335.942 496.938 335.808C496.938 332.6 494.042 330 490.469 330C486.896 330 484 332.6 484 335.808C484 337.539 484.848 339.089 486.186 340.152L496.938 349.947L507.729 340.121C507.928 339.96 508.117 339.79 508.293 339.608L508.347 339.559L508.344 339.557Z" fill="white"/>
<path opacity="0.4" d="M107.344 324.557C108.298 323.545 108.876 322.238 108.876 320.808C108.876 317.6 105.98 315 102.407 315C98.834 315 95.938 317.6 95.938 320.808C95.938 320.94 95.95 321.069 95.96 321.199L95.916 321.205C95.926 321.073 95.938 320.942 95.938 320.808C95.938 317.6 93.042 315 89.469 315C85.896 315 83 317.6 83 320.808C83 322.539 83.848 324.089 85.186 325.152L95.938 334.947L106.729 325.121C106.928 324.96 107.117 324.79 107.293 324.608L107.347 324.559L107.344 324.557Z" fill="white"/>
<path opacity="0.4" d="M153.344 9.55701C154.298 8.54501 154.876 7.238 154.876 5.808C154.876 2.6 151.98 0 148.407 0C144.834 0 141.938 2.6 141.938 5.808C141.938 5.94 141.95 6.06901 141.96 6.19901L141.916 6.205C141.926 6.073 141.938 5.942 141.938 5.808C141.938 2.6 139.042 0 135.469 0C131.896 0 129 2.6 129 5.808C129 7.539 129.848 9.08901 131.186 10.152L141.938 19.947L152.729 10.121C152.928 9.96 153.117 9.79 153.293 9.608L153.347 9.55901L153.344 9.55701Z" fill="white"/>
<path opacity="0.4" d="M659.344 224.557C660.298 223.545 660.876 222.238 660.876 220.808C660.876 217.6 657.98 215 654.407 215C650.834 215 647.938 217.6 647.938 220.808C647.938 220.94 647.95 221.069 647.96 221.199L647.916 221.205C647.926 221.073 647.938 220.942 647.938 220.808C647.938 217.6 645.042 215 641.469 215C637.896 215 635 217.6 635 220.808C635 222.539 635.848 224.089 637.186 225.152L647.938 234.947L658.729 225.121C658.928 224.96 659.117 224.79 659.293 224.608L659.347 224.559L659.344 224.557Z" fill="white"/>
<path opacity="0.4" d="M502.321 491.832C502.781 491.344 503.06 490.714 503.06 490.024C503.06 488.477 501.663 487.223 499.94 487.223C498.217 487.223 496.82 488.477 496.82 490.024C496.82 490.088 496.826 490.15 496.831 490.212L496.81 490.215C496.815 490.151 496.821 490.088 496.821 490.024C496.821 488.477 495.424 487.223 493.701 487.223C491.978 487.223 490.582 488.477 490.582 490.024C490.582 490.859 490.991 491.606 491.636 492.119L496.821 496.842L502.024 492.104C502.12 492.027 502.211 491.944 502.296 491.856L502.322 491.832H502.321Z" fill="white"/>
<path opacity="0.4" d="M489.302 259.53C489.762 259.042 490.041 258.412 490.041 257.722C490.041 256.175 488.644 254.921 486.921 254.921C485.198 254.921 483.802 256.175 483.802 257.722C483.802 257.786 483.808 257.848 483.813 257.91L483.792 257.913C483.797 257.849 483.803 257.786 483.803 257.722C483.803 256.175 482.406 254.921 480.683 254.921C478.96 254.921 477.563 256.175 477.563 257.722C477.563 258.557 477.972 259.304 478.617 259.817L483.802 264.54L489.005 259.802C489.101 259.725 489.192 259.642 489.277 259.554L489.303 259.53H489.302Z" fill="white"/>
<path opacity="0.4" d="M120.739 119.609C121.199 119.121 121.478 118.491 121.478 117.801C121.478 116.254 120.081 115 118.358 115C116.635 115 115.239 116.254 115.239 117.801C115.239 117.865 115.245 117.927 115.25 117.989L115.229 117.992C115.234 117.928 115.24 117.865 115.24 117.801C115.24 116.254 113.843 115 112.12 115C110.397 115 109 116.254 109 117.801C109 118.636 109.409 119.383 110.054 119.896L115.239 124.619L120.442 119.881C120.538 119.804 120.629 119.721 120.714 119.633L120.74 119.609H120.739Z" fill="white"/>
<path opacity="0.4" d="M248.182 360.951C248.642 360.463 248.921 359.833 248.921 359.143C248.921 357.596 247.524 356.342 245.802 356.342C244.079 356.342 242.682 357.596 242.682 359.143C242.682 359.207 242.688 359.269 242.693 359.331L242.672 359.334C242.677 359.27 242.683 359.207 242.683 359.143C242.683 357.596 241.287 356.342 239.563 356.342C237.84 356.342 236.444 357.596 236.444 359.143C236.444 359.978 236.853 360.725 237.498 361.238L242.683 365.961L247.886 361.223C247.982 361.145 248.073 361.063 248.158 360.975L248.182 360.951Z" fill="white"/>
<path opacity="0.4" d="M596.738 92.609C597.198 92.121 597.477 91.491 597.477 90.801C597.477 89.254 596.08 88 594.358 88C592.635 88 591.238 89.254 591.238 90.801C591.238 90.865 591.244 90.927 591.249 90.989L591.228 90.992C591.233 90.928 591.239 90.865 591.239 90.801C591.239 89.254 589.843 88 588.119 88C586.396 88 585 89.254 585 90.801C585 91.636 585.409 92.383 586.054 92.896L591.239 97.619L596.442 92.881C596.538 92.803 596.629 92.721 596.714 92.633L596.738 92.609Z" fill="white"/>
<path opacity="0.4" d="M255.738 273.609C256.198 273.121 256.477 272.491 256.477 271.801C256.477 270.254 255.08 269 253.358 269C251.635 269 250.238 270.254 250.238 271.801C250.238 271.865 250.244 271.927 250.249 271.989L250.228 271.992C250.233 271.928 250.239 271.865 250.239 271.801C250.239 270.254 248.843 269 247.119 269C245.396 269 244 270.254 244 271.801C244 272.636 244.409 273.383 245.054 273.896L250.239 278.619L255.442 273.881C255.538 273.803 255.629 273.721 255.714 273.633L255.738 273.609Z" fill="white"/>
<path opacity="0.4" d="M239.798 491.832C240.258 491.344 240.537 490.714 240.537 490.024C240.537 488.477 239.14 487.223 237.417 487.223C235.694 487.223 234.298 488.477 234.298 490.024C234.298 490.088 234.304 490.15 234.309 490.212L234.288 490.215C234.293 490.151 234.299 490.088 234.299 490.024C234.299 488.477 232.902 487.223 231.18 487.223C229.457 487.223 228.061 488.477 228.061 490.024C228.061 490.859 228.47 491.606 229.115 492.119L234.3 496.842L239.503 492.104C239.599 492.026 239.69 491.944 239.775 491.856L239.798 491.832Z" fill="white"/>
</g>
</svg>
