<svg width="90" height="121" viewBox="0 0 90 121" fill="none" xmlns="http://www.w3.org/2000/svg">
<path opacity="0.5" d="M49 120.753H29.2037V24.7363L0 34.7568V17.919L46.4641 0.752686H49V120.753Z" fill="#8CBBE6"/>
<path d="M77.1139 38.978C75.7644 44.1042 74.2436 49.301 74.4807 54.604C75.0736 67.8742 86.4307 78.9152 86.3635 92.1991C86.3111 102.598 78.1157 112.328 68.065 113.925C58.0144 115.521 47.3172 108.793 44.1807 98.9009C42.119 92.3988 43.105 85.3111 44.6734 78.6666C46.2415 72.0217 48.3838 65.4332 48.597 58.6014C48.8145 51.6395 47.0174 44.7996 46.062 37.9027C44.516 26.744 46.204 14.7621 57.6031 10.1696C66.2117 6.70169 72.8914 9.69129 77.0076 18.096C80.2976 24.8145 78.9436 32.0278 77.1139 38.978Z" fill="#F5F4E3"/>
<path d="M50.2401 91.21H52.3721V116.34H50.2401V91.21Z" fill="#E4E4E0"/>
<path d="M50.2401 88.7329H52.3721V91.2098H50.2401V88.7329Z" fill="#402C49"/>
<path d="M52.3722 116.34L59.9504 119.552H42.662L50.2402 116.34H52.3722Z" fill="#D4CFBE"/>
<path d="M50.2402 84.9788H60.4731V88.7328H50.2402V84.9788Z" fill="#A64F5A"/>
<path d="M42.1759 84.9788H50.2402V88.7328H42.1759V84.9788Z" fill="#8C404C"/>
<path d="M78.8484 70.2078H82.7238C85.145 70.2078 87.115 72.2218 87.115 74.6971V120.752H86.2065V110.109H75.3657V120.752H74.4572V74.6971C74.4572 72.2218 76.4272 70.2078 78.8484 70.2078ZM86.2065 109.18V74.6971C86.2065 72.7339 84.6441 71.1366 82.7238 71.1366H78.8484C76.9281 71.1366 75.3657 72.7339 75.3657 74.6971V109.18H86.2065Z" fill="#454F6B"/>
<path d="M71.9147 37.2789C71.9873 34.6001 71.1333 31.8718 69.4081 29.8544C67.6828 27.837 65.0711 26.5914 62.4531 26.7212C59.835 26.8506 57.2872 28.4222 56.1068 30.8148C54.0444 34.9946 56.3648 40.1239 55.3357 44.6854C54.7213 47.4096 52.9675 49.6927 51.7444 52.1931C50.5212 54.6935 49.8825 57.88 51.457 60.1659C52.3622 61.4799 53.8585 62.2554 55.3824 62.6499C58.6321 63.4905 62.2405 62.7353 64.9055 60.6566C68.3478 57.9714 69.1404 54.3025 69.2339 50.1488C69.3339 45.7086 71.7944 41.7205 71.9147 37.2789Z" fill="#E4737B"/>
<path d="M70.0416 32.3235C68.3596 29.7748 65.3921 28.0636 62.3568 28.1617C59.3214 28.2599 56.3681 30.2946 55.4096 33.1994C55.3818 33.2842 55.3563 33.37 55.3312 33.4561C55.4535 32.5452 55.6895 31.6603 56.1068 30.8148C57.2872 28.4221 59.8347 26.8508 62.4531 26.7211C65.0714 26.5917 67.6828 27.837 69.4081 29.8544C71.1333 31.8718 71.9873 34.6001 71.9147 37.2788C71.9004 37.8042 71.8514 38.3231 71.7793 38.8374C71.8611 36.5441 71.299 34.2289 70.0416 32.3235Z" fill="#FF94A1"/>
<path d="M60.8533 45.5653C60.1607 45.0501 59.6095 44.3677 59.1647 43.615L59.2619 42.2397L63.8296 44.794L63.564 46.4458C62.6088 46.4882 61.634 46.1461 60.8533 45.5653Z" fill="#422C4F"/>
<path d="M64.2421 49.7495C63.3206 50.3366 62.2334 50.6261 61.148 50.6626C59.8043 50.7078 58.4343 50.3623 57.3235 49.5879C56.5409 49.0427 55.9028 48.2752 55.5119 47.3971L58.9591 46.5228L59.1647 43.6152C59.6096 44.3679 60.1608 45.0503 60.8534 45.5655C61.6341 46.1463 62.6092 46.4884 63.5644 46.446L63.5271 46.6776L66.0776 47.6625C65.6879 48.5204 65.0298 49.248 64.2421 49.7495Z" fill="#F0BF9C"/>
<path d="M64.7636 74.8003H47.3504L48.9987 71.7327C50.8681 68.2536 51.9108 64.3735 52.0425 60.4065L52.448 48.1738L55.5119 47.397C55.9028 48.275 56.5412 49.0426 57.3234 49.5878C58.4343 50.3621 59.8043 50.7076 61.148 50.6624C62.2334 50.6259 63.3203 50.3364 64.2421 49.7494C65.0298 49.2478 65.6879 48.5202 66.0776 47.662L69.427 48.9556C70.7098 49.4509 71.4252 50.8513 71.0893 52.2108L70.7332 53.6533C70.49 54.6385 70.3961 55.6561 70.4549 56.6707L70.6768 60.5046C70.7619 61.9744 69.8898 63.3255 68.5346 63.823C67.888 64.0605 67.3611 64.5525 67.0715 65.1897L65.9598 67.6343C64.9774 69.7948 64.5586 72.1785 64.7445 74.5532L64.7636 74.8003Z" fill="#6C6FC3"/>
<path d="M69.3562 37.9565L68.3262 41.8774C68.0449 42.9487 67.4259 43.8955 66.5652 44.5711C65.5998 45.329 64.3945 45.6956 63.1807 45.5999L63.1159 45.5953C61.8415 45.4949 60.6547 44.8931 59.8056 43.9165L59.755 43.8583C59.073 43.0741 58.6472 42.0917 58.537 41.0483L58.3029 38.834C60.4624 37.9113 62.1577 36.1243 62.9935 33.8892L62.9969 33.8802C63.8227 33.6133 64.7476 34.1812 65.3363 34.8307C65.925 35.4803 66.3196 36.2908 66.8905 36.9571C67.461 37.6228 68.4901 37.9565 69.3562 37.9565Z" fill="#F0BF9C"/>
<path d="M62.4885 37.2836C63.1945 37.2585 63.8316 37.5817 64.2468 38.1003L60.7902 38.2236C61.1691 37.6765 61.7826 37.3087 62.4885 37.2836Z" fill="#E4737B"/>
<path d="M62.7827 40.0013C62.5636 40.0013 62.386 39.7673 62.386 39.4787C62.386 39.19 62.5636 38.9561 62.7827 38.9561C63.0018 38.9561 63.1794 39.19 63.1794 39.4787C63.1794 39.7673 63.0018 40.0013 62.7827 40.0013Z" fill="#422C4F"/>
<path d="M67.8252 37.2836C67.3567 37.2585 66.934 37.5817 66.6584 38.1003L68.9524 38.2236C68.701 37.6765 68.2937 37.3087 67.8252 37.2836Z" fill="#E4737B"/>
<path d="M67.5413 40.0013C67.3222 40.0013 67.1446 39.7673 67.1446 39.4787C67.1446 39.19 67.3222 38.9561 67.5413 38.9561C67.7604 38.9561 67.938 39.19 67.938 39.4787C67.938 39.7673 67.7604 40.0013 67.5413 40.0013Z" fill="#422C4F"/>
<path d="M64.4855 41.605C64.961 41.622 65.4364 41.6393 65.9119 41.6564C65.8334 41.9471 65.5103 42.1914 65.2156 42.1988C64.9207 42.2069 64.5785 41.8914 64.4855 41.605Z" fill="#EBA588"/>
<path d="M62.7188 42.511C63.8205 42.8293 64.9492 43.0503 66.0879 43.1708C65.7227 43.8293 64.9504 44.2547 64.2221 44.12C63.4935 43.9857 62.8357 43.2584 62.7188 42.511Z" fill="white"/>
<path d="M64.7441 74.5532L65.0663 76.4514L76.8655 85.2174C79.2731 87.0061 80.548 89.9842 80.2004 93.0057L78.1386 110.921H71.1715V92.8608L57.0677 82.5406L58.0504 74.8003L64.7441 74.5532Z" fill="#402C49"/>
<path d="M58.0505 78.8253L62.6436 78.103L60.5743 79.8059L65.8537 84.4027C68.4012 86.6207 70.2503 89.5595 71.1685 92.8491L71.1719 92.8612L57.068 82.541L58.0505 78.8253Z" fill="#56438C"/>
<path d="M47.3502 74.8003L46.2806 76.54C45.3821 78.0014 45.098 79.7714 45.4926 81.4498C45.8894 83.1365 46.9375 84.5871 48.3984 85.4698L59.2612 92.0354L59.8678 110.922H66.7319L68.7613 93.3292C69.0711 90.6424 68.0796 87.9702 66.1048 86.1692L58.0508 78.8252V74.8003H47.3502Z" fill="#402C49"/>
<path d="M65.1578 112.083L65.0842 113.887C65.0415 114.937 65.5115 115.939 66.3386 116.563L67.3428 117.32H66.4718C65.5624 117.32 64.7129 117.785 64.2084 118.558H60.6506L61.1742 112.082H65.1578V112.083Z" fill="#F0BF9C"/>
<path d="M61.2679 110.922H65.2048L65.1576 112.083H61.174L61.2679 110.922Z" fill="#EBA588"/>
<path d="M66.4714 117.32H67.3424L67.631 117.538C67.9045 117.744 68.2091 117.903 68.5328 118.008C69.6285 118.362 70.4416 119.309 70.6436 120.466L70.6936 120.752H60.4731L60.6505 118.559H64.208C64.7125 117.785 65.562 117.32 66.4714 117.32Z" fill="#E4737B"/>
<path d="M76.3157 112.083L76.2422 113.887C76.1995 114.937 76.6695 115.939 77.4965 116.563L78.5007 117.32H77.6298C76.7203 117.32 75.8709 117.785 75.3663 118.558H71.8086L72.3322 112.082H76.3157V112.083Z" fill="#F0BF9C"/>
<path d="M72.4264 110.922H76.3633L76.3157 112.083H72.3325L72.4264 110.922Z" fill="#EBA588"/>
<path d="M77.6299 117.32H78.5008L78.7894 117.538C79.0629 117.744 79.3676 117.903 79.6913 118.008C80.787 118.362 81.6001 119.309 81.8021 120.466L81.8521 120.752H71.6312L71.8087 118.559H75.3664C75.871 117.785 76.7204 117.32 77.6299 117.32Z" fill="#E4737B"/>
<path d="M54.2937 52.1173C54.8367 53.4761 54.8815 54.9895 54.4203 56.3794L51.2753 65.8547L51.2732 65.8537C51.7202 64.0778 51.9809 62.2517 52.0424 60.4065L52.3689 50.5605L54.0103 51.4073L54.2937 52.1173Z" fill="#56438C"/>
<path d="M52.4477 48.1738L52.0365 48.2856C50.6549 48.6608 49.535 49.6934 49.0275 51.0597L47.1481 56.1206L52.4477 58.3653L53.8611 54.9072C54.4289 53.518 54.3644 51.9427 53.6851 50.6067L52.4477 48.1738Z" fill="#6C6FC3"/>
<path d="M58.0882 67.9639H49.1259C48.4079 67.9639 47.7014 67.7778 47.0727 67.4233C45.1336 66.3294 44.3411 63.8971 45.2511 61.833L47.6717 56.3433L51.9454 58.1536L49.5959 63.8101L56.7254 65.7195L59.9767 64.0337C60.2513 63.8912 60.5717 63.8727 60.8603 63.9829L61.6847 64.2975C62.0036 64.4191 62.2601 64.6681 62.3957 64.987L62.6949 65.6916C62.7988 65.9362 62.6959 66.2214 62.4612 66.3381C62.1916 66.4722 61.8685 66.3279 61.7816 66.0344L61.5617 65.291L60.6032 65.0006L61.1462 65.5461C61.2743 65.6749 61.3694 65.8341 61.4227 66.0093L61.5938 66.5709L58.0882 67.9639Z" fill="#F0BF9C"/>
<path d="M49.5959 63.809L46.9209 62.9319L50.0686 62.6709L49.5959 63.809Z" fill="#EBA588"/>
<path d="M51.9456 58.1526L47.6716 56.3423L47.35 57.0723L51.1618 60.039L51.9456 58.1526Z" fill="#422C4F"/>
<path d="M60.8259 66.8039C60.7511 66.2583 60.3862 65.7639 59.8941 65.54C60.183 65.9719 60.5373 66.3717 60.8259 66.8039Z" fill="#EBA588"/>
<path d="M60.1487 67.0842C59.7174 66.7412 59.2859 66.3985 58.8546 66.0554C59.0491 66.6198 59.5693 67.0016 60.1487 67.0842Z" fill="#EBA588"/>
<path d="M56.7256 66.5698H68.0442V67.9631H58.0884C57.3358 67.9631 56.7256 67.3392 56.7256 66.5698Z" fill="#99A3B0"/>
<path d="M65.4514 67.9631H82.3207C82.8782 67.9631 83.3637 67.5739 83.4969 67.0204L86.476 54.6393C86.6168 54.0539 86.1834 53.4885 85.5938 53.4885H68.7244C68.1669 53.4885 67.6815 53.8777 67.5482 54.431L64.5692 66.812C64.4284 67.3978 64.8617 67.9631 65.4514 67.9631Z" fill="#99A3B0"/>
<path d="M66.0637 67.9631H82.933C83.4905 67.9631 83.976 67.5739 84.1092 67.0204L87.0883 54.6393C87.2291 54.0539 86.7957 53.4885 86.2061 53.4885H69.3367C68.7792 53.4885 68.2938 53.8777 68.1605 54.431L65.1815 66.812C65.0407 67.3978 65.474 67.9631 66.0637 67.9631Z" fill="#C7D2D7"/>
<path d="M74.5113 60.726C74.1958 61.9548 74.9144 62.9514 76.1167 62.9514C77.319 62.9514 78.5491 61.9551 78.8647 60.726C79.1802 59.4968 78.4616 58.5005 77.2593 58.5005C76.057 58.5005 74.8269 59.4968 74.5113 60.726Z" fill="white"/>
<path d="M54.9464 67.9631H90V70.2078H54.9464V67.9631Z" fill="#A64F5A"/>
<path d="M41.9999 67.9631H54.9463V70.2078H41.9999V67.9631Z" fill="#8C404C"/>
<path d="M49.2554 70.2078H53.1308C55.552 70.2078 57.522 72.2218 57.522 74.6971V120.752H56.6135V110.109H45.7727V120.752H44.8642V74.6971C44.8645 72.2218 46.8342 70.2078 49.2554 70.2078ZM56.6135 109.18V74.6971C56.6135 72.7339 55.0511 71.1366 53.1308 71.1366H49.2554C47.3351 71.1366 45.7727 72.7339 45.7727 74.6971V109.18H56.6135Z" fill="#454F6B"/>
</svg>
