<svg width="193" height="257" viewBox="0 0 193 257" fill="none" xmlns="http://www.w3.org/2000/svg">
<path opacity="0.5" d="M105 257.001H62.5793V51.3658L0 72.8264V36.7655L99.5659 0.000976562H105V257.001Z" fill="#8CBBE6"/>
<g clip-path="url(#clip0)">
<path d="M165.08 82.5012C162.156 93.4402 158.861 104.53 159.375 115.846C160.66 144.164 185.267 167.724 185.121 196.071C185.007 218.261 167.251 239.024 145.474 242.432C123.698 245.839 100.521 231.481 93.725 210.372C89.2579 196.497 91.3943 181.373 94.7926 167.194C98.1901 153.014 102.832 138.955 103.294 124.376C103.765 109.52 99.8712 94.9241 97.801 80.2066C94.4513 56.3948 98.1087 30.8262 122.807 21.0263C141.459 13.6259 155.931 20.0055 164.85 37.9405C171.978 52.2774 169.045 67.6701 165.08 82.5012Z" fill="#F5F4E3"/>
<path d="M106.854 193.96H111.473V247.586H106.854V193.96Z" fill="#E4E4E0"/>
<path d="M106.854 188.675H111.473V193.96H106.854V188.675Z" fill="#402C49"/>
<path d="M111.473 247.586L127.893 254.441H90.4343L106.854 247.586H111.473Z" fill="#D4CFBE"/>
<path d="M106.854 180.664H129.025V188.675H106.854V180.664Z" fill="#A64F5A"/>
<path d="M89.3812 180.664H106.854V188.675H89.3812V180.664Z" fill="#8C404C"/>
<path d="M168.838 149.144H177.235C182.481 149.144 186.749 153.442 186.749 158.724V257.001H184.78V234.29H161.292V257.001H159.324V158.724C159.324 153.442 163.592 149.144 168.838 149.144ZM184.78 232.308V158.724C184.78 154.534 181.395 151.126 177.235 151.126H168.838C164.677 151.126 161.292 154.534 161.292 158.724V232.308H184.78Z" fill="#454F6B"/>
<path d="M153.815 78.876C153.973 73.1597 152.122 67.3377 148.384 63.0327C144.646 58.7277 138.988 56.0697 133.315 56.3466C127.643 56.6227 122.123 59.9764 119.565 65.0822C115.096 74.0014 120.124 84.947 117.894 94.6809C116.563 100.494 112.763 105.366 110.113 110.702C107.463 116.038 106.079 122.837 109.49 127.715C111.452 130.519 114.694 132.174 117.995 133.016C125.036 134.81 132.855 133.198 138.629 128.762C146.087 123.032 147.804 115.203 148.007 106.339C148.224 96.8645 153.555 88.3542 153.815 78.876Z" fill="#E4737B"/>
<path d="M149.757 68.3017C146.113 62.863 139.683 59.2113 133.106 59.4208C126.53 59.6302 120.131 63.9723 118.054 70.1708C117.994 70.3518 117.939 70.5349 117.884 70.7185C118.15 68.7748 118.661 66.8865 119.565 65.0822C122.123 59.9764 127.642 56.6234 133.315 56.3466C138.988 56.0704 144.646 58.7277 148.384 63.0328C152.122 67.3378 153.973 73.1598 153.815 78.876C153.784 79.9972 153.678 81.1045 153.522 82.2019C153.699 77.3082 152.481 72.3676 149.757 68.3017Z" fill="#FF94A1"/>
<path d="M129.849 96.5585C128.348 95.4591 127.154 94.0029 126.19 92.3968L126.401 89.462L136.297 94.9127L135.722 98.4375C133.652 98.528 131.54 97.7979 129.849 96.5585Z" fill="#422C4F"/>
<path d="M137.191 105.487C135.194 106.74 132.839 107.357 130.487 107.435C127.576 107.532 124.607 106.794 122.201 105.142C120.505 103.979 119.123 102.341 118.275 100.467L125.744 98.6013L126.19 92.3968C127.154 94.0029 128.348 95.4591 129.849 96.5585C131.54 97.7979 133.653 98.528 135.723 98.4375L135.642 98.9317L141.168 101.033C140.323 102.864 138.898 104.417 137.191 105.487Z" fill="#F0BF9C"/>
<path d="M138.321 158.944H100.592L104.164 152.398C108.214 144.974 110.473 136.694 110.759 128.228L111.637 102.125L118.276 100.467C119.123 102.341 120.506 103.979 122.201 105.142C124.607 106.794 127.576 107.532 130.487 107.435C132.839 107.357 135.194 106.74 137.191 105.487C138.898 104.417 140.324 102.864 141.168 101.033L148.425 103.793C151.204 104.85 152.754 107.838 152.027 110.739L151.255 113.818C150.728 115.92 150.525 118.092 150.652 120.257L151.133 128.438C151.317 131.574 149.428 134.457 146.491 135.519C145.09 136.026 143.949 137.076 143.321 138.435L140.913 143.652C138.784 148.262 137.877 153.349 138.28 158.417L138.321 158.944Z" fill="#6C6FC3"/>
<path d="M148.272 80.3222L146.041 88.6891C145.431 90.9751 144.09 92.9955 142.225 94.4371C140.133 96.0544 137.522 96.8367 134.892 96.6325L134.751 96.6226C131.99 96.4086 129.419 95.1242 127.579 93.0404L127.469 92.9162C125.992 91.2427 125.069 89.1463 124.83 86.9198L124.323 82.1945C129.002 80.2257 132.675 76.4122 134.486 71.6427L134.494 71.6236C136.283 71.0541 138.287 72.2657 139.562 73.6519C140.838 75.038 141.693 76.7677 142.93 78.1895C144.166 79.6099 146.395 80.3222 148.272 80.3222Z" fill="#F0BF9C"/>
<path d="M133.393 78.8865C134.922 78.833 136.303 79.5227 137.202 80.6294L129.713 80.8923C130.534 79.7249 131.863 78.94 133.393 78.8865Z" fill="#E4737B"/>
<path d="M134.03 84.686C133.555 84.686 133.17 84.1867 133.17 83.5708C133.17 82.9548 133.555 82.4555 134.03 82.4555C134.504 82.4555 134.889 82.9548 134.889 83.5708C134.889 84.1867 134.504 84.686 134.03 84.686Z" fill="#422C4F"/>
<path d="M144.955 78.8865C143.94 78.833 143.024 79.5227 142.427 80.6294L147.397 80.8923C146.853 79.7249 145.97 78.94 144.955 78.8865Z" fill="#E4737B"/>
<path d="M144.34 84.686C143.865 84.686 143.48 84.1867 143.48 83.5708C143.48 82.9548 143.865 82.4555 144.34 82.4555C144.815 82.4555 145.199 82.9548 145.199 83.5708C145.199 84.1867 144.815 84.686 144.34 84.686Z" fill="#422C4F"/>
<path d="M137.719 88.1077C138.749 88.144 139.78 88.181 140.81 88.2174C140.64 88.8378 139.94 89.359 139.301 89.3749C138.662 89.3921 137.921 88.7188 137.719 88.1077Z" fill="#EBA588"/>
<path d="M133.891 90.0415C136.278 90.7207 138.724 91.1924 141.191 91.4494C140.4 92.8547 138.726 93.7625 137.148 93.4751C135.57 93.1883 134.145 91.6364 133.891 90.0415Z" fill="white"/>
<path d="M138.279 158.417L138.977 162.467L164.542 181.173C169.758 184.99 172.521 191.345 171.768 197.793L167.301 236.023H152.205V197.484L121.647 175.461L123.776 158.944L138.279 158.417Z" fill="#402C49"/>
<path d="M123.776 167.533L133.728 165.991L129.244 169.625L140.683 179.434C146.203 184.167 150.209 190.439 152.199 197.458L152.206 197.484L121.648 175.462L123.776 167.533Z" fill="#56438C"/>
<path d="M100.592 158.944L98.2747 162.656C96.3279 165.775 95.7124 169.552 96.5674 173.133C97.4269 176.733 99.6979 179.828 102.863 181.712L126.399 195.722L127.714 236.024H142.586L146.983 198.483C147.654 192.75 145.506 187.047 141.227 183.204L123.777 167.533V158.944H100.592V158.944Z" fill="#402C49"/>
<path d="M139.175 238.502L139.016 242.352C138.923 244.592 139.942 246.732 141.734 248.063L143.909 249.678H142.022C140.052 249.678 138.211 250.67 137.118 252.321H129.41L130.544 238.501H139.175V238.502Z" fill="#F0BF9C"/>
<path d="M130.748 236.024H139.278L139.175 238.502H130.544L130.748 236.024Z" fill="#EBA588"/>
<path d="M142.022 249.678H143.909L144.534 250.143C145.127 250.583 145.787 250.921 146.488 251.145C148.862 251.902 150.624 253.923 151.061 256.391L151.17 257.001H129.025L129.41 252.321H137.118C138.211 250.67 140.051 249.678 142.022 249.678Z" fill="#E4737B"/>
<path d="M163.351 238.502L163.192 242.352C163.099 244.592 164.118 246.732 165.909 248.063L168.085 249.678H166.198C164.228 249.678 162.387 250.67 161.294 252.321H153.586L154.72 238.501H163.351V238.502Z" fill="#F0BF9C"/>
<path d="M154.924 236.024H163.454L163.351 238.502H154.721L154.924 236.024Z" fill="#EBA588"/>
<path d="M166.198 249.678H168.085L168.711 250.143C169.303 250.583 169.963 250.921 170.665 251.145C173.039 251.902 174.8 253.923 175.238 256.391L175.346 257.001H153.201L153.586 252.321H161.294C162.387 250.67 164.228 249.678 166.198 249.678Z" fill="#E4737B"/>
<path d="M115.636 110.54C116.813 113.44 116.91 116.669 115.911 119.635L109.097 139.855L109.092 139.853C110.06 136.063 110.625 132.166 110.759 128.228L111.466 107.218L115.022 109.025L115.636 110.54Z" fill="#56438C"/>
<path d="M111.637 102.125L110.746 102.363C107.753 103.164 105.326 105.367 104.227 108.283L100.155 119.083L111.637 123.873L114.699 116.493C115.93 113.529 115.79 110.167 114.318 107.316L111.637 102.125Z" fill="#6C6FC3"/>
<path d="M123.858 144.354H104.44C102.884 144.354 101.353 143.957 99.9912 143.201C95.7898 140.866 94.0727 135.676 96.0444 131.271L101.289 119.557L110.549 123.42L105.458 135.49L120.905 139.565L127.95 135.967C128.545 135.664 129.239 135.624 129.864 135.859L131.65 136.53C132.341 136.79 132.897 137.321 133.191 138.002L133.839 139.505C134.064 140.027 133.841 140.636 133.333 140.885C132.749 141.171 132.049 140.863 131.86 140.237L131.384 138.651L129.307 138.031L130.484 139.195C130.761 139.47 130.967 139.809 131.083 140.183L131.454 141.382L123.858 144.354Z" fill="#F0BF9C"/>
<path d="M105.458 135.489L99.6624 133.618L106.482 133.061L105.458 135.489Z" fill="#EBA588"/>
<path d="M110.549 123.419L101.289 119.556L100.592 121.114L108.851 127.444L110.549 123.419Z" fill="#422C4F"/>
<path d="M129.79 141.88C129.628 140.716 128.837 139.66 127.771 139.183C128.397 140.104 129.164 140.957 129.79 141.88Z" fill="#EBA588"/>
<path d="M128.322 142.478C127.388 141.746 126.453 141.015 125.519 140.283C125.94 141.487 127.067 142.302 128.322 142.478Z" fill="#EBA588"/>
<path d="M120.905 141.381H145.429V144.354H123.858C122.227 144.354 120.905 143.023 120.905 141.381Z" fill="#99A3B0"/>
<path d="M139.811 144.354H176.361C177.569 144.354 178.621 143.523 178.91 142.342L185.364 115.922C185.67 114.673 184.731 113.466 183.453 113.466H146.903C145.695 113.466 144.643 114.297 144.354 115.477L137.9 141.898C137.595 143.148 138.534 144.354 139.811 144.354Z" fill="#99A3B0"/>
<path d="M141.138 144.354H177.688C178.896 144.354 179.948 143.523 180.237 142.342L186.691 115.922C186.996 114.673 186.057 113.466 184.78 113.466H148.23C147.022 113.466 145.97 114.297 145.681 115.477L139.226 141.898C138.921 143.148 139.86 144.354 141.138 144.354Z" fill="#C7D2D7"/>
<path d="M159.441 128.91C158.757 131.533 160.314 133.659 162.919 133.659C165.524 133.659 168.19 131.533 168.873 128.91C169.557 126.288 168 124.161 165.395 124.161C162.79 124.161 160.125 126.288 159.441 128.91Z" fill="white"/>
<path d="M117.05 144.354H193V149.144H117.05V144.354Z" fill="#A64F5A"/>
<path d="M89 144.354H117.051V149.144H89V144.354Z" fill="#8C404C"/>
<path d="M104.72 149.144H113.117C118.363 149.144 122.631 153.442 122.631 158.724V257.001H120.663V234.29H97.1744V257.001H95.2059V158.724C95.2066 153.442 99.4742 149.144 104.72 149.144ZM120.663 232.308V158.724C120.663 154.534 117.278 151.126 113.117 151.126H104.72C100.559 151.126 97.1744 154.534 97.1744 158.724V232.308H120.663Z" fill="#454F6B"/>
</g>
<defs>
<clipPath id="clip0">
<rect width="104" height="239" fill="white" transform="translate(89 18.001)"/>
</clipPath>
</defs>
</svg>
