<svg width="99" height="120" viewBox="0 0 99 120" fill="none" xmlns="http://www.w3.org/2000/svg">
<path opacity="0.5" d="M98.2588 119.116H20.7559V105.848L59.1511 63.8216C64.6927 57.6249 68.6246 52.4609 70.9467 48.3297C73.3217 44.1456 74.5092 39.9614 74.5092 35.7773C74.5092 30.2691 72.9523 25.8201 69.8384 22.4304C66.7774 19.0407 62.6344 17.3459 57.4095 17.3459C51.1818 17.3459 46.3527 19.2526 42.9222 23.066C39.4917 26.8794 37.7765 32.0963 37.7765 38.7168H18.5393C18.5393 31.6726 20.1226 25.3434 23.2892 19.7293C26.5086 14.0622 31.0738 9.66616 36.9848 6.5413C42.9486 3.41644 49.8096 1.854 57.5678 1.854C68.7565 1.854 77.5702 4.68757 84.009 10.3547C90.5006 15.9688 93.7464 23.7545 93.7464 33.7117C93.7464 39.4848 92.1103 45.5491 88.8381 51.9048C85.6187 58.2075 80.3146 65.384 72.9259 73.4345L44.743 103.703H98.2588V119.116Z" fill="#8CBBE6"/>
<path d="M36.4292 18.5046H19.556C19.1055 18.5046 18.7405 18.1396 18.7405 17.6891V0.815793C18.7405 0.36528 19.1058 0 19.556 0H36.4292C36.8798 0 37.2447 0.36528 37.2447 0.815793V17.6891C37.2447 18.1393 36.8798 18.5046 36.4292 18.5046Z" fill="#F0F0F0"/>
<path d="M33.4001 4.56641H33.3778C32.7509 4.56641 32.2425 4.6065 32.2425 4.6558C32.2425 4.70212 32.6888 4.73954 33.2593 4.74429C33.2017 4.80399 33.1195 4.89189 33.0146 5.00742C32.7857 5.2643 32.4836 5.60315 32.1151 6.01654C31.3536 6.89321 30.324 8.07785 29.1536 9.42493C28.7486 9.15409 28.331 8.87523 27.9034 8.58924C27.6815 8.44164 27.4624 8.29583 27.256 8.15833L27.19 8.11467L27.139 8.17466C25.8165 9.72072 24.647 11.1014 23.8125 12.0995C23.4116 12.5842 23.0826 12.9827 22.8349 13.2823C22.6077 13.563 22.4874 13.7204 22.496 13.7281C22.5049 13.7355 22.6422 13.5924 22.8848 13.3251C23.1431 13.0344 23.4865 12.648 23.9043 12.1779C24.7519 11.2133 25.9184 9.86861 27.2227 8.35018C27.4101 8.4752 27.6055 8.60557 27.8042 8.73832C28.255 9.03797 28.6951 9.33109 29.1207 9.61381L29.1857 9.65717L29.2356 9.59777C30.409 8.2103 31.4407 6.99032 32.2015 6.09078C32.5537 5.66343 32.8421 5.3133 33.0612 5.04751C33.1717 4.9106 33.2498 4.81111 33.2988 4.74489C33.303 4.74489 33.3071 4.74489 33.3113 4.74489C33.3158 5.31894 33.3535 5.76886 33.3998 5.76886C33.4485 5.76886 33.4883 5.27291 33.4892 4.65609V4.5667H33.4001V4.56641Z" fill="#E0E0E0"/>
<path d="M80.2814 12.3505H89.3338C89.3338 17.3166 85.2474 21.4026 80.2814 21.4026C75.3153 21.4026 71.2292 17.3163 71.2292 12.3505C71.2292 7.46349 75.1868 3.41363 80.0723 3.30078L80.2814 12.3505Z" fill="#F0F0F0"/>
<path d="M82.7212 10.1439L82.5166 1.0918C84.874 1.0918 87.3448 2.01242 89.034 3.65648C90.7235 5.30054 91.7056 7.64724 91.7698 10.0034L82.7212 10.1439Z" fill="#EBEBEB"/>
<path d="M34.8181 11.3112V38.7696C34.8181 39.3796 35.3126 39.8741 35.9226 39.8741H72.4981C73.1081 39.8741 73.6026 39.3796 73.6026 38.7696V10.3567C73.6026 9.73547 73.0903 9.23625 72.4693 9.25259L35.8938 10.2071C35.2954 10.2228 34.8181 10.7125 34.8181 11.3112Z" fill="#E0E0E0"/>
<path d="M70.3369 16.1164C70.3233 16.1452 69.871 15.883 68.9839 15.6024C68.1037 15.3294 66.7459 15.0657 65.1033 15.3143C64.2887 15.4447 63.4061 15.6915 62.544 16.1369C61.6762 16.572 60.8489 17.217 60.0274 17.947C59.2021 18.6752 58.3831 19.5019 57.4381 20.2664C56.4928 21.0186 55.4086 21.7302 54.1334 22.0551C53.5002 22.2181 52.8374 22.2603 52.2039 22.1715C51.569 22.085 50.9694 21.8772 50.4158 21.6194C49.3075 21.097 48.3596 20.4107 47.4208 19.8384C46.4886 19.2546 45.5516 18.7916 44.604 18.5754C43.662 18.3464 42.7473 18.2998 41.9244 18.3699C40.2684 18.5145 39.0155 19.1007 38.2255 19.5741C37.432 20.0591 37.0575 20.4241 37.0365 20.3985C37.0299 20.3914 37.1223 20.3005 37.3052 20.1342C37.4852 19.9649 37.7724 19.7369 38.1662 19.4791C38.9484 18.9704 40.212 18.3417 41.9054 18.1673C42.7467 18.0824 43.6866 18.1174 44.6598 18.3434C45.6387 18.5552 46.6166 19.0295 47.5592 19.6118C48.5107 20.1844 49.4587 20.8615 50.5343 21.3631C51.599 21.876 52.8516 22.1041 54.0633 21.7762C55.2752 21.4685 56.3328 20.7822 57.2623 20.0466C58.1921 19.2994 59.015 18.4777 59.8525 17.748C60.6867 17.0169 61.5373 16.3632 62.4368 15.924C63.3292 15.4747 64.2389 15.2332 65.0745 15.1132C66.7602 14.8849 68.1381 15.1869 69.0193 15.496C69.4644 15.6499 69.7956 15.8073 70.0132 15.9237C70.2303 16.0416 70.3417 16.1078 70.3369 16.1164Z" fill="#455A64"/>
<path d="M47.0337 22.5664H43.4563V32.2422H47.0337V22.5664Z" fill="#455A64"/>
<path d="M62.2143 22.5664H58.637V32.2422H62.2143V22.5664Z" fill="#455A64"/>
<path d="M67.2744 16.8848H63.697V32.2423H67.2744V16.8848Z" fill="#455A64"/>
<path d="M42.404 29.1963H38.8267V32.4526H42.404V29.1963Z" fill="#455A64"/>
<path d="M52.094 26.936H48.5164V32.2424H52.094V26.936Z" fill="#455A64"/>
<path d="M57.1543 25.7178H53.5769V32.2423H57.1543V25.7178Z" fill="#455A64"/>
<path d="M45.245 33.526C46.3124 33.526 47.1777 33.4616 47.1777 33.3823C47.1777 33.3029 46.3124 33.2385 45.245 33.2385C44.1776 33.2385 43.3123 33.3029 43.3123 33.3823C43.3123 33.4616 44.1776 33.526 45.245 33.526Z" fill="#263238"/>
<path d="M40.7931 33.5267C41.8607 33.5267 42.7261 33.4624 42.7261 33.383C42.7261 33.3036 41.8607 33.2393 40.7931 33.2393C39.7255 33.2393 38.8601 33.3036 38.8601 33.383C38.8601 33.4624 39.7255 33.5267 40.7931 33.5267Z" fill="#263238"/>
<path d="M65.7947 33.526C67.0014 33.526 67.9796 33.4616 67.9796 33.3823C67.9796 33.3029 67.0014 33.2385 65.7947 33.2385C64.5881 33.2385 63.6099 33.3029 63.6099 33.3823C63.6099 33.4616 64.5881 33.526 65.7947 33.526Z" fill="#263238"/>
<path d="M60.4798 33.526C61.6864 33.526 62.6646 33.4616 62.6646 33.3823C62.6646 33.3029 61.6864 33.2385 60.4798 33.2385C59.2731 33.2385 58.2949 33.3029 58.2949 33.3823C58.2949 33.4616 59.2731 33.526 60.4798 33.526Z" fill="#263238"/>
<path d="M55.2213 33.5263C56.2887 33.5263 57.154 33.4619 57.154 33.3823C57.154 33.3028 56.2887 33.2383 55.2213 33.2383C54.1539 33.2383 53.2886 33.3028 53.2886 33.3823C53.2886 33.4619 54.1539 33.5263 55.2213 33.5263Z" fill="#263238"/>
<path d="M49.9928 33.5263C51.0604 33.5263 51.9258 33.4619 51.9258 33.3823C51.9258 33.3028 51.0604 33.2383 49.9928 33.2383C48.9253 33.2383 48.0598 33.3028 48.0598 33.3823C48.0598 33.4619 48.9253 33.5263 49.9928 33.5263Z" fill="#263238"/>
<path d="M26.4091 118.345V115.278L20.9126 115.241L20.8672 119.828L21.2078 119.853C22.7239 119.951 28.9233 120.141 29.9392 119.827C31.0722 119.476 26.4091 118.345 26.4091 118.345Z" fill="#E8505B"/>
<path d="M25.4773 119.639C28.0131 119.639 30.0688 119.597 30.0688 119.546C30.0688 119.494 28.0131 119.452 25.4773 119.452C22.9414 119.452 20.8857 119.494 20.8857 119.546C20.8857 119.597 22.9414 119.639 25.4773 119.639Z" fill="#263238"/>
<path d="M26.5053 118.971C26.4602 118.947 26.4991 118.785 26.617 118.626C26.7346 118.465 26.8783 118.38 26.9143 118.416C26.9511 118.453 26.876 118.588 26.7676 118.736C26.6586 118.884 26.5514 118.996 26.5053 118.971Z" fill="#263238"/>
<path d="M26.8563 119.173C26.8085 119.155 26.8331 118.974 26.9415 118.783C27.049 118.591 27.1922 118.476 27.232 118.507C27.2732 118.539 27.204 118.696 27.1043 118.874C27.0033 119.052 26.905 119.192 26.8563 119.173Z" fill="#263238"/>
<path d="M22.5414 119.525C22.52 119.54 22.4381 119.459 22.3193 119.324C22.1999 119.191 22.0428 119.001 21.837 118.842C21.633 118.682 21.4085 118.602 21.2424 118.582C21.0752 118.56 20.9657 118.585 20.9565 118.558C20.9467 118.539 21.0488 118.462 21.2469 118.45C21.442 118.437 21.7179 118.511 21.951 118.694C22.1833 118.874 22.3312 119.091 22.4259 119.246C22.5197 119.404 22.5622 119.511 22.5414 119.525Z" fill="#263238"/>
<path d="M26.5221 118.394C26.5488 118.438 26.4547 118.544 26.2979 118.602C26.1411 118.66 26.0003 118.639 25.9926 118.589C25.9846 118.538 26.0959 118.478 26.2334 118.426C26.3712 118.376 26.4951 118.35 26.5221 118.394Z" fill="#263238"/>
<path d="M26.4357 118.098C26.4408 118.15 26.2944 118.194 26.1088 118.196C25.9231 118.199 25.7756 118.158 25.7791 118.107C25.7827 118.055 25.9291 118.012 26.1064 118.009C26.2831 118.007 26.4307 118.047 26.4357 118.098Z" fill="#263238"/>
<path d="M42.3488 26.8507L42.3995 25.9226C42.3995 25.9226 42.521 25.3667 42.5168 24.3644C42.5157 24.1042 42.4678 23.8468 42.3799 23.602C42.2733 23.3054 42.115 22.9169 41.9627 22.7313C41.7738 22.5015 41.963 22.1617 42.2246 22.2288C42.4863 22.2959 43.0217 22.9169 43.264 23.8435C43.5064 24.7701 44.1306 23.3983 44.367 22.9024C44.6034 22.4067 45.407 20.907 45.617 20.8589C45.9249 20.7885 46.0571 21.1054 45.8094 21.5951C45.5585 22.0907 44.9223 23.6053 45.1902 23.7176C45.1902 23.7176 45.573 23.6249 45.7756 23.6926C45.8433 23.7149 45.8905 23.7553 45.897 23.8227C45.9234 24.0921 45.9837 24.2492 45.9837 24.2492C45.9837 24.2492 46.3526 24.1313 46.4449 24.2875C46.5373 24.4437 46.5649 24.8039 46.5649 24.8039C46.5649 24.8039 46.8453 24.6795 46.9929 24.7751C47.3121 24.9827 46.9685 25.4192 46.9685 25.4192C46.1881 26.6532 44.4941 28.5342 44.4941 28.5342L42.3348 26.7966" fill="#FFBE9D"/>
<path d="M15.9457 26.7896L15.9094 38.6351L20.9913 38.8774L21.138 35.9962C21.138 35.9962 22.943 36.3546 23.4087 34.6782C23.7062 33.6076 23.632 25.3318 23.632 25.3318L15.9457 26.7896Z" fill="#FFBE9D"/>
<path d="M23.3403 23.495C21.7943 23.996 21.4213 24.1629 20.7284 24.2185C20.0635 24.2719 15.3279 24.2758 14.8985 26.9301C14.8486 26.8209 14.7978 26.6899 14.7646 26.5402C14.6639 26.1212 14.7506 25.7681 14.7064 25.7562C14.671 25.7363 14.5038 26.1081 14.6137 26.575C14.6274 26.6358 14.6446 26.6926 14.6642 26.7463C14.6336 26.7145 14.6036 26.6825 14.5688 26.6522C14.3648 26.4758 14.1376 26.3736 13.9681 26.3326C13.7976 26.2907 13.6883 26.3 13.6859 26.319C13.6767 26.3641 14.094 26.4383 14.4676 26.7692C14.6544 26.9278 14.7812 27.1051 14.867 27.2432C14.8667 27.2553 14.8646 27.2666 14.8646 27.2788C14.8646 27.2788 13.8517 26.8336 14.1183 28.6698C14.3847 30.506 15.5842 32.064 15.7309 35.0685C15.7309 35.0685 19.9287 35.5692 20.675 33.9554L21.3022 32.1043C21.3022 32.1043 20.2922 31.9401 20.4098 31.1279C20.5722 30.0038 21.4311 29.9753 22.0708 30.476L22.807 28.5026C22.807 28.5026 24.6726 27.2788 24.7792 26.4995C24.8861 25.7209 24.8861 22.9943 23.3403 23.495Z" fill="#263238"/>
<path d="M1.88788 116.053L1.14307 119.366L6.27392 120L6.45745 116.717L1.88788 116.053Z" fill="#E8505B"/>
<path d="M4.04045 117.741C4.17587 116.907 4.25152 116.226 4.20942 116.219C4.16733 116.213 4.02343 116.882 3.88801 117.716C3.7526 118.549 3.67695 119.23 3.71904 119.237C3.76114 119.244 3.90504 118.574 4.04045 117.741Z" fill="#263238"/>
<path d="M6.29441 119.639C6.28966 119.661 6.00693 119.619 5.55137 119.546C5.04058 119.464 4.43771 119.366 3.7713 119.257C3.07608 119.142 2.44798 119.025 1.99628 118.924C1.54458 118.824 1.26928 118.743 1.27373 118.723C1.27849 118.702 1.56121 118.744 2.01677 118.816C2.52727 118.899 3.13043 118.997 3.79714 119.105C4.49206 119.221 5.12017 119.338 5.57187 119.439C6.02327 119.539 6.29856 119.619 6.29441 119.639Z" fill="#263238"/>
<path d="M9.49372 63.9602L0 117.32L8.13209 117.781C8.13209 117.781 16.7687 71.7856 18.0368 71.6706C18.5681 71.6225 18.781 117.417 19.2078 117.32C19.6349 117.223 27.9929 117.468 27.9929 117.468C27.9929 117.468 26.8621 63.282 26.882 63.2808C26.9016 63.2796 9.49372 63.9602 9.49372 63.9602Z" fill="#263238"/>
<path d="M18.3583 71.3011C20.1054 70.9299 21.5146 70.5952 21.5058 70.5535C21.4969 70.5118 20.0734 70.7788 18.3262 71.15C16.579 71.5211 15.1698 71.8558 15.1786 71.8976C15.1875 71.9393 16.6111 71.6722 18.3583 71.3011Z" fill="#455A64"/>
<path d="M4.61493 114.596C6.88048 114.666 8.71815 114.689 8.71948 114.646C8.72081 114.603 6.88529 114.511 4.61973 114.441C2.35417 114.371 0.516502 114.349 0.515175 114.391C0.513848 114.434 2.34937 114.526 4.61493 114.596Z" fill="#455A64"/>
<path d="M23.502 114.602C25.9485 114.675 27.9327 114.699 27.934 114.657C27.9353 114.614 25.9531 114.52 23.5066 114.448C21.0601 114.375 19.0759 114.35 19.0746 114.393C19.0733 114.435 21.0555 114.529 23.502 114.602Z" fill="#455A64"/>
<path d="M13.5512 72.0274C13.593 72.0363 11.5813 81.5555 9.05881 93.2861C6.53541 105.021 4.45658 114.523 4.4147 114.514C4.37283 114.505 6.38425 104.988 8.90765 93.2534C11.4302 81.5232 13.5093 72.0184 13.5512 72.0274Z" fill="#455A64"/>
<path d="M23.5368 114.52C23.5341 114.52 23.5303 114.483 23.5252 114.41C23.5208 114.329 23.5148 114.222 23.5074 114.086C23.4949 113.793 23.4768 113.376 23.4539 112.843C23.4097 111.762 23.3565 110.199 23.3001 108.267C23.1873 104.402 23.0768 99.0615 23.0477 93.1623C23.0201 87.2611 23.0792 81.9194 23.1549 78.0537C23.1929 76.121 23.2306 74.5571 23.2645 73.4764C23.2823 72.9433 23.2963 72.5258 23.3061 72.2324C23.3123 72.0966 23.3173 71.9897 23.3209 71.909C23.3251 71.8362 23.3286 71.7988 23.3313 71.7991C23.334 71.7991 23.3357 71.8365 23.3366 71.9093C23.3369 71.99 23.3369 72.0972 23.3372 72.2333C23.3343 72.5267 23.3301 72.9445 23.3245 73.4779C23.3102 74.5678 23.2894 76.1296 23.2639 78.0555C23.2164 81.9212 23.1745 87.2617 23.2021 93.1617C23.2312 99.0594 23.3245 104.399 23.4091 108.264C23.4531 110.19 23.4887 111.751 23.5136 112.841C23.5243 113.375 23.5323 113.792 23.5383 114.086C23.5392 114.222 23.5401 114.329 23.5407 114.41C23.5407 114.482 23.5395 114.52 23.5368 114.52Z" fill="#455A64"/>
<path d="M41.5097 26.5835C41.5097 26.5835 35.2138 36.0805 34.6804 36.6142C34.1468 37.1475 24.2866 38.184 24.2863 38.184C21.2592 37.5006 11.4715 37.726 9.62221 39.0877C8.02269 39.9726 6.07869 42.0438 5.07788 46.9667C3.37057 55.3646 1.66325 58.4588 5.07788 59.6327C6.65453 60.1747 8.13941 60.4664 9.28187 60.6232L9.18743 64.4245L26.886 63.3248L25.9799 53.8851C25.8736 51.2352 25.8243 48.4724 25.7587 46.0259C26.8658 45.6063 37.1587 41.7106 37.8655 41.6096C38.6124 41.503 45.3511 29.0377 45.3511 29.0377C45.5649 27.5439 41.5097 26.5835 41.5097 26.5835Z" fill="#E8505B"/>
<path d="M9.76538 43.7715C9.80814 43.7727 9.7134 48.3975 9.55393 54.1C9.39415 59.8043 9.23052 64.4262 9.18776 64.4253C9.14499 64.4241 9.23973 59.8002 9.3995 54.0958C9.55868 48.3933 9.72291 43.7703 9.76538 43.7715Z" fill="#263238"/>
<path d="M35.5668 38.752C35.5255 38.7752 35.2654 38.3137 35.0512 37.7102C34.8371 37.1077 34.6471 36.6334 34.6806 36.6144C34.7216 36.5909 34.9821 37.0527 35.1962 37.6562C35.41 38.2584 35.6001 38.7327 35.5668 38.752Z" fill="#263238"/>
<path d="M36.2725 37.9441C36.2442 37.9712 35.8837 37.6884 35.4284 37.3401C34.9729 36.9914 34.6468 36.647 34.6801 36.6146C34.7083 36.5876 35.0688 36.8703 35.5241 37.2186C35.9799 37.567 36.306 37.9115 36.2725 37.9441Z" fill="#263238"/>
<path d="M45.0098 29.7832C44.9961 29.8017 44.7743 29.6547 44.4131 29.4245C44.0523 29.194 43.548 28.8855 42.9734 28.5772C42.3978 28.2696 41.8615 28.0213 41.4698 27.8487C41.0781 27.6759 40.8328 27.5726 40.8405 27.5512C40.847 27.5325 41.1057 27.5993 41.5108 27.7472C41.9159 27.8951 42.465 28.13 43.0464 28.4409C43.627 28.7521 44.1271 29.0788 44.4749 29.3342C44.8227 29.5893 45.0216 29.7675 45.0098 29.7832Z" fill="#263238"/>
<path d="M9.55317 54.1452C9.54693 54.1824 9.05633 54.1539 8.45851 54.033C7.8604 53.9109 7.40098 53.7206 7.41435 53.682C7.4283 53.6395 7.90139 53.7616 8.48999 53.8815C9.078 54.0006 9.56148 54.0986 9.55317 54.1452Z" fill="#263238"/>
<path d="M25.9028 38.0495C25.9058 38.0795 25.5227 38.0789 24.9537 38.2725C24.3906 38.459 23.6387 38.8876 23.1065 39.6312C22.5764 40.3766 22.4163 41.2271 22.4229 41.8205C22.4249 42.4216 22.5503 42.7833 22.5209 42.7904C22.5123 42.7931 22.4731 42.7064 22.4252 42.5415C22.3768 42.377 22.3287 42.1311 22.3133 41.8229C22.2779 41.2132 22.4255 40.3216 22.9803 39.5412C23.5374 38.7628 24.3321 38.3331 24.9201 38.1683C25.2165 38.0824 25.4648 38.048 25.6361 38.04C25.8078 38.0317 25.9025 38.0403 25.9028 38.0495Z" fill="#263238"/>
<path d="M26.8861 63.3242C26.8887 63.367 22.9286 63.6479 18.0418 63.9514C13.1536 64.2552 9.18988 64.4667 9.1875 64.4242C9.18483 64.3817 13.1441 64.1008 18.0323 63.797C22.9191 63.4935 26.8834 63.282 26.8861 63.3242Z" fill="#263238"/>
<path d="M19.836 37.8633C19.8413 37.8624 19.8592 37.9378 19.8883 38.0833C19.9013 38.1564 19.9239 38.2461 19.937 38.3539C19.9474 38.465 19.9587 38.5897 19.9714 38.7278C20.0074 39.2903 19.9432 40.1254 19.5883 41.0789C19.2219 42.0129 18.543 43.0954 17.3836 43.8099C17.2437 43.9056 17.0878 43.9762 16.9322 44.052C16.7786 44.133 16.6141 44.1904 16.4499 44.2521C16.1202 44.3715 15.7787 44.4719 15.4408 44.5922C15.1028 44.7113 14.7663 44.8517 14.4604 45.0504C14.159 45.2541 13.8885 45.5113 13.6565 45.8092C13.19 46.4052 12.871 47.0885 12.4864 47.7063C12.112 48.326 11.6401 48.895 11.0327 49.2193C10.4269 49.541 9.75961 49.6173 9.16477 49.565C8.56636 49.5113 8.02557 49.3367 7.57209 49.1101C6.65651 48.6622 6.05306 48.0858 5.65333 47.695C5.45376 47.4963 5.30557 47.3356 5.20549 47.2263C5.10659 47.1162 5.0564 47.0565 5.06027 47.0529C5.06413 47.0493 5.12174 47.1016 5.22776 47.2047C5.34536 47.3169 5.50068 47.4657 5.6949 47.6516C6.10621 48.0282 6.71472 48.5847 7.61931 49.0115C8.06685 49.2277 8.59457 49.3904 9.17516 49.437C9.75189 49.4825 10.3922 49.4026 10.9647 49.0937C11.5379 48.7831 11.989 48.2393 12.357 47.6267C12.7353 47.017 13.0531 46.3298 13.5342 45.7138C13.7735 45.4062 14.0574 45.1353 14.3758 44.9218C14.6977 44.713 15.0461 44.5693 15.3894 44.4493C15.7324 44.3353 16.0692 44.2233 16.3994 44.1134C16.5607 44.0535 16.7225 43.9979 16.8707 43.9204C17.0213 43.8474 17.173 43.7802 17.3087 43.6885C18.4369 43.0033 19.1129 41.952 19.4856 41.0394C19.847 40.1078 19.9278 39.2876 19.9105 38.7308C19.9031 38.5936 19.8966 38.4697 19.8906 38.3595C19.8826 38.252 19.8648 38.1623 19.8568 38.089C19.8384 37.942 19.8307 37.8642 19.836 37.8633Z" fill="#263238"/>
<path d="M26.5382 59.6996C26.5334 59.7058 26.4704 59.6542 26.3404 59.5731C26.2112 59.492 26.0113 59.3807 25.7277 59.3221C25.4453 59.2601 25.0868 59.2595 24.6705 59.228C24.2577 59.1947 23.7855 59.1915 23.2607 59.1722C22.7381 59.1523 22.1548 59.1077 21.5555 58.9331C20.9577 58.7632 20.3418 58.4862 19.7728 58.0754C19.2049 57.6659 18.6843 57.1186 18.3155 56.4465C17.9469 55.7777 17.7204 54.9928 17.718 54.1791C17.71 53.3666 17.9371 52.5692 18.3559 51.9254C18.7684 51.2783 19.3415 50.7701 19.9732 50.4571C20.2886 50.2991 20.62 50.1943 20.9479 50.1319C21.2766 50.0734 21.5992 50.0577 21.9083 50.0529C22.5269 50.047 23.098 50.074 23.6118 50.0027C24.6536 49.8946 25.3568 49.2823 25.5976 48.7652C25.7283 48.5072 25.7622 48.2797 25.7821 48.1294C25.8002 47.9774 25.7978 47.896 25.8055 47.896C25.8082 47.8957 25.8109 47.9159 25.8129 47.9557C25.8153 47.9955 25.8183 48.0546 25.8132 48.1321C25.8031 48.2853 25.7788 48.5202 25.6523 48.7911C25.5305 49.0622 25.2998 49.3607 24.9568 49.6081C24.617 49.8626 24.1511 50.0378 23.6272 50.1105C23.1022 50.1907 22.5225 50.1691 21.9113 50.1806C21.6054 50.1878 21.29 50.2062 20.9728 50.2653C20.6571 50.3279 20.3403 50.4304 20.0374 50.5839C19.4312 50.8886 18.88 51.381 18.4845 52.0058C18.0824 52.6277 17.8659 53.3918 17.873 54.1776C17.8751 54.9634 18.0934 55.724 18.4485 56.3729C18.8037 57.0241 19.3062 57.5575 19.8568 57.9593C20.4086 58.3626 21.0082 58.6376 21.5911 58.8093C22.1753 58.9851 22.7452 59.0353 23.2661 59.062C23.7873 59.0881 24.2621 59.0991 24.6782 59.141C25.0895 59.1808 25.4518 59.1897 25.7414 59.2627C26.0318 59.3322 26.2329 59.4561 26.3579 59.5461C26.4212 59.5909 26.4663 59.6292 26.4957 59.6559C26.5254 59.6833 26.5396 59.6978 26.5382 59.6996Z" fill="#263238"/>
<path d="M16.7014 64.0494C16.6801 64.0485 16.7445 63.8175 16.667 63.413C16.5933 63.0219 16.3558 62.4235 15.7526 62.0059C15.6023 61.9061 15.4334 61.8197 15.2466 61.7591C15.0583 61.7012 14.8537 61.6682 14.6395 61.6469C14.2125 61.6002 13.7349 61.6154 13.2482 61.4583C13.0077 61.3772 12.7739 61.2418 12.5818 61.0553C12.3911 60.867 12.24 60.6357 12.1295 60.3838C11.9121 59.8781 11.8536 59.2924 11.9362 58.7231C12.1019 57.5807 12.6032 56.5974 12.6911 55.6292C12.7436 55.1505 12.7131 54.6846 12.5699 54.2845C12.4306 53.8821 12.1729 53.565 11.8806 53.3529C11.2879 52.922 10.6488 52.8795 10.2526 52.9363C9.84634 52.9963 9.64707 53.1272 9.63965 53.1085C9.63965 53.1085 9.82734 52.9576 10.2434 52.8769C10.6482 52.8005 11.3128 52.8234 11.9448 53.2644C12.2554 53.48 12.539 53.818 12.6905 54.2412C12.8473 54.6629 12.8829 55.1502 12.8327 55.6444C12.7469 56.6455 12.2468 57.6392 12.0894 58.7439C12.0098 59.293 12.0662 59.8463 12.2688 60.3238C12.3715 60.5608 12.5111 60.7758 12.6851 60.9496C12.8609 61.1218 13.0712 61.2456 13.2942 61.3232C13.7453 61.474 14.2172 61.4669 14.6532 61.5189C14.8721 61.5438 15.085 61.5806 15.2831 61.6451C15.4812 61.7128 15.6588 61.8075 15.8153 61.9159C16.4416 62.3679 16.6685 62.9972 16.7264 63.4029C16.7585 63.6111 16.7475 63.7756 16.7359 63.8846C16.7184 63.9939 16.7068 64.0503 16.7014 64.0494Z" fill="#263238"/>
<path d="M16.1091 47.6153C16.1049 47.6091 16.1705 47.5523 16.3181 47.5081C16.4631 47.4647 16.6992 47.4463 16.9599 47.5509C17.0885 47.6034 17.2227 47.6866 17.3338 47.8122C17.4434 47.9378 17.528 48.1071 17.5497 48.2951C17.5996 48.663 17.4345 49.1174 17.0362 49.3333C16.6309 49.5376 16.1625 49.4108 15.892 49.1548C15.7518 49.0271 15.6645 48.8581 15.63 48.6945C15.5962 48.5297 15.6131 48.372 15.6511 48.2381C15.7301 47.9678 15.8941 47.7947 16.0212 47.7121C16.1503 47.6272 16.2368 47.6156 16.2385 47.6227C16.2439 47.6355 16.1664 47.6667 16.0577 47.7599C15.9502 47.8511 15.8148 48.0204 15.7569 48.2657C15.696 48.5053 15.7381 48.8347 15.9882 49.0503C16.2234 49.2653 16.6338 49.366 16.9641 49.1964C17.2919 49.0218 17.4455 48.6295 17.408 48.3123C17.3783 47.9838 17.1422 47.7525 16.9162 47.6515C16.6873 47.5452 16.4708 47.5437 16.3312 47.5672C16.1895 47.5904 16.115 47.6275 16.1091 47.6153Z" fill="#263238"/>
<path d="M7.20623 60.2772C7.17327 60.2703 7.31284 59.7551 7.34551 58.9057C7.35234 58.6934 7.35798 58.4612 7.33779 58.212C7.33333 57.9622 7.29295 57.6985 7.25909 57.4206C7.16822 56.8679 7.01943 56.2677 6.78809 55.6634C6.54843 55.062 6.25086 54.52 5.94289 54.0517C5.77926 53.8242 5.63018 53.6026 5.46417 53.4161C5.31004 53.2192 5.14848 53.0523 4.9994 52.9009C4.39951 52.2986 3.94781 52.0147 3.96741 51.9871C3.97335 51.9782 4.0859 52.0471 4.28636 52.1804C4.38793 52.2452 4.5088 52.3292 4.63828 52.4409C4.76895 52.5508 4.92664 52.6672 5.07602 52.8228C5.23193 52.9716 5.40062 53.137 5.56187 53.3333C5.73501 53.5195 5.89033 53.7419 6.0602 53.9712C6.38034 54.4431 6.68771 54.994 6.93182 55.6069C7.16762 56.2229 7.31522 56.8358 7.39956 57.3998C7.43045 57.6837 7.46668 57.9524 7.46549 58.2064C7.48004 58.46 7.46816 58.6958 7.4542 58.9111C7.44975 59.1267 7.41292 59.3188 7.39125 59.4881C7.37164 59.658 7.33957 59.802 7.30898 59.9184C7.25285 60.1524 7.21662 60.2796 7.20623 60.2772Z" fill="#263238"/>
<path d="M38.0205 41.4783C38.0148 41.4889 37.8598 41.4135 37.578 41.2823C37.2961 41.1516 36.8869 40.9654 36.3666 40.7747C35.8463 40.5879 35.212 40.397 34.4891 40.3005C33.7686 40.2013 32.9552 40.2114 32.1418 40.4163C31.3284 40.6182 30.6085 41.0096 30.0796 41.5038C29.5486 41.9974 29.1964 42.569 29.0197 43.0867C28.8394 43.6052 28.8178 44.059 28.8406 44.3649C28.8632 44.6725 28.9119 44.8391 28.8956 44.843C28.8902 44.8445 28.8763 44.8038 28.8534 44.7245C28.8273 44.6458 28.8035 44.5264 28.7806 44.3708C28.7385 44.0608 28.7432 43.5918 28.9161 43.0519C29.085 42.5129 29.439 41.9157 29.9822 41.4002C30.5236 40.8831 31.2681 40.4739 32.1041 40.2669C32.9404 40.0563 33.7749 40.051 34.5087 40.16C35.2449 40.266 35.8849 40.4709 36.4055 40.6729C36.9258 40.8784 37.3306 41.0809 37.605 41.2288C37.7419 41.3033 37.8473 41.363 37.9171 41.4064C37.9872 41.4489 38.0228 41.4738 38.0205 41.4783Z" fill="#263238"/>
<path d="M40.4513 28.1747C40.4551 28.1711 40.4827 28.1949 40.532 28.2442C40.5787 28.2955 40.658 28.3635 40.7367 28.4705C40.9065 28.6745 41.1177 29.0029 41.2867 29.4499C41.4577 29.8953 41.5605 30.4676 41.5219 31.1005C41.4797 31.731 41.2798 32.4214 40.8762 33.0359C40.4682 33.6485 39.9031 34.0973 39.3358 34.3734C38.7677 34.6553 38.2005 34.7779 37.7247 34.8011C37.2481 34.8254 36.8623 34.7681 36.6066 34.698C36.4765 34.6704 36.3818 34.6265 36.3159 34.6051C36.2505 34.5807 36.2173 34.5656 36.2191 34.5605C36.2253 34.5207 36.783 34.7678 37.7167 34.6918C38.1788 34.6556 38.7261 34.5252 39.2717 34.2457C39.8169 33.9719 40.3565 33.5363 40.7471 32.9503C41.1343 32.3608 41.3312 31.6986 41.3796 31.0898C41.4245 30.4792 41.3368 29.9236 41.1833 29.4861C40.8777 28.6011 40.4162 28.1972 40.4513 28.1747Z" fill="#263238"/>
<path d="M18.4829 37.922C19.9079 37.9111 21.0628 37.8675 21.0625 37.8247C21.0621 37.7819 19.9067 37.7561 18.4817 37.767C17.0568 37.778 15.9019 37.8216 15.9022 37.8644C15.9025 37.9072 17.058 37.933 18.4829 37.922Z" fill="#263238"/>
<g clip-path="url(#clip0)">
<rect x="50.0566" y="47.2754" width="23.6378" height="33.8344" fill="#F0F0F0"/>
<path d="M63.3881 53.8833C60.2354 53.1839 56.776 54.8965 55.8903 58.1446C55.0388 61.2648 57.0981 64.9055 60.2285 65.7541C63.2935 66.5852 66.7868 64.6997 67.7995 61.6986C68.9239 58.3662 66.7854 54.776 63.5628 53.7132C63.1888 53.59 63.04 54.1651 63.4015 54.2977C66.149 55.3044 68.1235 58.2707 67.3022 61.2416C66.5212 64.067 63.2096 65.959 60.3791 65.2072C57.6594 64.4846 55.9037 61.5652 56.2495 58.8445C56.6726 55.5134 60.1997 53.5177 63.3385 54.0627C63.4543 54.0831 63.5062 53.9098 63.3881 53.8833Z" fill="#263238"/>
<path d="M60.2546 65.6599C63.4749 66.6504 67.1828 64.8002 68.1482 61.4751C69.1317 58.088 66.9413 54.4297 63.6432 53.4211C62.8821 53.1885 62.6105 54.312 63.321 54.5901C66.1149 55.683 67.9656 58.7104 66.8611 61.6818C65.879 64.3242 62.9841 65.5997 60.3037 65.2952C60.0891 65.2701 60.0623 65.6006 60.2546 65.6599Z" fill="#E8505B"/>
<path d="M61.9024 71.322C65.4407 71.322 68.3091 71.2679 68.3091 71.201C68.3091 71.1342 65.4407 71.0801 61.9024 71.0801C58.364 71.0801 55.4956 71.1342 55.4956 71.201C55.4956 71.2679 58.364 71.322 61.9024 71.322Z" fill="#E8505B"/>
<path d="M61.9024 73.2654C65.4407 73.2654 68.3091 73.2112 68.3091 73.1444C68.3091 73.0776 65.4407 73.0234 61.9024 73.0234C58.364 73.0234 55.4956 73.0776 55.4956 73.1444C55.4956 73.2112 58.364 73.2654 61.9024 73.2654Z" fill="#E8505B"/>
</g>
<defs>
<clipPath id="clip0">
<rect x="50.0564" y="47.2754" width="23.6025" height="33.0776" rx="2" fill="white"/>
</clipPath>
</defs>
</svg>
