<svg width="212" height="259" viewBox="0 0 212 259" fill="none" xmlns="http://www.w3.org/2000/svg">
<path opacity="0.5" d="M212 257.001H44.7825V228.376L127.623 137.7C139.579 124.33 148.062 113.189 153.072 104.275C158.197 95.2478 160.759 86.2203 160.759 77.1927C160.759 65.3083 157.4 55.7094 150.681 48.396C144.077 41.0825 135.138 37.4258 123.865 37.4258C110.428 37.4258 100.009 41.5396 92.6077 49.7672C85.2062 57.9949 81.5055 69.2507 81.5055 83.5349H40C40 68.3366 43.4161 54.681 50.2483 42.5681C57.1943 30.3409 67.044 20.8562 79.7974 14.1141C92.6647 7.37202 107.468 4.00098 124.207 4.00098C148.347 4.00098 167.363 10.1146 181.255 22.3418C195.261 34.4547 202.264 51.2528 202.264 72.7361C202.264 85.1918 198.734 98.276 191.674 111.989C184.728 125.587 173.284 141.071 157.343 158.441L96.5362 223.748H212V257.001Z" fill="#8CBBE6"/>
<path d="M78.5983 39.9258H42.1931C41.2211 39.9258 40.4336 39.1383 40.4336 38.1663V1.7611C40.4336 0.789093 41.2217 0.000976562 42.1931 0.000976562H78.5983C79.5703 0.000976562 80.3578 0.789093 80.3578 1.7611V38.1663C80.3578 39.1377 79.5703 39.9258 78.5983 39.9258Z" fill="#F0F0F0"/>
<path d="M72.0627 9.85327H72.0146C70.662 9.85327 69.5651 9.93977 69.5651 10.0461C69.5651 10.1461 70.5281 10.2268 71.759 10.2371C71.6347 10.3659 71.4572 10.5555 71.231 10.8048C70.737 11.359 70.0854 12.0901 69.2902 12.982C67.6473 14.8735 65.4258 17.4294 62.9007 20.3359C62.0267 19.7515 61.1258 19.1498 60.2031 18.5328C59.7245 18.2144 59.2516 17.8997 58.8063 17.6031L58.6641 17.5089L58.5539 17.6383C55.7006 20.974 53.1774 23.9529 51.3769 26.1064C50.5119 27.1521 49.8019 28.012 49.2675 28.6585C48.7774 29.264 48.5179 29.6036 48.5365 29.6203C48.5557 29.6363 48.8517 29.3274 49.3752 28.7508C49.9326 28.1235 50.6733 27.2899 51.5749 26.2756C53.4036 24.1944 55.9204 21.2931 58.7346 18.017C59.1389 18.2868 59.5605 18.568 59.9891 18.8545C60.9618 19.501 61.9114 20.1334 62.8296 20.7434L62.9699 20.8369L63.0775 20.7088C65.6091 17.7152 67.8351 15.083 69.4766 13.1422C70.2366 12.2202 70.8587 11.4647 71.3316 10.8913C71.57 10.5959 71.7385 10.3812 71.8442 10.2384C71.8532 10.2384 71.8621 10.2384 71.8711 10.2384C71.8807 11.4769 71.9621 12.4476 72.062 12.4476C72.1671 12.4476 72.253 11.3776 72.2549 10.0468V9.85391H72.0627V9.85327Z" fill="#E0E0E0"/>
<path d="M173.212 26.6482H192.744C192.744 37.3628 183.927 46.1788 173.212 46.1788C162.498 46.1788 153.682 37.3621 153.682 26.6482C153.682 16.1041 162.22 7.36629 172.761 7.1228L173.212 26.6482Z" fill="#F0F0F0"/>
<path d="M178.477 21.887L178.035 2.35645C183.121 2.35645 188.452 4.34275 192.097 7.88992C195.742 11.4371 197.861 16.5002 197.999 21.5839L178.477 21.887Z" fill="#EBEBEB"/>
<path d="M75.1226 24.4056V83.6489C75.1226 84.965 76.1894 86.0318 77.5055 86.0318H156.42C157.736 86.0318 158.803 84.965 158.803 83.6489V22.3463C158.803 21.0058 157.697 19.9287 156.357 19.964L77.4433 22.0233C76.1522 22.0573 75.1226 23.1139 75.1226 24.4056Z" fill="#E0E0E0"/>
<path d="M151.757 34.7729C151.727 34.8351 150.751 34.2693 148.837 33.6638C146.938 33.0749 144.009 32.506 140.465 33.0423C138.707 33.3236 136.803 33.856 134.943 34.8171C133.071 35.7558 131.286 37.1475 129.513 38.7225C127.733 40.2936 125.965 42.0774 123.927 43.7267C121.887 45.3497 119.548 46.8849 116.796 47.5859C115.43 47.9377 114 48.0286 112.633 47.8371C111.264 47.6506 109.97 47.2021 108.775 46.6459C106.384 45.5188 104.339 44.0381 102.314 42.8034C100.302 41.5437 98.2807 40.5447 96.2361 40.0783C94.2037 39.5843 92.2302 39.4837 90.4547 39.6349C86.8819 39.9469 84.1786 41.2118 82.4742 42.2331C80.7621 43.2794 79.9542 44.0669 79.9087 44.0118C79.8946 43.9964 80.0938 43.8004 80.4885 43.4416C80.8768 43.0763 81.4964 42.5842 82.3461 42.0281C84.0338 40.9305 86.7601 39.574 90.4137 39.1979C92.2289 39.0146 94.2569 39.0903 96.3566 39.5779C98.4685 40.0347 100.578 41.058 102.612 42.3145C104.665 43.5498 106.71 45.0107 109.031 46.093C111.328 47.1995 114.031 47.6916 116.645 46.9842C119.26 46.3204 121.542 44.8397 123.547 43.2525C125.553 41.6404 127.329 39.8675 129.136 38.2932C130.936 36.7157 132.771 35.3054 134.712 34.3577C136.637 33.3883 138.6 32.8673 140.403 32.6085C144.04 32.1157 147.013 32.7674 148.914 33.4344C149.874 33.7663 150.589 34.1059 151.058 34.3571C151.527 34.6114 151.767 34.7543 151.757 34.7729Z" fill="#455A64"/>
<path d="M101.478 48.6892H93.76V69.5653H101.478V48.6892Z" fill="#455A64"/>
<path d="M134.232 48.6892H126.514V69.5653H134.232V48.6892Z" fill="#455A64"/>
<path d="M145.15 36.4307H137.431V69.5655H145.15V36.4307Z" fill="#455A64"/>
<path d="M91.4899 62.9932H83.7715V70.0189H91.4899V62.9932Z" fill="#455A64"/>
<path d="M112.397 58.1165H104.678V69.5653H112.397V58.1165Z" fill="#455A64"/>
<path d="M123.314 55.488H115.596V69.5652H123.314V55.488Z" fill="#455A64"/>
<path d="M97.6194 72.3358C99.9224 72.3358 101.789 72.197 101.789 72.0257C101.789 71.8544 99.9224 71.7156 97.6194 71.7156C95.3164 71.7156 93.4495 71.8544 93.4495 72.0257C93.4495 72.197 95.3164 72.3358 97.6194 72.3358Z" fill="#263238"/>
<path d="M88.0144 72.3361C90.3177 72.3361 92.185 72.1972 92.185 72.0259C92.185 71.8547 90.3177 71.7158 88.0144 71.7158C85.711 71.7158 83.8438 71.8547 83.8438 72.0259C83.8438 72.1972 85.711 72.3361 88.0144 72.3361Z" fill="#263238"/>
<path d="M141.957 72.3358C144.56 72.3358 146.671 72.197 146.671 72.0257C146.671 71.8544 144.56 71.7156 141.957 71.7156C139.353 71.7156 137.243 71.8544 137.243 72.0257C137.243 72.197 139.353 72.3358 141.957 72.3358Z" fill="#263238"/>
<path d="M130.49 72.3358C133.093 72.3358 135.204 72.197 135.204 72.0257C135.204 71.8544 133.093 71.7156 130.49 71.7156C127.886 71.7156 125.776 71.8544 125.776 72.0257C125.776 72.197 127.886 72.3358 130.49 72.3358Z" fill="#263238"/>
<path d="M119.144 72.3366C121.447 72.3366 123.314 72.1975 123.314 72.0258C123.314 71.8542 121.447 71.7151 119.144 71.7151C116.841 71.7151 114.974 71.8542 114.974 72.0258C114.974 72.1975 116.841 72.3366 119.144 72.3366Z" fill="#263238"/>
<path d="M107.863 72.3366C110.166 72.3366 112.034 72.1975 112.034 72.0258C112.034 71.8542 110.166 71.7151 107.863 71.7151C105.56 71.7151 103.693 71.8542 103.693 72.0258C103.693 72.1975 105.56 72.3366 107.863 72.3366Z" fill="#263238"/>
<path d="M56.9792 255.338V248.72L45.1203 248.641L45.0222 258.537L45.7572 258.591C49.0282 258.803 62.4037 259.213 64.5957 258.534C67.0401 257.778 56.9792 255.338 56.9792 255.338Z" fill="#E8505B"/>
<path d="M54.9689 258.131C60.4402 258.131 64.8755 258.04 64.8755 257.929C64.8755 257.817 60.4402 257.726 54.9689 257.726C49.4977 257.726 45.0624 257.817 45.0624 257.929C45.0624 258.04 49.4977 258.131 54.9689 258.131Z" fill="#263238"/>
<path d="M57.1869 256.689C57.0895 256.637 57.1735 256.288 57.4278 255.943C57.6816 255.597 57.9917 255.414 58.0692 255.492C58.1487 255.572 57.9866 255.863 57.7527 256.182C57.5175 256.5 57.2862 256.742 57.1869 256.689Z" fill="#263238"/>
<path d="M57.944 257.125C57.8408 257.086 57.894 256.694 58.1279 256.282C58.3599 255.868 58.6687 255.62 58.7545 255.688C58.8436 255.758 58.6943 256.095 58.479 256.48C58.2612 256.863 58.0491 257.166 57.944 257.125Z" fill="#263238"/>
<path d="M48.6344 257.884C48.5883 257.917 48.4114 257.742 48.1551 257.451C47.8976 257.163 47.5586 256.754 47.1146 256.41C46.6744 256.066 46.19 255.893 45.8318 255.849C45.4711 255.801 45.2346 255.857 45.2148 255.798C45.1936 255.755 45.414 255.59 45.8414 255.565C46.2624 255.536 46.8576 255.696 47.3606 256.09C47.8617 256.48 48.1808 256.947 48.3852 257.283C48.5876 257.624 48.6793 257.853 48.6344 257.884Z" fill="#263238"/>
<path d="M57.2232 255.445C57.2808 255.538 57.0777 255.768 56.7394 255.892C56.4011 256.017 56.0974 255.973 56.0807 255.864C56.0634 255.754 56.3037 255.624 56.6004 255.514C56.8977 255.405 57.1649 255.349 57.2232 255.445Z" fill="#263238"/>
<path d="M57.0369 254.805C57.0478 254.916 56.7319 255.011 56.3315 255.017C55.931 255.022 55.6126 254.935 55.6203 254.825C55.6279 254.713 55.9438 254.619 56.3264 254.614C56.7076 254.609 57.0261 254.694 57.0369 254.805Z" fill="#263238"/>
<path d="M91.3705 57.9326L91.48 55.9303C91.48 55.9303 91.7421 54.7308 91.7331 52.5683C91.7306 52.007 91.6274 51.4515 91.4378 50.9235C91.2077 50.2834 90.8662 49.4453 90.5375 49.0448C90.13 48.5489 90.5381 47.8159 91.1026 47.9607C91.6671 48.1055 92.8224 49.4453 93.3453 51.4444C93.8681 53.4436 95.2149 50.484 95.725 49.4139C96.235 48.3445 97.9689 45.1087 98.4219 45.0049C99.0863 44.8531 99.3715 45.5368 98.8371 46.5934C98.2956 47.6628 96.9232 50.9306 97.5011 51.1728C97.5011 51.1728 98.327 50.9728 98.764 51.1189C98.9101 51.167 99.012 51.2541 99.0261 51.3996C99.0831 51.9807 99.2132 52.3197 99.2132 52.3197C99.2132 52.3197 100.009 52.0653 100.208 52.4023C100.408 52.7394 100.467 53.5166 100.467 53.5166C100.467 53.5166 101.072 53.2481 101.39 53.4545C102.079 53.9023 101.338 54.8442 101.338 54.8442C99.654 57.5065 95.9992 61.565 95.9992 61.565L91.3404 57.816" fill="#FFBE9D"/>
<path d="M34.4039 57.8007L34.3257 83.3581L45.2901 83.8809L45.6066 77.6644C45.6066 77.6644 49.5011 78.4378 50.5058 74.8208C51.1478 72.5109 50.9876 54.6553 50.9876 54.6553L34.4039 57.8007Z" fill="#FFBE9D"/>
<path d="M50.3584 50.6928C47.0227 51.7737 46.2179 52.1338 44.723 52.2536C43.2884 52.3689 33.0711 52.3773 32.1446 58.1043C32.0369 57.8685 31.9274 57.5859 31.8556 57.263C31.6384 56.3589 31.8255 55.597 31.73 55.5714C31.6538 55.5285 31.293 56.3307 31.5301 57.3379C31.5596 57.4693 31.5967 57.5917 31.639 57.7076C31.573 57.6391 31.5083 57.5699 31.4333 57.5045C30.9931 57.1239 30.503 56.9035 30.1371 56.8151C29.7693 56.7247 29.5335 56.7446 29.5284 56.7856C29.5085 56.883 30.4088 57.0432 31.2148 57.757C31.6179 58.0991 31.8915 58.4817 32.0766 58.7796C32.076 58.8059 32.0715 58.8302 32.0715 58.8565C32.0715 58.8565 29.8859 57.896 30.4613 61.8577C31.0361 65.8195 33.624 69.1808 33.9406 75.6632C33.9406 75.6632 42.9975 76.7435 44.6077 73.2617L45.9609 69.2679C45.9609 69.2679 43.7818 68.9136 44.0355 67.1612C44.386 64.736 46.239 64.6745 47.6192 65.7547L49.2076 61.497C49.2076 61.497 53.2328 58.8565 53.4628 57.1752C53.6935 55.4951 53.6935 49.6125 50.3584 50.6928Z" fill="#263238"/>
<path d="M4.07305 250.392L2.46606 257.541L13.5362 258.909L13.9322 251.825L4.07305 250.392Z" fill="#E8505B"/>
<path d="M8.717 254.034C9.00914 252.236 9.17234 250.766 9.08152 250.752C8.9907 250.737 8.68024 252.182 8.3881 253.98C8.09596 255.778 7.93276 257.248 8.02358 257.262C8.1144 257.277 8.42486 255.832 8.717 254.034Z" fill="#263238"/>
<path d="M13.5801 258.13C13.5699 258.176 12.9599 258.085 11.977 257.929C10.8749 257.751 9.57417 257.54 8.13634 257.306C6.63635 257.056 5.28118 256.805 4.30661 256.587C3.33203 256.37 2.73806 256.197 2.74767 256.154C2.75793 256.107 3.36791 256.198 4.35082 256.355C5.45226 256.534 6.75361 256.744 8.19208 256.978C9.69143 257.228 11.0466 257.48 12.0212 257.698C12.9951 257.914 13.5891 258.087 13.5801 258.13Z" fill="#263238"/>
<path d="M20.4833 137.999L0 253.126L17.5455 254.121C17.5455 254.121 36.1797 154.883 38.9156 154.635C40.0619 154.531 40.5214 253.336 41.4421 253.126C42.3635 252.917 60.3966 253.446 60.3966 253.446C60.3966 253.446 57.9567 136.536 57.9996 136.533C58.0419 136.53 20.4833 137.999 20.4833 137.999Z" fill="#263238"/>
<path d="M39.6096 153.837C43.3792 153.037 46.4197 152.314 46.4005 152.224C46.3814 152.134 43.31 152.711 39.5403 153.511C35.7707 154.312 32.7302 155.034 32.7493 155.124C32.7685 155.214 35.8399 154.638 39.6096 153.837Z" fill="#455A64"/>
<path d="M9.95687 247.25C14.845 247.401 18.8099 247.449 18.8127 247.357C18.8156 247.265 14.8553 247.067 9.96724 246.915C5.07916 246.764 1.11426 246.716 1.11139 246.808C1.10853 246.9 5.06879 247.098 9.95687 247.25Z" fill="#455A64"/>
<path d="M50.7072 247.262C55.9856 247.42 60.2668 247.473 60.2696 247.381C60.2723 247.289 55.9955 247.086 50.7172 246.929C45.4388 246.772 41.1576 246.719 41.1548 246.811C41.1521 246.903 45.4288 247.105 50.7072 247.262Z" fill="#455A64"/>
<path d="M29.2373 155.405C29.3277 155.424 24.9873 175.962 19.5448 201.272C14.1004 226.59 9.61517 247.092 9.52482 247.072C9.43448 247.053 13.7742 226.52 19.2187 201.201C24.6611 175.893 29.147 155.386 29.2373 155.405Z" fill="#455A64"/>
<path d="M50.7824 247.085C50.7766 247.085 50.7683 247.004 50.7574 246.847C50.7478 246.674 50.735 246.443 50.7189 246.149C50.692 245.517 50.6529 244.616 50.6036 243.466C50.5081 241.135 50.3934 237.762 50.2717 233.593C50.0282 225.254 49.7899 213.732 49.7271 201.004C49.6675 188.272 49.795 176.747 49.9584 168.407C50.0404 164.237 50.1218 160.862 50.1948 158.531C50.2333 157.381 50.2634 156.48 50.2845 155.847C50.298 155.554 50.3089 155.323 50.3166 155.149C50.3255 154.992 50.3332 154.911 50.339 154.912C50.3448 154.912 50.3486 154.993 50.3505 155.15C50.3512 155.324 50.3512 155.555 50.3518 155.849C50.3454 156.482 50.3364 157.383 50.3242 158.534C50.2935 160.886 50.2486 164.255 50.1935 168.41C50.091 176.751 50.0007 188.274 50.0603 201.003C50.123 213.728 50.3242 225.248 50.5069 233.588C50.6017 237.742 50.6786 241.111 50.7324 243.463C50.7555 244.614 50.7728 245.514 50.7856 246.148C50.7875 246.442 50.7894 246.672 50.7907 246.847C50.7907 247.004 50.7881 247.084 50.7824 247.085Z" fill="#455A64"/>
<path d="M89.5597 57.356C89.5597 57.356 75.9759 77.8463 74.8251 78.9978C73.6737 80.1485 52.3997 82.3847 52.399 82.3847C45.8679 80.9104 24.7502 81.3967 20.7603 84.3345C17.3093 86.2439 13.115 90.7125 10.9557 101.334C7.27201 119.453 3.58837 126.129 10.9557 128.662C14.3574 129.831 17.5611 130.46 20.026 130.799L19.8223 139L58.0081 136.628L56.0532 116.261C55.8238 110.544 55.7174 104.583 55.5758 99.3042C57.9645 98.3989 80.1721 89.9936 81.6971 89.7757C83.3086 89.5457 97.8477 62.6511 97.8477 62.6511C98.309 59.4281 89.5597 57.356 89.5597 57.356Z" fill="#E8505B"/>
<path d="M21.0691 94.4404C21.1613 94.443 20.9569 104.421 20.6128 116.725C20.2681 129.032 19.9151 139.004 19.8228 139.002C19.7305 139 19.9349 129.023 20.2797 116.716C20.6231 104.412 20.9774 94.4379 21.0691 94.4404Z" fill="#263238"/>
<path d="M76.7372 83.6105C76.6482 83.6605 76.0869 82.6648 75.6249 81.3628C75.1629 80.0627 74.7528 79.0394 74.8252 78.9984C74.9137 78.9478 75.4756 79.9442 75.9376 81.2462C76.3989 82.5456 76.809 83.5689 76.7372 83.6105Z" fill="#263238"/>
<path d="M78.26 81.8671C78.1992 81.9254 77.4213 81.3154 76.439 80.5638C75.4561 79.8116 74.7526 79.0683 74.8244 78.9985C74.8852 78.9402 75.6631 79.5502 76.6454 80.3018C77.6289 81.0534 78.3324 81.7966 78.26 81.8671Z" fill="#263238"/>
<path d="M97.111 64.2597C97.0816 64.2995 96.6029 63.9823 95.8238 63.4857C95.0453 62.9885 93.9573 62.3228 92.7174 61.6577C91.4757 60.9938 90.3185 60.4582 89.4734 60.0859C88.6282 59.713 88.099 59.49 88.1156 59.4439C88.1297 59.4035 88.6878 59.5477 89.5618 59.8668C90.4358 60.1859 91.6205 60.6927 92.8751 61.3636C94.1277 62.0351 95.2067 62.7399 95.957 63.2909C96.7074 63.8413 97.1367 64.2258 97.111 64.2597Z" fill="#263238"/>
<path d="M20.6114 116.823C20.5979 116.903 19.5394 116.841 18.2496 116.58C16.9591 116.317 15.9679 115.906 15.9967 115.823C16.0268 115.731 17.0475 115.995 18.3175 116.254C19.5862 116.511 20.6293 116.722 20.6114 116.823Z" fill="#263238"/>
<path d="M55.887 82.0949C55.8934 82.1596 55.0669 82.1583 53.8392 82.5761C52.6244 82.9785 51.002 83.9031 49.8538 85.5075C48.7101 87.1158 48.3647 88.9509 48.3788 90.2311C48.3833 91.5279 48.6537 92.3084 48.5902 92.3238C48.5717 92.3295 48.4871 92.1424 48.3839 91.7868C48.2795 91.4318 48.1757 90.9013 48.1424 90.2362C48.0661 88.9207 48.3846 86.9972 49.5815 85.3134C50.7835 83.634 52.4981 82.7068 53.7668 82.3512C54.4063 82.166 54.9419 82.0917 55.3117 82.0744C55.682 82.0565 55.8864 82.075 55.887 82.0949Z" fill="#263238"/>
<path d="M58.0081 136.627C58.0139 136.719 49.4695 137.325 38.9261 137.98C28.3794 138.636 19.8274 139.092 19.8223 139C19.8165 138.908 28.3589 138.302 38.9056 137.647C49.449 136.992 58.0023 136.536 58.0081 136.627Z" fill="#263238"/>
<path d="M42.7971 81.6934C42.8086 81.6915 42.847 81.8542 42.9098 82.1682C42.938 82.3258 42.9867 82.5193 43.0149 82.7519C43.0373 82.9915 43.0617 83.2606 43.0892 83.5586C43.1668 84.7722 43.0284 86.5739 42.2627 88.6314C41.472 90.6465 40.0073 92.982 37.5058 94.5237C37.204 94.73 36.8676 94.8825 36.5319 95.0459C36.2006 95.2208 35.8456 95.3444 35.4913 95.4777C34.7801 95.7353 34.0432 95.9519 33.314 96.2114C32.5849 96.4683 31.8589 96.7714 31.1989 97.2C30.5486 97.6396 29.9649 98.1945 29.4644 98.8371C28.4578 100.123 27.7697 101.597 26.9399 102.93C26.1319 104.267 25.1138 105.495 23.8035 106.195C22.4963 106.889 21.0566 107.053 19.7732 106.941C18.4821 106.825 17.3153 106.448 16.3369 105.959C14.3614 104.993 13.0595 103.749 12.197 102.906C11.7664 102.477 11.4467 102.131 11.2308 101.895C11.0174 101.657 10.9091 101.528 10.9174 101.521C10.9258 101.513 11.0501 101.626 11.2788 101.848C11.5326 102.09 11.8677 102.411 12.2867 102.812C13.1741 103.625 14.487 104.826 16.4387 105.746C17.4043 106.213 18.5429 106.564 19.7956 106.664C21.0399 106.763 22.4214 106.59 23.6567 105.924C24.8934 105.254 25.8667 104.08 26.6605 102.758C27.4768 101.443 28.1624 99.9604 29.2005 98.6315C29.7169 97.9677 30.3294 97.3833 31.0163 96.9226C31.7109 96.4722 32.4625 96.162 33.2032 95.9032C33.9432 95.6571 34.6699 95.4156 35.3824 95.1785C35.7303 95.0491 36.0795 94.9292 36.3992 94.762C36.7241 94.6044 37.0515 94.4596 37.3443 94.2616C39.7785 92.7834 41.2368 90.5151 42.041 88.5461C42.8208 86.5361 42.995 84.7664 42.9579 83.565C42.9419 83.269 42.9278 83.0018 42.915 82.7641C42.8977 82.5321 42.8592 82.3386 42.8419 82.1803C42.8022 81.8632 42.7855 81.6953 42.7971 81.6934Z" fill="#263238"/>
<path d="M57.2574 128.806C57.2471 128.82 57.1113 128.708 56.8306 128.533C56.5519 128.358 56.1207 128.118 55.5088 127.992C54.8994 127.858 54.126 127.857 53.2277 127.789C52.3371 127.717 51.3183 127.71 50.1861 127.668C49.0584 127.625 47.8 127.529 46.507 127.152C45.2171 126.786 43.8882 126.188 42.6606 125.302C41.4355 124.418 40.3122 123.237 39.5164 121.787C38.7213 120.344 38.2324 118.651 38.2272 116.895C38.2099 115.142 38.7001 113.422 39.6036 112.033C40.4936 110.637 41.7302 109.54 43.0931 108.865C43.7735 108.524 44.4886 108.298 45.196 108.163C45.9053 108.037 46.6011 108.003 47.2682 107.993C48.6028 107.98 49.835 108.038 50.9435 107.885C53.1912 107.651 54.7085 106.33 55.2281 105.215C55.5101 104.658 55.5831 104.167 55.626 103.843C55.6651 103.515 55.66 103.339 55.6767 103.339C55.6824 103.338 55.6882 103.382 55.6927 103.468C55.6978 103.554 55.7042 103.681 55.6933 103.849C55.6715 104.179 55.619 104.686 55.346 105.27C55.0833 105.855 54.5855 106.499 53.8454 107.033C53.1124 107.582 52.1071 107.96 50.9768 108.117C49.844 108.29 48.5932 108.243 47.2746 108.268C46.6146 108.284 45.9341 108.323 45.2498 108.451C44.5687 108.586 43.885 108.807 43.2315 109.138C41.9237 109.796 40.7345 110.858 39.881 112.206C39.0134 113.548 38.5463 115.197 38.5617 116.892C38.5662 118.588 39.0372 120.229 39.8035 121.629C40.5698 123.034 41.654 124.184 42.8419 125.051C44.0324 125.922 45.3261 126.515 46.5838 126.885C47.8442 127.265 49.0738 127.373 50.1976 127.43C51.3222 127.487 52.3467 127.511 53.2444 127.601C54.1318 127.687 54.9135 127.706 55.5383 127.864C56.1649 128.014 56.5987 128.281 56.8684 128.475C57.0049 128.572 57.1023 128.654 57.1657 128.712C57.2298 128.771 57.2606 128.802 57.2574 128.806Z" fill="#263238"/>
<path d="M36.0341 138.191C35.988 138.189 36.127 137.691 35.9598 136.818C35.8009 135.974 35.2883 134.683 33.9869 133.782C33.6627 133.567 33.2981 133.38 32.8951 133.25C32.4889 133.125 32.0474 133.054 31.5854 133.008C30.664 132.907 29.6337 132.94 28.5835 132.601C28.0645 132.426 27.5603 132.134 27.1457 131.731C26.7344 131.325 26.4082 130.826 26.1699 130.282C25.7008 129.191 25.5746 127.928 25.7527 126.699C26.1103 124.234 27.1918 122.113 27.3815 120.024C27.4949 118.991 27.4289 117.986 27.1201 117.123C26.8196 116.255 26.2634 115.57 25.6329 115.113C24.354 114.183 22.9751 114.091 22.1203 114.214C21.2438 114.343 20.8139 114.626 20.7979 114.586C20.7979 114.586 21.2028 114.26 22.1005 114.086C22.9738 113.921 24.4078 113.97 25.7713 114.922C26.4415 115.387 27.0534 116.116 27.3802 117.029C27.7185 117.939 27.7954 118.991 27.6871 120.057C27.502 122.217 26.423 124.361 26.0834 126.744C25.9116 127.929 26.0334 129.123 26.4704 130.153C26.6921 130.664 26.9932 131.128 27.3687 131.503C27.748 131.875 28.2017 132.142 28.6829 132.309C29.6561 132.635 30.6743 132.619 31.6149 132.731C32.0871 132.785 32.5466 132.865 32.9739 133.004C33.4013 133.15 33.7845 133.354 34.1221 133.588C35.4735 134.563 35.963 135.921 36.0879 136.796C36.1571 137.245 36.1334 137.6 36.1085 137.836C36.0706 138.071 36.0457 138.193 36.0341 138.191Z" fill="#263238"/>
<path d="M34.7562 102.734C34.7472 102.72 34.8888 102.598 35.2073 102.502C35.52 102.409 36.0294 102.369 36.5919 102.595C36.8694 102.708 37.159 102.887 37.3986 103.158C37.6351 103.429 37.8177 103.795 37.8645 104.2C37.9721 104.994 37.6158 105.975 36.7566 106.44C35.882 106.881 34.8715 106.608 34.2878 106.055C33.9854 105.78 33.797 105.415 33.7227 105.062C33.6496 104.706 33.6862 104.366 33.7682 104.077C33.9386 103.494 34.2923 103.121 34.5665 102.943C34.8453 102.759 35.0317 102.734 35.0356 102.75C35.0471 102.777 34.8799 102.844 34.6453 103.046C34.4134 103.242 34.1212 103.608 33.9963 104.137C33.8649 104.654 33.9559 105.365 34.4954 105.83C35.0029 106.294 35.8884 106.511 36.6009 106.145C37.3083 105.768 37.6396 104.922 37.5588 104.237C37.4947 103.529 36.9854 103.03 36.4977 102.812C36.0037 102.582 35.5366 102.579 35.2355 102.63C34.9298 102.68 34.769 102.76 34.7562 102.734Z" fill="#263238"/>
<path d="M15.5474 130.052C15.4763 130.038 15.7774 128.926 15.8479 127.093C15.8626 126.635 15.8748 126.134 15.8312 125.597C15.8216 125.058 15.7345 124.489 15.6614 123.889C15.4654 122.697 15.1444 121.402 14.6452 120.098C14.1281 118.8 13.4861 117.631 12.8217 116.62C12.4686 116.13 12.147 115.652 11.7888 115.249C11.4562 114.824 11.1077 114.464 10.786 114.138C9.49172 112.838 8.51714 112.226 8.55943 112.166C8.57225 112.147 8.81509 112.295 9.24759 112.583C9.46673 112.723 9.72751 112.904 10.0069 113.145C10.2888 113.382 10.629 113.633 10.9513 113.969C11.2877 114.29 11.6517 114.647 11.9996 115.07C12.3731 115.472 12.7083 115.952 13.0748 116.447C13.7655 117.465 14.4287 118.654 14.9553 119.976C15.4641 121.305 15.7825 122.627 15.9645 123.844C16.0312 124.457 16.1093 125.037 16.1068 125.584C16.1382 126.132 16.1125 126.64 16.0824 127.105C16.0728 127.57 15.9934 127.985 15.9466 128.35C15.9043 128.716 15.8351 129.027 15.7691 129.278C15.648 129.783 15.5698 130.057 15.5474 130.052Z" fill="#263238"/>
<path d="M82.0313 89.4929C82.0191 89.516 81.6846 89.3532 81.0766 89.07C80.4685 88.7881 79.5855 88.3863 78.463 87.975C77.3404 87.572 75.9717 87.16 74.4122 86.9517C72.8577 86.7377 71.1027 86.7595 69.3477 87.2016C67.5927 87.6373 66.0396 88.4818 64.8984 89.548C63.7527 90.6129 62.9928 91.8464 62.6116 92.9632C62.2226 94.0819 62.1759 95.061 62.2252 95.7209C62.2739 96.3848 62.379 96.7442 62.3437 96.7525C62.3322 96.7557 62.3021 96.668 62.2528 96.4969C62.1964 96.3271 62.1451 96.0695 62.0958 95.7338C62.0048 95.0648 62.015 94.0531 62.388 92.8882C62.7525 91.7253 63.5163 90.4367 64.6882 89.3244C65.8563 88.2089 67.4627 87.3259 69.2664 86.8793C71.0707 86.425 72.8712 86.4135 74.4545 86.6486C76.0429 86.8774 77.4237 87.3195 78.5469 87.7552C79.6695 88.1986 80.5428 88.6356 81.1349 88.9547C81.4303 89.1155 81.6577 89.2443 81.8083 89.3378C81.9595 89.4295 82.0364 89.4833 82.0313 89.4929Z" fill="#263238"/>
<path d="M87.2762 60.7896C87.2845 60.7819 87.3441 60.8331 87.4505 60.9395C87.5511 61.0504 87.7221 61.1971 87.8919 61.4278C88.2584 61.8679 88.714 62.5766 89.0786 63.5409C89.4477 64.502 89.6694 65.7368 89.5861 67.1022C89.4951 68.4625 89.0639 69.9522 88.1931 71.2779C87.3127 72.5998 86.0934 73.5679 84.8695 74.1638C83.6438 74.7719 82.42 75.0365 81.3935 75.0865C80.3651 75.139 79.5328 75.0154 78.9811 74.8642C78.7005 74.8046 78.4961 74.7098 78.3538 74.6636C78.2128 74.6111 78.1411 74.5784 78.1449 74.5675C78.1584 74.4816 79.3617 75.0147 81.3762 74.8507C82.3732 74.7725 83.5541 74.4913 84.7311 73.8883C85.9076 73.2976 87.0718 72.3576 87.9144 71.0934C88.7499 69.8215 89.1747 68.3927 89.2791 67.0791C89.3759 65.7618 89.1869 64.5629 88.8556 63.6191C88.1963 61.7097 87.2006 60.8383 87.2762 60.7896Z" fill="#263238"/>
<path d="M39.878 81.8197C42.9524 81.7961 45.4442 81.702 45.4435 81.6096C45.4428 81.5173 42.9498 81.4616 39.8754 81.4853C36.8009 81.5089 34.3092 81.603 34.3099 81.6953C34.3106 81.7877 36.8035 81.8434 39.878 81.8197Z" fill="#263238"/>
<g clip-path="url(#clip0)">
<rect x="108" y="102.001" width="51" height="73" fill="#F0F0F0"/>
<path d="M136.764 116.258C129.962 114.749 122.498 118.444 120.587 125.452C118.75 132.184 123.193 140.039 129.947 141.87C136.56 143.663 144.097 139.595 146.282 133.12C148.708 125.93 144.094 118.184 137.141 115.891C136.334 115.625 136.013 116.866 136.793 117.152C142.721 119.324 146.981 125.724 145.209 132.134C143.524 138.23 136.379 142.312 130.272 140.69C124.404 139.131 120.616 132.832 121.362 126.962C122.275 119.775 129.885 115.469 136.657 116.645C136.907 116.689 137.019 116.315 136.764 116.258Z" fill="#263238"/>
<path d="M130.003 141.667C136.951 143.804 144.951 139.812 147.034 132.638C149.156 125.33 144.43 117.437 137.314 115.261C135.672 114.759 135.086 117.183 136.619 117.783C142.647 120.141 146.64 126.673 144.257 133.084C142.138 138.785 135.892 141.537 130.109 140.88C129.646 140.826 129.588 141.539 130.003 141.667Z" fill="#E8505B"/>
<path d="M133.558 153.883C141.192 153.883 147.381 153.766 147.381 153.622C147.381 153.478 141.192 153.361 133.558 153.361C125.924 153.361 119.735 153.478 119.735 153.622C119.735 153.766 125.924 153.883 133.558 153.883Z" fill="#E8505B"/>
<path d="M133.558 158.076C141.192 158.076 147.381 157.959 147.381 157.815C147.381 157.671 141.192 157.554 133.558 157.554C125.924 157.554 119.735 157.671 119.735 157.815C119.735 157.959 125.924 158.076 133.558 158.076Z" fill="#E8505B"/>
</g>
<defs>
<clipPath id="clip0">
<rect x="108" y="102.001" width="50.924" height="71.367" rx="2" fill="white"/>
</clipPath>
</defs>
</svg>
