<svg width="438" height="340" viewBox="0 0 438 340" fill="none" xmlns="http://www.w3.org/2000/svg">
<path opacity="0.5" d="M53.4431 109.432H78.8758C91.7067 109.318 101.845 105.996 109.292 99.4682C116.853 92.9401 120.634 83.4916 120.634 71.1226C120.634 59.2118 117.483 49.9923 111.182 43.4642C104.996 36.8216 95.4872 33.5003 82.6563 33.5003C71.4293 33.5003 62.207 36.7643 54.9896 43.2924C47.7723 49.706 44.1636 58.1237 44.1636 68.5458H2.4058C2.4058 55.7187 5.78537 44.0369 12.5445 33.5003C19.4182 22.9638 28.9268 14.775 41.0704 8.93413C53.3285 2.97869 67.0186 0.000976562 82.1408 0.000976562C107.115 0.000976562 126.705 6.3 140.911 18.898C155.231 31.3815 162.391 48.7897 162.391 71.1226C162.391 82.3463 158.783 92.9401 151.565 102.904C144.462 112.753 135.24 120.198 123.899 125.237C137.646 129.933 148.071 137.32 155.174 147.398C162.391 157.476 166 169.502 166 183.474C166 205.922 158.267 223.788 142.801 237.073C127.45 250.358 107.23 257.001 82.1408 257.001C58.0828 257.001 38.3782 250.587 23.0269 237.76C7.67564 224.933 0 207.869 0 186.566H41.7578C41.7578 197.561 45.4237 206.494 52.7557 213.366C60.2022 220.238 70.1691 223.673 82.6563 223.673C95.6018 223.673 105.798 220.238 113.244 213.366C120.691 206.494 124.414 196.53 124.414 183.474C124.414 170.304 120.519 160.168 112.729 153.067C104.939 145.966 93.3678 142.416 78.0166 142.416H53.4431V109.432Z" fill="#8CBBE6"/>
<path d="M390.656 309.217C414.061 309.217 433.033 307.48 433.033 305.336C433.033 303.193 414.061 301.456 390.656 301.456C367.252 301.456 348.279 303.193 348.279 305.336C348.279 307.48 367.252 309.217 390.656 309.217Z" fill="url(#paint0_linear)"/>
<path d="M390.656 309.217C414.061 309.217 433.033 307.48 433.033 305.336C433.033 303.193 414.061 301.456 390.656 301.456C367.252 301.456 348.279 303.193 348.279 305.336C348.279 307.48 367.252 309.217 390.656 309.217Z" fill="#43656E"/>
<path d="M387.301 2.91187H228.511C187.783 5.62177 187.963 50.4879 187.963 50.4879V264.881H346.951V50.4879C346.952 50.4879 347.704 5.47139 387.301 2.91187Z" fill="#D65C66"/>
<path d="M178.76 53.1976H176.841V218.208H178.76V53.1976Z" fill="#43656E"/>
<path d="M380.952 0.000976562C341.356 2.5605 340.603 47.577 340.603 47.577V261.97H181.615V47.5772C181.615 47.5772 181.434 2.71136 222.163 0.0012181H380.952V0.000976562Z" fill="#FFF9F5"/>
<path d="M311.696 56.0083H202.492V65.6439H311.696V56.0083Z" fill="#43656E"/>
<path d="M295.737 78.2909H202.492V85.1162H295.737V78.2909Z" fill="#43656E"/>
<path d="M249.366 96.3073H202.492V106.445H249.366V96.3073Z" fill="#43656E"/>
<path d="M311.696 96.3073H263.217V106.445H311.696V96.3073Z" fill="#43656E"/>
<path d="M277.169 115.829H202.492V123.056H277.169V115.829Z" fill="#43656E"/>
<path d="M286.629 133.897H202.492V137.911H286.629V133.897Z" fill="#43656E"/>
<path d="M303.667 151.963H202.492V155.978H303.667V151.963Z" fill="#43656E"/>
<path d="M249.725 192.471H202.133V169.67H249.725V192.471ZM202.852 191.752H249.006V170.39H202.852V191.752Z" fill="#43656E"/>
<path d="M303.667 170.03H261.109V175.25H303.667V170.03Z" fill="#43656E"/>
<path d="M291.273 181.071H261.109V186.29H291.273V181.071Z" fill="#43656E"/>
<path d="M293.479 206.164H202.492V210.179H293.479V206.164Z" fill="#43656E"/>
<path d="M250.42 224.231H202.492V228.246H250.42V224.231Z" fill="#43656E"/>
<path d="M352.509 80.0472H350.59V58.2164C350.565 57.8564 348.235 15.9441 383.606 9.84558L383.932 11.7362C350.243 17.5448 352.48 57.7485 352.507 58.1538L352.509 80.0472Z" fill="#43656E"/>
<path d="M353.407 271.235H319.023V269.316H351.488V217.279H353.407V271.235Z" fill="#43656E"/>
<path d="M377.303 298.394C377.303 298.394 375.04 300.77 372.743 301.268C370.446 301.765 368.839 302.401 368.822 303.764C368.805 305.127 375.433 306.026 378.061 304.651C381.985 302.6 382.384 303.218 382.819 302.193C383.254 301.168 382.296 298.425 382.324 298.099C382.36 297.696 377.303 298.394 377.303 298.394Z" fill="#202338"/>
<path d="M377.558 297.257C377.558 297.257 377.259 298.37 377.303 298.393C377.348 298.417 382.48 298.992 382.325 298.099C382.199 297.374 382.019 296.587 382.019 296.587L377.558 297.257Z" fill="#2F6B8C"/>
<path d="M402.865 299.013C402.865 299.013 401.201 301.328 398.974 301.862C396.779 302.388 395.356 303.39 395.248 304.715C395.141 306.04 400.424 307.776 404.137 305.448C406.576 303.918 407.486 304.005 407.977 303.034C408.469 302.062 407.72 299.338 407.769 299.023C407.83 298.632 402.865 299.013 402.865 299.013Z" fill="#202338"/>
<path d="M402.933 297.869C402.933 297.869 402.823 298.988 402.865 299.013C402.906 299.038 407.798 299.904 407.769 299.022C407.745 298.322 407.458 297.45 407.458 297.45L402.933 297.869Z" fill="#2F6B8C"/>
<path d="M382.734 230.403C382.734 230.403 380.357 247.668 379.387 253.504C378.252 260.328 377.867 265.966 377.551 269.498C377.153 273.94 377.374 296.675 377.095 297.974C376.816 299.272 382.715 298.597 382.715 298.597C382.715 298.597 387.041 268.96 388.227 264.228C389.331 259.823 392.368 241.662 393.375 242.865C394.383 244.068 397.645 264.756 398.391 268.231C399.137 271.705 402.15 299.055 402.15 299.055C402.15 299.055 407.164 300.144 408.532 299.055C408.532 299.055 408.226 274.667 407.751 268.153C407.569 265.671 409.321 238.435 405.123 227.451C402.905 221.647 382.734 230.403 382.734 230.403Z" fill="#43656E"/>
<path d="M382.528 231.227L382.26 233.82C382.26 233.82 389.502 236.753 407.13 236.755V233.789L382.528 231.227Z" fill="#FAA146"/>
<path d="M362.222 198.605C362.222 198.605 361.167 200.933 360.542 201.078C359.916 201.224 359.172 202.001 358.636 202.24C358.1 202.479 356.413 202.61 355.96 203.052C355.776 203.232 355.067 204.786 354.652 205.112C354.237 205.438 353.317 205.997 353.602 206.347C353.887 206.696 354.844 206.42 354.844 206.42C354.844 206.42 354.484 206.74 354.639 207.127C354.941 207.878 355.445 207.911 355.445 207.911C355.445 207.911 355.285 208.475 355.489 208.755C355.94 209.371 356.429 209.389 356.429 209.389C356.429 209.389 356.472 209.825 356.864 210.165C357.366 210.6 357.984 210.35 357.984 210.35C357.984 210.35 358.487 211.042 358.949 210.907C359.412 210.771 359.68 210.425 360.01 210.222C360.341 210.019 362.646 207.36 363.495 204.872C364.344 202.385 365.82 200.363 365.82 200.363L362.222 198.605Z" fill="#EEA886"/>
<path d="M362.7 210.378C362.7 210.378 370.894 214.105 373.806 213.389C375.152 213.058 376.924 211.2 378.609 209.016C379.164 208.296 379.709 207.541 380.227 206.794C380.229 206.792 380.229 206.791 380.229 206.791C382.296 203.806 383.915 200.946 383.915 200.946C383.915 200.946 390.025 193.786 385.122 190.595C385.122 190.595 383.343 189.928 381.709 191.679C380.074 193.43 378.156 197.094 377.727 198.028C377.299 198.961 371.298 207.617 370.987 207.812C370.676 208.007 368.054 207.317 365.951 207.142C362.523 206.856 363.203 206.711 363.203 206.711L362.7 210.378Z" fill="#F08D29"/>
<path d="M389.708 188.998C389.708 188.998 383.418 190.298 382.672 190.959C381.862 191.663 380.433 198.551 380.348 200.47C380.263 202.388 381.106 210.404 381.916 213.389C382.726 216.373 380.85 229.079 382.352 231.173C382.352 231.173 395.315 235.331 407.766 233.711C407.766 233.711 405.093 221.72 405.591 217.63C406.229 212.39 407.766 200.318 407.766 200.318C407.766 200.318 406.102 192.19 404.993 191.252C403.885 190.314 396.178 188.788 396.178 188.788L389.708 188.998Z" fill="#F08D29"/>
<path d="M403.713 205.402C403.713 205.402 404.9 213.131 404.817 213.627C404.734 214.123 410.194 212.074 403.713 205.402Z" fill="#B86C1F"/>
<path d="M431.13 247.972L436.593 238.905C437.519 237.368 437.024 235.372 435.487 234.446L421.798 226.198C420.261 225.272 418.265 225.767 417.339 227.304L411.876 236.372C410.951 237.908 411.446 239.904 412.982 240.83L426.672 249.078C428.208 250.004 430.204 249.509 431.13 247.972Z" fill="#C4B4AF"/>
<path d="M419.17 245.25L428.618 229.57L335.153 173.251L325.705 188.931L419.17 245.25Z" fill="#EB4747"/>
<path d="M332.026 178.503L425.491 234.822L428.641 229.595L335.176 173.276L332.026 178.503Z" fill="#DCD360"/>
<path d="M422.317 240.018L425.467 234.791L332.002 178.472L328.852 183.699L422.317 240.018Z" fill="#E0D87A"/>
<path d="M419.172 245.254L422.321 240.027L328.856 183.708L325.707 188.934L419.172 245.254Z" fill="#E8E3A7"/>
<path d="M325.699 188.955L335.146 173.275L313.936 168.997L308.482 167.896L312.004 172.204L325.699 188.955Z" fill="#EDDAD3"/>
<path d="M331.997 178.502C333.396 179.345 335.235 178.858 336.105 177.415C336.974 175.972 336.545 174.118 335.146 173.275L331.997 178.502Z" fill="#DECCC6"/>
<path d="M328.847 183.729C330.247 184.572 332.086 184.085 332.955 182.642C333.825 181.198 333.396 179.345 331.997 178.502L328.847 183.729Z" fill="#E3D1CA"/>
<path d="M325.698 188.955C327.098 189.799 328.937 189.311 329.806 187.868C330.676 186.425 330.247 184.572 328.848 183.728L325.698 188.955Z" fill="#EDDAD3"/>
<path d="M422.97 233.296L428.714 236.756L431.863 231.53L426.12 228.069L422.97 233.296Z" fill="#B39696"/>
<path d="M425.538 241.959L428.687 236.733L422.944 233.272L419.795 238.499L425.538 241.959Z" fill="#DBB8B8"/>
<path d="M422.39 247.24L425.539 242.013L419.795 238.553L416.646 243.78L422.39 247.24Z" fill="#F2CBCB"/>
<path d="M331.997 178.501L308.482 167.896L335.146 173.275L331.997 178.501Z" fill="#DECCC6"/>
<path d="M328.848 183.728L308.482 167.896L331.997 178.501L328.848 183.728Z" fill="#E3D1CA"/>
<path d="M328.848 183.728L308.482 167.896L325.698 188.955L328.848 183.728Z" fill="#EDDAD3"/>
<path d="M312.004 172.204L313.936 168.997L308.482 167.896L312.004 172.204Z" fill="#43656E"/>
<path d="M390.828 231.382C390.828 231.382 391.409 231.333 391.653 231.188C391.653 231.188 392.076 230.889 392.389 230.695C392.489 230.633 392.577 230.582 392.637 230.555C392.89 230.442 393.478 230.269 394.007 229.826C394.537 229.384 396.33 226.891 396.33 226.891L395.257 225.539L394.433 224.13C394.433 224.13 390.259 224.776 389.718 225.131C389.665 225.166 389.614 225.202 389.569 225.24C389.141 225.585 388.966 226.022 388.762 226.228C388.687 226.304 387.996 227.113 388.051 227.426C388.126 227.861 388.355 228.131 388.632 228.252C388.632 228.252 388.816 229.097 389.273 229.457C389.273 229.457 389.419 230.242 390.114 230.529C390.114 230.529 390.351 231.309 390.828 231.382Z" fill="#EEA886"/>
<path d="M401.531 191.079C400.706 191.398 399.833 193.393 400.482 197.307C401.179 201.505 402.565 203.299 403.123 204.28C403.68 205.262 406.744 211.311 406.194 212.107C405.643 212.902 400.44 218.036 400.139 218.453C399.838 218.871 394.029 224.13 394.029 224.13L396.986 228.262C396.986 228.262 409.53 218.464 410.508 217.486C411.487 216.508 414.412 214.453 413.331 211.036C412.231 207.563 410.255 199.432 409.904 198.796C409.552 198.161 406.984 188.968 401.531 191.079Z" fill="#F08D29"/>
<path d="M354.972 206.112C354.972 206.112 356.983 203.871 357.986 203.913C358.988 203.953 358.306 204.802 358.306 204.802C358.306 204.802 358.967 203.951 359.681 204.4C360.396 204.849 359.546 205.8 359.546 205.8C359.546 205.8 360.215 205.289 360.744 205.995C361.274 206.701 360.394 207.331 360.394 207.331C360.394 207.331 361.722 207.133 361.439 208.218C360.962 210.05 358.985 210.924 358.985 210.924C358.985 210.924 358.419 211.145 357.958 210.429C357.958 210.429 356.708 210.898 356.364 209.459C356.364 209.459 354.865 209.112 355.325 207.952C355.325 207.952 353.818 207.372 354.972 206.112Z" fill="#EEA886"/>
<path d="M386.861 189.636C386.861 189.636 386.484 187.915 391.869 187.517C397.255 187.118 400.898 188.328 401 189.873C401.101 191.419 387.356 195.276 387.356 195.276L386.861 189.636Z" fill="#FAA146"/>
<path d="M392.308 169.551C392.308 169.551 384.742 166.751 385.215 176.805C385.688 186.859 387.461 187.88 392.438 186.476C397.414 185.072 397.831 178.727 398.48 175.675C399.128 172.623 394.781 169.99 392.308 169.551Z" fill="#EEA886"/>
<path d="M388.462 190.59C388.462 190.59 390.275 191.389 396.178 188.788C396.178 188.788 396.012 184.741 397.17 180.961C398.328 177.181 389.248 186.001 389.248 186.001C389.343 186.068 389.362 186.446 389.307 186.973C389.261 187.42 389.163 187.974 389.016 188.536C388.684 189.799 388.761 189.575 388.462 190.59Z" fill="#EEA886"/>
<path d="M397.428 180.661C397.428 180.661 397.45 177.975 396.333 177.728C395.216 177.481 394.641 179.033 394.641 179.033L393.742 178.985C393.742 178.985 394.545 176.263 393.481 175.64C392.416 175.016 386.046 175.564 385.247 174.647C384.448 173.731 385.607 168.289 387.345 167.755C389.082 167.221 393.829 166.138 396.844 168.822C396.844 168.822 399.433 169.94 399.538 172.076C399.644 174.212 398.337 179.205 397.428 180.661Z" fill="#163342"/>
<path d="M389.016 188.535C394.88 187.549 395.756 184.214 395.769 184.162C393.49 187.102 389.307 186.973 389.307 186.973C389.261 187.42 389.163 187.973 389.016 188.535Z" fill="#B07C63"/>
<path d="M395.069 176.588C395.403 175.702 397.29 175.813 397.096 177.218C396.903 178.623 395.343 180.786 394.717 180.38C394.091 179.974 394.608 177.809 395.069 176.588Z" fill="#EEA886"/>
<path d="M327.138 234.876H297.109V204.847H327.138V234.876ZM299.987 231.998H324.259V207.725H299.987V231.998Z" fill="#43656E"/>
<path d="M312.591 226.209L302.021 216.245L305.312 212.755L312.809 219.822L329.244 206.318L332.289 210.025L312.591 226.209Z" fill="#43656E"/>
<path d="M55.2298 340.001L155.663 256.302L141.433 239.227L41.0001 322.926L55.2298 340.001Z" fill="#43656E"/>
<path d="M153.945 254.25L159.309 249.779L148.508 236.819L143.144 241.29L153.945 254.25Z" fill="#3C5156"/>
<path d="M142.199 229.99C164.635 268.625 214.144 281.758 252.78 259.321C291.415 236.885 304.547 187.376 282.111 148.74C259.674 110.104 210.165 96.9725 171.53 119.409C132.894 141.845 119.762 191.354 142.199 229.99ZM153.686 223.319C143.735 206.182 142.156 186.484 147.692 168.968C152.588 153.48 163.047 139.697 178.201 130.897C210.492 112.144 251.871 123.121 270.623 155.411C276.379 165.323 279.334 176.092 279.731 186.798C279.731 186.799 279.731 186.8 279.731 186.8C280.629 210.974 268.488 234.838 246.109 247.834C213.817 266.586 172.439 255.61 153.686 223.319Z" fill="#D65C66"/>
<path d="M237.72 78.3347C237.72 78.3347 239.013 73.9628 238.849 73.5001C238.686 73.0377 235.643 70.0858 235.67 69.7287C235.697 69.3718 239.741 66.8771 240.155 66.1652C240.57 65.4529 241.318 67.5364 241.464 69.3371C241.61 71.1377 241.901 74.0043 241.895 74.3899C241.89 74.7758 240.949 79.6898 240.949 79.6898L237.72 78.3347Z" fill="#DE9D7D"/>
<path d="M226.006 85.0974C226.006 85.0974 226.082 85.5514 226.196 86.2319V86.2328C226.267 86.6547 226.352 87.1636 226.444 87.7059C226.728 89.3929 227.069 91.3996 227.198 92.0915C227.435 93.3648 228.237 96.31 229.239 97.7001C229.655 98.2769 230.745 98.5479 231.3 98.599C231.938 98.657 233.62 99.3075 235.59 96.1958C237.559 93.084 240.689 82.1391 240.855 81.545C241.02 80.9509 241.499 79.2812 241.499 79.2812L237.448 77.8486C237.448 77.8486 234.538 85.7496 234.127 86.8389C233.814 87.6651 231.991 90.983 231.899 91.0852C231.807 91.1873 231.578 82.0263 231.578 82.0263L226.006 85.0974Z" fill="#E55353"/>
<path d="M243.854 144.59C243.854 144.59 246.843 149.656 248.105 150.483C249.818 151.607 248.745 152.742 247.931 152.744C247.118 152.745 242.963 153.042 242.048 152.003C241.132 150.964 240.678 147.85 239.827 147.036C238.975 146.222 238.096 142.985 240.241 142.199C242.138 141.503 243.854 144.59 243.854 144.59Z" fill="#323657"/>
<path d="M242.56 142.361C242.56 142.361 245.983 148.295 246.573 149.171C247.163 150.047 245.462 150.047 244.408 149.63C243.354 149.214 240.703 144.958 240.322 144.183C239.868 143.258 240.241 142.199 240.241 142.199L242.56 142.361Z" fill="#EEA886"/>
<path d="M239.093 145.553L239.883 151.636L240.301 151.655L240.171 147.279L239.093 145.553Z" fill="#323657"/>
<path d="M214.216 144.59C214.216 144.59 217.205 149.656 218.466 150.483C220.179 151.607 219.106 152.742 218.293 152.744C217.479 152.745 213.325 153.042 212.409 152.003C211.494 150.964 211.04 147.85 210.188 147.036C209.337 146.222 208.428 142.902 210.603 142.198C212.51 141.582 214.216 144.59 214.216 144.59Z" fill="#323657"/>
<path d="M213.101 142.373C213.101 142.373 216.345 148.295 216.934 149.171C217.524 150.047 215.824 150.047 214.77 149.63C213.716 149.214 211.065 144.958 210.684 144.183C210.23 143.258 210.603 142.199 210.603 142.199L213.101 142.373Z" fill="#EEA886"/>
<path d="M209.454 145.553L210.244 151.636L210.663 151.655L210.533 147.279L209.454 145.553Z" fill="#323657"/>
<path d="M200.956 98.4799L228.002 110.804C228.002 110.804 228.646 111.013 229.373 111.568V111.569C229.648 111.779 229.934 112.039 230.203 112.356C230.759 113.014 231.237 113.919 231.36 115.137C232.415 125.6 240.242 142.199 240.242 142.199C242.753 143.427 242.561 142.361 242.561 142.361C240.978 137.281 239.052 116.345 238.364 107.928C238.219 106.144 238.128 104.923 238.109 104.533C238.096 104.267 237.805 103.92 237.304 103.514C233.593 100.504 218.321 94.2739 218.321 94.2739C206.856 93.9825 200.956 98.4799 200.956 98.4799Z" fill="#EEA886"/>
<path d="M198.968 102.71C199.805 110.021 207.131 110.245 207.131 110.245H219.779C219.779 110.245 216.456 117.637 215.174 123.873C213.812 130.49 210.603 142.198 210.603 142.198C210.603 142.198 210.813 142.596 213.102 142.373C213.102 142.373 223.03 122.586 226.83 117.611C227.647 116.541 229.991 110.73 230.394 107.264C230.53 106.097 230.446 105.197 230.011 104.831C229.572 104.464 228.564 103.771 227.219 102.923C223.257 100.425 216.377 96.5786 212.543 95.7171C207.41 94.5632 201.508 92.4006 201.508 92.4006C201.508 92.4006 198.131 95.4 198.968 102.71Z" fill="#EEA886"/>
<path d="M218.459 110.245H207.13C207.13 110.245 198.892 110.46 197.928 103.165C197.12 97.0445 200.955 92.84 200.955 92.84C200.955 92.84 204.803 93.8693 209.616 95.0318C212.025 94.52 214.93 94.1869 218.321 94.2727C218.321 94.2727 232.696 97.1678 238.015 104.258C238.015 104.258 229.576 100.001 218.459 110.245Z" fill="#323657"/>
<path d="M230.699 62.2963C230.656 63.1173 230.641 63.9411 230.63 64.7362C230.627 64.9827 230.636 65.2293 230.656 65.4744C230.776 66.9254 231.3 68.326 232.122 69.4106C232.123 69.411 232.123 69.4115 232.123 69.4115C232.123 69.4115 232.123 69.4118 232.123 69.4122C233.288 70.9462 235.053 71.8454 237.123 71.354C240.902 70.4562 243.418 58.1886 243.418 58.1886C242.385 53.3881 235.983 53.1084 233.417 54.8261C231.392 56.1822 230.858 59.2194 230.699 62.2963Z" fill="#EEA886"/>
<path d="M200.343 93.1943C200.343 93.1943 200.459 94.5983 211.172 96.2913C211.464 96.3371 211.743 96.3831 212.013 96.4273C213.001 96.5901 213.84 96.7417 214.558 96.8741C219.639 97.8078 218.613 97.7835 220.725 94.2388C221.015 93.7528 222.966 89.1689 223.7 88.7367C224.435 88.3038 225.81 86.8576 226.38 85.962C226.951 85.0674 229.108 85.6442 231.124 83.88C233.138 82.116 232.303 79.5766 232.426 77.5241C232.641 73.9223 231.277 69.8146 231.277 69.8146C225.632 59.2393 217.407 67.6287 215.906 69.1469C214.405 70.6651 209.31 83.1828 207.916 84.7676C202.968 90.3961 200.343 93.1943 200.343 93.1943Z" fill="#E55353"/>
<path d="M225.532 65.1125C225.532 65.1125 226.368 75.4087 228.827 76.5712C231.355 77.767 230.469 67.6419 230.469 67.6419C230.469 67.6419 228.391 63.3908 225.532 65.1125Z" fill="#EEA886"/>
<path d="M240.469 58.9415C240.469 58.9415 241.771 63.1873 241.538 64.8601C241.538 64.8601 243.24 62.5716 243.577 60.4779C243.913 58.3951 244.914 55.0273 241.786 52.4529C238.657 49.8788 240.469 58.9415 240.469 58.9415Z" fill="#163342"/>
<path d="M227.705 68.1493C227.715 70.6899 230.418 72.12 230.623 70.9125C230.646 70.7774 230.96 70.4472 231.196 70.2052L231.196 70.204C231.29 70.1085 231.371 70.026 231.416 69.9769C231.597 69.7761 231.845 69.5864 232.123 69.4116C233.159 68.7619 234.615 68.3218 234.615 68.3218L231.883 60.8396C231.883 60.8396 231.367 61.4258 230.699 62.2964C229.462 63.91 227.698 66.4983 227.705 68.1493Z" fill="#EEA886"/>
<path d="M231.196 70.2038C231.289 70.1083 231.37 70.0258 231.415 69.9767C231.596 69.7759 231.844 69.5862 232.123 69.4114C232.123 69.4114 230.781 67.5742 230.657 65.474C230.657 65.4742 230.061 67.0706 231.196 70.2038Z" fill="#A77860"/>
<path d="M221.552 115.874C221.552 115.874 221.239 115.498 221.182 115.266C221.182 115.266 221.112 114.837 221.043 114.536C221.02 114.44 220.999 114.357 220.98 114.305C220.899 114.087 220.656 113.634 220.608 113.056C220.56 112.48 220.993 109.937 220.993 109.937L222.433 109.781L223.761 109.443C223.761 109.443 225.836 112.319 225.943 112.851C225.953 112.903 225.962 112.955 225.965 113.004C226.012 113.464 225.854 113.826 225.851 114.069C225.85 114.159 225.774 115.048 225.554 115.201C225.25 115.412 224.954 115.435 224.718 115.341C224.718 115.341 224.105 115.728 223.62 115.668C223.62 115.668 223.065 116.044 222.483 115.797C222.483 115.797 221.877 116.116 221.552 115.874Z" fill="#FFB48F"/>
<path d="M221.189 73.0768C221.189 73.0768 222.604 67.7606 218.912 67.84C215.221 67.9196 214.968 72.5269 214.861 73.4394C214.754 74.3523 213.492 85.1132 213.637 87.1497C213.782 89.1861 213.375 91.9615 213.809 94.6594C214.135 96.6815 220.704 110.765 220.812 110.82C220.919 110.876 224.164 109.549 224.164 109.549C224.164 109.549 219.953 95.8049 219.393 94.5296C218.526 92.5512 218.864 91.1062 218.824 90.1315C218.783 89.1571 221.026 73.9028 221.189 73.0768Z" fill="#E55353"/>
<path d="M240.984 59.3871C240.984 59.3871 239.201 62.5271 236.43 61.7852C233.658 61.0437 231.619 61.768 231.283 62.9372C230.948 64.1064 228.571 70.3714 226.057 70.1685C223.544 69.9656 221.712 66.1471 220.298 66.8937C218.884 67.6406 217.339 71.8667 215.496 70.729C213.654 69.5912 214.014 65.6965 217.951 64.0102C221.888 62.3242 224.69 62.3237 225.838 60.1282C226.986 57.9328 229.844 51.9467 232.576 50.7612C234.601 49.882 237.007 49.2238 240.804 51.6855C244.6 54.1472 243.418 58.1887 243.418 58.1887L240.984 59.3871Z" fill="#163342"/>
<path d="M229.373 111.568V111.569C229.647 111.779 229.934 112.038 230.202 112.355C230.202 112.355 230.76 110.27 230.442 106.723C230.441 106.723 230.428 108.248 229.373 111.568Z" fill="#B07C63"/>
<path d="M212.013 96.4273C213.001 96.5902 213.84 96.7418 214.558 96.8741C214.558 96.8732 214.558 96.8732 214.558 96.8732C214.558 96.8732 213.773 95.0634 213.78 94.47C213.787 93.8767 213.405 87.4275 213.905 82.4624C214.404 77.4976 214.367 77.8492 214.367 77.8492C214.367 77.8492 210.942 88.0726 212.013 96.4273Z" fill="#A63D3D"/>
<path d="M226.196 86.2324V86.2334C226.267 86.6553 226.264 86.6406 226.356 87.1827C229.512 86.0317 230.376 84.521 230.416 84.4447C229.337 85.2306 227.842 85.3247 227.081 85.5074C226.318 85.6892 226.196 86.2324 226.196 86.2324Z" fill="#A63D3D"/>
<defs>
<linearGradient id="paint0_linear" x1="348.279" y1="305.336" x2="433.033" y2="305.336" gradientUnits="userSpaceOnUse">
<stop stop-color="white"/>
<stop offset="1"/>
</linearGradient>
</defs>
</svg>
