<svg width="131" height="135" viewBox="0 0 131 135" fill="none" xmlns="http://www.w3.org/2000/svg">
<path opacity="0.5" d="M40.954 66.0963H52.8292C58.8202 66.0428 63.5543 64.492 67.0312 61.4438C70.5617 58.3957 72.3269 53.984 72.3269 48.2086C72.3269 42.6471 70.8559 38.3422 67.9139 35.2941C65.0253 32.1925 60.5855 30.6417 54.5944 30.6417C49.3522 30.6417 45.0461 32.1658 41.6761 35.2139C38.3061 38.2086 36.6211 42.139 36.6211 47.0053H17.1233C17.1233 41.016 18.7013 35.5615 21.8574 30.6417C25.0669 25.7219 29.5067 21.8984 35.1768 19.1711C40.9005 16.3904 47.2927 15 54.3537 15C66.0149 15 75.162 17.9412 81.795 23.8235C88.4815 29.6524 91.8247 37.7807 91.8247 48.2086C91.8247 53.4492 90.1397 58.3957 86.7698 63.0481C83.4533 67.6471 79.1472 71.123 73.8515 73.4759C80.2705 75.6684 85.1383 79.1176 88.4547 83.8235C91.8247 88.5294 93.5097 94.1444 93.5097 100.668C93.5097 111.15 89.899 119.492 82.6776 125.695C75.5097 131.898 66.0684 135 54.3537 135C43.1204 135 33.9198 132.005 26.7519 126.016C19.584 120.027 16 112.059 16 102.112H35.4978C35.4978 107.246 37.2095 111.417 40.633 114.626C44.11 117.834 48.7638 119.438 54.5944 119.438C60.639 119.438 65.3997 117.834 68.8767 114.626C72.3537 111.417 74.0922 106.765 74.0922 100.668C74.0922 94.5187 72.2735 89.7861 68.636 86.4706C64.9986 83.1551 59.5959 81.4973 52.428 81.4973H40.954V66.0963Z" fill="#8CBBE6"/>
<path d="M115.181 101.86C122.891 101.86 129.141 101.288 129.141 100.582C129.141 99.8756 122.891 99.3032 115.181 99.3032C107.472 99.3032 101.222 99.8756 101.222 100.582C101.222 101.288 107.472 101.86 115.181 101.86Z" fill="url(#paint0_linear)"/>
<path d="M115.181 101.86C122.891 101.86 129.141 101.287 129.141 100.581C129.141 99.8753 122.891 99.303 115.181 99.303C107.472 99.303 101.222 99.8753 101.222 100.581C101.222 101.287 107.472 101.86 115.181 101.86Z" fill="#43656E"/>
<path d="M114.076 0.958984H61.7687C48.3523 1.85166 48.4116 16.6311 48.4116 16.6311V87.2549H100.784V16.6311C100.784 16.6311 101.032 1.80213 114.076 0.958984Z" fill="#D65C66"/>
<path d="M45.3798 17.5239H44.7478V71.8806H45.3798V17.5239Z" fill="#43656E"/>
<path d="M111.985 0C98.941 0.843141 98.6931 15.6721 98.6931 15.6721V86.2961H46.3203V15.6722C46.3203 15.6722 46.2608 0.892836 59.6774 7.95644e-05H111.985V0Z" fill="#FFF9F5"/>
<path d="M89.1709 18.4497H53.1978V21.6238H89.1709V18.4497Z" fill="#43656E"/>
<path d="M83.9138 25.7898H53.1978V28.0381H83.9138V25.7898Z" fill="#43656E"/>
<path d="M68.6384 31.7246H53.1978V35.0641H68.6384V31.7246Z" fill="#43656E"/>
<path d="M89.1709 31.7246H73.2012V35.0641H89.1709V31.7246Z" fill="#43656E"/>
<path d="M77.7971 38.1553H53.1978V40.5359H77.7971V38.1553Z" fill="#43656E"/>
<path d="M80.9133 44.1069H53.1978V45.4295H80.9133V44.1069Z" fill="#43656E"/>
<path d="M86.5259 50.0583H53.1978V51.3809H86.5259V50.0583Z" fill="#43656E"/>
<path d="M68.7568 63.4021H53.0791V55.8911H68.7568V63.4021ZM53.3161 63.1651H68.5198V56.1281H53.3161V63.1651Z" fill="#43656E"/>
<path d="M86.5256 56.0098H72.5066V57.7291H86.5256V56.0098Z" fill="#43656E"/>
<path d="M82.4431 59.647H72.5066V61.3663H82.4431V59.647Z" fill="#43656E"/>
<path d="M83.1699 67.9126H53.1978V69.2352H83.1699V67.9126Z" fill="#43656E"/>
<path d="M68.9856 73.864H53.1978V75.1866H68.9856V73.864Z" fill="#43656E"/>
<path d="M102.615 26.3685H101.983V19.1771C101.975 19.0585 101.207 5.2521 112.859 3.24316L112.966 3.86596C101.869 5.77938 102.606 19.023 102.614 19.1565L102.615 26.3685Z" fill="#43656E"/>
<path d="M102.911 89.3479H91.5845V88.7159H102.279V71.5742H102.911V89.3479Z" fill="#43656E"/>
<path d="M110.783 98.2944C110.783 98.2944 110.037 99.0771 109.28 99.2411C108.524 99.405 107.994 99.6142 107.989 100.063C107.983 100.513 110.166 100.809 111.032 100.356C112.325 99.6799 112.456 99.8836 112.599 99.5458C112.743 99.2081 112.427 98.3047 112.437 98.1973C112.448 98.0646 110.783 98.2944 110.783 98.2944Z" fill="#202338"/>
<path d="M110.866 97.9199C110.866 97.9199 110.768 98.2867 110.782 98.2944C110.797 98.3021 112.488 98.4916 112.437 98.1973C112.395 97.9586 112.336 97.6992 112.336 97.6992L110.866 97.9199Z" fill="#2F6B8C"/>
<path d="M119.203 98.4985C119.203 98.4985 118.655 99.2609 117.921 99.4367C117.198 99.6101 116.729 99.9401 116.694 100.377C116.658 100.813 118.399 101.385 119.622 100.618C120.425 100.114 120.725 100.143 120.887 99.8229C121.049 99.5027 120.802 98.6055 120.818 98.5015C120.838 98.373 119.203 98.4985 119.203 98.4985Z" fill="#202338"/>
<path d="M119.225 98.1215C119.225 98.1215 119.189 98.49 119.203 98.4984C119.217 98.5067 120.828 98.7919 120.818 98.5014C120.811 98.2707 120.716 97.9836 120.716 97.9836L119.225 98.1215Z" fill="#2F6B8C"/>
<path d="M112.571 75.8972C112.571 75.8972 111.789 81.5843 111.469 83.5068C111.095 85.7547 110.968 87.6121 110.864 88.7756C110.733 90.2389 110.806 97.7279 110.714 98.1558C110.622 98.5836 112.565 98.3613 112.565 98.3613C112.565 98.3613 113.99 88.5982 114.381 87.0397C114.745 85.5885 115.745 79.6059 116.077 80.0022C116.409 80.3985 117.483 87.2135 117.729 88.358C117.975 89.5025 118.967 98.5122 118.967 98.5122C118.967 98.5122 120.619 98.8708 121.069 98.5122C121.069 98.5122 120.969 90.4783 120.812 88.3325C120.752 87.5147 121.33 78.5429 119.947 74.9247C119.216 73.0127 112.571 75.8972 112.571 75.8972Z" fill="#43656E"/>
<path d="M112.504 76.1689L112.416 77.0229C112.416 77.0229 114.801 77.9893 120.608 77.9899V77.0127L112.504 76.1689Z" fill="#FAA146"/>
<path d="M105.815 65.4224C105.815 65.4224 105.467 66.1893 105.261 66.2371C105.055 66.285 104.81 66.5412 104.633 66.6198C104.457 66.6985 103.901 66.7417 103.752 66.8873C103.691 66.9468 103.458 67.4584 103.321 67.5658C103.184 67.6733 102.881 67.8576 102.975 67.9726C103.069 68.0876 103.384 67.9967 103.384 67.9967C103.384 67.9967 103.266 68.1023 103.317 68.2296C103.416 68.477 103.582 68.4878 103.582 68.4878C103.582 68.4878 103.529 68.6739 103.597 68.766C103.745 68.969 103.906 68.9747 103.906 68.9747C103.906 68.9747 103.92 69.1185 104.05 69.2305C104.215 69.3736 104.419 69.2914 104.419 69.2914C104.419 69.2914 104.584 69.5193 104.737 69.4748C104.889 69.4302 104.977 69.3161 105.086 69.2493C105.195 69.1825 105.954 68.3064 106.234 67.4869C106.514 66.6676 107 66.0017 107 66.0017L105.815 65.4224Z" fill="#EEA886"/>
<path d="M105.972 69.301C105.972 69.301 108.671 70.5288 109.63 70.2928C110.074 70.1838 110.658 69.5718 111.213 68.8523C111.395 68.6153 111.575 68.3666 111.746 68.1204C111.746 68.1199 111.746 68.1193 111.746 68.1193C112.427 67.1363 112.961 66.194 112.961 66.194C112.961 66.194 114.973 63.8355 113.358 62.7842C113.358 62.7842 112.772 62.5646 112.234 63.1414C111.695 63.7183 111.063 64.9251 110.922 65.2329C110.781 65.5402 108.804 68.3914 108.702 68.4557C108.599 68.52 107.735 68.2927 107.043 68.235C105.914 68.1408 106.138 68.0931 106.138 68.0931L105.972 69.301Z" fill="#F08D29"/>
<path d="M114.869 62.2582C114.869 62.2582 112.797 62.6865 112.551 62.9043C112.284 63.1361 111.814 65.4051 111.785 66.0371C111.757 66.6692 112.035 69.3095 112.302 70.2927C112.569 71.276 111.951 75.4613 112.446 76.151C112.446 76.151 116.716 77.5209 120.817 76.9872C120.817 76.9872 119.937 73.0372 120.101 71.69C120.311 69.9639 120.817 65.9873 120.817 65.9873C120.817 65.9873 120.269 63.3097 119.904 63.0007C119.539 62.6917 117 62.189 117 62.189L114.869 62.2582Z" fill="#F08D29"/>
<path d="M119.482 67.6616C119.482 67.6616 119.873 70.2078 119.846 70.3711C119.819 70.5344 121.617 69.8597 119.482 67.6616Z" fill="#B86C1F"/>
<path d="M128.514 81.6848L130.313 78.6977C130.618 78.1916 130.455 77.5341 129.949 77.2291L125.439 74.5121C124.933 74.2071 124.276 74.3702 123.971 74.8763L122.171 77.8634C121.866 78.3695 122.029 79.027 122.535 79.3319L127.045 82.0491C127.551 82.3539 128.209 82.1909 128.514 81.6848Z" fill="#C4B4AF"/>
<path d="M124.574 80.7879L127.686 75.6228L96.8976 57.0705L93.7853 62.2356L124.574 80.7879Z" fill="#EB4747"/>
<path d="M95.8676 58.8007L126.656 77.353L127.694 75.6313L96.905 57.079L95.8676 58.8007Z" fill="#DCD360"/>
<path d="M125.611 79.0645L126.648 77.3428L95.8595 58.7906L94.8221 60.5123L125.611 79.0645Z" fill="#E0D87A"/>
<path d="M124.575 80.7893L125.612 79.0676L94.8234 60.5154L93.786 62.237L124.575 80.7893Z" fill="#E8E3A7"/>
<path d="M93.7833 62.2436L96.8954 57.0784L89.9086 55.6691L88.1118 55.3066L89.272 56.7257L93.7833 62.2436Z" fill="#EDDAD3"/>
<path d="M95.8579 58.8005C96.3189 59.0782 96.9247 58.9177 97.2112 58.4423C97.4976 57.9669 97.3563 57.3564 96.8953 57.0786L95.8579 58.8005Z" fill="#DECCC6"/>
<path d="M94.8206 60.5222C95.2816 60.8 95.8874 60.6394 96.1738 60.1641C96.4603 59.6886 96.319 59.0781 95.858 58.8003L94.8206 60.5222Z" fill="#E3D1CA"/>
<path d="M93.7832 62.2438C94.2442 62.5216 94.8501 62.3611 95.1365 61.8857C95.423 61.4102 95.2817 60.7998 94.8207 60.522L93.7832 62.2438Z" fill="#EDDAD3"/>
<path d="M125.826 76.8498L127.718 77.9897L128.755 76.268L126.863 75.128L125.826 76.8498Z" fill="#B39696"/>
<path d="M126.672 79.7041L127.709 77.9824L125.817 76.8424L124.78 78.5641L126.672 79.7041Z" fill="#DBB8B8"/>
<path d="M125.635 81.4434L126.672 79.7214L124.78 78.5817L123.743 80.3036L125.635 81.4434Z" fill="#F2CBCB"/>
<path d="M95.858 58.8001L88.1118 55.3066L96.8954 57.0784L95.858 58.8001Z" fill="#DECCC6"/>
<path d="M94.8206 60.5219L88.1118 55.3066L95.858 58.8001L94.8206 60.5219Z" fill="#E3D1CA"/>
<path d="M94.8206 60.5219L88.1118 55.3066L93.7832 62.2438L94.8206 60.5219Z" fill="#EDDAD3"/>
<path d="M89.272 56.7257L89.9086 55.6691L88.1118 55.3066L89.272 56.7257Z" fill="#43656E"/>
<path d="M115.238 76.2198C115.238 76.2198 115.429 76.2036 115.509 76.1558C115.509 76.1558 115.649 76.0573 115.752 75.9934C115.785 75.9732 115.814 75.9563 115.834 75.9474C115.917 75.9101 116.111 75.853 116.285 75.7072C116.459 75.5617 117.05 74.7402 117.05 74.7402L116.697 74.2949L116.425 73.8308C116.425 73.8308 115.05 74.0436 114.872 74.1605C114.855 74.172 114.838 74.184 114.823 74.1964C114.682 74.31 114.624 74.454 114.557 74.5219C114.532 74.5471 114.305 74.8134 114.323 74.9166C114.348 75.0598 114.423 75.1489 114.514 75.1887C114.514 75.1887 114.575 75.4669 114.725 75.5857C114.725 75.5857 114.773 75.8442 115.003 75.9388C115.003 75.9388 115.081 76.1957 115.238 76.2198Z" fill="#EEA886"/>
<path d="M118.764 62.9434C118.492 63.0486 118.204 63.7059 118.418 64.995C118.648 66.378 119.104 66.9688 119.288 67.292C119.471 67.6153 120.481 69.608 120.3 69.8702C120.118 70.1324 118.404 71.8233 118.305 71.9609C118.206 72.0986 116.292 73.8307 116.292 73.8307L117.267 75.1921C117.267 75.1921 121.398 71.9645 121.721 71.6423C122.043 71.3201 123.007 70.6431 122.65 69.5174C122.288 68.3734 121.637 65.695 121.522 65.4856C121.406 65.2762 120.56 62.2479 118.764 62.9434Z" fill="#F08D29"/>
<path d="M103.426 67.8956C103.426 67.8956 104.089 67.1575 104.419 67.1711C104.75 67.1845 104.525 67.464 104.525 67.464C104.525 67.464 104.742 67.1839 104.978 67.3317C105.213 67.4795 104.933 67.7929 104.933 67.7929C104.933 67.7929 105.154 67.6244 105.328 67.857C105.502 68.0896 105.213 68.2971 105.213 68.2971C105.213 68.2971 105.65 68.232 105.557 68.5894C105.4 69.1928 104.748 69.4808 104.748 69.4808C104.748 69.4808 104.562 69.5536 104.41 69.3177C104.41 69.3177 103.998 69.4721 103.885 68.9982C103.885 68.9982 103.391 68.884 103.543 68.5018C103.543 68.5018 103.046 68.3107 103.426 67.8956Z" fill="#EEA886"/>
<path d="M113.931 62.468C113.931 62.468 113.807 61.9012 115.581 61.7699C117.355 61.6385 118.555 62.0372 118.588 62.5462C118.622 63.0553 114.094 64.326 114.094 64.326L113.931 62.468Z" fill="#FAA146"/>
<path d="M115.725 55.8519C115.725 55.8519 113.233 54.9297 113.389 58.2415C113.545 61.5533 114.129 61.8899 115.768 61.4273C117.407 60.9648 117.545 58.8746 117.758 57.8692C117.972 56.8638 116.54 55.9964 115.725 55.8519Z" fill="#EEA886"/>
<path d="M114.458 62.7824C114.458 62.7824 115.056 63.0456 117 62.1889C117 62.1889 116.945 60.8557 117.327 59.6105C117.708 58.3653 114.717 61.2708 114.717 61.2708C114.749 61.2929 114.755 61.4174 114.737 61.591C114.722 61.7382 114.689 61.9205 114.641 62.1057C114.531 62.5219 114.557 62.448 114.458 62.7824Z" fill="#EEA886"/>
<path d="M117.412 59.5118C117.412 59.5118 117.419 58.6271 117.051 58.5457C116.683 58.4643 116.494 58.9756 116.494 58.9756L116.198 58.9598C116.198 58.9598 116.462 58.0632 116.112 57.8577C115.761 57.6521 113.663 57.8328 113.399 57.5309C113.136 57.2291 113.518 55.4364 114.09 55.2604C114.663 55.0845 116.227 54.7276 117.22 55.6119C117.22 55.6119 118.073 55.9803 118.107 56.6837C118.142 57.3873 117.711 59.0321 117.412 59.5118Z" fill="#163342"/>
<path d="M114.641 62.1054C116.572 61.7807 116.861 60.6821 116.865 60.665C116.115 61.6333 114.737 61.5908 114.737 61.5908C114.722 61.738 114.689 61.9204 114.641 62.1054Z" fill="#B07C63"/>
<path d="M116.635 58.17C116.745 57.8782 117.366 57.9149 117.303 58.3776C117.239 58.8403 116.725 59.5528 116.519 59.4192C116.313 59.2855 116.483 58.5724 116.635 58.17Z" fill="#EEA886"/>
<path d="M94.2573 77.3709H84.3655V67.479H94.2573V77.3709ZM85.3135 76.4228H93.3092V68.4271H85.3135V76.4228Z" fill="#43656E"/>
<path d="M89.4656 74.5157L85.9839 71.2333L87.0677 70.0836L89.5374 72.4118L94.9514 67.9634L95.9546 69.1842L89.4656 74.5157Z" fill="#43656E"/>
<path d="M4.68759 112L37.7715 84.4287L33.084 78.8041L0.000121256 106.375L4.68759 112Z" fill="#43656E"/>
<path d="M37.2055 83.7527L38.9727 82.28L35.4147 78.0108L33.6475 79.4835L37.2055 83.7527Z" fill="#3C5156"/>
<path d="M33.3361 75.7611C40.7269 88.4882 57.0358 92.8141 69.7629 85.4232C82.49 78.0323 86.8158 61.7235 79.4249 48.9965C72.0341 36.2693 55.7252 31.9435 42.9982 39.3343C30.2711 46.7252 25.9452 63.034 33.3361 75.7611ZM37.1203 73.5635C33.842 67.9184 33.3219 61.4297 35.1458 55.6596C36.7583 50.5577 40.2038 46.0174 45.1957 43.1185C55.8329 36.9413 69.4636 40.557 75.6406 51.1939C77.5368 54.4591 78.5101 58.0063 78.6412 61.5333C78.6409 61.5335 78.6411 61.5338 78.6411 61.5338C78.9368 69.4971 74.9375 77.3581 67.5654 81.6391C56.9282 87.8164 43.2975 84.2006 37.1203 73.5635Z" fill="#D65C66"/>
<path d="M64.8021 25.804C64.8021 25.804 65.2278 24.3638 65.174 24.2114C65.1201 24.0591 64.1176 23.0867 64.1265 22.9691C64.1355 22.8515 65.4676 22.0297 65.6042 21.7952C65.7408 21.5606 65.9873 22.2469 66.0354 22.8401C66.0833 23.4332 66.1792 24.3775 66.1773 24.5046C66.1755 24.6317 65.8655 26.2504 65.8655 26.2504L64.8021 25.804Z" fill="#DE9D7D"/>
<path d="M60.9434 28.0319C60.9434 28.0319 60.9682 28.1814 61.0059 28.4056V28.4059C61.0292 28.5449 61.0572 28.7125 61.0875 28.8912C61.181 29.4469 61.2934 30.1079 61.3359 30.3358C61.4138 30.7553 61.6783 31.7255 62.0084 32.1834C62.1453 32.3734 62.5044 32.4627 62.687 32.4795C62.8972 32.4986 63.4515 32.7129 64.1003 31.6878C64.749 30.6628 65.78 27.0574 65.8346 26.8617C65.889 26.666 66.0468 26.1159 66.0468 26.1159L64.7125 25.644C64.7125 25.644 63.7539 28.2467 63.6184 28.6055C63.5154 28.8777 62.9149 29.9707 62.8846 30.0043C62.8541 30.038 62.7787 27.0202 62.7787 27.0202L60.9434 28.0319Z" fill="#E55353"/>
<path d="M66.8228 47.6294C66.8228 47.6294 67.8072 49.2982 68.223 49.5709C68.7872 49.9409 68.4337 50.315 68.1657 50.3154C67.8977 50.3157 66.5292 50.4136 66.2276 50.0715C65.9261 49.7292 65.7765 48.7036 65.496 48.4353C65.2155 48.1672 64.9259 47.1009 65.6326 46.8417C66.2573 46.6126 66.8228 47.6294 66.8228 47.6294Z" fill="#323657"/>
<path d="M66.3963 46.8949C66.3963 46.8949 67.5239 48.8495 67.7181 49.1381C67.9124 49.4268 67.3522 49.4265 67.005 49.2894C66.6579 49.1522 65.7846 47.7503 65.6592 47.4951C65.5095 47.1904 65.6325 46.8413 65.6325 46.8413L66.3963 46.8949Z" fill="#EEA886"/>
<path d="M65.2542 47.9468L65.5144 49.9506L65.6523 49.9566L65.6094 48.5152L65.2542 47.9468Z" fill="#323657"/>
<path d="M57.0595 47.6296C57.0595 47.6296 58.0441 49.2984 58.4597 49.5711C59.024 49.9411 58.6705 50.3152 58.4024 50.3156C58.1344 50.3159 56.7659 50.4138 56.4644 50.0716C56.1628 49.7294 56.0132 48.7037 55.7327 48.4355C55.4522 48.1674 55.153 47.0735 55.8694 46.8419C56.4975 46.6388 57.0595 47.6296 57.0595 47.6296Z" fill="#323657"/>
<path d="M56.6922 46.8989C56.6922 46.8989 57.7606 48.8494 57.955 49.1381C58.1493 49.4268 57.589 49.4265 57.2419 49.2894C56.8947 49.1522 56.0215 47.7503 55.896 47.4951C55.7463 47.1904 55.8693 46.8413 55.8693 46.8413L56.6922 46.8989Z" fill="#EEA886"/>
<path d="M55.491 47.9468L55.7512 49.9506L55.8891 49.9566L55.8462 48.5152L55.491 47.9468Z" fill="#323657"/>
<path d="M52.6914 32.4403L61.6009 36.4999C61.6009 36.4999 61.8128 36.5689 62.0525 36.7517V36.7521C62.1429 36.8211 62.2373 36.9067 62.3257 37.0111C62.5092 37.2279 62.6664 37.5261 62.7069 37.9274C63.0547 41.374 65.6327 46.842 65.6327 46.842C66.4601 47.2463 66.3967 46.8953 66.3967 46.8953C65.8752 45.2219 65.2408 38.3251 65.0142 35.5524C64.9663 34.965 64.9366 34.5628 64.9301 34.4342C64.9258 34.3466 64.8302 34.2322 64.665 34.0984C63.4426 33.1071 58.4118 31.0548 58.4118 31.0548C54.635 30.9588 52.6914 32.4403 52.6914 32.4403Z" fill="#EEA886"/>
<path d="M52.0366 33.8337C52.3125 36.242 54.7255 36.3156 54.7255 36.3156H58.8919C58.8919 36.3156 57.7975 38.7508 57.375 40.8048C56.9266 42.9847 55.8695 46.8415 55.8695 46.8415C55.8695 46.8415 55.9386 46.9725 56.6924 46.8991C56.6924 46.8991 59.9629 40.3808 61.2148 38.7422C61.484 38.3896 62.2559 36.4755 62.3888 35.3337C62.4336 34.9494 62.406 34.6527 62.2625 34.5322C62.118 34.4112 61.7859 34.183 61.3427 33.9036C60.0377 33.0807 57.7713 31.8138 56.5086 31.53C54.8174 31.1499 52.8733 30.4375 52.8733 30.4375C52.8733 30.4375 51.7609 31.4255 52.0366 33.8337Z" fill="#EEA886"/>
<path d="M58.4571 36.316H54.7253C54.7253 36.316 52.0115 36.3867 51.6941 33.9836C51.4278 31.9676 52.6912 30.5825 52.6912 30.5825C52.6912 30.5825 53.9586 30.9216 55.544 31.3045C56.3378 31.1359 57.2945 31.0262 58.4117 31.0545C58.4117 31.0545 63.1471 32.0082 64.8991 34.3438C64.8992 34.3438 62.1191 32.9414 58.4571 36.316Z" fill="#323657"/>
<path d="M62.4892 20.5209C62.4751 20.7913 62.4699 21.0627 62.4665 21.3246C62.4654 21.4058 62.4684 21.487 62.4751 21.5678C62.5146 22.0457 62.687 22.5071 62.9579 22.8644C62.9582 22.8646 62.9583 22.8647 62.9583 22.8647C62.9583 22.8647 62.9583 22.8648 62.9583 22.865C63.3421 23.3703 63.9235 23.6665 64.6052 23.5046C65.8502 23.2089 66.6789 19.1678 66.6789 19.1678C66.3386 17.5864 64.2298 17.4943 63.3845 18.0601C62.7173 18.5068 62.5416 19.5073 62.4892 20.5209Z" fill="#EEA886"/>
<path d="M52.4895 30.6991C52.4895 30.6991 52.5277 31.1616 56.0567 31.7193C56.1528 31.7343 56.2449 31.7495 56.3336 31.764C56.6591 31.8177 56.9356 31.8676 57.1721 31.9112C58.8459 32.2188 58.5079 32.2108 59.2037 31.0431C59.2993 30.8831 59.9416 29.373 60.1836 29.2307C60.4255 29.0881 60.8785 28.6117 61.0665 28.3167C61.2545 28.022 61.9651 28.212 62.629 27.6308C63.2926 27.0497 63.0175 26.2132 63.0581 25.5371C63.1289 24.3506 62.6795 22.9975 62.6795 22.9975C60.82 19.5139 58.1106 22.2774 57.6162 22.7775C57.1218 23.2777 55.4433 27.4012 54.9842 27.9232C53.3541 29.7773 52.4895 30.6991 52.4895 30.6991Z" fill="#E55353"/>
<path d="M60.7871 21.4487C60.7871 21.4487 61.0626 24.8404 61.8724 25.2233C62.7053 25.6173 62.4135 22.2819 62.4135 22.2819C62.4135 22.2819 61.729 20.8815 60.7871 21.4487Z" fill="#EEA886"/>
<path d="M65.7076 19.4157C65.7076 19.4157 66.1364 20.8144 66.0596 21.3654C66.0596 21.3654 66.6203 20.6116 66.7315 19.9218C66.8422 19.2358 67.172 18.1264 66.1413 17.2783C65.1106 16.4304 65.7076 19.4157 65.7076 19.4157Z" fill="#163342"/>
<path d="M61.5029 22.4489C61.5063 23.2858 62.3966 23.7569 62.4641 23.3591C62.4718 23.3147 62.5752 23.2059 62.6529 23.1262L62.6529 23.1258C62.6837 23.0943 62.7105 23.0671 62.7252 23.0509C62.7849 22.9848 62.8666 22.9223 62.9583 22.8647C63.2994 22.6507 63.7793 22.5057 63.7793 22.5057L62.879 20.041C62.879 20.041 62.7093 20.2341 62.4893 20.5209C62.0816 21.0524 61.5007 21.9051 61.5029 22.4489Z" fill="#EEA886"/>
<path d="M62.6529 23.1257C62.6837 23.0942 62.7104 23.0671 62.7251 23.0509C62.7848 22.9847 62.8666 22.9222 62.9582 22.8647C62.9582 22.8647 62.5163 22.2595 62.4752 21.5676C62.4752 21.5677 62.2792 22.0936 62.6529 23.1257Z" fill="#A77860"/>
<path d="M59.4762 38.1697C59.4762 38.1697 59.373 38.0458 59.3543 37.9696C59.3543 37.9696 59.331 37.8283 59.3084 37.7289C59.301 37.6974 59.294 37.6701 59.2876 37.6529C59.2609 37.5812 59.1809 37.4318 59.1651 37.2416C59.1492 37.0516 59.2919 36.2142 59.2919 36.2142L59.7664 36.1627L60.2037 36.0513C60.2037 36.0513 60.8874 36.9986 60.9227 37.1739C60.926 37.1912 60.9287 37.2082 60.9299 37.2244C60.9453 37.3759 60.8932 37.495 60.8923 37.5753C60.8918 37.6048 60.8668 37.8979 60.7945 37.948C60.6944 38.0176 60.5967 38.0252 60.5191 37.9942C60.5191 37.9942 60.3169 38.1218 60.1572 38.102C60.1572 38.102 59.9745 38.2257 59.7828 38.1446C59.7827 38.1446 59.5833 38.2494 59.4762 38.1697Z" fill="#FFB48F"/>
<path d="M59.3565 24.072C59.3565 24.072 59.8225 22.3208 58.6065 22.347C57.3906 22.3732 57.3072 23.8909 57.272 24.1915C57.2368 24.4922 56.8211 28.037 56.8689 28.7078C56.9167 29.3787 56.7826 30.2929 56.9256 31.1816C57.0327 31.8477 59.1968 36.487 59.2322 36.5052C59.2676 36.5236 60.3366 36.0865 60.3366 36.0865C60.3366 36.0865 58.9492 31.559 58.7649 31.1389C58.4792 30.4872 58.5907 30.0112 58.5773 29.6901C58.5639 29.3691 59.3028 24.3441 59.3565 24.072Z" fill="#E55353"/>
<path d="M65.8771 19.5626C65.8771 19.5626 65.29 20.5969 64.377 20.3525C63.4638 20.1083 62.7924 20.3469 62.6818 20.732C62.5712 21.1172 61.7884 23.1809 60.9602 23.1141C60.1322 23.0472 59.5288 21.7894 59.0629 22.0354C58.5971 22.2814 58.0883 23.6735 57.4813 23.2987C56.8743 22.9239 56.9929 21.641 58.2899 21.0855C59.5868 20.5301 60.5099 20.5299 60.8881 19.8067C61.2663 19.0835 62.2076 17.1116 63.1074 16.7211C63.7746 16.4315 64.5672 16.2147 65.8179 17.0256C67.0685 17.8365 66.6792 19.1678 66.6792 19.1678L65.8771 19.5626Z" fill="#163342"/>
<path d="M62.0522 36.7514V36.7517C62.1427 36.8208 62.2371 36.9063 62.3255 37.0108C62.3255 37.0108 62.5093 36.3238 62.4043 35.1553C62.4042 35.1553 62.3997 35.6577 62.0522 36.7514Z" fill="#B07C63"/>
<path d="M56.3336 31.7642C56.6591 31.8179 56.9356 31.8678 57.1721 31.9114C57.1721 31.9111 57.1721 31.9111 57.1721 31.9111C57.1721 31.9111 56.9134 31.3149 56.9159 31.1195C56.9182 30.924 56.7924 28.7996 56.957 27.164C57.1213 25.5285 57.1091 25.6444 57.1091 25.6444C57.1091 25.6444 55.981 29.0121 56.3336 31.7642Z" fill="#A63D3D"/>
<path d="M61.0059 28.4058V28.4061C61.0292 28.5451 61.0281 28.5403 61.0583 28.7188C62.098 28.3397 62.3827 27.842 62.3958 27.8169C62.0405 28.0758 61.5479 28.1068 61.2972 28.167C61.046 28.2268 61.0059 28.4058 61.0059 28.4058Z" fill="#A63D3D"/>
<defs>
<linearGradient id="paint0_linear" x1="101.222" y1="100.582" x2="129.141" y2="100.582" gradientUnits="userSpaceOnUse">
<stop stop-color="white"/>
<stop offset="1"/>
</linearGradient>
</defs>
</svg>
