<svg width="1440" height="1073" viewBox="0 0 1440 1073" fill="none" xmlns="http://www.w3.org/2000/svg">
<g filter="url(#filter0_d)">
<path d="M1440 908C1440 908 1354.5 868 1237 868C1016 868 777.5 1133 461 1019.49C144.5 905.977 0.000119599 1019.49 0.000119599 1019.49L0.000119599 168.997C0.000119599 168.997 239.5 240.997 480 168.998C710.933 99.8625 1186 -96 1440 100.5L1440 908Z" fill="url(#paint0_linear)"/>
<path d="M1442.5 908L1442.5 911.93L1438.94 910.264L1438.94 910.264L1438.93 910.259L1438.89 910.24L1438.71 910.158C1438.55 910.086 1438.31 909.976 1437.99 909.833C1437.35 909.546 1436.39 909.122 1435.12 908.581C1432.58 907.499 1428.81 905.949 1423.92 904.086C1414.13 900.361 1399.84 895.386 1381.89 890.409C1345.99 880.454 1295.47 870.5 1237 870.5C1182.22 870.5 1126.23 886.924 1067.94 909.958C1038.81 921.47 1009.15 934.611 978.821 948.145C976.739 949.073 974.655 950.004 972.567 950.936C944.244 963.579 915.328 976.486 885.762 988.624C758.763 1040.76 619.288 1078.91 460.156 1021.84C302.285 965.222 187.485 965.279 112.273 979.379C74.6578 986.431 46.9125 997.001 28.6046 1005.78C19.4498 1010.17 12.6532 1014.11 8.16101 1016.95C5.9149 1018.36 4.24492 1019.5 3.14437 1020.28C2.5941 1020.67 2.18619 1020.97 1.91982 1021.17C1.78663 1021.27 1.68883 1021.34 1.62631 1021.39C1.59504 1021.42 1.5726 1021.43 1.55897 1021.44L1.54512 1021.45L1.54447 1021.45L1.54315 1021.46L-2.49988 1024.63L-2.49988 1019.49L-2.49988 168.997L-2.49988 165.634L0.719865 166.602L0.000119599 168.997C0.719865 166.602 0.720132 166.602 0.721311 166.603L0.728224 166.605L0.758412 166.614L0.883934 166.651C0.996454 166.684 1.1665 166.734 1.39317 166.8C1.8465 166.932 2.52629 167.128 3.42527 167.381C5.22324 167.886 7.89789 168.621 11.391 169.53C18.3774 171.35 28.637 173.873 41.7044 176.677C67.8405 182.286 105.201 189.02 150.062 193.509C239.806 202.49 359.452 202.477 479.283 166.603C508.86 157.748 542.494 146.795 579.19 134.845C685.466 100.237 817.425 57.2646 950.897 32.677C1130.4 -0.389503 1313.63 -0.426629 1441.53 98.5222L1442.5 99.2728L1442.5 100.5L1442.5 908Z" stroke="#D7E6F6" stroke-width="5"/>
</g>
<defs>
<filter id="filter0_d" x="-15" y="0.376953" width="1480" height="1072.38" filterUnits="userSpaceOnUse" color-interpolation-filters="sRGB">
<feFlood flood-opacity="0" result="BackgroundImageFix"/>
<feColorMatrix in="SourceAlpha" type="matrix" values="0 0 0 0 0 0 0 0 0 0 0 0 0 0 0 0 0 0 127 0"/>
<feOffset dx="5" dy="5"/>
<feGaussianBlur stdDeviation="7.5"/>
<feColorMatrix type="matrix" values="0 0 0 0 0.670938 0 0 0 0 0.777973 0 0 0 0 0.879062 0 0 0 1 0"/>
<feBlend mode="normal" in2="BackgroundImageFix" result="effect1_dropShadow"/>
<feBlend mode="normal" in="SourceGraphic" in2="effect1_dropShadow" result="shape"/>
</filter>
<linearGradient id="paint0_linear" x1="-0.0021641" y1="669.002" x2="849.057" y2="-294.195" gradientUnits="userSpaceOnUse">
<stop stop-color="#F5F4E3"/>
<stop offset="1" stop-color="#AFD0EE"/>
</linearGradient>
</defs>
</svg>
