<svg width="320" height="609" viewBox="0 0 320 609" fill="none" xmlns="http://www.w3.org/2000/svg">
<g filter="url(#filter0_d)">
<path d="M445 521.5C445 521.5 416.915 502.338 378.32 502.338C326.093 502.338 227.387 629.287 123.426 574.909C19.4642 520.531 -28 574.909 -28 574.909L-28 57.6959C-28 57.6959 25.3331 116.789 129.667 57.6964C234 -1.39602 361.568 -15.5292 445 78.6041L445 521.5Z" fill="url(#paint0_linear)"/>
<path d="M447.5 521.5L447.5 526.232L443.592 523.566L443.592 523.566L443.591 523.565L443.581 523.558L443.53 523.524C443.505 523.507 443.472 523.485 443.431 523.459C443.396 523.436 443.355 523.409 443.309 523.379C443.109 523.248 442.804 523.052 442.398 522.8C441.587 522.296 440.375 521.569 438.795 520.692C435.635 518.937 431.011 516.588 425.196 514.237C413.557 509.53 397.211 504.838 378.32 504.838C372.269 504.838 365.37 506.684 357.616 509.987C349.879 513.282 341.452 517.957 332.375 523.462C325.587 527.579 318.405 532.183 310.905 536.99C298.518 544.931 285.267 553.425 271.502 561.192C227.146 586.22 175.443 604.938 122.267 577.124C70.7626 550.184 33.554 550.321 9.38659 556.929C-2.72908 560.241 -11.6526 565.202 -17.5265 569.311C-20.4639 571.365 -22.6378 573.206 -24.0649 574.518C-24.7784 575.175 -25.3047 575.699 -25.6461 576.051C-25.8168 576.227 -25.9411 576.36 -26.0195 576.446C-26.0586 576.488 -26.0863 576.519 -26.1025 576.537L-26.1181 576.555C-26.1185 576.555 -26.1183 576.555 -26.1186 576.555C-26.119 576.556 -26.1197 576.556 -26.1195 576.556L-30.5 581.575L-30.5 574.909L-30.5 57.6959L-30.5 51.1946L-26.1465 56.0182L-26.1459 56.0189L-26.1441 56.0209L-26.1247 56.0421C-26.1053 56.063 -26.0731 56.0977 -26.0279 56.1453C-25.9377 56.2407 -25.796 56.3881 -25.603 56.5822C-25.2168 56.9705 -24.6254 57.5453 -23.8294 58.2639C-22.237 59.7014 -19.8281 61.712 -16.6079 63.9542C-10.1672 68.439 -0.491849 73.8428 12.3825 77.4484C38.0527 84.6378 76.7868 84.7733 128.435 55.5211C233.186 -3.80813 362.271 -18.5052 446.871 76.9459L447.5 77.6556L447.5 78.6041L447.5 521.5Z" stroke="#D7E6F6" stroke-width="5"/>
</g>
<defs>
<filter id="filter0_d" x="-38" y="0.664307" width="503" height="607.792" filterUnits="userSpaceOnUse" color-interpolation-filters="sRGB">
<feFlood flood-opacity="0" result="BackgroundImageFix"/>
<feColorMatrix in="SourceAlpha" type="matrix" values="0 0 0 0 0 0 0 0 0 0 0 0 0 0 0 0 0 0 127 0"/>
<feOffset dx="5" dy="5"/>
<feGaussianBlur stdDeviation="5"/>
<feColorMatrix type="matrix" values="0 0 0 0 0.670938 0 0 0 0 0.777973 0 0 0 0 0.879062 0 0 0 0.5 0"/>
<feBlend mode="normal" in2="BackgroundImageFix" result="effect1_dropShadow"/>
<feBlend mode="normal" in="SourceGraphic" in2="effect1_dropShadow" result="shape"/>
</filter>
<linearGradient id="paint0_linear" x1="-28.0006" y1="262.561" x2="369.376" y2="-46.5358" gradientUnits="userSpaceOnUse">
<stop stop-color="#F5F4E3"/>
<stop offset="1" stop-color="#AFD0EE"/>
</linearGradient>
</defs>
</svg>
