<svg width="320" height="2244" viewBox="0 0 320 2244" fill="none" xmlns="http://www.w3.org/2000/svg">
<g filter="url(#filter0_d)">
<path fill-rule="evenodd" clip-rule="evenodd" d="M379.529 2219.92L379.525 2219.92L379.52 2219.91L379.464 2219.86C379.409 2219.8 379.322 2219.72 379.201 2219.61C378.959 2219.38 378.583 2219.04 378.074 2218.58C377.055 2217.68 375.502 2216.34 373.415 2214.66C369.241 2211.3 362.935 2206.57 354.502 2201.2C337.637 2190.47 312.274 2177.19 278.457 2167.15C210.905 2147.1 109.257 2139.9 -26.3105 2192.45C-32.3721 2194.79 -38.4033 2194.79 -44.1095 2192.32C-49.6546 2189.93 -54.4691 2185.4 -58.6984 2179.47C-67.1102 2167.69 -74.1787 2148.98 -80.2393 2124.82C-92.4059 2076.34 -101.024 2003.7 -106.932 1914.36C-118.755 1735.57 -119.787 1488.7 -116.129 1231.49C-112.47 974.237 -104.116 706.496 -97.1495 485.923L-96.654 470.239C-89.9177 257.035 -84.6514 90.36 -86.484 23.4704L-86.9901 5L-77.241 20.6914L-77.2389 20.6948L-77.2383 20.6957L-77.2186 20.727C-77.1991 20.7578 -77.167 20.8086 -77.1221 20.8786C-77.0325 21.0186 -76.8921 21.2355 -76.7011 21.5243C-76.319 22.102 -75.7348 22.9667 -74.9493 24.0776C-73.378 26.2998 -71.0034 29.5038 -67.8333 33.3627C-61.4888 41.0858 -51.9833 51.4009 -39.3817 61.7141C-14.1791 82.3399 23.2383 102.833 72.5142 102.833C140.279 102.833 176.029 87.6224 208.244 72.3172C210.331 71.3255 212.406 70.3318 214.477 69.3403C244.756 54.8413 274.01 40.8334 325.014 40.8334C352.304 40.8334 370.593 46.9433 382.263 56.9613C394.025 67.058 398.305 80.4649 398.946 93.3347C399.581 106.12 396.662 118.707 393.688 127.943C392.19 132.594 390.654 136.472 389.487 139.197C388.902 140.562 388.409 141.641 388.057 142.39C388.042 142.42 388.028 142.45 388.014 142.48L388.014 2228.19M383.014 141.333C383.014 141.333 431.514 45.8334 325.014 45.8334C275.161 45.8334 246.781 59.4192 216.592 73.8715C182.289 90.2931 145.649 107.833 72.5142 107.833C-10.5652 107.833 -60.8162 51.2211 -76.3193 30.6726C-79.7567 26.1166 -81.4859 23.3335 -81.4859 23.3335C-81.4082 26.1693 -81.3432 29.1835 -81.2905 32.3721C-80.0975 104.563 -85.2023 266.126 -91.6457 470.054C-112.501 1130.11 -147.38 2234.01 -28.1176 2187.78C215 2093.55 351.04 2189.68 378.014 2211.96C381.346 2214.71 383.014 2216.33 383.014 2216.33L383.014 141.333Z" fill="#D7E6F6"/>
</g>
<path d="M-28.1176 2187.78C245.032 2081.91 383.014 2216.33 383.014 2216.33L383.014 141.333C383.014 141.333 431.514 45.8335 325.014 45.8335C218.514 45.8335 210.014 107.833 72.5141 107.833C-28.9859 107.833 -81.486 23.3335 -81.486 23.3335C-73.9557 298.188 -185.854 2248.92 -28.1176 2187.78Z" fill="url(#paint0_linear)"/>
<defs>
<filter id="filter0_d" x="-123" y="0" width="537.034" height="2243.19" filterUnits="userSpaceOnUse" color-interpolation-filters="sRGB">
<feFlood flood-opacity="0" result="BackgroundImageFix"/>
<feColorMatrix in="SourceAlpha" type="matrix" values="0 0 0 0 0 0 0 0 0 0 0 0 0 0 0 0 0 0 127 0"/>
<feOffset dx="5" dy="5"/>
<feGaussianBlur stdDeviation="5"/>
<feColorMatrix type="matrix" values="0 0 0 0 0.670938 0 0 0 0 0.777973 0 0 0 0 0.879062 0 0 0 1 0"/>
<feBlend mode="normal" in2="BackgroundImageFix" result="effect1_dropShadow"/>
<feBlend mode="normal" in="SourceGraphic" in2="effect1_dropShadow" result="shape"/>
</filter>
<linearGradient id="paint0_linear" x1="-427.985" y1="672.803" x2="405.296" y2="207.08" gradientUnits="userSpaceOnUse">
<stop stop-color="#F5F4E3"/>
<stop offset="1" stop-color="#AFD0EE"/>
</linearGradient>
</defs>
</svg>
