<svg width="1440" height="1607" viewBox="0 0 1440 1607" fill="none" xmlns="http://www.w3.org/2000/svg">
<g filter="url(#filter0_d)">
<path d="M-4.22939e-06 1533C-4.22939e-06 1533 225 1670.3 710 1482.31C1195 1294.32 1440 1533 1440 1533L1440 222.199C1440 222.199 1300.5 1.88038 989.5 16C678.5 30.1197 481.5 134.5 266.5 134.5C51.5 134.5 -4.22939e-06 16 -4.22939e-06 16L-4.22939e-06 1533Z" fill="url(#paint0_linear)"/>
<path d="M-4.22939e-06 1533L-1.30221 1535.13L-2.5 1534.4L-2.5 1533L-2.5 16L2.28408 15.0054C2.29204 15.0017 2.29198 15.0015 2.29193 15.0015L2.2922 15.0021L2.29282 15.0035L2.2963 15.0114L2.3188 15.0619C2.34022 15.1096 2.37454 15.1852 2.42218 15.288C2.51747 15.4934 2.66605 15.807 2.87132 16.2216C3.28186 17.0509 3.91909 18.2839 4.81017 19.8633C6.59238 23.0222 9.38951 27.5653 13.4187 33.0325C21.4764 43.9657 34.4625 58.5959 54.1189 73.2455C93.4003 102.521 159.49 132 266.5 132C369.341 132 468.08 108.041 577.613 81.4616C582.193 80.3502 586.792 79.2342 591.411 78.1152C706.428 50.2512 833.628 20.5741 989.387 13.5026C1145.54 6.41299 1258.71 58.1917 1332.84 111.779C1369.89 138.565 1397.18 165.797 1415.22 186.346C1424.24 196.621 1430.95 205.228 1435.41 211.276C1437.64 214.301 1439.31 216.686 1440.42 218.32C1440.98 219.138 1441.4 219.767 1441.68 220.196L1441.84 220.438C1441.9 220.538 1441.96 220.62 1442 220.685L1442.08 220.813L1442.1 220.848L1442.11 220.857C1442.11 220.858 1442.11 220.859 1441.96 220.953C1441.75 221.088 1441.24 221.412 1440 222.199L1442.11 220.862L1442.5 221.474L1442.5 222.199L1442.5 1533L1442.5 1538.93L1438.26 1534.79L1438.3 1534.75C1438.26 1534.79 1438.26 1534.79 1438.26 1534.79L1438.25 1534.78L1438.22 1534.76C1438.19 1534.73 1438.15 1534.69 1438.1 1534.64C1437.98 1534.53 1437.81 1534.37 1437.58 1534.15C1437.11 1533.72 1436.41 1533.07 1435.47 1532.23C1433.58 1530.56 1430.75 1528.11 1426.96 1525.06C1419.38 1518.95 1407.99 1510.42 1392.8 1500.75C1362.42 1481.42 1316.85 1457.57 1256.16 1439.55C1134.83 1403.54 952.9 1390.84 710.903 1484.64C468.082 1578.76 290.195 1591.5 172.894 1580.64C114.25 1575.21 70.7714 1563.88 41.9159 1553.88C27.4889 1548.88 16.7193 1544.21 9.53879 1540.79C5.94858 1539.08 3.25576 1537.67 1.45176 1536.69C0.549765 1536.2 -0.130018 1535.82 -0.588657 1535.55C-0.817977 1535.42 -0.99201 1535.32 -1.11089 1535.25C-1.17033 1535.21 -1.21598 1535.19 -1.24787 1535.17L-1.28536 1535.14L-1.29637 1535.14C-1.29972 1535.14 -1.30221 1535.13 -4.22939e-06 1533Z" stroke="#D7E6F6" stroke-width="5"/>
</g>
<defs>
<filter id="filter0_d" x="-15.0001" y="0.349121" width="1480" height="1606.03" filterUnits="userSpaceOnUse" color-interpolation-filters="sRGB">
<feFlood flood-opacity="0" result="BackgroundImageFix"/>
<feColorMatrix in="SourceAlpha" type="matrix" values="0 0 0 0 0 0 0 0 0 0 0 0 0 0 0 0 0 0 127 0"/>
<feOffset dx="5" dy="5"/>
<feGaussianBlur stdDeviation="7.5"/>
<feColorMatrix type="matrix" values="0 0 0 0 0.670938 0 0 0 0 0.777973 0 0 0 0 0.879062 0 0 0 1 0"/>
<feBlend mode="normal" in2="BackgroundImageFix" result="effect1_dropShadow"/>
<feBlend mode="normal" in="SourceGraphic" in2="effect1_dropShadow" result="shape"/>
</filter>
<linearGradient id="paint0_linear" x1="0.00036064" y1="1165.85" x2="1479.55" y2="338.906" gradientUnits="userSpaceOnUse">
<stop stop-color="#F5F4E3"/>
<stop offset="1" stop-color="#AFD0EE"/>
</linearGradient>
</defs>
</svg>
