<svg width="414" height="313" viewBox="0 0 414 313" fill="none" xmlns="http://www.w3.org/2000/svg">
<path d="M285.722 211.949C285.722 211.949 299.661 161.549 318.187 133.651C334.731 108.738 355.836 92.7285 366.749 95.1832C377.661 97.6387 379.072 121.977 375.479 136.379C370.917 154.664 361.314 171.319 352.563 181.121C338.922 196.399 305.771 224.027 305.771 224.027L285.722 211.949Z" fill="#F9CECE"/>
<path d="M375.061 138.02C370.339 155.661 361.05 171.616 352.559 181.125C338.924 196.401 305.768 224.029 305.768 224.029L298.157 219.444C302.595 212.723 320.182 186.627 336.742 168.801C346.205 158.632 356.484 147.629 373.466 138.826C374.007 138.542 374.538 138.276 375.061 138.02Z" fill="#F8A2A2"/>
<path d="M296.363 217.591C296.283 217.591 296.202 217.571 296.129 217.528C295.912 217.398 295.839 217.118 295.967 216.899L353.258 120.049C353.388 119.831 353.668 119.76 353.887 119.887C354.104 120.017 354.177 120.297 354.048 120.516L296.758 217.366C296.672 217.51 296.519 217.591 296.363 217.591Z" fill="#F96767"/>
<path d="M328.232 163.04C328.053 163.04 327.882 162.935 327.809 162.759L318.265 140.028C318.167 139.795 318.277 139.525 318.51 139.428C318.745 139.331 319.014 139.441 319.11 139.674L328.654 162.405C328.753 162.638 328.643 162.907 328.409 163.004C328.351 163.028 328.291 163.04 328.232 163.04Z" fill="#F96767"/>
<path d="M333.134 137.84C332.948 137.84 332.771 137.726 332.704 137.54L326.942 121.949C326.854 121.711 326.975 121.448 327.213 121.36C327.448 121.271 327.715 121.393 327.802 121.632L333.564 137.223C333.652 137.461 333.531 137.724 333.292 137.812C333.24 137.832 333.187 137.84 333.134 137.84Z" fill="#F96767"/>
<path d="M347.337 176.523C357.664 167.229 368.887 157.188 386.579 149.931C401.898 143.649 409.396 145.752 412.397 149.845C415.398 153.937 414.807 167.917 405.216 183.849C400.05 192.43 389.699 203.854 382.846 210.039C375.737 216.453 362.166 225.281 347.379 230.773C333.568 235.902 316.824 237.321 316.824 237.321L303.19 225.06C303.189 225.06 326.433 195.336 347.337 176.523Z" fill="#F9CECE"/>
<path d="M312.185 227.685C312.013 227.685 311.847 227.587 311.77 227.419C311.663 227.19 311.762 226.917 311.993 226.811C342.208 212.798 370.705 191.446 396.694 163.349C396.866 163.165 397.155 163.152 397.342 163.324C397.528 163.497 397.539 163.787 397.367 163.973C371.297 192.157 342.703 213.579 312.378 227.643C312.316 227.672 312.25 227.685 312.185 227.685Z" fill="#F96767"/>
<path d="M392.38 198.451C392.311 198.451 392.241 198.436 392.174 198.403L377.987 191.31C377.761 191.198 377.669 190.922 377.782 190.695C377.896 190.469 378.172 190.377 378.397 190.49L392.584 197.582C392.811 197.696 392.902 197.971 392.79 198.197C392.71 198.358 392.547 198.451 392.38 198.451Z" fill="#F96767"/>
<path d="M386.089 207.11C386.033 207.11 385.977 207.1 385.922 207.079L361.628 197.604C361.392 197.511 361.275 197.245 361.367 197.01C361.459 196.775 361.725 196.656 361.96 196.75L386.255 206.226C386.49 206.317 386.608 206.584 386.515 206.819C386.445 206.999 386.272 207.11 386.089 207.11Z" fill="#F96767"/>
<path d="M376.57 214.862C376.51 214.862 376.447 214.85 376.389 214.825C374.765 214.125 360.504 207.972 359.674 207.42C359.464 207.279 359.406 206.994 359.546 206.784C359.688 206.573 359.973 206.517 360.182 206.657C360.757 207.041 370.406 211.249 376.751 213.983C376.983 214.083 377.09 214.352 376.99 214.585C376.917 214.759 376.748 214.862 376.57 214.862Z" fill="#F96767"/>
<path d="M359.753 224.913C359.698 224.913 359.642 224.903 359.588 224.883L340.491 217.517C340.255 217.426 340.137 217.161 340.228 216.925C340.32 216.689 340.586 216.57 340.821 216.662L359.918 224.028C360.155 224.119 360.272 224.384 360.181 224.62C360.111 224.802 359.938 224.913 359.753 224.913Z" fill="#F96767"/>
<path d="M0 153.825C0 153.825 4.07397 234.404 70.9042 234.191C70.9042 234.191 70.509 210.956 56.279 191.134C42.05 171.31 27.9062 170.537 0 153.825Z" fill="#F9CECE"/>
<path d="M67.5282 214.714C59.7433 210.267 43.3851 198.301 37.4434 173.69C44.3846 177.88 50.3172 182.841 56.2773 191.13C61.9348 199.007 65.41 207.433 67.5282 214.714Z" fill="#F8A2A2"/>
<path d="M80.5641 245.692C80.4358 245.692 80.3092 245.637 80.2184 245.534L57.1473 218.993C56.9814 218.801 57.0015 218.513 57.1922 218.347C57.383 218.179 57.6718 218.201 57.8396 218.391L80.9098 244.932C81.0767 245.124 81.0556 245.413 80.8649 245.579C80.7778 245.655 80.6705 245.692 80.5641 245.692Z" fill="#EC5E5E"/>
<path d="M72.1073 205.129C72.1073 205.129 44.28 194.217 37.1865 159.296C30.0931 124.375 33.9131 105.824 27.9108 85.6353C27.9108 85.6353 61.7404 98.1845 75.3808 135.833C89.0221 173.482 72.1073 205.129 72.1073 205.129Z" fill="#F9CECE"/>
<path d="M87.3844 245.146C87.201 245.146 87.0277 245.035 86.9571 244.854L63.6063 184.951C63.5146 184.715 63.631 184.45 63.8667 184.357C64.1005 184.264 64.3683 184.381 64.4599 184.617L87.8107 244.52C87.9034 244.757 87.786 245.022 87.5503 245.113C87.4972 245.135 87.4403 245.146 87.3844 245.146Z" fill="#EC5E5E"/>
<path d="M95.5697 225.318C95.5697 225.318 115.758 205.675 116.304 186.032C116.849 166.389 100.844 145.11 89.3858 139.653C89.3858 139.653 95.9337 152.385 94.4785 163.662C93.4616 171.541 85.3843 178.212 85.3843 194.581C85.3843 208.777 95.5697 225.318 95.5697 225.318Z" fill="#F9CECE"/>
<path d="M113.384 199.107C107.672 213.539 95.5681 225.313 95.5681 225.313C95.5681 225.313 85.3809 208.781 85.3809 194.577C85.3809 194.284 85.3809 193.99 85.3992 193.706C88.4159 201.803 93.9267 214.511 98.6306 214.044C102.473 213.659 108.653 205.901 113.384 199.107Z" fill="#F8A2A2"/>
<path d="M93.1143 244.327C93.0932 244.327 93.0711 244.325 93.0501 244.323C92.7997 244.288 92.6246 244.056 92.6594 243.805L97.6586 208.3C97.6944 208.049 97.93 207.882 98.1758 207.909C98.4261 207.944 98.6012 208.176 98.5664 208.426L93.5672 243.931C93.5351 244.161 93.3398 244.327 93.1143 244.327Z" fill="#EC5E5E"/>
<path opacity="0.15" d="M218.102 312.253C322.368 312.253 406.891 299.59 406.891 283.969C406.891 268.349 322.368 255.686 218.102 255.686C113.837 255.686 29.3136 268.349 29.3136 283.969C29.3136 299.59 113.837 312.253 218.102 312.253Z" fill="#B08184"/>
<path d="M118.137 93.925C115.254 93.0713 112.235 93.1154 109.34 93.9058C107.937 94.289 106.583 94.8676 105.328 95.6012C104.055 96.3448 102.731 97.2599 101.928 98.5189C101.62 99.0021 102.237 99.6284 102.722 99.313C103.848 98.5803 104.83 97.6597 105.984 96.9592C107.155 96.2495 108.414 95.6938 109.721 95.2848C112.342 94.4633 115.195 94.3074 117.897 94.7952C118.46 94.897 118.702 94.0928 118.137 93.925Z" fill="#3A2F31"/>
<path d="M111.745 88.0044C109.865 87.2167 107.384 87.5441 105.951 89.0506C105.757 89.2551 105.748 89.587 105.951 89.7906C106.171 90.0097 106.469 89.9657 106.691 89.7906C108.064 88.7104 109.837 88.2574 111.513 88.848C111.736 88.9268 111.99 88.759 112.05 88.5426C112.119 88.2895 111.963 88.0961 111.745 88.0044Z" fill="#3A2F31"/>
<path d="M293.028 247.761C292.992 247.761 292.955 247.756 292.918 247.747C286.028 246.055 279.926 242.408 274.785 236.904C274.613 236.719 274.622 236.428 274.806 236.256C274.992 236.084 275.282 236.094 275.454 236.277C280.473 241.648 286.422 245.208 293.137 246.857C293.382 246.916 293.534 247.165 293.472 247.411C293.422 247.621 293.235 247.761 293.028 247.761Z" fill="#EC5E5E"/>
<path d="M182.992 232.9C182.796 232.9 182.615 232.774 182.554 232.578C182.478 232.336 182.613 232.079 182.855 232.004C198.419 227.171 210.793 221.449 220.68 214.511C220.885 214.365 221.172 214.416 221.318 214.623C221.464 214.83 221.414 215.116 221.206 215.261C211.239 222.255 198.783 228.018 183.128 232.879C183.083 232.895 183.037 232.9 182.992 232.9Z" fill="#EC5E5E"/>
<path d="M131.877 129.011L142.824 143.99L156.938 124.978L143.112 119.506L131.877 129.011Z" fill="#EF986C"/>
<path opacity="0.3" d="M151.078 122.664C145.448 129.642 136.26 128.312 136.26 128.312L141.579 120.803L143.11 119.51L151.078 122.664Z" fill="#3A2F31"/>
<path d="M130.276 100.034C141.723 101.677 151.13 109.708 150.295 115.21C149.624 119.621 137.745 132.397 123.832 131.033C112.323 129.906 106.042 121.522 107.29 112.819C108.537 104.116 118.829 98.3922 130.276 100.034Z" fill="#EF986C"/>
<path d="M130.795 108.606C130.795 108.606 128.533 106.81 127.603 104.651C127.044 103.354 126.235 100.859 127.315 100.558C128.395 100.257 128.548 100.943 128.727 102.044C128.906 103.144 129.111 103.828 129.352 104.541C129.594 105.255 130.795 108.606 130.795 108.606Z" fill="#3A2F31"/>
<path d="M133.293 105.939C134.084 105.939 134.725 105.389 134.725 104.711C134.725 104.033 134.084 103.483 133.293 103.483C132.502 103.483 131.861 104.033 131.861 104.711C131.861 105.389 132.502 105.939 133.293 105.939Z" fill="#3A2F31"/>
<path d="M131.787 100.315L138.586 101.722C138.586 101.722 140.535 99.5925 142.114 100.344C143.469 100.99 143.233 102.969 142.734 104.867C142.734 104.867 137.777 104.965 131.787 100.315Z" fill="#EF986C"/>
<path d="M141.168 111.138C141.066 111.138 140.973 111.069 140.946 110.965C140.915 110.842 140.989 110.718 141.112 110.687C143.738 110.014 144.817 107.874 144.942 106.244C144.951 106.118 145.044 106.008 145.189 106.034C145.315 106.044 145.409 106.154 145.4 106.281C145.263 108.06 144.088 110.399 141.226 111.131C141.206 111.135 141.187 111.138 141.168 111.138Z" fill="#3A2F31"/>
<path d="M134.65 106.768C134.55 106.768 134.458 106.702 134.429 106.599C134.093 105.378 134.287 104.197 135.006 103.09C135.075 102.984 135.216 102.953 135.323 103.022C135.43 103.091 135.46 103.234 135.391 103.339C134.736 104.347 134.567 105.373 134.872 106.478C134.905 106.6 134.834 106.727 134.712 106.761C134.691 106.765 134.669 106.768 134.65 106.768Z" fill="#3A2F31"/>
<path opacity="0.3" d="M142.733 104.867C142.733 104.867 142.009 104.885 140.771 104.638L140.716 104.583C140.716 104.583 142.568 103.281 142.944 101.291C143.293 102.208 143.072 103.556 142.733 104.867Z" fill="#3A2F31"/>
<path d="M95.9129 133.084C95.7332 133.084 95.5608 132.977 95.4884 132.799C95.393 132.564 95.5049 132.296 95.7387 132.201C99.7457 130.56 101.726 128.09 102.161 124.194C102.188 123.943 102.405 123.762 102.668 123.79C102.919 123.818 103.101 124.045 103.072 124.297C102.602 128.509 100.382 131.29 96.0862 133.051C96.0303 133.073 95.9707 133.084 95.9129 133.084Z" fill="#3A2F31"/>
<path d="M104.37 119.303C104.37 123.723 102.242 127.669 97.8219 127.669C93.4023 127.669 88.3646 123.723 88.3646 119.303C88.3646 114.884 92.8567 110.209 97.2764 110.209C101.697 110.209 104.37 114.883 104.37 119.303Z" fill="#3A2F31"/>
<path opacity="0.3" d="M104.369 119.3C104.369 123.719 102.242 127.671 97.8219 127.671C94.5025 127.671 90.8439 125.443 89.2118 122.463C93.2555 123.307 100.114 123.857 104.369 119.3Z" fill="black"/>
<path d="M104.422 129.863C104.422 129.863 107.426 135.908 107.391 140.491C107.348 146.17 105.627 149.656 105.927 150.603C106.228 151.55 108.096 152.005 109.098 151.132C110.1 150.259 110.441 148.485 110.995 144.131C111.346 141.371 111.38 137.926 110.553 134.036C108.701 125.312 104.422 129.863 104.422 129.863Z" fill="#3A2F31"/>
<path d="M117.61 101.356C117.61 101.356 117.417 105.939 119.224 111.532C120.789 116.372 127.4 126.248 135.231 126.592C135.812 130.206 132.908 133.756 132.94 135.679C132.928 138.206 135.65 138.815 135.29 141.309C134.93 143.804 130.455 146.643 125.722 148.838C121.983 150.571 116.883 152.148 114.62 150.645C112.357 149.142 115.438 143.975 113.646 139.672C112.289 136.412 108.554 135.125 106.007 132.397C103.461 129.669 101.979 122.389 102.507 116.523C102.755 113.772 104.998 110.341 107.413 107.035C110.664 102.585 113.414 98.7094 117.61 101.356Z" fill="#3A2F31"/>
<path opacity="0.3" d="M135.288 141.306C134.93 143.8 130.456 146.643 125.724 148.834C123.689 149.779 121.25 150.677 119.086 151.053C119.031 147.697 119.297 141.719 120.342 138.895C122.322 133.567 126.32 131.495 127.228 125.947C127.421 124.755 124.331 121.876 124.835 120.693C125.192 121.088 125.559 121.473 125.935 121.84C126.128 122.023 126.32 122.206 126.513 122.39C126.715 122.582 126.926 122.766 127.136 122.949C127.531 123.288 127.925 123.6 128.338 123.893C128.53 124.031 128.723 124.169 128.915 124.306C130.456 125.351 132.125 126.112 133.876 126.433C134.325 126.516 134.775 126.571 135.233 126.589C135.811 130.211 132.904 133.76 132.941 135.676C132.922 138.207 135.646 138.812 135.288 141.306Z" fill="black"/>
<path d="M124.741 118.302C124.741 118.302 121.467 118.211 120.194 120.758C118.921 123.304 121.012 125.941 123.104 126.668C125.195 127.395 130.56 125.759 131.925 124.213L124.741 118.302Z" fill="#EF986C"/>
<path d="M122.648 124.943C122.598 124.943 122.549 124.928 122.508 124.896C122.489 124.88 120.584 123.38 121.741 121.452C122.883 119.549 126.367 120.496 126.513 120.538C126.586 120.558 126.644 120.613 126.667 120.683C126.692 120.754 126.681 120.832 126.637 120.893C126.609 120.934 125.939 121.878 126.527 122.591C127.092 123.276 128.331 122.36 128.343 122.35C128.444 122.276 128.589 122.294 128.665 122.396C128.741 122.498 128.72 122.642 128.619 122.718C128.553 122.768 127.013 123.902 126.173 122.883C125.587 122.172 125.875 121.339 126.096 120.912C125.267 120.734 122.925 120.372 122.136 121.69C121.191 123.265 122.724 124.484 122.79 124.535C122.889 124.612 122.908 124.756 122.83 124.856C122.783 124.913 122.715 124.943 122.648 124.943Z" fill="#BF7956"/>
<path d="M135.231 231.281C135.231 231.281 132.132 278.604 136.401 278.932C140.669 279.261 140.669 258.246 140.669 258.246L145.922 252.501L135.231 231.281Z" fill="#EF986C"/>
<path d="M137.898 258.813C137.898 258.813 139.375 279.335 140.853 279.827C142.33 280.32 144.465 277.858 143.973 271.455C143.48 265.052 141.181 252.247 141.181 252.247L137.898 258.813Z" fill="#EF986C"/>
<path d="M140.156 254.57C140.156 254.57 145.146 276.574 146.411 276.785C148.333 277.106 149.197 272.664 148.01 267.618C146.719 262.132 144.024 253.755 144.024 253.755L140.156 254.57Z" fill="#EF986C"/>
<path d="M147.042 252.321C147.042 252.321 153.367 264.778 152.334 269.49C152.117 270.482 151.563 270.6 151.127 270.512C149.815 270.25 148.003 266.502 147.752 265.94C146.913 264.068 142.524 254.386 142.524 254.386L147.042 252.321Z" fill="#EF986C"/>
<path d="M139.62 275.443C139.509 275.443 139.411 275.362 139.393 275.249L137.672 264.406C137.653 264.281 137.737 264.163 137.863 264.144C137.99 264.128 138.106 264.21 138.125 264.335L139.846 275.178C139.866 275.303 139.781 275.421 139.656 275.44C139.644 275.442 139.631 275.443 139.62 275.443Z" fill="#B56745"/>
<path d="M146.411 277.015C146.375 277.015 146.339 277.007 146.305 276.989C145.48 276.555 144.469 272.843 142.901 266.782C142.535 265.366 142.167 263.944 141.809 262.623C141.776 262.502 141.847 262.376 141.97 262.342C142.091 262.309 142.219 262.381 142.252 262.503C142.611 263.826 142.979 265.25 143.346 266.667C144.445 270.92 145.814 276.212 146.518 276.583C146.63 276.643 146.673 276.781 146.615 276.893C146.573 276.97 146.494 277.015 146.411 277.015Z" fill="#B56745"/>
<path d="M149.43 269.246C149.354 269.246 149.279 269.207 149.236 269.138C147.787 266.808 146.419 263.84 145.17 260.317C145.127 260.197 145.19 260.066 145.309 260.024C145.433 259.98 145.559 260.044 145.601 260.163C146.841 263.656 148.193 266.594 149.625 268.896C149.692 269.003 149.659 269.144 149.551 269.211C149.514 269.235 149.472 269.246 149.43 269.246Z" fill="#B56745"/>
<path d="M142.824 143.99C142.824 143.99 135.377 152.24 135.231 162.348C135.094 171.942 136.909 176.548 136.909 176.548L134.471 255.982L147.566 253.8L155.477 161.861L142.824 143.99Z" fill="#EF986C"/>
<path d="M156.938 124.978C156.938 124.978 161.752 79.7436 161.752 77.288C161.752 74.8325 159.928 31.0669 159.928 31.0669L174.028 30.9092C174.028 30.9092 179.334 72.0184 179.485 77.8336C179.636 83.6488 178.83 119.505 178.83 119.505L156.938 124.978Z" fill="#EF986C"/>
<path d="M177.519 86.6043C177.464 86.6043 177.41 86.5851 177.366 86.5456C177.271 86.4613 177.264 86.3164 177.348 86.222L179.208 84.1561C179.292 84.0626 179.438 84.0561 179.532 84.1387C179.626 84.223 179.633 84.3679 179.549 84.4623L177.689 86.5282C177.644 86.5777 177.581 86.6043 177.519 86.6043Z" fill="#BF7956"/>
<path d="M160.789 22.1173C160.789 22.1173 159.819 22.6775 158.036 21.6872C154.937 19.9661 152.098 16.093 150.549 16.5239C147.94 17.2483 150.993 21.5983 152.786 24.7856C153.553 26.1472 156.315 30.9813 161.129 33.5259L160.789 22.1173Z" fill="#EF986C"/>
<path d="M160.102 32.6167C160.102 32.6167 156.35 2.31736 160.618 1.97993C163.888 1.72135 164.49 22.5478 164.49 22.5478L174.66 28.0595L174.128 32.272L160.102 32.6167Z" fill="#EF986C"/>
<path d="M163.15 21.0523C163.15 21.0523 163.209 14.1258 163.888 8.34812C164.432 3.71023 165.473 -0.0382174 166.47 0.000294114C168.026 0.0598952 168.949 1.7599 168.714 8.17757C168.478 14.5952 167.675 27.1949 167.675 27.1949L163.15 21.0523Z" fill="#EF986C"/>
<path d="M167.158 27.1091C167.158 27.1091 168.191 3.52904 171.117 4.13147C172.895 4.49733 172.924 8.26228 172.838 14.1142C172.762 19.2977 170.899 28.0599 170.899 28.0599L167.158 27.1091Z" fill="#EF986C"/>
<path d="M173.956 32.4449C174.12 32.1432 175.05 25.6403 175.85 20.4825C176.588 15.7208 177.9 11.3094 176.366 10.2421C174.19 8.72733 172.322 17.9013 172.322 17.9013L170.843 28.0638L173.956 32.4449Z" fill="#EF986C"/>
<path d="M162.209 33.9642C162.181 33.9642 162.152 33.9587 162.123 33.9477L159.886 33.0445C159.769 32.9968 159.713 32.8639 159.759 32.7456C159.806 32.6282 159.938 32.5723 160.057 32.619L162.295 33.5222C162.412 33.5699 162.468 33.7029 162.421 33.8211C162.386 33.9101 162.3 33.9642 162.209 33.9642Z" fill="#BF7956"/>
<path d="M164.404 17.4847C164.282 17.4847 164.18 17.3893 164.175 17.2655C163.945 12.1472 162.994 7.20393 161.349 2.57338C161.306 2.45418 161.369 2.32306 161.487 2.28088C161.609 2.23595 161.738 2.30105 161.78 2.42025C163.44 7.0939 164.4 12.0821 164.632 17.2453C164.638 17.3719 164.541 17.4792 164.413 17.4847C164.411 17.4847 164.408 17.4847 164.404 17.4847Z" fill="#BF7956"/>
<path d="M168.277 16.8392C168.272 16.8392 168.269 16.8392 168.264 16.8392C168.138 16.8328 168.041 16.7246 168.048 16.5981L168.099 15.6857C168.431 9.68708 168.776 3.48306 167.552 0.695563C167.5 0.579111 167.554 0.444321 167.669 0.392972C167.786 0.343458 167.919 0.393889 167.971 0.510341C169.24 3.39779 168.892 9.65774 168.557 15.7105L168.506 16.6228C168.499 16.7448 168.397 16.8392 168.277 16.8392Z" fill="#BF7956"/>
<path d="M171.892 19.6786C171.871 19.6786 171.85 19.6759 171.83 19.6704C171.708 19.6365 171.638 19.5099 171.671 19.388L173.606 12.4174C173.641 12.2945 173.769 12.223 173.89 12.2578C174.012 12.2918 174.082 12.4183 174.049 12.5403L172.113 19.5108C172.084 19.6126 171.992 19.6786 171.892 19.6786Z" fill="#BF7956"/>
<path d="M164.92 27.2514C164.812 27.2514 164.715 27.1744 164.695 27.0643C164.229 24.5822 162.399 23.0747 158.934 22.3192C158.81 22.2926 158.732 22.1697 158.759 22.0468C158.786 21.923 158.905 21.8442 159.033 21.8717C162.649 22.6612 164.649 24.3318 165.147 26.98C165.17 27.1047 165.088 27.2248 164.963 27.2477C164.949 27.2505 164.934 27.2514 164.92 27.2514Z" fill="#BF7956"/>
<path d="M142.823 143.99L149.16 162.137L163.177 169.319L177.677 172.507L186.319 175.964L190.865 179.322C190.865 179.322 213.578 164.538 216.746 148.406L211.091 142.261C211.091 142.261 200.177 130.933 194.488 127.213C188.798 123.493 178.828 119.505 178.828 119.505L156.936 124.978L142.823 143.99Z" fill="#EF986C"/>
<path opacity="0.15" d="M189.149 178.01L189.168 178.065L186.316 175.966L177.678 172.509L192.212 155.665C190.534 158.975 188.351 163.934 188.414 166.522C188.5 170.05 191.726 171.995 200.602 170.638C194.862 175.14 189.149 178.01 189.149 178.01Z" fill="#3A2F31"/>
<path d="M154.385 137.806C153.008 137.806 151.059 136.723 150.964 136.671C150.854 136.609 150.815 136.469 150.876 136.359C150.938 136.246 151.077 136.208 151.188 136.271C151.883 136.659 153.887 137.596 154.825 137.287C155.852 136.945 155.614 135.744 155.605 135.693C155.579 135.57 155.658 135.448 155.781 135.422C155.911 135.393 156.028 135.475 156.052 135.597C156.175 136.167 156.105 137.344 154.97 137.722C154.794 137.779 154.597 137.806 154.385 137.806Z" fill="#BF7956"/>
<path d="M158.926 132.052C158.8 132.052 158.697 131.949 158.697 131.823V125.315C158.697 125.189 158.8 125.086 158.926 125.086C159.053 125.086 159.155 125.189 159.155 125.315V131.823C159.155 131.949 159.053 132.052 158.926 132.052Z" fill="#BF7956"/>
<path d="M145.24 146.401C145.167 146.401 145.094 146.365 145.049 146.3C144.98 146.195 145.007 146.053 145.112 145.981L152.962 140.713C153.067 140.644 153.209 140.671 153.281 140.776C153.351 140.881 153.324 141.024 153.219 141.095L145.368 146.363C145.329 146.388 145.284 146.401 145.24 146.401Z" fill="#BF7956"/>
<path d="M140.91 146.406L157.114 166.226C157.114 166.226 163.049 172.514 177.678 172.507L207.175 138.338C203.779 133.992 199.309 130.446 194.217 126.94C194.217 126.94 191.844 127.674 188.285 128.011C184.725 128.349 157.39 121.041 157.39 121.041L156.938 124.978C156.938 124.978 169.519 132.064 171.028 132.942C172.536 133.82 176.697 137.681 171.031 145.955C165.579 153.912 162.54 153.466 160.115 153.132C157.691 152.797 142.824 143.991 142.824 143.991L140.91 146.406Z" fill="#B08184"/>
<path opacity="0.15" d="M207.176 138.334L177.678 172.508C163.053 172.518 157.112 166.227 157.112 166.227L152.325 160.377C155.69 162.312 164.612 167.216 171.891 165.059C178.861 162.994 179.124 156.729 183.767 151.505C189.214 145.376 201.085 142.707 190.974 127.652C192.991 127.312 194.22 126.937 194.22 126.937C199.309 130.448 203.775 133.997 207.176 138.334Z" fill="#3A2F31"/>
<path d="M177.408 120.086C176.673 120.086 175.184 119.965 174.072 119.091C171.735 117.255 172.409 113.059 172.439 112.882C172.46 112.757 172.579 112.666 172.702 112.694C172.828 112.714 172.912 112.833 172.89 112.957C172.884 112.999 172.233 117.064 174.355 118.731C175.712 119.796 177.788 119.615 177.809 119.612C177.935 119.592 178.046 119.693 178.059 119.82C178.071 119.946 177.978 120.057 177.852 120.069C177.828 120.071 177.663 120.086 177.408 120.086Z" fill="#B56745"/>
<path d="M158.204 167.275C158.169 167.275 158.134 167.266 158.102 167.251C152.366 164.385 148.434 161.832 144.953 158.711C144.859 158.626 144.851 158.481 144.935 158.387C145.021 158.293 145.165 158.287 145.259 158.368C148.709 161.459 152.61 163.993 158.306 166.839C158.42 166.895 158.466 167.033 158.409 167.146C158.369 167.228 158.288 167.275 158.204 167.275Z" fill="#B56745"/>
<path d="M148.197 169.469C148.1 169.469 148.009 169.406 147.979 169.307C147.965 169.266 146.687 165.088 147.463 160.758C147.484 160.633 147.603 160.548 147.729 160.573C147.853 160.596 147.937 160.714 147.914 160.839C147.159 165.056 148.403 169.13 148.416 169.172C148.454 169.293 148.387 169.42 148.266 169.459C148.243 169.465 148.219 169.469 148.197 169.469Z" fill="#B56745"/>
<path d="M195.802 169.134C195.796 169.134 195.79 169.134 195.783 169.133L186.384 168.41C186.257 168.4 186.164 168.29 186.174 168.164C186.184 168.038 186.273 167.931 186.421 167.953L195.82 168.677C195.947 168.687 196.04 168.797 196.031 168.922C196.021 169.042 195.921 169.134 195.802 169.134Z" fill="#B56745"/>
<path d="M206.131 154.775C206.121 154.775 206.11 154.774 206.1 154.773C205.974 154.755 205.887 154.64 205.904 154.515L206.421 150.795C206.439 150.671 206.546 150.587 206.679 150.599C206.805 150.618 206.892 150.733 206.876 150.858L206.359 154.577C206.342 154.692 206.244 154.775 206.131 154.775Z" fill="#B56745"/>
<path d="M207.99 155.085C207.981 155.085 207.971 155.084 207.961 155.083C207.836 155.067 207.747 154.953 207.762 154.828L207.969 153.174C207.985 153.05 208.088 152.965 208.225 152.975C208.351 152.992 208.44 153.106 208.424 153.231L208.217 154.884C208.203 155 208.104 155.085 207.99 155.085Z" fill="#B56745"/>
<path d="M99.4596 255.164C99.4596 255.164 91.4813 258.166 85.6615 260.712C79.8417 263.259 73.6331 267.896 74.7243 269.351C75.8154 270.806 81.6352 271.169 84.9096 270.442C88.1831 269.715 96.1862 267.532 99.0965 267.532C102.007 267.532 107.1 271.896 111.1 271.896C115.102 271.896 115.102 262.439 115.102 262.439L99.4596 255.164Z" fill="#EF986C"/>
<path d="M101.41 268.171C101.38 268.171 101.35 268.165 101.32 268.152L94.6078 265.312C94.4914 265.263 94.4363 265.128 94.4859 265.012C94.5363 264.895 94.6674 264.839 94.7866 264.89L101.499 267.729C101.615 267.779 101.669 267.914 101.621 268.03C101.583 268.118 101.499 268.171 101.41 268.171Z" fill="#B56745"/>
<path d="M334.805 263.89L325.508 268.072C325.508 268.072 315.327 257.554 309.756 253.01C303.215 247.674 290.526 240.27 285.061 236.612C280.513 233.558 274.691 226.342 271.096 222.216C269.932 220.877 268.997 219.868 268.419 219.428C266.163 217.704 232.768 195.954 233.227 195.413L216.859 173.049L233.502 156.407C233.502 156.407 248.177 163.736 257.777 172.804C263.975 178.654 271.206 187.72 276.048 195.514C280.284 202.336 283.154 207.691 283.154 207.691C283.154 207.691 304.161 219.153 314.798 233.063C325.443 246.982 334.805 263.89 334.805 263.89Z" fill="#F96767"/>
<path d="M276.048 195.514C274.874 201.447 272.435 213.981 271.096 222.216C269.932 220.877 268.997 219.868 268.419 219.428C266.163 217.704 232.768 195.954 233.227 195.413C226.482 188.331 220.942 180.901 216.859 173.049L233.502 156.407C233.502 156.407 248.52 164.08 258.121 173.148C264.319 178.998 271.206 187.72 276.048 195.514Z" fill="#F8A2A2"/>
<path d="M285.144 214.169C285.042 214.169 284.95 214.101 284.922 213.998C283.884 210.056 282.091 206.022 279.44 201.666C279.375 201.558 279.408 201.417 279.517 201.35C279.626 201.287 279.766 201.32 279.832 201.427C282.505 205.822 284.316 209.895 285.366 213.881C285.398 214.003 285.325 214.13 285.202 214.162C285.182 214.166 285.162 214.169 285.144 214.169Z" fill="#EC5E5E"/>
<path d="M191.254 185.325C191.254 185.325 153.432 216.694 151.658 222.426L99.2581 255.204C99.2581 255.204 104.895 259.309 104.077 269.404C104.077 269.404 107.49 272.391 111.307 271.986C115.73 271.516 117.847 258.862 121.649 257.347C124.482 256.218 143.148 253.011 151.386 247.798C160.741 241.879 170.084 231.023 170.084 231.023C170.084 231.023 216.168 219.405 233.23 195.418L216.861 173.047L191.254 185.325Z" fill="#F96767"/>
<path d="M233.227 195.413C217.813 217.09 178.715 228.662 171.306 230.697L170.774 202.923C180.906 193.91 191.258 185.327 191.258 185.327L216.859 173.049C223.357 180.123 228.932 187.534 233.227 195.413Z" fill="#F8A2A2"/>
<path d="M115.002 259.077C114.899 259.077 114.805 259.007 114.779 258.902C114.75 258.779 114.824 258.655 114.948 258.624L124.712 256.211C124.832 256.18 124.96 256.256 124.99 256.38C125.019 256.503 124.945 256.627 124.821 256.658L115.057 259.071C115.039 259.075 115.019 259.077 115.002 259.077Z" fill="#EC5E5E"/>
<path d="M166.969 231.186C166.048 231.186 165.157 231.134 164.291 231.034C164.166 231.019 164.076 230.905 164.091 230.78C164.105 230.654 164.22 230.57 164.345 230.579C169.875 231.228 176.534 229.769 184.706 226.122C184.822 226.071 184.957 226.122 185.009 226.239C185.06 226.354 185.008 226.489 184.892 226.541C177.916 229.654 172.019 231.186 166.969 231.186Z" fill="#EC5E5E"/>
<path d="M242.372 202.293C242.329 202.293 242.285 202.28 242.247 202.256C236.64 198.585 231.59 194.463 227.235 190.004C227.146 189.914 227.147 189.769 227.238 189.68C227.33 189.59 227.475 189.594 227.563 189.684C231.895 194.119 236.92 198.22 242.498 201.872C242.604 201.941 242.634 202.083 242.564 202.19C242.52 202.257 242.447 202.293 242.372 202.293Z" fill="#EC5E5E"/>
<path d="M189.146 178.011L191.216 185.323C191.216 185.323 205.883 183.992 217.243 175.387C232.846 163.566 233.502 156.405 233.502 156.405C228.023 152.845 222.209 149.922 216.042 147.675C216.042 147.675 214.556 155.781 207.312 164.316C200.549 172.288 189.146 178.011 189.146 178.011Z" fill="#F96767"/>
<path d="M217.243 175.615C217.174 175.615 217.105 175.583 217.059 175.523C216.984 175.421 217.006 175.277 217.107 175.202C231.921 164.198 233.265 156.447 233.277 156.37C233.296 156.246 233.416 156.162 233.538 156.179C233.664 156.197 233.749 156.315 233.73 156.44C233.681 156.763 232.345 164.455 217.381 175.57C217.339 175.601 217.291 175.615 217.243 175.615Z" fill="#EC5E5E"/>
<path opacity="0.3" d="M231.64 160.809C229.659 164.082 225.588 169.07 217.244 175.388C205.883 183.989 191.212 185.328 191.212 185.328L189.149 178.01C189.149 178.01 194.862 175.14 200.602 170.638C200.602 170.638 200.611 170.638 200.62 170.629C201.354 170.473 220.573 166.347 231.64 160.809Z" fill="#CC4848"/>
<path d="M322.578 276.171C323.439 278.57 339.446 278.139 340.175 275.898C340.781 274.035 338.327 266.951 334.81 263.894C331.84 261.313 327.227 261.874 326.022 265.575C325.459 267.304 325.989 268.669 324.261 271.533C323.583 272.655 322.071 274.759 322.578 276.171Z" fill="#EF986C"/>
<path d="M337.035 274.065C337.031 274.065 337.026 274.065 337.022 274.065C333.934 273.887 328.038 273.55 327.827 273.548C327.701 273.548 327.598 273.446 327.598 273.319C327.599 273.192 327.701 273.09 327.827 273.09C328.089 273.09 336.682 273.585 337.049 273.606C337.176 273.614 337.272 273.723 337.265 273.849C337.258 273.971 337.156 274.065 337.035 274.065Z" fill="#B56745"/>
</svg>
