<svg width="375" height="410" viewBox="0 0 375 410" fill="none" xmlns="http://www.w3.org/2000/svg">
<g clip-path="url(#clip0)">
<path d="M186.386 376.428L86.7121 322.679C80.8243 319.505 77.927 311.502 80.18 304.776L157.972 72.5059C160.185 65.9012 167.048 61.8957 173.369 63.5759L280.259 91.9764C287.937 94.0159 292.256 101.689 289.816 109.094L203.936 369.776C201.449 377.332 193.553 380.293 186.386 376.428Z" fill="url(#paint0_linear)"/>
<path d="M179.201 372.554L80.7346 319.457C74.9142 316.318 72.063 308.377 74.3036 301.691L151.705 70.7678C153.907 64.2004 160.704 60.2116 166.953 61.8712L272.562 89.9319C280.144 91.946 284.393 99.5592 281.967 106.916L196.562 365.902C194.086 373.408 186.276 376.369 179.201 372.554Z" fill="url(#paint1_linear)"/>
<path d="M272.807 123.941L199.535 346.043C196.534 355.136 187.061 358.83 178.498 354.348L90.1841 308.127C89.2434 307.635 88.3667 307.044 87.5618 306.365C85.3818 304.543 83.7014 302.111 82.6327 299.398C81.0724 295.425 80.8142 290.838 82.2252 286.625L148.925 87.5694C149.842 84.8326 151.407 82.4798 153.364 80.6475C157.166 77.0976 162.493 75.4872 167.532 76.8934L261.549 103.131C266.68 104.562 270.546 108.155 272.408 112.633C272.718 113.373 272.969 114.139 273.167 114.921C273.878 117.788 273.812 120.891 272.807 123.941Z" fill="#0A1260"/>
<path d="M184.786 352.805L96.4716 306.584C95.5309 306.092 94.6542 305.501 93.8493 304.822C91.6693 303.001 89.9889 300.568 88.9202 297.856C87.3599 293.883 87.1017 289.295 88.5127 285.084L155.212 86.0276C156.129 83.2909 157.693 80.9381 159.652 79.1057C160.831 78.0049 162.156 77.0917 163.574 76.3965C159.826 76.4633 156.178 78.0236 153.364 80.6494C151.406 82.4817 149.841 84.8355 148.925 87.5713L82.2242 286.627C80.8132 290.84 81.0714 295.427 82.6317 299.4C83.7004 302.113 85.382 304.544 87.5608 306.367C88.3657 307.045 89.2435 307.637 90.1831 308.129L178.497 354.35C183.268 356.847 188.322 356.803 192.381 354.703C189.896 354.728 187.301 354.122 184.786 352.805Z" fill="#050D47"/>
<path d="M205.749 79.6038C205.498 80.3579 204.696 80.8047 203.959 80.6034C203.222 80.4021 202.83 79.6293 203.08 78.8771C203.33 78.1249 204.129 77.6772 204.867 77.8765C205.606 78.0778 206.001 78.8506 205.749 79.6038Z" fill="url(#paint2_linear)"/>
<path d="M226.405 85.9777L210.442 81.6236C210.073 81.5225 209.874 81.1365 209.999 80.7614C210.123 80.3863 210.525 80.1624 210.895 80.2636L226.862 84.599C227.242 84.7021 227.448 85.0949 227.321 85.4768C227.196 85.8569 226.785 86.0817 226.405 85.9777Z" fill="url(#paint3_linear)"/>
<path d="M133.328 342.192L125.287 337.897C123.924 337.17 123.23 335.36 123.731 333.853C124.233 332.345 125.743 331.707 127.107 332.427L135.16 336.679C136.549 337.412 137.265 339.245 136.759 340.771C136.252 342.297 134.714 342.932 133.328 342.192Z" fill="url(#paint4_linear)"/>
<path d="M137.918 239.273C136.163 244.537 130.852 247.069 126.095 244.944C121.38 242.837 118.992 236.944 120.724 231.765C122.455 226.588 127.668 224.019 132.408 226.041C137.189 228.08 139.674 234.011 137.918 239.273Z" fill="white"/>
<path d="M168.817 252.767C167.018 258.185 161.447 260.74 156.417 258.493C151.431 256.266 148.863 250.155 150.637 244.828C152.41 239.503 157.876 236.907 162.886 239.044C167.942 241.201 170.617 247.352 168.817 252.767Z" fill="url(#paint5_linear)"/>
<path d="M201.533 267.053C199.688 272.632 193.835 275.21 188.506 272.83C183.228 270.471 180.458 264.127 182.277 258.644C184.096 253.163 189.833 250.54 195.139 252.804C200.495 255.088 203.377 261.476 201.533 267.053Z" fill="url(#paint6_linear)"/>
<path d="M127.828 269.524C126.068 274.8 120.786 277.23 116.068 274.97C111.393 272.729 109.04 266.716 110.775 261.526C112.51 256.338 117.696 253.867 122.396 256.023C127.138 258.198 129.587 264.249 127.828 269.524Z" fill="url(#paint7_linear)"/>
<path d="M158.476 283.897C156.672 289.327 151.131 291.775 146.141 289.384C141.197 287.014 138.664 280.779 140.442 275.439C142.219 270.102 147.655 267.61 152.625 269.89C157.64 272.191 160.278 278.469 158.476 283.897Z" fill="url(#paint8_linear)"/>
<path d="M190.926 299.116C189.076 304.708 183.255 307.173 177.969 304.64C172.733 302.13 170.002 295.655 171.825 290.158C173.647 284.664 179.354 282.152 184.617 284.565C189.93 287.004 192.775 293.526 190.926 299.116Z" fill="url(#paint9_linear)"/>
<path d="M167.321 109.897L161.961 125.941L160.409 125.437L165.273 110.88L161.72 109.778L162.208 108.318L167.321 109.897Z" fill="white"/>
<path d="M176.554 129.033L176.058 130.519L165.294 127.024L165.686 125.85L174.242 121.315C175.327 120.738 176.115 120.19 176.606 119.671C177.096 119.151 177.444 118.583 177.651 117.965C177.971 117.008 177.906 116.165 177.457 115.438C177.009 114.712 176.204 114.17 175.046 113.809C173.246 113.251 171.652 113.417 170.263 114.305L169.49 112.947C170.331 112.397 171.28 112.065 172.339 111.953C173.4 111.84 174.515 111.965 175.688 112.326C177.259 112.812 178.377 113.586 179.038 114.651C179.701 115.717 179.806 116.932 179.353 118.292C179.074 119.127 178.629 119.876 178.017 120.537C177.405 121.198 176.437 121.874 175.117 122.565L168.094 126.296L176.554 129.033Z" fill="white"/>
<path d="M181.811 121.119C181.663 120.798 181.65 120.46 181.769 120.103C181.888 119.747 182.102 119.485 182.413 119.316C182.724 119.148 183.043 119.114 183.371 119.216C183.698 119.319 183.941 119.528 184.1 119.843C184.259 120.158 184.279 120.495 184.16 120.852C184.041 121.21 183.82 121.475 183.499 121.649C183.178 121.823 182.852 121.857 182.525 121.754C182.196 121.651 181.96 121.44 181.811 121.119ZM178.507 131.032C178.36 130.709 178.346 130.37 178.465 130.012C178.584 129.656 178.798 129.394 179.108 129.228C179.418 129.062 179.737 129.03 180.064 129.136C180.39 129.241 180.633 129.454 180.791 129.771C180.948 130.089 180.968 130.427 180.849 130.784C180.73 131.143 180.509 131.407 180.189 131.578C179.868 131.749 179.545 131.782 179.218 131.676C178.889 131.569 178.654 131.355 178.507 131.032Z" fill="white"/>
<path d="M192.613 117.708L187.147 134.121L185.523 133.594L190.484 118.702L186.767 117.549L187.265 116.056L192.613 117.708Z" fill="white"/>
<path d="M202.403 137.392L201.897 138.913L190.634 135.254L191.033 134.054L199.927 129.461C201.055 128.877 201.875 128.32 202.382 127.791C202.891 127.262 203.249 126.681 203.46 126.049C203.785 125.07 203.711 124.205 203.237 123.456C202.764 122.709 201.92 122.146 200.707 121.77C198.824 121.186 197.162 121.346 195.72 122.248L194.901 120.85C195.775 120.292 196.763 119.958 197.866 119.85C198.972 119.742 200.137 119.875 201.364 120.254C203.008 120.762 204.182 121.564 204.881 122.659C205.581 123.757 205.701 125.003 205.239 126.395C204.955 127.25 204.496 128.015 203.862 128.688C203.227 129.362 202.224 130.049 200.851 130.749L193.55 134.528L202.403 137.392Z" fill="white"/>
<path d="M162.071 130.802L160.672 134.991L160.273 134.859L161.392 131.509L158.908 133.813L158.711 133.748L158.105 130.445L156.995 133.767L156.599 133.634L157.993 129.461L158.334 129.573L159.001 133.233L161.728 130.689L162.071 130.802Z" fill="white"/>
<path d="M162.37 135.361C162.187 135.147 162.07 134.895 162.019 134.608C161.969 134.321 161.995 134.024 162.098 133.717C162.2 133.409 162.358 133.155 162.572 132.956C162.785 132.756 163.029 132.626 163.304 132.566C163.579 132.506 163.859 132.524 164.146 132.618C164.432 132.712 164.668 132.865 164.853 133.078C165.038 133.29 165.155 133.54 165.203 133.827C165.252 134.115 165.225 134.412 165.122 134.72C165.019 135.029 164.862 135.283 164.65 135.484C164.437 135.686 164.194 135.816 163.918 135.878C163.642 135.939 163.361 135.922 163.075 135.827C162.788 135.729 162.554 135.575 162.37 135.361ZM163.82 135.483C164.022 135.437 164.201 135.336 164.359 135.179C164.516 135.022 164.634 134.824 164.715 134.584C164.795 134.343 164.819 134.114 164.788 133.895C164.756 133.676 164.673 133.487 164.54 133.329C164.406 133.172 164.233 133.058 164.022 132.988C163.811 132.919 163.604 132.907 163.404 132.953C163.203 132.999 163.022 133.101 162.864 133.256C162.705 133.412 162.586 133.61 162.505 133.85C162.426 134.09 162.402 134.32 162.435 134.539C162.467 134.759 162.552 134.947 162.684 135.104C162.818 135.262 162.989 135.376 163.2 135.446C163.411 135.517 163.618 135.53 163.82 135.483Z" fill="white"/>
<path d="M168.785 134.532C168.93 134.836 168.929 135.21 168.782 135.652L168.169 137.49L167.765 137.355L168.364 135.56C168.474 135.231 168.48 134.954 168.382 134.73C168.283 134.507 168.09 134.346 167.803 134.251C167.481 134.144 167.191 134.162 166.936 134.302C166.681 134.443 166.494 134.691 166.375 135.048L165.821 136.707L165.418 136.573L166.474 133.412L166.86 133.539L166.666 134.123C166.84 133.966 167.042 133.867 167.273 133.826C167.504 133.785 167.748 133.806 168.006 133.891C168.379 134.014 168.639 134.228 168.785 134.532Z" fill="white"/>
<path d="M173.527 134.29L172.03 138.777L171.64 138.647L171.849 138.019C171.655 138.192 171.44 138.301 171.202 138.347C170.964 138.393 170.718 138.373 170.466 138.29C170.185 138.196 169.951 138.042 169.768 137.829C169.585 137.616 169.47 137.366 169.423 137.077C169.375 136.789 169.403 136.488 169.508 136.175C169.612 135.861 169.771 135.603 169.982 135.401C170.193 135.199 170.435 135.068 170.709 135.009C170.983 134.95 171.261 134.967 171.543 135.06C171.788 135.141 171.99 135.267 172.151 135.439C172.312 135.611 172.422 135.82 172.48 136.068L173.117 134.158L173.527 134.29ZM171.249 137.956C171.453 137.91 171.635 137.809 171.797 137.652C171.957 137.494 172.078 137.295 172.158 137.054C172.239 136.812 172.263 136.58 172.228 136.358C172.193 136.136 172.108 135.946 171.973 135.788C171.837 135.629 171.664 135.515 171.454 135.445C171.24 135.374 171.031 135.363 170.827 135.409C170.623 135.455 170.441 135.557 170.28 135.714C170.12 135.871 170 136.07 169.919 136.311C169.838 136.553 169.815 136.783 169.849 137.004C169.883 137.225 169.968 137.416 170.104 137.575C170.24 137.734 170.414 137.849 170.628 137.921C170.837 137.99 171.045 138.002 171.249 137.956Z" fill="white"/>
<path d="M176.105 136.911C176.247 137.189 176.25 137.533 176.114 137.941L175.455 139.919L175.062 139.788L175.228 139.291C175.08 139.426 174.902 139.51 174.692 139.544C174.482 139.577 174.254 139.553 174.008 139.471C173.67 139.358 173.43 139.184 173.287 138.948C173.145 138.711 173.12 138.455 173.212 138.177C173.302 137.907 173.468 137.719 173.709 137.616C173.951 137.512 174.275 137.528 174.682 137.663L175.645 137.982L175.71 137.788C175.802 137.513 175.798 137.279 175.7 137.088C175.601 136.896 175.411 136.754 175.131 136.661C174.939 136.597 174.742 136.569 174.543 136.577C174.345 136.585 174.163 136.627 173.997 136.702L173.919 136.32C174.119 136.233 174.338 136.188 174.578 136.184C174.818 136.18 175.058 136.219 175.296 136.297C175.693 136.429 175.962 136.633 176.105 136.911ZM174.835 139.183C175.037 139.127 175.215 139.008 175.365 138.824L175.539 138.302L174.587 137.986C174.069 137.814 173.746 137.918 173.62 138.298C173.558 138.483 173.576 138.652 173.675 138.803C173.773 138.955 173.944 139.071 174.185 139.152C174.415 139.228 174.632 139.239 174.835 139.183Z" fill="white"/>
<path d="M180.143 137.925L177.422 140.999C177.198 141.257 176.985 141.422 176.781 141.494C176.577 141.566 176.361 141.563 176.133 141.487C175.986 141.438 175.858 141.368 175.747 141.277C175.636 141.186 175.55 141.077 175.49 140.948L175.788 140.69C175.888 140.903 176.047 141.046 176.262 141.118C176.401 141.164 176.534 141.163 176.658 141.115C176.784 141.067 176.921 140.96 177.071 140.794L177.308 140.529L177.011 136.89L177.44 137.031L177.682 140.126L179.737 137.79L180.143 137.925Z" fill="white"/>
<g opacity="0.15">
<path opacity="0.15" d="M272.806 123.941L261.257 158.95L117.053 182.684L131.301 140.164L272.407 112.635C272.717 113.375 272.968 114.141 273.166 114.923C273.877 117.788 273.812 120.891 272.806 123.941Z" fill="white"/>
<path opacity="0.15" d="M243.827 211.785L241.104 220.037L98.6143 237.714L101.104 230.284L243.827 211.785Z" fill="white"/>
<path opacity="0.15" d="M218.369 288.952L215.632 297.248L87.5607 306.367C85.3807 304.545 83.7003 302.113 82.6316 299.4L218.369 288.952Z" fill="white"/>
<path opacity="0.15" d="M257.726 169.651L248.177 198.596L108.223 209.038L113.824 192.323L257.726 169.651Z" fill="white"/>
</g>
<path opacity="0.25" d="M270.827 96.964L197.555 319.067C194.555 328.16 185.081 331.854 176.518 327.373L88.2041 281.151C87.2645 280.659 86.3867 280.068 85.5818 279.39C83.4018 277.568 81.7214 275.136 80.6527 272.422C79.0924 268.448 78.8342 263.862 80.2452 259.65L146.945 60.5938C147.862 57.857 149.426 55.5042 151.384 53.6719C155.186 50.1221 160.513 48.5116 165.552 49.9178L259.568 76.1551C264.699 77.5868 268.565 81.1798 270.427 85.6576C270.737 86.397 270.989 87.163 271.187 87.9456C271.898 90.811 271.832 93.914 270.827 96.964Z" fill="url(#paint10_linear)"/>
<path d="M374.673 148.477L357.276 193.915C356.01 197.222 351.534 199.076 347.312 198.059L292.015 184.742C288.215 183.827 286.135 180.571 287.347 177.468L304 134.819C305.201 131.744 309.279 129.834 313.132 130.558L369.174 141.087C373.451 141.891 375.927 145.202 374.673 148.477Z" fill="url(#paint11_linear)"/>
<path d="M340.471 135.695L331.99 157.623C330.758 160.808 326.499 162.694 322.506 161.84L295.691 156.1L304.001 134.819C305.202 131.744 309.28 129.834 313.133 130.558L340.471 135.695Z" fill="url(#paint12_linear)"/>
<path d="M349.454 167.606C346.14 176.22 334.58 181.184 323.825 178.725C313.271 176.311 307.485 167.633 310.719 159.316C313.948 151.011 325.037 145.981 335.67 148.103C346.504 150.264 352.761 159.007 349.454 167.606Z" fill="#FCE6A3"/>
<path d="M340.701 167.43C338.754 172.479 331.988 175.413 325.656 173.993C319.394 172.589 315.925 167.45 317.843 162.503L340.701 167.43Z" fill="white"/>
<path d="M326.568 157.878C326.073 159.157 324.691 159.987 323.485 159.731C322.282 159.476 321.708 158.237 322.202 156.963C322.696 155.69 324.071 154.86 325.276 155.109C326.483 155.36 327.063 156.6 326.568 157.878Z" fill="#0A1260"/>
<path d="M340.931 160.891C340.431 162.187 339.021 163.025 337.784 162.763C336.551 162.502 335.956 161.243 336.454 159.952C336.952 158.662 338.356 157.824 339.592 158.081C340.83 158.337 341.43 159.596 340.931 160.891Z" fill="#0A1260"/>
<path d="M348.409 43.4718L331.276 80.3202C329.426 84.2991 323.776 86.3819 318.715 85.0091L211.816 56.0076C211.374 55.8878 210.886 55.9369 210.46 56.1372L197.455 62.2617C196.07 62.9138 194.653 61.758 195.203 60.4323L213.725 15.8912C215.129 12.5142 219.233 10.343 222.924 11.0589L342.166 34.1853C347.483 35.2173 350.308 39.3868 348.409 43.4718Z" fill="#FCE6A3"/>
<path opacity="0.05" d="M342.727 32.5484L325.593 69.3968C323.743 73.3758 318.093 75.4585 313.033 74.0857L206.134 45.0842C205.692 44.9644 205.203 45.0135 204.778 45.2139L191.772 51.3384C190.388 51.9904 188.97 50.8347 189.52 49.509L208.042 4.96782C209.447 1.59082 213.551 -0.580314 217.242 0.135542L336.484 23.2629C341.802 24.294 344.626 28.4634 342.727 32.5484Z" fill="url(#paint13_linear)"/>
<path d="M337.622 66.6702L331.275 80.3215C329.425 84.3005 323.776 86.3832 318.715 85.0104L282.879 75.2879L288.605 62.4978C290.291 58.7309 295.427 56.5706 300.139 57.6979L337.622 66.6702Z" fill="#F9D979"/>
<path d="M253.048 43.5445C252.422 44.988 250.577 45.8355 248.931 45.4417C247.295 45.0499 246.473 43.575 247.089 42.1442C247.705 40.7125 249.534 39.8562 251.18 40.2353C252.833 40.6173 253.673 42.1 253.048 43.5445Z" fill="white"/>
<path d="M269.489 47.4067C268.84 48.8845 266.906 49.7437 265.177 49.3303C263.457 48.9189 262.587 47.3998 263.226 45.9357C263.866 44.4696 265.781 43.6015 267.509 44.0002C269.249 44.4018 270.138 45.9278 269.489 47.4067Z" fill="white"/>
<path d="M286.784 51.4701C286.109 52.9843 284.081 53.8553 282.261 53.4203C280.452 52.9872 279.529 51.4229 280.193 49.9225C280.859 48.421 282.866 47.5412 284.686 47.9605C286.517 48.3818 287.458 49.9549 286.784 51.4701Z" fill="white"/>
<path d="M158.145 137.117L140.049 184.362C138.73 187.806 134.397 189.13 130.39 187.334L77.9686 163.856C74.3652 162.241 72.4883 158.337 73.7478 155.112L91.0283 110.87C92.2743 107.681 96.2257 106.227 99.8863 107.635L153.123 128.11C157.19 129.676 159.449 133.712 158.145 137.117Z" fill="url(#paint14_linear)"/>
<path d="M147.069 166.031L140.048 184.363C138.729 187.807 134.396 189.13 130.389 187.335L109.482 177.971L116.378 160.117C117.666 156.781 121.847 155.4 125.752 157.045L147.069 166.031Z" fill="url(#paint15_linear)"/>
<path d="M126.325 149.787L112.404 134.154C111.543 133.187 109.952 133.315 109.539 134.381L102.956 151.355C102.54 152.425 103.605 153.66 104.875 153.577L125.378 152.238C126.692 152.152 127.217 150.789 126.325 149.787Z" fill="white"/>
<path d="M305.702 209.071L287.847 255.685C286.547 259.078 282.163 260.584 278.086 259.055L224.721 239.053C221.052 237.677 219.111 233.992 220.351 230.813L237.415 187.127C238.645 183.978 242.636 182.368 246.362 183.543L300.518 200.618C304.655 201.923 306.989 205.712 305.702 209.071Z" fill="url(#paint16_linear)"/>
<path d="M295.205 236.478L287.848 255.685C286.548 259.078 282.164 260.584 278.087 259.055L255.513 250.594L262.735 231.903C264.005 228.616 268.226 227.064 272.185 228.445L295.205 236.478Z" fill="url(#paint17_linear)"/>
<path d="M274.922 234.848C275.39 234.105 268.515 227.998 267.388 228.129C266.263 228.259 263.978 229.777 263.978 229.777C263.978 229.777 260.657 225.028 259.371 222.759C258.089 220.498 255.844 215.443 255.844 215.443C255.844 215.443 258.718 215.025 259.562 214.427C260.408 213.829 259.186 205.924 258.209 205.746C257.235 205.568 253.49 206.325 252.401 207.094C248.486 209.858 250.382 218.143 253.938 224.475L254.08 224.728L254.223 224.983C257.821 231.389 264.48 238.221 269.762 237.627C271.234 237.461 274.454 235.59 274.922 234.848Z" fill="white"/>
<path d="M83.5263 211.663L67.3033 257.602C66.156 260.852 62.0666 262.596 58.177 261.509L5.23769 246.713C1.45247 245.656 -0.774666 242.194 0.249096 238.97L14.7131 193.412C15.7851 190.034 19.8128 188.117 23.7227 189.148L78.421 203.563C82.4408 204.622 84.7297 208.255 83.5263 211.663Z" fill="url(#paint18_linear)"/>
<path d="M45.4741 194.88L39.2653 213.563C38.1562 216.903 34.1004 218.75 30.2142 217.699L8.83643 211.919L14.713 193.411C15.785 190.033 19.8127 188.116 23.7225 189.147L45.4741 194.88Z" fill="url(#paint19_linear)"/>
<path d="M51.8965 226.347C52.9742 223.18 55.2148 222.049 58.6295 222.97C60.3616 223.438 61.7401 224.238 62.7729 225.357L68.1454 219.231C67.327 218.385 66.209 217.602 64.7878 216.89C63.3745 216.175 61.8176 215.59 60.1304 215.138C55.3584 213.861 51.2892 213.977 47.935 215.484C44.5854 216.983 42.2909 219.607 41.0426 223.337L40.5554 224.794L34.6441 223.189L32.2407 230.438L38.1274 232.048L30.8252 253.863L41.7947 256.929L49.2338 235.085L58.8204 237.707L61.3338 230.434L51.4217 227.744L51.8965 226.347Z" fill="white"/>
<path d="M270.531 391.722L241.725 376.432L258.209 334.009C260.944 326.972 269.586 324.246 277.59 327.975C285.718 331.762 290.157 340.776 287.365 348.024L270.531 391.722ZM247.363 374.817L267.674 385.506L282.95 345.903C284.911 340.819 281.816 334.481 276.109 331.798C270.465 329.143 264.347 331.052 262.415 336.031L247.363 374.817Z" fill="#7F7F7F"/>
<path d="M289.821 377.073L278.755 405.898C277.205 409.937 272.288 411.206 267.803 408.745L232.984 389.64C228.839 387.366 226.715 382.426 228.209 378.594L238.874 351.234C239.382 349.931 240.94 349.461 242.358 350.176L287.954 373.172C289.507 373.956 290.348 375.7 289.821 377.073Z" fill="#F9D979"/>
<path d="M283.729 392.939L278.754 405.899C277.204 409.937 272.287 411.206 267.802 408.745L244.581 396.004L251.257 378.782C251.772 377.453 253.373 376.994 254.844 377.766L283.729 392.939Z" fill="#FCE39D"/>
<path d="M254.293 388.182C252.922 387.447 252.203 385.843 252.686 384.597L257.11 373.171C257.591 371.929 259.096 371.498 260.474 372.21C261.856 372.923 262.588 374.517 262.105 375.765L257.664 387.25C257.181 388.503 255.67 388.92 254.293 388.182Z" fill="black"/>
</g>
<defs>
<linearGradient id="paint0_linear" x1="-34.3266" y1="-92.3143" x2="312.918" y2="528.538" gradientUnits="userSpaceOnUse">
<stop offset="2.7e-07" stop-color="#B8DDFF"/>
<stop offset="1" stop-color="#1C37B5"/>
</linearGradient>
<linearGradient id="paint1_linear" x1="335.127" y1="128.205" x2="-201.314" y2="519.995" gradientUnits="userSpaceOnUse">
<stop offset="2.7e-07" stop-color="#B8DDFF"/>
<stop offset="1" stop-color="#1C37B5"/>
</linearGradient>
<linearGradient id="paint2_linear" x1="270.203" y1="-33.9977" x2="144.024" y2="249.824" gradientUnits="userSpaceOnUse">
<stop offset="2.7e-07" stop-color="#B8DDFF"/>
<stop offset="1" stop-color="#1C37B5"/>
</linearGradient>
<linearGradient id="paint3_linear" x1="273.989" y1="-12.1157" x2="165.493" y2="231.933" gradientUnits="userSpaceOnUse">
<stop offset="2.7e-07" stop-color="#B8DDFF"/>
<stop offset="1" stop-color="#1C37B5"/>
</linearGradient>
<linearGradient id="paint4_linear" x1="85.7359" y1="185.865" x2="138.748" y2="421.582" gradientUnits="userSpaceOnUse">
<stop offset="2.7e-07" stop-color="#B8DDFF"/>
<stop offset="1" stop-color="#1C37B5"/>
</linearGradient>
<linearGradient id="paint5_linear" x1="176.241" y1="373.299" x2="157.672" y2="190.35" gradientUnits="userSpaceOnUse">
<stop offset="2.7e-07" stop-color="#FF8110"/>
<stop offset="1" stop-color="#FFBE3B"/>
</linearGradient>
<linearGradient id="paint6_linear" x1="186.438" y1="212.639" x2="191.969" y2="279.019" gradientUnits="userSpaceOnUse">
<stop offset="2.7e-07" stop-color="#FFFF9D"/>
<stop offset="1" stop-color="#1CC2B5"/>
</linearGradient>
<linearGradient id="paint7_linear" x1="135.088" y1="363.219" x2="118.09" y2="225.758" gradientUnits="userSpaceOnUse">
<stop offset="2.7e-07" stop-color="#B8DDFF"/>
<stop offset="1" stop-color="#1C37B5"/>
</linearGradient>
<linearGradient id="paint8_linear" x1="151.496" y1="235.393" x2="148.17" y2="329.854" gradientUnits="userSpaceOnUse">
<stop offset="2.7e-07" stop-color="#FF48B4"/>
<stop offset="1" stop-color="#FF4276"/>
</linearGradient>
<linearGradient id="paint9_linear" x1="195.686" y1="389.782" x2="164.749" y2="120.981" gradientUnits="userSpaceOnUse">
<stop offset="2.7e-07" stop-color="#B8DDFF"/>
<stop offset="1" stop-color="#1C37B5"/>
</linearGradient>
<linearGradient id="paint10_linear" x1="187.225" y1="365.276" x2="163.319" y2="-131.556" gradientUnits="userSpaceOnUse">
<stop offset="2.7e-07" stop-color="#FFFF9D"/>
<stop offset="1" stop-color="#1CC2B5"/>
</linearGradient>
<linearGradient id="paint11_linear" x1="330.336" y1="158.954" x2="357.807" y2="378.407" gradientUnits="userSpaceOnUse">
<stop offset="2.7e-07" stop-color="#B8DDFF"/>
<stop offset="1" stop-color="#1C37B5"/>
</linearGradient>
<linearGradient id="paint12_linear" x1="317.731" y1="143.757" x2="330.328" y2="244.391" gradientUnits="userSpaceOnUse">
<stop offset="2.7e-07" stop-color="#B8DDFF"/>
<stop offset="1" stop-color="#1C37B5"/>
</linearGradient>
<linearGradient id="paint13_linear" x1="278.399" y1="-40.0789" x2="266.129" y2="66.8235" gradientUnits="userSpaceOnUse">
<stop offset="2.7e-07" stop-color="#FF8110"/>
<stop offset="1" stop-color="#FFBE3B"/>
</linearGradient>
<linearGradient id="paint14_linear" x1="108.163" y1="72.7794" x2="124.519" y2="274.609" gradientUnits="userSpaceOnUse">
<stop offset="6.8e-07" stop-color="#FF7B83"/>
<stop offset="1" stop-color="#FF4276"/>
</linearGradient>
<linearGradient id="paint15_linear" x1="120.431" y1="149.154" x2="190.376" y2="415.372" gradientUnits="userSpaceOnUse">
<stop offset="6.8e-07" stop-color="#FF7B83"/>
<stop offset="1" stop-color="#FF4276"/>
</linearGradient>
<linearGradient id="paint16_linear" x1="389.557" y1="164.494" x2="111.193" y2="327.617" gradientUnits="userSpaceOnUse">
<stop offset="2.7e-07" stop-color="#FFFF9D"/>
<stop offset="1" stop-color="#1CC2B5"/>
</linearGradient>
<linearGradient id="paint17_linear" x1="251.07" y1="321.344" x2="319.181" y2="36.2052" gradientUnits="userSpaceOnUse">
<stop offset="2.7e-07" stop-color="#FFFF9D"/>
<stop offset="1" stop-color="#1CC2B5"/>
</linearGradient>
<linearGradient id="paint18_linear" x1="33.7078" y1="149.359" x2="51.5485" y2="364.542" gradientUnits="userSpaceOnUse">
<stop offset="1.09e-06" stop-color="#7FB1FF"/>
<stop offset="1" stop-color="#1C37B5"/>
</linearGradient>
<linearGradient id="paint19_linear" x1="179.197" y1="117.076" x2="-145.916" y2="358.157" gradientUnits="userSpaceOnUse">
<stop offset="1.09e-06" stop-color="#7FB1FF"/>
<stop offset="1" stop-color="#1C37B5"/>
</linearGradient>
<clipPath id="clip0">
<rect width="375" height="410" fill="white"/>
</clipPath>
</defs>
</svg>
