<svg width="397" height="356" viewBox="0 0 397 356" fill="none" xmlns="http://www.w3.org/2000/svg">
<path d="M88.1332 141.006C87.9233 138.941 87.3169 134.95 84.4709 135.038C81.8004 135.12 81.7079 139.188 81.6 141.045C81.4356 143.873 81.4658 146.71 81.6873 149.534C82.0449 154.101 82.9466 158.602 84.308 162.968C85.804 158.618 87.1707 154.207 87.8614 149.655C88.2948 146.802 88.4257 143.88 88.1332 141.006Z" fill="#FCE6A3"/>
<path d="M119.378 251.43C123.95 245.485 127.678 238.532 128.863 231.052C129.381 227.784 128.989 222.696 124.971 221.806C121.319 220.997 118.113 224.87 116.263 227.459C107.628 239.548 102.605 254.063 101.799 268.881C108.087 263.522 114.329 257.997 119.378 251.43Z" fill="#FCE6A3"/>
<path d="M103.443 170.773C105.341 169.185 107.501 167.552 108.974 165.54C110.19 163.881 111.017 161.036 108.865 159.737C107.193 158.728 105.05 159.284 103.54 160.304C101.505 161.679 100.066 163.862 98.6002 165.786C96.9531 167.947 95.3055 170.109 93.6584 172.271C91.0823 175.651 88.5063 179.032 85.9302 182.413C89.9333 180.324 93.7979 177.978 97.4842 175.364C99.5311 173.913 101.518 172.382 103.443 170.773Z" fill="#FCE6A3"/>
<path d="M103.261 219.165C105.442 216.652 107.455 214.001 109.291 211.226C111.182 208.366 113.19 205.32 114.137 201.995C114.95 199.138 114.765 195.725 112.43 193.596C109.791 191.19 106.222 192.808 103.821 194.726C93.1474 203.254 90.1173 217.752 87.894 230.662C88.0048 231.29 88.1213 231.917 88.2387 232.544C93.7945 228.747 98.8465 224.253 103.261 219.165Z" fill="#FCE6A3"/>
<path d="M114.524 295.541C114.368 295.514 114.207 295.459 114.044 295.369C106.044 290.919 97.8987 286.453 89.0306 283.984C85.5298 283.009 81.9403 282.375 78.3082 282.245C78.3538 282.401 78.3993 282.557 78.4448 282.713C80.2324 288.88 81.9466 295.142 83.3918 301.467C95.2992 303.492 107.667 302.24 119.635 300.743C117.865 299.074 116.159 297.339 114.524 295.541Z" fill="#FCE6A3"/>
<path d="M288.187 35.8458C296.108 32.1897 304.737 29.7939 313.1 28.0763C318.787 26.9086 324.55 26.1133 330.34 25.6929C328.043 23.8282 325.645 22.0877 323.173 20.4756C305.93 9.22884 285.295 2.9171 264.824 0.797852C267.129 9.93398 272.078 18.3736 278.144 25.5698C281.255 29.2594 284.637 32.6461 288.187 35.8458Z" fill="#FCE6A3"/>
<path d="M124.257 316.312C118.801 317.274 113.397 319.125 108.641 321.995C107.693 322.567 106.365 323.432 106.062 324.581C105.737 325.815 106.985 326.307 107.966 326.54C110.275 327.086 112.901 326.951 115.253 326.822C124.712 326.305 133.894 322.585 141.084 316.449C135.544 315.397 129.816 315.332 124.257 316.312Z" fill="#FCE6A3"/>
<path d="M305.654 113.942C298.939 112.964 292.28 111.435 285.839 109.293C285.699 109.247 285.559 109.198 285.419 109.15C281.449 110.831 275.093 113.496 269.223 115.953C273.729 119.063 278.274 122.119 282.826 125.164C296.977 134.631 311.393 144.638 321.497 158.602C322.714 160.283 323.864 162.028 324.939 163.825C328.294 155.2 332.196 146.791 336.015 138.364C339.772 130.072 343.463 121.623 346.487 112.985C346.357 113.011 346.226 113.038 346.095 113.064C332.786 115.668 319.064 115.896 305.654 113.942Z" fill="#FCE6A3"/>
<path d="M234.521 167.613C234.059 167.263 233.598 166.913 233.137 166.562C233.058 166.62 232.981 166.682 232.901 166.739C233.445 167.024 233.983 167.317 234.521 167.613Z" fill="#4AAF95"/>
<path d="M66.2521 284.618C62.9766 286.956 62.4455 290.933 65.0197 294.031C67.4759 296.987 71.6003 298.347 75.1409 299.478C76.8522 300.024 78.5784 300.483 80.3156 300.867C78.8463 294.607 77.1149 288.396 75.313 282.23C72.1511 282.318 68.8023 282.798 66.2521 284.618Z" fill="#FCE6A3"/>
<path d="M59.3678 239.959C56.3795 239.862 53.0187 241.419 52.6529 244.71C52.2618 248.229 54.8043 251.149 57.4575 253.075C60.9094 255.582 64.7419 257.665 68.6846 259.492C67.0284 253.449 65.518 247.375 64.297 241.256C62.7228 240.527 61.0757 240.014 59.3678 239.959Z" fill="#FCE6A3"/>
<path d="M130.291 264.715C122.969 274.203 121.347 286.812 122.117 298.584C127.042 293.08 131.419 287.113 135.165 280.745C135.318 280.484 135.466 280.219 135.617 279.957C133.816 277.312 132.435 274.325 131.514 271.078C130.917 268.973 130.523 266.85 130.291 264.715Z" fill="#FCE6A3"/>
<path d="M132.097 242.788C132.371 241.462 132.658 240.142 132.949 238.831C132.467 238.719 131.983 238.606 131.501 238.494C131.026 238.383 130.551 238.273 130.075 238.162C125.314 252.339 112.916 263.202 101.833 272.607C104.893 278.34 108.442 283.814 112.542 288.929C114.596 291.492 116.795 293.952 119.123 296.289C118.805 288.507 119.545 280.603 122.341 273.299C124.114 268.67 126.666 264.235 130.032 260.56C129.929 254.622 130.887 248.641 132.097 242.788Z" fill="#FCE6A3"/>
<path d="M239.915 93.7006C246.397 99.2942 253.166 104.505 260.089 109.509L266.382 93.9479C262.007 87.1928 259.808 79.0892 260.444 70.9736C261.394 58.8535 268.006 48.5741 277.87 41.6981C280.294 40.0084 282.855 38.5003 285.51 37.1461C274.529 27.0129 265.044 14.9292 261.77 0.509066C261.062 0.450105 260.355 0.395942 259.648 0.346568C236.874 -1.2334 213.751 2.59477 192.809 11.7093C191.803 12.147 190.804 12.599 189.809 13.0606C192.044 27.8293 197.832 41.9694 205.633 54.6615C214.76 69.5111 226.759 82.3474 239.915 93.7006ZM219.302 38.7074C219.293 38.5171 219.345 38.3124 219.484 38.1048C219.728 37.7434 220.01 37.4146 220.321 37.1193C220.463 36.9635 220.613 36.8139 220.774 36.6744C220.893 36.5718 221.018 36.5038 221.145 36.4597C223.113 35.1457 225.792 34.9727 227.81 36.4611C230.342 38.3292 230.822 42.3476 228.791 44.7555C226.709 47.2237 222.538 47.3838 220.287 45.046C218.66 43.3553 218.401 40.7801 219.302 38.7074Z" fill="#FCE6A3"/>
<path d="M227.029 43.508C228.351 42.1006 228.158 39.5355 226.682 38.2973C225.363 37.1909 223.364 37.3837 222.07 38.4148C220.758 39.7589 220.447 42.068 221.81 43.5233C223.131 44.9331 225.713 44.9077 227.029 43.508Z" fill="#F9D979"/>
<path d="M157.505 318.632L157.944 300.433C155.71 306.068 152.444 311.324 148.487 315.765C151.429 316.91 154.44 317.869 157.505 318.632Z" fill="#FCE6A3"/>
<path d="M78.222 279.366C82.5593 279.507 86.8673 280.321 91.0162 281.571C97.4918 283.523 103.605 286.457 109.566 289.643C105.61 284.56 102.118 279.1 99.0828 273.379C98.9649 273.372 98.8422 273.352 98.7133 273.312C90.0656 270.646 81.4112 267.952 73.0526 264.469C74.4998 269.444 76.0016 274.399 77.4599 279.347C77.7149 279.351 77.9694 279.358 78.222 279.366Z" fill="#FCE6A3"/>
<path d="M146.81 289.427C144.469 297.326 144.623 305.978 146.212 314.008C149.807 310.021 152.728 305.438 154.781 300.469C155.874 297.824 156.737 295.072 157.342 292.266C154.718 291.945 152.128 291.389 149.607 290.539C148.642 290.213 147.711 289.84 146.81 289.427Z" fill="#FCE6A3"/>
<path d="M137.505 282.427C137.467 282.491 137.43 282.557 137.391 282.621C133.583 289.028 129.132 295.043 124.163 300.596C124.341 300.773 124.454 301.01 124.5 301.271C130.189 306.13 136.481 310.279 143.198 313.48C142.033 306.997 141.803 300.366 142.891 293.846C143.215 291.897 143.672 289.974 144.258 288.091C141.679 286.566 139.417 284.656 137.505 282.427Z" fill="#FCE6A3"/>
<path d="M72.4016 163.861C71.6058 162.356 70.8086 160.777 69.8782 159.314C69.6146 162.309 69.2814 165.297 68.9094 168.283C70.0076 169.455 71.1059 170.627 72.2041 171.799C74.3693 174.109 76.5346 176.42 78.6999 178.731C77.7762 175.886 76.7249 173.084 75.527 170.343C74.5668 168.144 73.5242 165.981 72.4016 163.861Z" fill="#FCE6A3"/>
<path d="M70.6686 241.662C74.1526 243.926 77.4492 246.479 80.5885 249.198C85.2944 253.272 89.6398 257.73 93.8807 262.282C92.6967 259.402 91.6143 256.482 90.6349 253.532C88.7544 247.866 87.2488 242.12 86.0499 236.316C85.5624 235.898 85.3275 235.143 85.6156 234.524C85.5029 234.494 85.3946 234.451 85.2958 234.393C78.1016 230.103 70.8877 225.742 64.2888 220.567C64.6498 226.88 65.5203 233.118 66.7216 239.302C68.0854 240.016 69.3988 240.837 70.6686 241.662Z" fill="#FCE6A3"/>
<path d="M66.3312 194.714C66.0561 194.342 65.7752 193.965 65.489 193.585C64.5777 201.228 63.9574 208.893 64.1295 216.621C64.131 216.685 64.1343 216.749 64.1358 216.812C70.2467 221.868 77.1044 226.138 83.8648 230.192C80.7145 221.847 77.4514 213.523 73.2134 205.661C71.1666 201.865 68.8977 198.183 66.3312 194.714Z" fill="#FCE6A3"/>
<path d="M63.1883 155.447C61.4511 156.381 61.5637 158.827 62.2468 160.382C63.1202 162.37 64.8234 163.97 66.3247 165.53C66.6838 162.416 66.9939 159.299 67.2197 156.175C66.0338 155.269 64.5583 154.71 63.1883 155.447Z" fill="#FCE6A3"/>
<path d="M68.8106 193.265C71.6733 197.135 74.1665 201.269 76.3931 205.534C79.136 210.788 81.4815 216.231 83.6684 221.737C82.2653 210.355 81.8305 198.828 81.9249 187.325C81.4341 187.261 80.9907 186.946 80.8382 186.313C80.7169 185.809 80.5885 185.307 80.46 184.806C76.4511 180.528 72.4422 176.249 68.4333 171.972C67.6457 177.86 66.7546 183.739 65.9852 189.628C66.9833 190.816 67.9151 192.055 68.8106 193.265Z" fill="#FCE6A3"/>
<path d="M61.3859 207.717C61.6596 201.959 62.2617 196.231 62.9865 190.514C61.3456 188.702 59.4833 187.102 57.2686 186.189C53.6576 184.7 49.0932 185.524 47.6517 189.535C46.183 193.622 48.2648 197.859 50.35 201.313C53.3269 206.242 57.0716 210.509 61.2699 214.327C61.2459 212.131 61.2804 209.928 61.3859 207.717Z" fill="#FCE6A3"/>
<path d="M96.3763 269.22C90.6743 262.999 84.9498 256.758 78.5589 251.228C75.7283 248.778 72.7697 246.478 69.6423 244.418C68.9453 243.959 68.2249 243.483 67.4847 243.02C68.7824 249.05 70.3595 255.032 72.0502 260.983C73.9187 261.778 75.7945 262.527 77.6505 263.246C84.0989 265.742 90.6939 267.828 97.2981 269.87C97.264 269.801 97.23 269.732 97.1965 269.663C96.9132 269.631 96.6289 269.496 96.3763 269.22Z" fill="#FCE6A3"/>
<path d="M335.593 261.457C334.274 260.351 332.275 260.543 330.981 261.574C329.668 262.919 329.358 265.228 330.721 266.683C332.042 268.093 334.624 268.067 335.939 266.668C337.262 265.261 337.069 262.695 335.593 261.457Z" fill="#F9D979"/>
<path d="M143.522 195.039C148.72 187.563 155.039 180.925 162.224 175.357C158.506 173.646 155.505 170.328 153.634 166.76C151.002 161.74 150.257 155.809 151.74 150.324C153.166 145.046 156.452 140.622 160.863 137.453C162.969 135.939 165.456 134.601 166.91 132.375C168.573 129.829 168.387 126.644 168.106 123.748C167.499 117.49 167.149 111.397 168.476 105.191C168.852 103.429 169.359 101.709 169.987 100.039C168.936 98.1229 167.92 96.1882 166.939 94.2343C158.704 77.8196 152.844 60.391 147.986 42.7017C146.553 44.1618 145.149 45.6502 143.779 47.1679C136.934 54.7528 130.864 63.0586 125.774 71.9182C123.234 76.3393 120.935 80.8995 118.901 85.5756C116.767 90.4814 115.048 95.6158 112.287 100.223C109.643 104.635 105.933 108.247 100.844 109.481C102.791 125.7 109.581 141.422 117.584 155.446C125.411 169.162 134.8 181.887 143.522 195.039ZM122.951 121.18C122.941 120.989 122.993 120.785 123.133 120.577C123.376 120.216 123.658 119.887 123.969 119.592C124.111 119.436 124.261 119.286 124.423 119.147C124.541 119.044 124.667 118.977 124.794 118.932C126.762 117.618 129.441 117.445 131.459 118.933C133.991 120.801 134.471 124.82 132.44 127.228C130.358 129.696 126.186 129.856 123.936 127.518C122.308 125.828 122.05 123.252 122.951 121.18Z" fill="#FCE6A3"/>
<path d="M130.677 125.981C132 124.574 131.807 122.009 130.331 120.77C129.012 119.664 127.012 119.857 125.718 120.888C124.406 122.232 124.095 124.541 125.459 125.996C126.779 127.406 129.362 127.381 130.677 125.981Z" fill="#F9D979"/>
<path d="M70.4766 148.601C70.4353 150.741 70.3419 152.876 70.2062 155.009C71.9084 156.807 73.1015 159.135 74.2721 161.279C75.6685 163.836 76.9489 166.456 78.1089 169.129C79.6299 172.633 80.9448 176.216 82.0545 179.864C82.1653 175.652 82.3321 171.447 82.5368 167.259C82.5435 167.119 82.5684 166.99 82.6053 166.871C80.5537 161.292 79.28 155.461 78.8155 149.533C78.6012 146.799 78.5667 144.049 78.7144 141.31C78.8371 139.034 78.9401 136.526 80.2795 134.585C83.0272 130.603 88.1956 132.13 89.9448 136.174C91.9313 140.765 91.3 146.694 90.4544 151.474C89.511 156.809 87.7172 161.945 85.9187 167.04C85.8041 167.364 85.6138 167.601 85.3842 167.761C85.2039 171.504 85.0539 175.251 84.947 179C88.1602 174.783 91.3733 170.566 94.5865 166.349C97.5523 162.457 100.746 156.805 106.188 156.377C108.381 156.204 110.736 156.985 112.038 158.833C113.473 160.871 113.285 163.591 112.21 165.742C110.941 168.279 108.552 170.169 106.442 171.98C104.225 173.883 101.924 175.691 99.5536 177.399C94.8995 180.754 89.9558 183.682 84.7994 186.192C84.6834 196.239 84.9609 206.287 85.9393 216.293C86.1301 218.245 86.3539 220.2 86.6046 222.155C87.8141 216.534 89.3974 211.008 91.9145 205.801C93.5573 202.403 95.6008 199.194 98.0786 196.342C100.432 193.633 103.345 190.852 106.883 189.84C110.14 188.909 113.432 189.999 115.454 192.705C117.52 195.468 117.847 198.997 117.035 202.275C116.104 206.036 113.884 209.48 111.769 212.676C109.671 215.848 107.344 218.877 104.826 221.726C100.136 227.033 94.7365 231.689 88.8365 235.601C91.0718 246.431 94.3803 257.065 99.0426 267.038C99.6825 258.565 101.626 250.204 104.848 242.333C106.486 238.33 108.412 234.452 110.659 230.755C112.736 227.338 114.991 223.685 118.173 221.184C121.103 218.88 125.059 217.86 128.275 220.251C129.3 221.014 130.072 221.952 130.635 222.996C131.431 219.936 132.389 216.917 133.52 213.952C135.717 208.191 138.502 202.722 141.798 197.612C130.606 180.583 118.165 164.294 109.294 145.871C103.843 134.553 99.614 122.33 98.0949 109.87C96.4967 109.919 94.888 109.659 93.4384 108.983C90.9141 107.807 89.4199 105.475 88.082 103.143C85.7629 99.1017 83.2645 95.5986 79.2455 93.0901C75.5587 90.7891 71.2828 89.5668 66.9739 89.19C63.8436 88.9163 60.8654 89.1018 58.0328 89.667C66.5319 108.047 70.8658 128.345 70.4766 148.601Z" fill="#FCE6A3"/>
<path d="M355.154 264.746C352.884 250.91 348.051 237.581 340.969 225.519C336.726 225.376 332.591 224.514 328.837 222.261C321.259 217.716 318.087 208.892 317.426 200.469C316.659 190.711 318.856 181.271 321.938 172.079C322.475 170.477 323.04 168.885 323.623 167.301C320.757 162.151 317.215 157.365 313.299 153.114C301.451 140.256 286.373 131.095 272.013 121.371C270.017 120.02 268.029 118.656 266.048 117.28C259.974 119.82 255.097 121.855 255.097 121.855L258.972 112.272C249.061 105.113 239.463 97.5193 230.562 89.1339C218.06 77.3565 206.982 63.943 198.931 48.7166C193.237 37.9468 189.083 26.3357 187.141 14.335C173.598 20.9794 161.136 29.8451 150.324 40.3705C155.578 59.7611 162 78.9556 171.443 96.7015C172.576 94.4284 173.95 92.2746 175.56 90.2767C182.683 81.433 193.963 76.5569 205.292 77.4782C210.883 77.9327 217.076 79.5457 221.445 83.2358C222.375 84.021 223.163 84.9596 223.778 85.9854C225.172 87.6292 226.101 89.573 226.044 91.9343C225.987 94.3316 224.833 96.0501 223.202 97.3472C223.279 97.9076 223.355 98.4675 223.431 99.0274C223.552 99.2 223.64 99.4171 223.679 99.6836C224.476 105.019 224.889 110.395 224.81 115.792C224.766 118.741 224.689 121.809 224.261 124.794C227.422 128.571 232.084 130.975 235.559 134.435C243.392 142.234 243.874 155.026 236.646 163.36C236.24 163.828 235.809 164.268 235.366 164.694C251.395 176.884 267.651 188.826 281.832 203.197C298.553 220.143 312.08 240.457 316.407 264.21C320.039 284.145 317.886 304.359 314.272 324.209C328.15 320.529 341.581 314.948 353.77 307.372C356.94 293.419 357.476 278.89 355.154 264.746ZM289.901 148.137C289.663 148.969 289.345 149.772 288.971 150.551C288.535 151.458 288.021 152.331 287.451 153.172C286.154 155.085 284.58 156.838 283.038 158.472C280.034 161.653 276.695 164.488 273.249 167.176C273.097 167.295 272.937 167.377 272.776 167.43C272.776 167.441 272.775 167.453 272.775 167.465C272.755 167.46 272.736 167.453 272.717 167.447C272.698 167.453 272.678 167.46 272.659 167.465C272.658 167.453 272.658 167.441 272.657 167.43C272.496 167.377 272.337 167.295 272.185 167.176C268.74 164.488 265.399 161.653 262.396 158.472C259.593 155.503 256.678 152.141 255.532 148.137C254.606 144.898 255.119 141.199 257.423 138.64C259.993 135.784 264.049 135.783 267.324 137.323C269.558 138.375 271.412 140.122 272.717 142.212C273.54 140.893 274.582 139.712 275.799 138.755C276.512 138.195 277.284 137.711 278.11 137.323C278.161 137.299 278.214 137.276 278.266 137.253C281.513 135.784 285.48 135.828 288.01 138.639C290.314 141.199 290.828 144.898 289.901 148.137ZM337.703 267.916C335.621 270.384 331.449 270.544 329.199 268.207C327.571 266.516 327.313 263.941 328.214 261.868C328.204 261.678 328.256 261.473 328.396 261.266C328.639 260.905 328.921 260.576 329.232 260.28C329.374 260.125 329.524 259.975 329.686 259.836C329.804 259.733 329.93 259.665 330.057 259.621C332.025 258.307 334.704 258.134 336.722 259.622C339.253 261.489 339.733 265.508 337.703 267.916Z" fill="#FCE6A3"/>
<path d="M310.895 253.714C303.907 231.158 288.343 212.558 271.126 196.919C267.349 193.489 263.469 190.187 259.523 186.964C270.391 198.479 278.577 212.459 283.23 227.732C283.388 228.251 283.547 228.77 283.697 229.292C283.702 229.308 283.707 229.323 283.711 229.338C283.801 229.65 283.799 229.934 283.734 230.184L283.782 231.97L281.765 232.656L280.356 233.135C281.016 235.1 281.641 237.088 282.209 239.093C284.177 246.038 285.425 253.202 284.801 260.41C284.188 267.502 281.749 274.562 277.131 280.057C272.398 285.691 265.712 288.479 258.698 289.917C258.76 294.103 258.792 298.291 258.794 302.478H258.795V311.772V313.419V317.395L253.584 318.107C253.563 321.973 253.543 325.839 253.522 329.706C270.651 330.634 287.857 329.82 304.717 326.434C306.888 325.998 309.052 325.514 311.208 324.988C315.56 301.432 318.075 276.889 310.895 253.714Z" fill="#FCE6A3"/>
<path d="M384.238 226.135C375.967 221.329 366.092 222.612 357.077 223.954C352.958 224.567 348.598 225.31 344.276 225.496C347.258 230.739 349.832 236.211 351.974 241.862C358.373 258.742 360.772 277.117 358.754 295.064C358.372 298.464 357.84 301.843 357.163 305.191C359.197 303.837 361.195 302.429 363.148 300.959C371.649 294.561 379.381 287.101 385.77 278.577C392.086 270.149 397.235 259.897 396.794 249.101C396.426 240.101 392.248 230.79 384.238 226.135Z" fill="#FCE6A3"/>
<path d="M81.026 303.997C76.3043 303.102 71.6867 301.684 67.5018 299.488C63.9416 297.62 60.7942 294.486 60.4567 290.287C60.1533 286.512 62.7461 283.12 65.9679 281.436C68.5517 280.086 71.5242 279.548 74.478 279.392C73.7891 277.061 73.095 274.736 72.4052 272.419C71.4733 269.287 70.5525 266.149 69.6628 263.004C66.2253 261.46 62.8573 259.757 59.6073 257.848C56.5053 256.026 53.2912 253.981 51.3613 250.85C49.5345 247.886 49.045 243.835 51.1163 240.863C53.0141 238.14 56.5326 236.879 59.7664 237.111C61.1139 237.207 62.4115 237.514 63.6674 237.954C62.4849 231.425 61.6599 224.842 61.3727 218.189C61.0391 217.905 60.705 217.623 60.3757 217.335C57.1184 214.484 54.098 211.37 51.4462 207.945C48.7531 204.467 46.0658 200.55 44.8549 196.272C43.7213 192.267 44.2701 187.393 47.6875 184.626C50.9452 181.988 55.5734 182.171 59.1917 183.929C60.7678 184.695 62.1714 185.738 63.4537 186.934C64.247 181.035 65.1271 175.147 65.8744 169.247C62.6593 165.9 58.045 161.955 59.0478 156.852C59.891 152.561 64.0346 151.599 67.4141 153.029C67.614 149.272 67.6821 145.504 67.5546 141.72C66.9583 123.981 62.6982 106.435 55.189 90.3745C39.8734 94.9519 29.1003 110.719 22.001 124.497C19.0098 130.302 16.4193 136.278 14.1744 142.379C20.455 154.214 25.6585 166.616 29.7398 179.378C38.7738 207.625 42.3541 237.633 40.407 267.218C39.1314 286.599 35.4806 305.799 29.4608 324.236C40.0355 334.787 53.3252 342.287 67.9462 346.425C72.9651 347.845 78.0497 348.861 83.1697 349.521C83.9003 345.553 84.3399 341.544 84.499 337.574C84.9558 326.215 83.4459 315.031 81.026 303.997Z" fill="#FCE6A3"/>
<path d="M158.863 331.04L157.4 331.24V328.337L157.368 327.51C157.377 327.463 157.388 327.416 157.4 327.369V326.584V324.957V322.976L157.434 321.566C153.628 320.654 149.89 319.451 146.257 317.978C145.562 318.283 144.803 317.892 144.456 317.283C139.702 321.714 134.059 325.084 127.915 327.216C122.202 329.199 116.044 330.068 110.007 329.663C107.594 329.501 104.623 329.105 103.486 326.63C102.25 323.941 104.373 321.425 106.475 319.974C111.64 316.41 118.312 314.338 124.457 313.385C128.255 312.796 132.086 312.634 135.892 312.902C135.772 312.833 135.652 312.765 135.533 312.695C130.828 309.941 126.461 306.773 122.419 303.264C112.589 304.515 102.684 305.69 92.758 305.28C89.8967 305.162 86.9736 304.918 84.0634 304.501C87.0239 318.375 88.5401 332.528 86.5316 346.639C86.3791 347.71 86.2051 348.78 86.0105 349.847C102.877 351.582 120.061 349.518 136.472 345.128C143.126 343.348 149.667 341.194 156.111 338.778C156.848 336.803 157.555 334.831 158.235 332.874C158.448 332.264 158.656 331.652 158.863 331.04Z" fill="#FCE6A3"/>
<path d="M162.038 330.607C161.278 332.893 160.482 335.165 159.649 337.421C160.278 337.175 160.906 336.927 161.533 336.676C161.728 334.649 161.926 332.621 162.127 330.594L162.038 330.607Z" fill="#FCE6A3"/>
<path d="M35.6082 217.576C31.9761 192.693 24.3681 168.421 12.864 146.076C7.88341 160.608 4.7738 175.789 2.82664 191.023C0.102917 212.334 -1.03749 234.21 1.15031 255.624C3.13918 275.091 8.07659 294.773 18.9164 311.301C21.4086 315.101 24.1884 318.64 27.217 321.911C29.0127 316.285 30.5893 310.589 31.9387 304.837C38.6214 276.345 39.8352 246.531 35.6082 217.576Z" fill="#FCE6A3"/>
<path d="M278.266 137.254C278.214 137.278 278.161 137.3 278.11 137.325C277.285 137.713 276.512 138.196 275.799 138.756C274.582 139.713 273.54 140.894 272.717 142.213C271.412 140.123 269.559 138.376 267.324 137.325C264.049 135.784 259.994 135.785 257.423 138.641C255.12 141.201 254.606 144.9 255.533 148.138C256.678 152.143 259.594 155.505 262.396 158.473C265.4 161.654 268.739 164.49 272.185 167.177C272.337 167.296 272.497 167.378 272.658 167.431C272.658 167.443 272.658 167.454 272.659 167.466C272.678 167.461 272.698 167.454 272.717 167.449C272.737 167.454 272.756 167.461 272.775 167.466C272.776 167.455 272.776 167.443 272.777 167.431C272.938 167.378 273.097 167.296 273.249 167.177C276.695 164.489 280.035 161.654 283.038 158.473C284.58 156.84 286.155 155.087 287.451 153.174C288.022 152.332 288.536 151.459 288.971 150.553C289.345 149.774 289.663 148.971 289.901 148.138C290.827 144.9 290.314 141.201 288.011 138.641C285.481 135.83 281.513 135.786 278.266 137.254Z" fill="#FFA192"/>
<path d="M285.511 37.1458C286.393 36.6957 287.285 36.2614 288.187 35.8448C284.637 32.6451 281.255 29.2584 278.145 25.5688C272.078 18.3726 267.129 9.93301 264.825 0.796878C263.806 0.691419 262.788 0.593148 261.771 0.508301C265.045 14.9289 274.531 27.0131 285.511 37.1458Z" fill="#F9D979"/>
<path d="M282.826 125.164C278.275 122.119 273.728 119.063 269.222 115.953C268.141 116.405 267.078 116.85 266.047 117.281C268.028 118.657 270.017 120.02 272.012 121.371C286.372 131.095 301.45 140.256 313.298 153.115C317.214 157.365 320.756 162.152 323.622 167.301C324.05 166.138 324.489 164.98 324.938 163.825C323.863 162.028 322.713 160.283 321.496 158.602C311.393 144.639 296.976 134.631 282.826 125.164Z" fill="#F9D979"/>
<path d="M230.562 89.1341C239.463 97.5195 249.061 105.114 258.972 112.272L260.089 109.509C253.167 104.505 246.397 99.2941 239.915 93.7005C226.76 82.3478 214.761 69.5115 205.634 54.6618C197.833 41.9698 192.045 27.8292 189.81 13.061C188.916 13.4762 188.027 13.9009 187.142 14.3352C189.083 26.3364 193.236 37.9475 198.931 48.7168C206.982 63.9437 218.06 77.3567 230.562 89.1341Z" fill="#F9D979"/>
<path d="M169.987 100.039C170.415 98.901 170.903 97.7879 171.444 96.7017C162.001 78.9558 155.578 59.7607 150.325 40.3706C149.536 41.1385 148.757 41.9165 147.986 42.7017C152.845 60.3911 158.704 77.8197 166.94 94.2344C167.92 96.1883 168.937 98.123 169.987 100.039Z" fill="#F9D979"/>
<path d="M316.408 264.21C312.081 240.457 298.555 220.142 281.833 203.197C267.652 188.826 251.396 176.884 235.367 164.693C234.665 165.369 233.921 165.993 233.137 166.562C233.598 166.912 234.059 167.262 234.521 167.612C235.323 168.053 236.121 168.5 236.912 168.962C237.346 169.216 237.783 169.465 238.214 169.726C238.251 169.748 238.287 169.772 238.324 169.794C239.783 170.679 241.215 171.602 242.622 172.557C243.078 172.866 243.53 173.18 243.98 173.496C249.62 177.459 254.821 181.982 259.524 186.964C263.469 190.186 267.35 193.489 271.127 196.919C288.343 212.558 303.908 231.157 310.896 253.714C318.075 276.889 315.561 301.431 311.208 324.988C312.232 324.738 313.255 324.479 314.274 324.209C317.887 304.359 320.04 284.145 316.408 264.21Z" fill="#F9D979"/>
<path d="M351.974 241.861C349.832 236.211 347.259 230.738 344.276 225.496C343.169 225.543 342.065 225.555 340.969 225.518C348.051 237.58 352.884 250.91 355.155 264.746C357.476 278.889 356.94 293.419 353.77 307.372C354.912 306.662 356.043 305.935 357.162 305.19C357.84 301.842 358.371 298.463 358.754 295.064C360.772 277.116 358.373 258.742 351.974 241.861Z" fill="#F9D979"/>
<path d="M141.799 197.61C142.358 196.743 142.933 195.886 143.522 195.039C134.801 181.888 125.411 169.163 117.583 155.446C109.581 141.422 102.791 125.699 100.844 109.481C100.708 109.514 100.576 109.552 100.438 109.582C99.6743 109.746 98.8867 109.844 98.0962 109.868C99.6153 122.328 103.845 134.552 109.295 145.87C118.166 164.292 130.607 180.582 141.799 197.61Z" fill="#F9D979"/>
<path d="M158.863 331.04C158.657 331.652 158.448 332.263 158.236 332.872C157.555 334.83 156.848 336.801 156.112 338.777C157.294 338.333 158.474 337.881 159.649 337.421C160.482 335.165 161.278 332.893 162.038 330.606L158.863 331.04Z" fill="#F9D979"/>
<path d="M67.4147 153.028C68.2857 153.396 69.1069 153.921 69.8067 154.592C69.9453 154.725 70.0742 154.869 70.2065 155.008C70.3422 152.876 70.4356 150.74 70.4769 148.6C70.8656 128.345 66.5317 108.047 58.0346 89.6646C57.0696 89.8573 56.1215 90.0945 55.1901 90.373C62.6992 106.434 66.9593 123.979 67.5556 141.718C67.6827 145.503 67.6146 149.271 67.4147 153.028Z" fill="#F9D979"/>
<path d="M77.459 279.346C76.0003 274.399 74.499 269.443 73.0518 264.469C72.4445 264.216 71.8381 263.959 71.2336 263.698C70.7082 263.47 70.1847 263.238 69.6627 263.004C70.5524 266.149 71.4728 269.286 72.4051 272.419C73.0949 274.737 73.7891 277.061 74.4779 279.391C75.4793 279.339 76.4783 279.328 77.459 279.346Z" fill="#F9D979"/>
<path d="M65.9854 189.627C66.7547 183.738 67.6464 177.859 68.4335 171.97C67.7063 171.195 66.9796 170.419 66.2529 169.643C66.1297 169.512 66.0031 169.379 65.8751 169.246C65.1278 175.145 64.2482 181.034 63.4543 186.932C64.3527 187.769 65.1906 188.681 65.9854 189.627Z" fill="#F9D979"/>
<path d="M84.0636 304.5C83.0483 304.354 82.0349 304.188 81.0259 303.997C83.4462 315.03 84.9557 326.215 84.4998 337.573C84.3402 341.544 83.9011 345.552 83.1705 349.52C84.1158 349.641 85.0631 349.749 86.0108 349.846C86.2054 348.778 86.3794 347.708 86.5318 346.637C88.5403 332.526 87.0246 318.373 84.0636 304.5Z" fill="#F9D979"/>
<path d="M78.3088 282.247C78.0274 282.237 77.746 282.223 77.4641 282.219C76.7652 282.209 76.0443 282.209 75.3132 282.229C77.1151 288.396 78.8466 294.607 80.3158 300.866C81.3378 301.092 82.3632 301.293 83.3924 301.468C81.9471 295.143 80.2334 288.881 78.4454 282.714C78.3998 282.559 78.3538 282.402 78.3088 282.247Z" fill="#F9D979"/>
<path d="M64.2975 241.256C65.5184 247.375 67.0289 253.449 68.6851 259.492C69.8001 260.009 70.9237 260.504 72.0502 260.983C70.3595 255.032 68.7824 249.05 67.4848 243.019C66.4608 242.379 65.3971 241.765 64.2975 241.256Z" fill="#F9D979"/>
<path d="M64.2895 220.567C63.303 219.793 62.3303 219.001 61.3735 218.188C61.6607 224.842 62.4857 231.425 63.6682 237.953C64.7147 238.321 65.7324 238.782 66.7222 239.301C65.521 233.118 64.6504 226.88 64.2895 220.567Z" fill="#F9D979"/>
<path d="M68.7013 157.639C68.3072 157.141 67.7977 156.617 67.22 156.176C66.9943 159.3 66.6841 162.417 66.3251 165.531C66.4564 165.667 66.5868 165.803 66.7143 165.939C67.4463 166.72 68.1778 167.501 68.9098 168.283C69.2813 165.297 69.6149 162.308 69.8786 159.314C69.5095 158.734 69.1212 158.17 68.7013 157.639Z" fill="#F9D979"/>
<path d="M65.4892 193.586C64.7074 192.55 63.8796 191.502 62.9865 190.515C62.2612 196.232 61.6596 201.96 61.3859 207.717C61.2809 209.929 61.2459 212.132 61.2704 214.327C62.2047 215.177 63.1605 216.006 64.136 216.813C64.1346 216.749 64.1312 216.685 64.1298 216.622C63.9582 208.893 64.578 201.228 65.4892 193.586Z" fill="#F9D979"/>
<path d="M29.7409 179.377C25.6596 166.615 20.4557 154.213 14.1756 142.378C13.724 143.606 13.2883 144.838 12.8645 146.076C24.3687 168.421 31.9766 192.693 35.6087 217.575C39.8352 246.53 38.6215 276.345 31.9387 304.836C30.5893 310.588 29.0127 316.285 27.217 321.91C27.95 322.702 28.7002 323.475 29.4619 324.234C35.4817 305.798 39.132 286.597 40.4081 267.216C42.3552 237.632 38.7749 207.624 29.7409 179.377Z" fill="#F9D979"/>
<path d="M148.487 315.766C152.444 311.324 155.71 306.069 157.944 300.433L158.139 292.357L158.436 292.406L158.437 292.388C158.071 292.353 157.706 292.312 157.342 292.268C156.737 295.074 155.874 297.826 154.781 300.471C152.728 305.44 149.807 310.022 146.212 314.009C144.623 305.979 144.469 297.328 146.81 289.428C145.927 289.023 145.076 288.578 144.257 288.093C143.671 289.976 143.215 291.899 142.89 293.847C141.803 300.367 142.032 306.998 143.197 313.481C136.48 310.28 130.188 306.131 124.499 301.273C124.453 301.011 124.34 300.774 124.163 300.597C129.131 295.044 133.583 289.029 137.391 282.623C137.429 282.558 137.466 282.493 137.504 282.428C136.831 281.644 136.202 280.819 135.616 279.958C135.465 280.221 135.318 280.485 135.165 280.746C131.419 287.114 127.042 293.081 122.117 298.585C121.347 286.814 122.968 274.205 130.29 264.717C130.14 263.336 130.056 261.95 130.032 260.562C126.666 264.237 124.114 268.672 122.341 273.301C119.545 280.605 118.804 288.509 119.123 296.291C116.795 293.954 114.596 291.494 112.542 288.931C108.442 283.816 104.893 278.342 101.832 272.609C112.916 263.204 125.314 252.341 130.075 238.164C129.796 238.099 129.516 238.034 129.237 237.969C128.053 237.694 127.847 236.527 128.278 235.683C128.308 235.42 128.342 235.157 128.374 234.894C128.442 234.349 128.513 233.805 128.59 233.261C129.078 229.8 129.759 226.373 130.637 222.995C130.073 221.951 129.302 221.013 128.277 220.251C125.061 217.86 121.105 218.88 118.175 221.183C114.992 223.685 112.738 227.338 110.661 230.754C108.413 234.451 106.488 238.33 104.849 242.333C101.628 250.203 99.6847 258.565 99.0443 267.038C94.382 257.065 91.0734 246.431 88.8382 235.601C94.7382 231.689 100.137 227.033 104.827 221.726C107.346 218.876 109.673 215.848 111.771 212.676C113.885 209.479 116.105 206.036 117.037 202.275C117.848 198.996 117.521 195.468 115.456 192.705C113.434 189.999 110.141 188.909 106.885 189.84C103.347 190.852 100.434 193.633 98.0803 196.342C95.6024 199.194 93.5589 202.403 91.9162 205.801C89.399 211.008 87.8157 216.534 86.6063 222.155C86.3556 220.2 86.1317 218.245 85.9409 216.293C84.9626 206.287 84.6855 196.239 84.801 186.192C89.9575 183.682 94.9011 180.753 99.5553 177.399C101.925 175.691 104.227 173.884 106.444 171.98C108.553 170.169 110.943 168.278 112.211 165.742C113.287 163.59 113.474 160.87 112.039 158.833C110.737 156.985 108.382 156.204 106.19 156.376C100.747 156.805 97.5539 162.457 94.5881 166.349C91.375 170.566 88.1618 174.782 84.9487 178.999C85.0556 175.251 85.2051 171.504 85.3858 167.761C85.6155 167.601 85.8058 167.364 85.9203 167.039C87.7189 161.945 89.5127 156.809 90.456 151.474C91.3016 146.694 91.9329 140.765 89.9465 136.173C88.1973 132.13 83.0288 130.603 80.2811 134.585C78.9418 136.526 78.8383 139.034 78.716 141.31C78.5684 144.049 78.6029 146.798 78.8172 149.533C79.2817 155.46 80.5548 161.292 82.607 166.871C82.5701 166.99 82.5456 167.118 82.5384 167.259C82.3338 171.447 82.1669 175.651 82.0562 179.864C80.946 176.216 79.6316 172.633 78.1106 169.129C76.9505 166.456 75.6702 163.836 74.2738 161.279C73.1027 159.135 71.9096 156.807 70.2079 155.008C70.0756 154.868 69.9471 154.724 69.8081 154.592C69.1082 153.921 68.2871 153.396 67.4161 153.028C64.0366 151.598 59.8935 152.56 59.0498 156.851C58.047 161.955 62.6613 165.899 65.8763 169.246C66.0043 169.379 66.1309 169.512 66.2541 169.644C66.9813 170.419 67.708 171.195 68.4347 171.971C72.4436 176.249 76.4525 180.527 80.4614 184.805C80.5898 185.307 80.7188 185.809 80.8396 186.312C80.992 186.946 81.4354 187.26 81.9263 187.324C81.8319 198.827 82.2671 210.354 83.6697 221.737C81.4829 216.23 79.1374 210.787 76.3945 205.533C74.1678 201.268 71.6747 197.134 68.8119 193.265C67.9165 192.054 66.9846 190.815 65.9866 189.627C65.1918 188.681 64.3539 187.77 63.4556 186.932C62.1733 185.737 60.7697 184.694 59.1936 183.928C55.5749 182.17 50.9471 181.986 47.6894 184.625C44.2721 187.392 43.7232 192.266 44.8569 196.271C46.0677 200.548 48.755 204.465 51.4481 207.944C54.0994 211.369 57.1199 214.483 60.3776 217.334C60.7069 217.622 61.041 217.905 61.3747 218.187C62.3315 219 63.3041 219.793 64.2906 220.567C70.8895 225.741 78.1034 230.102 85.2976 234.392C85.3964 234.451 85.5047 234.493 85.6174 234.524C85.3298 235.142 85.5646 235.897 86.0517 236.315C87.2506 242.119 88.7562 247.866 90.6368 253.531C91.6161 256.481 92.6985 259.401 93.8825 262.281C89.6411 257.729 85.2962 253.271 80.5903 249.197C77.451 246.478 74.1539 243.925 70.6704 241.661C69.4001 240.836 68.0872 240.016 66.7234 239.3C65.7335 238.781 64.7158 238.32 63.6694 237.953C62.4134 237.512 61.1153 237.206 59.7683 237.109C56.5346 236.877 53.0156 238.138 51.1183 240.862C49.047 243.834 49.5359 247.884 51.3632 250.848C53.2931 253.979 56.5072 256.025 59.6092 257.847C62.8593 259.756 66.2268 261.458 69.6647 263.003C70.1868 263.238 70.7107 263.469 71.2356 263.697C71.8401 263.958 72.446 264.215 73.0538 264.468C81.4129 267.95 90.0668 270.644 98.7145 273.311C98.8434 273.35 98.9666 273.37 99.084 273.377C102.119 279.098 105.612 284.559 109.567 289.641C103.606 286.456 97.493 283.521 91.0174 281.57C86.8685 280.32 82.5605 279.506 78.2232 279.364C77.9706 279.356 77.7161 279.35 77.4606 279.345C76.4798 279.326 75.4808 279.337 74.4794 279.39C71.5261 279.546 68.5531 280.084 65.9693 281.434C62.7476 283.118 60.1547 286.51 60.4581 290.285C60.7956 294.484 63.9431 297.618 67.5033 299.486C71.6881 301.682 76.3058 303.1 81.0275 303.995C82.0365 304.187 83.0499 304.353 84.0652 304.499C86.9759 304.916 89.899 305.16 92.7598 305.278C102.685 305.688 112.591 304.513 122.421 303.261C126.463 306.77 130.83 309.939 135.535 312.692C135.654 312.762 135.774 312.83 135.894 312.899C132.088 312.632 128.257 312.793 124.459 313.382C118.314 314.335 111.642 316.407 106.477 319.972C104.375 321.422 102.252 323.939 103.487 326.627C104.625 329.103 107.596 329.499 110.009 329.66C116.046 330.065 122.204 329.196 127.917 327.213C134.061 325.081 139.704 321.711 144.458 317.28C144.805 317.89 145.564 318.28 146.258 317.975C149.891 319.449 153.63 320.652 157.436 321.563L157.507 318.629C154.44 317.87 151.429 316.911 148.487 315.766ZM93.6586 172.271C95.3057 170.11 96.9528 167.948 98.6004 165.786C100.066 163.863 101.505 161.68 103.54 160.305C105.051 159.284 107.193 158.729 108.865 159.738C111.018 161.037 110.19 163.882 108.975 165.541C107.502 167.552 105.342 169.186 103.443 170.773C101.518 172.383 99.5313 173.913 97.4849 175.364C93.7986 177.978 89.934 180.324 85.9309 182.413C88.5065 179.033 91.0826 175.652 93.6586 172.271ZM72.2039 171.799C71.1057 170.627 70.0075 169.455 68.9093 168.283C68.1773 167.502 67.4458 166.721 66.7138 165.94C66.5863 165.803 66.4559 165.667 66.3245 165.531C64.8232 163.97 63.12 162.371 62.2466 160.383C61.5635 158.828 61.4509 156.382 63.1881 155.448C64.5581 154.712 66.0336 155.27 67.2195 156.176C67.7971 156.618 68.3067 157.142 68.7007 157.64C69.1211 158.171 69.509 158.734 69.8776 159.314C70.8085 160.778 71.6052 162.357 72.4009 163.861C73.5231 165.982 74.5657 168.145 75.5264 170.343C76.7243 173.084 77.7755 175.887 78.6992 178.731C76.5349 176.42 74.3697 174.109 72.2039 171.799ZM64.1358 216.813C63.1598 216.005 62.2044 215.177 61.2702 214.327C57.0724 210.51 53.3272 206.243 50.3503 201.313C48.2647 197.859 46.1833 193.622 47.652 189.536C49.0935 185.524 53.6579 184.7 57.269 186.189C59.4831 187.101 61.3454 188.702 62.9868 190.514C63.8798 191.501 64.7077 192.549 65.4895 193.585C65.7757 193.964 66.0566 194.342 66.3317 194.714C68.8978 198.183 71.1666 201.865 73.2134 205.661C77.4519 213.523 80.715 221.847 83.8648 230.192C77.1044 226.139 70.2462 221.868 64.1358 216.813ZM81.6871 149.533C81.4661 146.711 81.4354 143.872 81.5998 141.045C81.7077 139.187 81.8007 135.119 84.4707 135.037C87.3167 134.95 87.9231 138.941 88.133 141.006C88.4255 143.879 88.2946 146.802 87.8613 149.655C87.1705 154.206 85.8038 158.617 84.3078 162.968C82.9464 158.602 82.0447 154.1 81.6871 149.533ZM87.8943 230.662C90.1176 217.752 93.1476 203.254 103.821 194.727C106.222 192.808 109.791 191.19 112.43 193.596C114.765 195.725 114.95 199.139 114.137 201.996C113.19 205.321 111.183 208.366 109.291 211.226C107.456 214.001 105.442 216.652 103.262 219.165C98.8463 224.253 93.7948 228.747 88.2395 232.544C88.1216 231.917 88.0051 231.29 87.8943 230.662ZM77.6504 263.246C75.7943 262.528 73.9186 261.778 72.05 260.984C70.9235 260.505 69.7999 260.009 68.6849 259.493C64.7422 257.666 60.9097 255.583 57.4578 253.076C54.8046 251.15 52.262 248.229 52.6532 244.711C53.0189 241.421 56.3797 239.863 59.3681 239.96C61.076 240.015 62.7231 240.529 64.2973 241.257C65.397 241.766 66.4607 242.38 67.4846 243.02C68.2252 243.484 68.9457 243.959 69.6422 244.419C72.7695 246.479 75.7277 248.779 78.5588 251.228C84.9496 256.759 90.6741 263 96.3761 269.221C96.6288 269.497 96.9135 269.632 97.1958 269.664C97.2294 269.733 97.2639 269.802 97.2975 269.871C90.6938 267.829 84.0988 265.743 77.6504 263.246ZM116.263 227.46C118.113 224.87 121.318 220.998 124.971 221.807C128.989 222.696 129.381 227.785 128.862 231.053C127.677 238.533 123.95 245.485 119.378 251.431C114.328 257.997 108.087 263.522 101.798 268.881C102.605 254.064 107.628 239.549 116.263 227.46ZM83.3917 301.469C82.3625 301.294 81.3372 301.093 80.3152 300.867C78.578 300.483 76.8518 300.024 75.1405 299.478C71.5994 298.347 67.4755 296.986 65.0193 294.031C62.4451 290.934 62.9762 286.957 66.2517 284.618C68.8019 282.798 72.1507 282.319 75.3126 282.23C76.0436 282.209 76.765 282.21 77.4634 282.219C77.7453 282.223 78.0267 282.237 78.3081 282.247C81.9402 282.377 85.5296 283.011 89.0304 283.986C97.8986 286.455 106.044 290.92 114.043 295.371C114.206 295.461 114.367 295.516 114.524 295.543C116.159 297.341 117.864 299.077 119.635 300.746C107.667 302.242 95.299 303.493 83.3917 301.469ZM115.253 326.823C112.901 326.951 110.275 327.087 107.967 326.54C106.985 326.308 105.738 325.816 106.063 324.581C106.365 323.433 107.692 322.568 108.641 321.995C113.397 319.125 118.801 317.275 124.257 316.313C129.816 315.332 135.544 315.398 141.085 316.45C133.894 322.586 124.713 326.305 115.253 326.823Z" fill="#FAFAFA"/>
<path d="M288.187 35.8448C287.285 36.2614 286.393 36.6957 285.511 37.1458C282.855 38.5 280.295 40.0081 277.871 41.6978C268.008 48.5737 261.395 58.8531 260.445 70.9733C259.809 79.0893 262.008 87.1929 266.383 93.9476L260.09 109.509L258.973 112.272L255.098 121.855C255.098 121.855 259.975 119.82 266.049 117.28C267.079 116.85 268.143 116.405 269.224 115.952C275.094 113.495 281.451 110.83 285.42 109.15C285.56 109.197 285.699 109.246 285.84 109.293C292.281 111.434 298.94 112.963 305.655 113.942C319.065 115.896 332.787 115.667 346.096 113.064C346.227 113.038 346.358 113.01 346.488 112.984C347.524 112.777 348.559 112.555 349.59 112.315C350.536 112.094 351.479 111.857 352.418 111.607C362.559 108.908 372.283 104.461 380.266 97.5735C388.835 90.1808 395.257 79.9742 396.697 68.6249C398.092 57.6327 394.671 45.8136 386.451 38.152C377.703 29.9976 365.412 27.3395 353.886 26.0908C346.07 25.2442 338.181 25.1225 330.341 25.6915C324.551 26.1119 318.788 26.9071 313.101 28.0749C304.737 29.7929 296.108 32.1882 288.187 35.8448Z" fill="#DEE8E7"/>
<path d="M158.91 257.092C159.004 258.503 159.076 260.008 159.351 261.444L159.705 249.438L159.834 245.087C159.706 245.057 159.578 245.027 159.45 244.998C159.233 246.412 159.071 247.833 158.96 249.259C158.758 251.862 158.735 254.478 158.91 257.092Z" fill="#4AAF95"/>
<path d="M178.414 165.368C181.094 164.086 183.843 162.928 186.659 161.914C186.664 161.912 186.669 161.912 186.674 161.91C187.079 161.768 187.436 161.789 187.73 161.917C187.746 161.911 187.761 161.905 187.777 161.9C187.805 161.889 187.832 161.878 187.861 161.869C187.889 160.84 187.911 159.811 187.933 158.782C185.831 159.758 183.818 160.952 181.936 162.364C180.698 163.292 179.525 164.299 178.414 165.368Z" fill="#292929"/>
<path d="M219.476 135.826C218.325 136.961 216.958 137.886 215.356 138.525C215.005 138.665 214.652 138.784 214.296 138.895C214.316 139.031 214.334 139.167 214.353 139.302C214.817 142.614 215.28 145.925 215.744 149.236C215.939 150.631 216.134 152.026 216.329 153.421C216.452 154.3 216.575 155.178 216.698 156.056C218.931 157.018 221.038 158.21 223.001 159.601L223.006 159.602L223.005 159.604C225.082 161.076 226.998 162.771 228.728 164.66C230.136 165.32 231.526 166.016 232.902 166.738C232.982 166.682 233.058 166.62 233.138 166.562C233.921 165.994 234.665 165.369 235.368 164.694C235.811 164.267 236.241 163.828 236.647 163.36C243.875 155.026 243.394 142.234 235.56 134.435C232.086 130.976 227.423 128.571 224.262 124.794C224.026 126.435 223.686 128.051 223.182 129.607C222.409 131.996 221.183 134.143 219.476 135.826Z" fill="#292929"/>
<path d="M217.017 100.401C207.374 103.797 196.577 103.67 186.987 100.171C187.04 105.42 187.092 110.67 187.144 115.919C186.037 115.889 184.962 116.187 184.057 116.741C183.208 117.262 182.511 118.01 182.081 118.93C181.699 119.746 181.526 120.696 181.644 121.744C182.014 125.022 184.88 126.685 187.669 126.289C188.05 136.212 188.153 146.143 187.985 156.071C187.97 156.975 187.953 157.879 187.933 158.783C187.91 159.812 187.888 160.841 187.86 161.87C187.832 161.879 187.805 161.89 187.777 161.9C203.966 168.153 213.891 162.13 217.18 159.508C217.154 159.319 217.128 159.13 217.101 158.941C216.966 157.98 216.832 157.018 216.698 156.056C216.575 155.178 216.452 154.3 216.329 153.421C216.134 152.026 215.938 150.631 215.743 149.236C215.28 145.925 214.817 142.614 214.353 139.302C210.616 139.823 206.631 139.191 202.954 137.907C201.777 137.496 200.632 137.02 199.536 136.491C198.731 136.103 199.213 135.029 199.955 134.999C200.084 134.994 200.22 135.016 200.36 135.083C206.292 137.945 213.797 139.25 219.476 135.826C221.183 134.143 222.409 131.996 223.182 129.608C223.685 128.051 224.026 126.435 224.262 124.794C224.69 121.81 224.768 118.742 224.811 115.792C224.89 110.396 224.476 105.02 223.68 99.6841C223.641 99.4171 223.553 99.2004 223.433 99.0278C223.356 98.4679 223.279 97.9075 223.203 97.3477C223.034 97.4824 222.861 97.6137 222.681 97.7393C220.996 98.9243 218.916 99.732 217.017 100.401ZM186.85 120.072C186.793 120.11 186.747 120.153 186.696 120.195C186.051 120.728 185.942 121.586 186.383 122.319C186.756 122.939 186.206 123.52 185.65 123.531C185.397 123.536 185.144 123.422 184.974 123.142C184.789 122.834 184.66 122.514 184.581 122.19C184.287 120.984 184.708 119.733 185.697 118.911C185.801 118.824 185.91 118.741 186.026 118.664C186.907 118.086 187.724 119.499 186.85 120.072ZM197.085 108.721C196.999 108.559 196.965 108.384 196.967 108.209C196.948 108.039 196.977 107.862 197.062 107.703C197.434 107.002 198.227 106.294 199.068 106.314C199.602 106.327 200.084 106.677 200.157 107.222C200.227 107.747 199.885 108.154 199.532 108.5C199.21 108.813 198.832 109.141 198.39 109.264C197.884 109.404 197.333 109.187 197.085 108.721ZM201.39 115.764C201.32 116.346 201.242 117.068 200.677 117.397C200.131 117.716 199.493 117.483 199.097 117.046C198.269 116.132 198.207 114.598 198.59 113.457C198.611 113.282 198.666 113.102 198.779 112.915C199.094 112.391 199.739 112.09 200.335 112.263C201.63 112.639 201.512 114.734 201.39 115.764ZM208.796 113.544C208.833 113.363 208.954 113.206 209.113 113.098C209.451 112.508 210.459 112.402 210.585 113.22C210.846 114.921 211.155 116.624 211.369 118.332C211.475 119.176 211.298 120.199 210.277 120.317C207.657 120.619 208.525 114.878 208.796 113.544ZM214.187 126.2C213.507 129.147 209.776 129.679 208.126 127.251C207.534 126.38 208.947 125.565 209.534 126.428C210.446 127.771 212.272 127.254 212.614 125.767C212.851 124.743 214.422 125.179 214.187 126.2ZM218.695 115.817C218.303 116.255 217.633 116.33 217.159 115.987C216.282 115.353 216.243 113.913 216.387 112.775C216.358 111.863 216.599 110.958 217.57 110.941C218.911 110.918 219.106 113.051 219.128 114.014C219.143 114.618 219.12 115.343 218.695 115.817ZM218.596 106.943L217.034 106.396C216.617 106.25 216.341 105.842 216.465 105.393C216.501 105.259 216.582 105.136 216.684 105.036C216.766 104.831 216.934 104.658 217.201 104.567C218.198 104.227 219.391 104.902 219.599 105.939C219.712 106.502 219.225 107.163 218.596 106.943Z" fill="#FFA192"/>
<path d="M209.898 324.072L171.677 329.29L162.128 330.594C161.926 332.621 161.728 334.649 161.533 336.676C160.92 343.054 160.337 349.434 159.782 355.817H232.811H234.443H253.382C253.429 347.113 253.475 338.41 253.522 329.706C253.542 325.84 253.563 321.973 253.583 318.107L209.898 324.072Z" fill="#3A93AF"/>
<path d="M172.317 168.581C171.911 168.815 171.506 169.049 171.104 169.29C169.936 169.988 168.79 170.722 167.657 171.473C168.164 172.14 168.672 172.807 169.179 173.473C169.871 172.206 170.627 170.974 171.449 169.787C171.732 169.38 172.021 168.977 172.317 168.581Z" fill="#6DB0C5"/>
<path d="M235.009 180.487C234.505 178.945 233.924 177.428 233.248 175.946C233.002 175.406 232.744 174.87 232.473 174.34C223.045 185.627 213.205 196.566 202.965 207.126C193.616 196.691 184.84 185.76 176.675 174.381C175.756 173.098 174.842 171.811 173.938 170.518C173.599 170.986 173.269 171.462 172.951 171.946C172.172 173.133 171.463 174.364 170.82 175.629C180.962 188.937 191.23 202.148 201.635 215.251C212.76 203.663 223.885 192.075 235.009 180.487Z" fill="#6DB0C5"/>
<path d="M238.198 291.275C238.091 293.705 237.921 296.133 237.686 298.558C237.644 298.996 237.343 299.375 236.871 299.373C219.217 299.31 201.563 299.247 183.909 299.184C183.572 299.183 183.189 298.934 183.123 298.586C182.583 295.763 182.23 292.921 182.062 290.062C180.927 290.34 179.785 290.601 178.639 290.84C176.009 291.391 173.318 291.851 170.603 292.167C169.632 292.279 168.658 292.373 167.683 292.445C165.228 292.626 162.766 292.668 160.321 292.528C159.692 292.492 159.064 292.448 158.437 292.387L158.437 292.404L158.139 292.356L157.944 300.432L157.505 318.631L157.434 321.565L157.4 322.976V324.956C158.577 324.836 159.754 324.714 160.931 324.592C161.965 324.485 162.999 324.377 164.033 324.268C166.406 324.019 168.779 323.764 171.152 323.505C172.819 323.324 174.485 323.14 176.151 322.953C177.284 322.827 178.416 322.701 179.548 322.572C206.039 319.554 232.461 315.944 258.796 311.772V302.477H258.795C258.793 298.29 258.761 294.102 258.699 289.916C257.748 290.111 256.791 290.282 255.832 290.43C249.987 291.337 244.072 291.61 238.198 291.275Z" fill="#A5D7E7"/>
<path d="M194.335 322.445C189.27 323.063 184.204 323.666 179.134 324.242C173.935 324.833 168.733 325.396 163.529 325.943C162.491 326.053 161.452 326.162 160.414 326.269C159.409 326.373 158.405 326.482 157.4 326.585V327.37C157.388 327.416 157.377 327.463 157.368 327.51L157.4 328.338V331.241L158.863 331.041L162.038 330.607L162.128 330.595L171.677 329.292L209.898 324.073L253.584 318.108L258.795 317.396V313.42C253.056 314.328 247.313 315.212 241.565 316.066C225.851 318.4 210.105 320.52 194.335 322.445Z" fill="#6DB0C5"/>
<path d="M228.728 164.66C229.632 165.646 230.486 166.684 231.286 167.771C232.234 169.057 233.107 170.41 233.898 171.822C233.989 171.983 234.074 172.145 234.163 172.307C235.004 171.29 235.843 170.269 236.678 169.246C236.755 169.151 236.834 169.057 236.912 168.962C236.121 168.5 235.323 168.053 234.521 167.612C233.984 167.317 233.445 167.023 232.902 166.738C231.526 166.015 230.136 165.319 228.728 164.66Z" fill="#F47D9A"/>
<path d="M256.014 257.229C254.76 262.859 250.71 268.112 244.801 268.91C239.026 271.434 233.009 273.433 227.097 275.581C220.168 278.099 213.239 280.616 206.31 283.134C215.82 287.647 226.114 290.371 236.568 291.168C237.111 291.209 237.654 291.245 238.198 291.276C244.072 291.611 249.987 291.338 255.831 290.431C256.79 290.282 257.747 290.111 258.698 289.916C265.713 288.479 272.398 285.69 277.131 280.057C281.748 274.562 284.187 267.502 284.801 260.409C285.425 253.202 284.176 246.038 282.209 239.093C276.314 240.92 260.459 245.831 256.177 247.132C256.669 250.489 256.762 253.875 256.014 257.229Z" fill="#FFA192"/>
<path d="M235.245 260.706C233.608 260.017 231.887 259.51 230.115 259.209C227.198 258.713 224.209 258.741 221.315 259.378C218.068 260.094 215.167 261.701 212.302 263.33C212.214 263.38 212.126 263.429 212.039 263.479C211.007 264.063 209.974 264.627 208.925 265.138C206.574 266.283 204.14 267.158 201.438 267.361C197.31 267.671 193.22 266.816 189.192 266.019C186.517 265.49 183.846 265.024 181.145 264.767C180.6 264.715 180.053 264.673 179.505 264.64C178.801 264.598 178.096 264.566 177.387 264.56C175.224 264.541 173.133 264.752 171.047 265.04C170.102 265.171 169.157 265.317 168.208 265.465C167.33 265.602 166.448 265.741 165.557 265.87C163.189 266.213 160.848 265.863 159.883 263.376C159.644 262.759 159.478 262.109 159.351 261.444C159.076 260.009 159.004 258.503 158.91 257.092C158.735 254.478 158.758 251.862 158.96 249.259L132.096 242.789C130.886 248.642 129.929 254.622 130.033 260.561C130.057 261.949 130.141 263.334 130.291 264.715C130.524 266.85 130.918 268.973 131.514 271.079C132.435 274.325 133.817 277.312 135.617 279.958C136.203 280.818 136.832 281.643 137.505 282.428C139.418 284.656 141.679 286.566 144.258 288.092C145.077 288.577 145.928 289.022 146.81 289.427C147.711 289.841 148.642 290.214 149.607 290.54C152.128 291.39 154.718 291.947 157.342 292.267C157.707 292.312 158.071 292.352 158.437 292.388C159.063 292.448 159.692 292.493 160.321 292.529C162.766 292.669 165.228 292.627 167.682 292.446C168.658 292.374 169.631 292.28 170.602 292.167C173.317 291.852 176.009 291.391 178.639 290.841C179.785 290.601 180.926 290.341 182.062 290.063C182.599 289.932 183.136 289.796 183.671 289.657C189.981 288.013 196.145 285.843 202.25 283.537C202.229 283.191 202.391 282.828 202.801 282.679C210.551 279.863 218.302 277.047 226.052 274.231C229.306 273.049 232.595 271.916 235.859 270.718C236.288 270.561 236.715 270.402 237.143 270.243C239.518 269.355 241.875 268.425 244.191 267.408C242.44 265.244 240.311 263.437 237.933 262.051C237.593 261.853 237.248 261.664 236.898 261.483C236.358 261.204 235.807 260.942 235.245 260.706Z" fill="#FFA192"/>
<path d="M234.162 172.307C234.444 172.825 234.714 173.347 234.972 173.873C235.713 175.382 236.359 176.925 236.923 178.494C238.601 176.745 240.28 174.997 241.959 173.248C242.18 173.018 242.401 172.787 242.622 172.557C241.214 171.602 239.782 170.679 238.324 169.795C238.287 169.772 238.25 169.749 238.213 169.726C237.782 169.466 237.346 169.216 236.911 168.962C236.833 169.057 236.755 169.152 236.677 169.247C235.842 170.269 235.005 171.29 234.162 172.307Z" fill="#6DB0C5"/>
<path d="M237.51 180.236C239.903 187.807 240.436 195.934 239.952 203.876C239.996 203.881 240.038 203.881 240.082 203.887C243.119 204.297 245.077 206.827 246.281 209.44C247.765 212.662 248.778 216.15 249.296 219.656C249.521 221.175 250.111 223.495 249.462 224.954C249.285 225.352 249.008 225.672 248.675 225.906C248.851 229.934 248.399 233.951 247.333 237.857C248.265 239.521 247.151 241.859 245.126 241.816C244.101 241.795 243.13 241.179 242.62 240.336C242.05 239.48 241.93 238.355 242.558 237.392C243.18 236.439 244.221 236.157 245.203 236.351C246.039 233.001 246.392 229.552 246.248 226.114C244.753 225.439 244.542 223.814 244.279 222.359C243.973 220.663 243.561 218.986 243.046 217.341C242.468 215.494 239.778 207.145 237.063 211.298C235.342 213.93 234.724 217.812 234.433 220.879C234.242 222.892 234.562 226.075 232.806 227.229C232.928 228.823 233.17 230.404 233.516 231.964L237.663 231.97L237.931 262.051C240.31 263.437 242.439 265.243 244.19 267.407C244.363 267.622 244.537 267.836 244.703 268.058C244.883 268.297 244.84 268.669 244.67 268.929C244.713 268.923 244.756 268.915 244.799 268.909C250.707 268.111 254.758 262.858 256.012 257.229C256.76 253.874 256.668 250.488 256.175 247.132C255.909 245.317 255.527 243.51 255.095 241.723L280.353 233.135L281.763 232.655L283.779 231.97L283.731 230.184C283.797 229.934 283.798 229.651 283.709 229.338C283.705 229.323 283.699 229.308 283.695 229.292C274.032 232.675 264.368 236.058 254.705 239.44C253.71 239.788 253.287 238.213 254.271 237.868C263.923 234.489 273.576 231.11 283.228 227.732C278.575 212.459 270.389 198.479 259.521 186.964C254.818 181.982 249.617 177.458 243.978 173.497C243.739 173.745 243.501 173.993 243.263 174.241C241.347 176.239 239.429 178.238 237.51 180.236Z" fill="#A5D7E7"/>
<path d="M205.047 282.472C204.116 282.829 203.183 283.184 202.25 283.537C196.145 285.843 189.982 288.014 183.672 289.657C183.136 289.796 182.6 289.932 182.062 290.063C182.23 292.921 182.583 295.764 183.123 298.587C183.189 298.935 183.572 299.184 183.909 299.186C201.563 299.248 219.217 299.312 236.871 299.374C237.343 299.376 237.644 298.998 237.686 298.559C237.921 296.134 238.091 293.706 238.198 291.277C237.654 291.245 237.111 291.209 236.568 291.168C226.114 290.372 215.819 287.647 206.31 283.135C205.963 282.97 205.616 282.806 205.272 282.637C205.179 282.59 205.107 282.533 205.047 282.472Z" fill="white"/>
<path d="M235.86 270.718C232.595 271.916 229.306 273.048 226.053 274.231C218.302 277.047 210.552 279.863 202.802 282.679C202.391 282.828 202.23 283.191 202.25 283.536C203.184 283.184 204.116 282.829 205.047 282.471C205.107 282.533 205.179 282.59 205.272 282.636C205.617 282.805 205.964 282.969 206.31 283.134C213.239 280.616 220.168 278.098 227.098 275.581C233.01 273.433 239.026 271.434 244.801 268.91C244.758 268.915 244.715 268.923 244.672 268.929C244.842 268.669 244.885 268.297 244.705 268.058C244.54 267.836 244.366 267.622 244.192 267.407C241.875 268.424 239.518 269.355 237.144 270.242C236.716 270.402 236.288 270.56 235.86 270.718Z" fill="#F97070"/>
<path d="M186.027 118.664C185.91 118.74 185.802 118.824 185.698 118.91C184.709 119.733 184.287 120.984 184.582 122.19C184.661 122.513 184.79 122.834 184.975 123.142C185.144 123.422 185.397 123.535 185.65 123.531C186.206 123.52 186.756 122.939 186.383 122.319C185.942 121.586 186.051 120.728 186.697 120.195C186.747 120.153 186.793 120.109 186.85 120.072C187.724 119.499 186.907 118.086 186.027 118.664Z" fill="#F97070"/>
<path d="M200.335 112.263C199.739 112.09 199.094 112.392 198.779 112.915C198.666 113.103 198.612 113.281 198.59 113.456C198.207 114.598 198.269 116.132 199.097 117.046C199.493 117.483 200.13 117.716 200.677 117.397C201.241 117.068 201.32 116.347 201.39 115.764C201.512 114.734 201.63 112.639 200.335 112.263Z" fill="#292929"/>
<path d="M217.57 110.941C216.599 110.958 216.358 111.863 216.387 112.775C216.243 113.913 216.283 115.353 217.159 115.987C217.633 116.33 218.304 116.254 218.695 115.817C219.12 115.342 219.143 114.617 219.129 114.014C219.106 113.05 218.911 110.918 217.57 110.941Z" fill="#292929"/>
<path d="M217.201 104.568C216.934 104.659 216.766 104.832 216.684 105.036C216.582 105.137 216.502 105.258 216.465 105.393C216.341 105.843 216.617 106.25 217.034 106.396L218.596 106.943C219.225 107.163 219.712 106.503 219.599 105.94C219.391 104.903 218.198 104.228 217.201 104.568Z" fill="#292929"/>
<path d="M199.532 108.499C199.885 108.154 200.227 107.747 200.157 107.221C200.084 106.677 199.602 106.326 199.068 106.314C198.227 106.294 197.434 107.002 197.062 107.703C196.978 107.862 196.948 108.039 196.967 108.209C196.965 108.384 196.999 108.559 197.085 108.721C197.332 109.187 197.884 109.404 198.389 109.263C198.832 109.141 199.21 108.813 199.532 108.499Z" fill="#292929"/>
<path d="M210.278 120.317C211.298 120.199 211.476 119.176 211.37 118.332C211.156 116.623 210.847 114.921 210.585 113.219C210.46 112.4 209.451 112.507 209.114 113.097C208.954 113.206 208.833 113.362 208.796 113.544C208.525 114.877 207.657 120.619 210.278 120.317Z" fill="#F97070"/>
<path d="M212.615 125.767C212.272 127.253 210.446 127.77 209.534 126.428C208.947 125.565 207.534 126.38 208.126 127.251C209.776 129.679 213.508 129.147 214.187 126.2C214.422 125.178 212.85 124.743 212.615 125.767Z" fill="#292929"/>
<path d="M215.355 138.524C216.958 137.886 218.325 136.96 219.476 135.826C213.797 139.251 206.291 137.944 200.359 135.083C200.22 135.016 200.084 134.994 199.955 134.999C199.213 135.029 198.73 136.103 199.536 136.491C200.631 137.019 201.777 137.496 202.953 137.907C206.632 139.191 210.616 139.824 214.353 139.302C214.333 139.166 214.315 139.03 214.296 138.895C214.651 138.784 215.005 138.664 215.355 138.524Z" fill="#F97070"/>
<path d="M171.136 218.13C170.682 218.623 170.054 218.935 169.394 219.042C169.223 219.125 169.021 219.172 168.783 219.155C167.328 219.053 166.098 217.933 165.894 216.48C165.783 215.691 166.024 214.939 166.483 214.345C166.281 213.312 166.085 212.274 165.896 211.23C165.815 211.274 165.733 211.316 165.656 211.365C164.273 212.231 163.172 213.314 162.647 214.906C162.277 216.03 162.25 217.46 162.614 218.675C162.838 219.707 163.289 220.685 164.044 221.443C164.445 221.782 164.847 222.122 165.248 222.46C166.16 223.046 167.157 223.373 168.239 223.441C169.308 223.607 169.909 223.346 170.802 223.025C172.112 222.555 173.153 221.792 173.928 220.603C174.83 219.216 175.229 217.349 174.816 215.719C174.386 214.023 173.463 212.65 172.035 211.638C171.025 210.923 169.619 210.57 168.267 210.624C168.419 211.461 168.576 212.294 168.736 213.125C171.214 212.967 172.94 216.173 171.136 218.13Z" fill="#6DB0C5"/>
<path d="M221.751 161.698C221.949 161.839 222.142 161.988 222.337 162.133C222.487 162.246 222.64 162.354 222.789 162.469C223.398 162.939 223.991 163.431 224.568 163.944C226.225 165.419 227.742 167.067 229.094 168.873C229.459 169.361 229.812 169.859 230.152 170.37C231.011 171.658 231.782 172.983 232.474 174.339C232.745 174.871 233.002 175.407 233.249 175.946C233.925 177.428 234.505 178.945 235.01 180.487C235.204 181.078 235.386 181.673 235.557 182.271C237.557 189.312 237.961 196.829 237.485 204.162C238.251 203.891 239.078 203.777 239.954 203.875C240.437 195.934 239.904 187.807 237.512 180.235C237.327 179.651 237.131 179.07 236.924 178.494C236.361 176.924 235.715 175.381 234.974 173.873C234.716 173.346 234.445 172.825 234.164 172.307C234.076 172.145 233.99 171.982 233.9 171.822C233.108 170.41 232.235 169.057 231.288 167.771C230.488 166.684 229.634 165.646 228.729 164.66C226.999 162.772 225.083 161.076 223.006 159.604C223.005 159.602 223.003 159.602 223.002 159.601C221.039 158.209 218.932 157.018 216.699 156.056C216.834 157.018 216.968 157.979 217.103 158.941C217.262 159.019 217.418 159.103 217.577 159.184C219.028 159.919 220.425 160.756 221.751 161.698Z" fill="white"/>
<path d="M172.46 168.392C172.413 168.455 172.365 168.518 172.318 168.582C172.383 168.544 172.448 168.506 172.514 168.469C172.496 168.443 172.478 168.417 172.46 168.392Z" fill="#D6D4D1"/>
<path d="M246.356 226.164C246.318 226.148 246.285 226.13 246.249 226.114C246.393 229.552 246.04 233.001 245.204 236.351C246.046 236.517 246.846 237.033 247.3 237.79C247.313 237.812 247.322 237.835 247.334 237.857C248.4 233.951 248.852 229.935 248.676 225.906C248.022 226.363 247.148 226.483 246.356 226.164Z" fill="white"/>
<path d="M230.949 227.662C230.737 227.653 230.549 227.61 230.383 227.543C230.506 229.029 230.725 230.503 231.027 231.96L216.557 231.939C216.807 233.214 215.937 233.998 214.581 234.47C214.531 234.508 214.47 234.537 214.395 234.549C214.361 234.555 214.326 234.559 214.291 234.565C212.887 234.991 211.052 235.125 209.399 235.14C207.523 235.279 205.641 235.326 203.755 235.268C201.934 235.212 200.044 235.142 198.247 234.812C197.425 234.66 196.475 234.375 196.161 233.5C195.977 232.986 195.979 232.541 196.128 232.155C196.161 232.07 196.203 231.988 196.25 231.909L178.205 231.881L178.663 243.42C178.673 250.501 178.951 257.579 179.505 264.641C180.053 264.674 180.6 264.716 181.145 264.768C183.846 265.024 186.517 265.49 189.192 266.019C193.219 266.816 197.31 267.671 201.438 267.361C204.14 267.158 206.574 266.283 208.925 265.138C200.93 265.196 192.935 265.123 184.942 264.911C183.894 264.883 183.893 263.252 184.942 263.281C193.973 263.52 203.007 263.584 212.039 263.479C212.126 263.429 212.214 263.38 212.302 263.331C215.167 261.702 218.068 260.094 221.315 259.379C224.209 258.741 227.198 258.713 230.115 259.21C231.887 259.511 233.608 260.017 235.245 260.706C235.807 260.942 236.358 261.204 236.899 261.484C237.248 261.664 237.593 261.854 237.933 262.052L237.665 231.971L233.517 231.965C233.172 230.405 232.93 228.824 232.808 227.23C232.346 227.532 231.744 227.697 230.949 227.662ZM184.179 245.095C199.216 245.495 214.262 245.415 229.294 244.858C230.345 244.819 230.34 246.449 229.294 246.488C214.262 247.046 199.216 247.125 184.179 246.726C183.13 246.698 183.129 245.067 184.179 245.095ZM230.057 255.76C215.025 256.317 199.979 256.396 184.942 255.997C183.893 255.969 183.892 254.338 184.942 254.366C199.979 254.765 215.025 254.686 230.057 254.129C231.108 254.09 231.103 255.72 230.057 255.76Z" fill="white"/>
<path d="M245.204 236.351C244.222 236.157 243.181 236.439 242.559 237.392C241.93 238.355 242.05 239.479 242.621 240.336C243.13 241.179 244.102 241.795 245.126 241.816C247.151 241.858 248.265 239.521 247.334 237.857C247.321 237.835 247.313 237.811 247.3 237.79C246.846 237.032 246.046 236.517 245.204 236.351Z" fill="#6DB0C5"/>
<path d="M237.483 204.163C235.492 204.867 233.904 206.628 232.925 208.518C231.636 211.007 226.554 223.162 229.516 226.492C229.622 226.947 229.908 227.35 230.383 227.543C230.549 227.61 230.737 227.653 230.949 227.662C231.744 227.697 232.347 227.532 232.808 227.228C234.564 226.074 234.244 222.892 234.435 220.879C234.726 217.811 235.344 213.93 237.065 211.297C239.78 207.144 242.47 215.494 243.048 217.34C243.563 218.985 243.975 220.663 244.281 222.359C244.544 223.813 244.754 225.438 246.25 226.113C246.286 226.129 246.319 226.148 246.357 226.163C247.148 226.482 248.023 226.362 248.677 225.904C249.01 225.671 249.287 225.351 249.464 224.953C250.113 223.494 249.522 221.174 249.298 219.655C248.78 216.148 247.767 212.661 246.283 209.439C245.079 206.826 243.121 204.297 240.084 203.885C240.04 203.88 239.997 203.88 239.954 203.875C239.077 203.778 238.25 203.892 237.483 204.163Z" fill="#6DB0C5"/>
<path d="M223.007 159.602L223 159.601L223.006 159.604L223.007 159.602Z" fill="#FF82A6"/>
<path d="M218.682 160.568C219.711 160.927 220.733 161.308 221.751 161.699C220.425 160.756 219.028 159.92 217.576 159.184C217.417 159.103 217.261 159.019 217.102 158.941C217.128 159.13 217.154 159.319 217.181 159.508C217.238 159.915 217.295 160.323 217.352 160.731C217.69 160.479 218.142 160.379 218.682 160.568Z" fill="#292929"/>
<path d="M187.77 161.931C188.021 161.979 188.273 162.087 188.51 162.27C196.972 168.829 209.076 168.257 216.984 161.125C217.083 160.97 217.208 160.839 217.352 160.731C217.295 160.323 217.237 159.915 217.18 159.507C213.892 162.13 203.966 168.152 187.777 161.9C187.761 161.906 187.746 161.911 187.73 161.917C187.743 161.922 187.757 161.925 187.77 161.931Z" fill="#F97070"/>
<path d="M202.965 207.126C213.205 196.566 223.045 185.627 232.473 174.34C231.781 172.984 231.01 171.658 230.151 170.37C229.811 169.86 229.458 169.362 229.093 168.874C227.742 167.067 226.224 165.419 224.567 163.944C223.991 163.431 223.397 162.94 222.788 162.469C222.639 162.354 222.486 162.246 222.336 162.133C222.141 161.987 221.949 161.839 221.751 161.698C220.732 161.308 219.71 160.928 218.681 160.568C218.141 160.379 217.689 160.478 217.351 160.731C217.208 160.838 217.083 160.97 216.984 161.125C209.076 168.258 196.971 168.829 188.509 162.27C188.272 162.087 188.021 161.979 187.769 161.931C187.757 161.925 187.742 161.922 187.73 161.917C187.435 161.79 187.079 161.768 186.673 161.91C186.669 161.912 186.664 161.912 186.659 161.914C183.843 162.928 181.094 164.086 178.414 165.368C176.77 166.949 175.271 168.674 173.937 170.518C174.842 171.812 175.755 173.099 176.675 174.381C184.84 185.76 193.616 196.692 202.965 207.126Z" fill="#F47D9A"/>
<path d="M201.635 215.252C191.23 202.148 180.962 188.937 170.82 175.63C170.703 175.859 170.584 176.087 170.473 176.319C170.321 176.633 170.174 176.949 170.031 177.267C180.226 190.632 190.545 203.903 201.003 217.064C201.273 217.405 201.878 217.354 202.156 217.064C213.29 205.467 224.423 193.87 235.556 182.272C235.386 181.673 235.204 181.078 235.01 180.487C223.885 192.075 212.76 203.663 201.635 215.252Z" fill="#3A93AF"/>
<path d="M168.476 105.191C167.149 111.397 167.498 117.49 168.105 123.748C168.386 126.645 168.573 129.829 166.91 132.375C165.456 134.601 162.969 135.94 160.862 137.453C156.452 140.622 153.166 145.046 151.74 150.324C150.257 155.809 151.002 161.741 153.634 166.76C155.505 170.328 158.505 173.646 162.224 175.358C163.556 174.326 164.92 173.333 166.31 172.375C166.991 173.273 167.674 174.168 168.356 175.065C168.618 174.528 168.893 173.998 169.179 173.474C168.672 172.807 168.164 172.14 167.657 171.473C168.79 170.722 169.935 169.989 171.104 169.29C171.506 169.05 171.912 168.815 172.318 168.581C172.365 168.518 172.412 168.454 172.46 168.391C175.64 164.188 179.63 160.6 184.198 157.961C185.425 157.252 186.691 156.623 187.986 156.071C188.153 146.143 188.05 136.212 187.67 126.289C184.88 126.684 182.014 125.021 181.645 121.744C181.527 120.696 181.7 119.746 182.081 118.93C182.512 118.009 183.209 117.261 184.058 116.741C184.962 116.186 186.037 115.889 187.145 115.919C187.092 110.669 187.04 105.42 186.987 100.17C196.577 103.67 207.374 103.796 217.017 100.4C218.916 99.7318 220.996 98.924 222.681 97.7391C222.86 97.613 223.033 97.4821 223.203 97.3474C224.834 96.0503 225.988 94.3318 226.045 91.9345C226.101 89.5732 225.173 87.6294 223.778 85.9856C223.164 84.9598 222.376 84.0207 221.446 83.236C217.076 79.5459 210.884 77.9333 205.293 77.4784C193.964 76.5571 182.684 81.4331 175.56 90.2769C173.951 92.2748 172.577 94.4286 171.444 96.7017C170.903 97.788 170.416 98.9015 169.987 100.039C169.359 101.709 168.852 103.43 168.476 105.191Z" fill="#292929"/>
<path d="M236.922 178.494C237.13 179.071 237.326 179.652 237.51 180.236C239.429 178.237 241.347 176.239 243.265 174.241C243.504 173.992 243.742 173.744 243.98 173.497C243.53 173.18 243.077 172.866 242.622 172.557C242.401 172.787 242.18 173.018 241.959 173.248C240.28 174.997 238.601 176.745 236.922 178.494Z" fill="#3A93AF"/>
<path d="M166.563 179.32C162.929 189.604 163.986 200.657 165.896 211.23C166.085 212.273 166.281 213.312 166.483 214.345C166.024 214.939 165.783 215.692 165.894 216.48C166.098 217.933 167.328 219.053 168.783 219.156C169.021 219.172 169.223 219.125 169.394 219.042C170.054 218.935 170.682 218.624 171.136 218.13C172.94 216.173 171.214 212.967 168.737 213.127C168.576 212.296 168.419 211.462 168.267 210.626C166.682 201.9 165.681 192.891 167.694 184.191C168.246 181.806 169.033 179.488 170.031 177.267C170.174 176.949 170.321 176.633 170.472 176.319C170.584 176.087 170.703 175.859 170.819 175.63C171.463 174.364 172.172 173.133 172.951 171.947C173.269 171.463 173.598 170.987 173.938 170.518C175.271 168.674 176.771 166.95 178.414 165.368C179.525 164.3 180.698 163.293 181.936 162.365C183.818 160.954 185.831 159.759 187.933 158.784C187.953 157.879 187.97 156.976 187.986 156.072C186.692 156.624 185.426 157.252 184.198 157.962C179.631 160.601 175.64 164.189 172.46 168.392C172.478 168.418 172.496 168.443 172.514 168.469C172.449 168.506 172.383 168.544 172.318 168.582C172.021 168.979 171.732 169.381 171.45 169.788C170.628 170.975 169.871 172.207 169.18 173.474C168.893 173.999 168.619 174.529 168.356 175.065C168.112 175.564 167.876 176.067 167.652 176.575C167.256 177.476 166.892 178.391 166.563 179.32Z" fill="white"/>
<path d="M254.707 239.441C264.371 236.058 274.034 232.676 283.697 229.293C283.547 228.771 283.388 228.252 283.23 227.732C273.578 231.111 263.926 234.49 254.274 237.868C253.29 238.213 253.713 239.789 254.707 239.441Z" fill="#3A93AF"/>
<path d="M176.151 322.954C174.485 323.14 172.819 323.324 171.152 323.506C168.78 323.765 166.407 324.019 164.033 324.269C162.999 324.378 161.965 324.485 160.931 324.592C159.754 324.714 158.577 324.836 157.4 324.956V326.584C158.405 326.482 159.409 326.372 160.414 326.268C161.452 326.161 162.491 326.052 163.529 325.942C168.733 325.395 173.935 324.832 179.134 324.241C184.204 323.665 189.27 323.062 194.334 322.444C210.104 320.52 225.851 318.399 241.566 316.065C247.313 315.211 253.056 314.327 258.796 313.419V311.771C232.461 315.944 206.04 319.554 179.548 322.572C178.415 322.701 177.283 322.827 176.151 322.954Z" fill="#3A93AF"/>
<path d="M208.619 229.863C208.454 229.032 208.29 228.21 207.738 227.575C206.581 226.242 204.704 227.007 204.272 228.542C204.157 228.95 204.131 229.375 204.08 229.796C205.723 229.753 207.337 229.801 208.619 229.863Z" fill="#9EBFFF"/>
<path d="M196.161 233.499C196.475 234.374 197.425 234.66 198.247 234.811C200.044 235.141 201.933 235.211 203.755 235.267C205.641 235.325 207.524 235.279 209.399 235.139C211.052 235.124 212.886 234.99 214.291 234.564C214.326 234.559 214.361 234.554 214.395 234.549C214.47 234.537 214.531 234.508 214.581 234.469C215.937 233.996 216.808 233.213 216.557 231.938C216.541 231.857 216.521 231.774 216.496 231.688C216.438 231.49 216.357 231.314 216.263 231.155C215.536 229.932 213.836 229.802 212.519 229.795C211.745 229.79 210.971 229.801 210.196 229.821C209.914 228.857 209.754 227.763 209.52 227.302C208.916 226.11 207.739 225.315 206.393 225.25C205.154 225.191 203.966 225.825 203.267 226.836C202.707 227.645 202.707 228.926 202.377 229.876C199.575 230.075 197.011 230.623 196.25 231.908C196.203 231.987 196.161 232.069 196.128 232.155C195.979 232.54 195.977 232.985 196.161 233.499ZM212.798 231.933C213.001 231.463 213.51 231.124 214.111 231.396C214.386 231.52 214.549 231.716 214.627 231.936C214.887 232.66 214.187 233.649 213.277 233.237C212.692 232.972 212.6 232.39 212.798 231.933ZM204.272 228.542C204.705 227.007 206.581 226.242 207.738 227.575C208.29 228.21 208.455 229.033 208.619 229.863C207.337 229.801 205.723 229.753 204.08 229.796C204.131 229.375 204.157 228.951 204.272 228.542ZM198.538 231.911C198.794 231.609 199.204 231.449 199.671 231.66C199.818 231.727 199.934 231.814 200.022 231.913C200.645 232.617 199.875 233.971 198.838 233.501C198.119 233.176 198.145 232.375 198.538 231.911Z" fill="#F6CD60"/>
<path d="M213.277 233.237C214.187 233.649 214.887 232.66 214.627 231.935C214.548 231.716 214.386 231.52 214.111 231.396C213.51 231.124 213.001 231.463 212.798 231.933C212.6 232.39 212.692 232.972 213.277 233.237Z" fill="#292929"/>
<path d="M198.838 233.502C199.876 233.971 200.645 232.617 200.022 231.913C199.934 231.814 199.819 231.727 199.672 231.661C199.205 231.449 198.795 231.61 198.539 231.912C198.145 232.375 198.119 233.176 198.838 233.502Z" fill="#292929"/>
<path d="M229.294 246.488C230.34 246.449 230.345 244.818 229.294 244.858C214.262 245.415 199.216 245.494 184.179 245.095C183.129 245.067 183.13 246.697 184.179 246.726C199.216 247.125 214.262 247.046 229.294 246.488Z" fill="#3A93AF"/>
<path d="M230.057 254.129C215.025 254.686 199.979 254.765 184.942 254.366C183.892 254.338 183.893 255.968 184.942 255.997C199.979 256.396 215.025 256.317 230.057 255.759C231.103 255.72 231.108 254.09 230.057 254.129Z" fill="#3A93AF"/>
<path d="M184.942 263.28C183.892 263.252 183.893 264.883 184.942 264.91C192.935 265.123 200.93 265.196 208.924 265.138C209.974 264.627 211.006 264.062 212.038 263.479C203.006 263.584 193.973 263.52 184.942 263.28Z" fill="#3A93AF"/>
<path d="M256.177 247.132C260.458 245.832 276.313 240.921 282.209 239.094C281.641 237.088 281.016 235.1 280.355 233.135L255.097 241.723C255.53 243.511 255.911 245.317 256.177 247.132Z" fill="#F97070"/>
<path d="M131.226 233.985C140.712 236.592 150.197 239.199 159.683 241.806C160.568 242.049 160.349 243.282 159.603 243.402C159.495 243.419 159.377 243.413 159.25 243.378C158.899 243.282 158.547 243.185 158.195 243.088C149.079 240.583 139.963 238.078 130.847 235.572C130.023 235.346 129.198 235.119 128.374 234.892C128.342 235.155 128.308 235.418 128.277 235.681C127.847 236.525 128.053 237.692 129.237 237.968C129.516 238.033 129.796 238.098 130.075 238.163C130.55 238.273 131.025 238.384 131.5 238.495C131.983 238.607 132.466 238.719 132.949 238.832C141.782 240.887 150.617 242.943 159.45 244.998C159.578 245.027 159.706 245.057 159.834 245.087L159.705 249.438L159.351 261.444C159.478 262.108 159.644 262.759 159.883 263.376C160.848 265.862 163.188 266.213 165.556 265.87C166.447 265.741 167.33 265.602 168.208 265.465C169.157 265.317 170.101 265.171 171.047 265.04C173.132 264.753 175.224 264.541 177.387 264.56C178.096 264.566 178.801 264.598 179.505 264.64C178.951 257.578 178.673 250.5 178.663 243.42L178.205 231.88L196.249 231.908C197.011 230.623 199.575 230.075 202.377 229.876C202.706 228.926 202.707 227.645 203.267 226.836C203.966 225.825 205.153 225.191 206.393 225.25C207.74 225.315 208.915 226.11 209.519 227.302C209.753 227.763 209.913 228.857 210.196 229.821C210.97 229.801 211.745 229.79 212.519 229.795C213.836 229.802 215.535 229.933 216.263 231.155C216.358 231.314 216.438 231.49 216.496 231.688C216.521 231.774 216.541 231.856 216.557 231.938L231.026 231.96C230.724 230.502 230.505 229.027 230.383 227.542C229.908 227.349 229.622 226.946 229.516 226.491C226.554 223.161 231.636 211.006 232.925 208.517C233.904 206.627 235.492 204.866 237.483 204.162C237.961 196.829 237.556 189.312 235.555 182.271C224.422 193.869 213.288 205.466 202.155 217.063C201.877 217.353 201.273 217.404 201.002 217.063C190.544 203.903 180.225 190.632 170.03 177.266C169.032 179.487 168.246 181.805 167.694 184.19C165.681 192.891 166.681 201.899 168.267 210.625C169.619 210.57 171.025 210.924 172.034 211.639C173.462 212.651 174.386 214.024 174.816 215.72C175.228 217.35 174.83 219.217 173.927 220.604C173.154 221.793 172.113 222.556 170.802 223.026C169.908 223.347 169.308 223.608 168.239 223.442C167.157 223.374 166.16 223.047 165.248 222.461C164.846 222.122 164.445 221.783 164.044 221.444C163.289 220.686 162.837 219.708 162.614 218.676C162.25 217.461 162.277 216.03 162.647 214.907C163.172 213.315 164.273 212.232 165.656 211.366C165.733 211.317 165.815 211.275 165.896 211.231C163.986 200.657 162.929 189.605 166.563 179.32C166.891 178.392 167.256 177.477 167.652 176.576C167.876 176.068 168.112 175.565 168.356 175.066C167.674 174.169 166.991 173.274 166.31 172.376C164.92 173.334 163.556 174.327 162.224 175.359C155.039 180.926 148.72 187.565 143.522 195.04C142.933 195.886 142.359 196.743 141.799 197.611C138.503 202.72 135.719 208.19 133.521 213.951C132.39 216.916 131.432 219.935 130.636 222.995C129.758 226.372 129.078 229.799 128.589 233.261C129.468 233.502 130.347 233.743 131.226 233.985Z" fill="#A5D7E7"/>
<path d="M158.96 249.259C159.071 247.833 159.233 246.412 159.45 244.998C150.616 242.942 141.782 240.887 132.948 238.832C132.657 240.143 132.37 241.463 132.096 242.789L158.96 249.259Z" fill="#F97070"/>
<path d="M158.194 243.088C158.546 243.185 158.898 243.281 159.249 243.378C159.377 243.413 159.495 243.419 159.602 243.402C160.349 243.282 160.568 242.049 159.683 241.806C150.197 239.199 140.711 236.592 131.225 233.985C130.347 233.743 129.468 233.501 128.589 233.26C128.512 233.803 128.441 234.347 128.374 234.892C129.198 235.119 130.022 235.345 130.846 235.572C139.963 238.077 149.079 240.583 158.194 243.088Z" fill="#3A93AF"/>
<path d="M99.0171 85.2802C99.3067 85.3698 99.6072 85.4369 99.9207 85.4719C100.617 85.5496 101.293 85.4877 101.941 85.3219C103.247 84.9882 104.438 84.2261 105.432 83.2875C108.443 80.443 110.504 76.1014 110.581 71.9424C110.655 68.0093 108.183 63.7732 103.886 63.5551C100.501 63.3835 98.6092 65.6389 97.5306 68.3846C97.488 68.4431 97.4472 68.505 97.4103 68.5749C95.431 72.2948 93.8889 77.6056 95.4641 81.7377C96.0945 83.3915 97.3485 84.7634 99.0171 85.2802Z" fill="#FCE6A3"/>
<path d="M348.372 190.19C345.282 187.961 341.754 188.548 338.714 190.218C338.532 190.228 338.344 190.273 338.152 190.362C336.428 191.163 334.921 192.371 333.735 193.837C332.345 195.555 331.398 197.63 331.085 199.842C330.828 201.658 330.971 203.62 331.952 205.191C332.095 205.42 332.256 205.641 332.435 205.851C333.769 207.413 335.895 208.068 337.892 208.102C342.56 208.182 346.427 205.025 348.839 201.283C351.143 197.709 352.37 193.075 348.372 190.19Z" fill="#F9D979"/>
<path d="M228.791 44.7552C230.822 42.3473 230.341 38.3288 227.81 36.4608C225.792 34.9724 223.113 35.1454 221.145 36.4593C221.018 36.5039 220.893 36.5715 220.774 36.6741C220.613 36.8136 220.463 36.9632 220.32 37.119C220.01 37.4142 219.727 37.7431 219.484 38.1045C219.344 38.3121 219.293 38.5168 219.302 38.7071C218.401 40.7798 218.659 43.3549 220.287 45.0456C222.538 47.3835 226.709 47.2239 228.791 44.7552ZM222.069 38.4147C223.363 37.3836 225.363 37.1908 226.681 38.2972C228.157 39.5354 228.35 42.1005 227.028 43.5079C225.712 44.9076 223.13 44.933 221.809 43.5232C220.446 42.0679 220.757 39.7583 222.069 38.4147Z" fill="#FAFAFA"/>
<path d="M132.44 127.229C134.471 124.821 133.991 120.802 131.459 118.934C129.441 117.446 126.762 117.619 124.794 118.933C124.667 118.978 124.542 119.045 124.423 119.148C124.262 119.287 124.112 119.437 123.97 119.593C123.659 119.888 123.377 120.217 123.133 120.578C122.993 120.786 122.942 120.99 122.951 121.181C122.05 123.253 122.309 125.829 123.936 127.519C126.187 129.857 130.358 129.697 132.44 127.229ZM125.718 120.888C127.012 119.857 129.011 119.664 130.33 120.77C131.806 122.009 131.999 124.574 130.676 125.981C129.361 127.381 126.779 127.406 125.458 125.996C124.095 124.541 124.405 122.232 125.718 120.888Z" fill="white"/>
<path d="M336.721 259.622C334.704 258.134 332.025 258.307 330.056 259.62C329.929 259.665 329.804 259.733 329.685 259.835C329.524 259.975 329.374 260.124 329.232 260.28C328.921 260.576 328.639 260.904 328.395 261.266C328.255 261.473 328.204 261.678 328.214 261.868C327.312 263.94 327.571 266.516 329.198 268.206C331.449 270.544 335.621 270.385 337.703 267.916C339.734 265.508 339.253 261.49 336.721 259.622ZM335.94 266.669C334.624 268.069 332.042 268.094 330.721 266.684C329.358 265.229 329.669 262.919 330.981 261.575C332.275 260.545 334.275 260.352 335.593 261.458C337.069 262.696 337.262 265.262 335.94 266.669Z" fill="white"/>
</svg>
